<svg width="14" height="14" viewBox="0 0 14 14" fill="none" xmlns="http://www.w3.org/2000/svg">
<path d="M5.26843 10.1315C5.19065 10.0343 5.14933 9.92738 5.14447 9.81071C5.13961 9.69405 5.18093 9.59196 5.26843 9.50446L7.8351 6.9378L5.25385 4.35655C5.17607 4.27877 5.13961 4.17426 5.14447 4.04301C5.14933 3.91176 5.19065 3.80724 5.26843 3.72946C5.36565 3.63224 5.47017 3.58606 5.58197 3.59092C5.69378 3.59578 5.79343 3.64196 5.88093 3.72946L8.78301 6.63155C8.83163 6.68016 8.86565 6.72877 8.8851 6.77738C8.90454 6.82599 8.91426 6.87946 8.91426 6.9378C8.91426 6.99613 8.90454 7.0496 8.8851 7.09821C8.86565 7.14683 8.83163 7.19544 8.78301 7.24405L5.89551 10.1315C5.80801 10.219 5.70593 10.2604 5.58926 10.2555C5.4726 10.2506 5.36565 10.2093 5.26843 10.1315Z" fill="white"/>
</svg>
