<svg width="16" height="16" viewBox="0 0 16 16" fill="none" xmlns="http://www.w3.org/2000/svg">
<g clip-path="url(#clip0_1212_4262)">
<path d="M4.16676 13C3.09943 13 2.1501 12.3167 1.80543 11.2993L1.7821 11.2227C1.70076 10.9533 1.66676 10.7267 1.66676 10.5V5.95465L0.0494292 11.3533C-0.158571 12.1473 0.315429 12.9707 1.11076 13.19L11.4194 15.9507C11.5481 15.984 11.6768 16 11.8034 16C12.4674 16 13.0741 15.5593 13.2441 14.91L13.8448 13H4.16676Z" fill="white"/>
<path d="M6.00008 5.99998C6.73541 5.99998 7.33341 5.40198 7.33341 4.66665C7.33341 3.93131 6.73541 3.33331 6.00008 3.33331C5.26475 3.33331 4.66675 3.93131 4.66675 4.66665C4.66675 5.40198 5.26475 5.99998 6.00008 5.99998Z" fill="white"/>
<path d="M14.3334 1.33331H4.33341C3.41475 1.33331 2.66675 2.08131 2.66675 2.99998V10.3333C2.66675 11.252 3.41475 12 4.33341 12H14.3334C15.2521 12 16.0001 11.252 16.0001 10.3333V2.99998C16.0001 2.08131 15.2521 1.33331 14.3334 1.33331ZM4.33341 2.66665H14.3334C14.5174 2.66665 14.6667 2.81598 14.6667 2.99998V7.73265L12.5607 5.27531C12.3374 5.01331 12.0141 4.87331 11.6667 4.86531C11.3214 4.86731 10.9974 5.02065 10.7761 5.28598L8.30008 8.25798L7.49341 7.45331C7.03741 6.99731 6.29541 6.99731 5.84008 7.45331L4.00008 9.29265V2.99998C4.00008 2.81598 4.14941 2.66665 4.33341 2.66665Z" fill="white"/>
</g>
<defs>
<clipPath id="clip0_1212_4262">
<rect width="16" height="16" fill="white"/>
</clipPath>
</defs>
</svg>
