<svg width="29" height="2" viewBox="0 0 29 2" fill="none" xmlns="http://www.w3.org/2000/svg">
<path d="M25.9277 1.79783C22.9419 1.69887 19.9775 1.28652 17.0131 1.36899C13.5546 1.36899 10.1391 1.22049 6.7021 1.10503C4.70436 1.02257 2.72812 0.857665 0.751853 0.725717C0.482527 0.701396 0.224701 0.627863 0 0.511294C0 0.511294 0 0.263871 0 0.181404C0.113123 0.0774274 0.27535 0.0121986 0.451085 0C3.19667 0.362572 5.99471 0.42918 8.76427 0.197914C9.49463 0.197914 10.225 0.197942 10.9124 0.32989C13.9609 0.626586 17.0382 0.709335 20.1063 0.577231C20.4604 0.519327 20.8263 0.519327 21.1804 0.577231C22.9186 0.991572 24.763 1.0709 26.5506 0.808164C27.2657 0.767017 27.9837 0.767017 28.6988 0.808164C28.6988 0.808164 28.978 0.989564 28.9995 1.08853C29.0038 1.15077 28.986 1.21276 28.9482 1.26792C28.9104 1.32307 28.8539 1.36934 28.7847 1.40191C28.4851 1.54546 28.1475 1.63569 27.7966 1.66586C27.1522 1.66586 26.5292 1.66586 25.8847 1.66586L25.9277 1.79783Z" fill="white"/>
</svg>
