<svg width="24" height="16" viewBox="0 0 24 16" fill="none" xmlns="http://www.w3.org/2000/svg">
<path d="M23.7848 0.164668C23.5592 0.441278 23.3085 0.705276 23.0344 0.954754C21.3836 2.33746 19.6257 3.63787 17.8892 4.97119C16.1527 6.30451 14.9521 7.14401 13.43 8.26335C11.9078 9.38268 10.4071 10.4033 8.86356 11.4074L4.01843 14.502C3.9569 14.5546 3.88445 14.5991 3.80403 14.6337C2.81785 15.0616 1.66018 15.2263 0.866955 15.9999C0.866955 15.9999 0.309581 15.9999 0.159511 15.9012C0.0856809 15.8273 0.035569 15.7411 0.0132205 15.6496C-0.00912799 15.5581 -0.00307893 15.4638 0.0308854 15.3744C0.131805 15.1865 0.303459 15.026 0.52393 14.9135C2.1747 13.9423 3.71832 12.8559 5.32621 11.8518L10.1713 8.83944C12.8725 7.19336 15.4666 5.54735 17.9535 3.67082C18.1722 3.45051 18.4323 3.25629 18.7253 3.09464C19.9568 2.53639 21.0464 1.81139 21.9411 0.954754C22.3797 0.614881 22.845 0.29601 23.3346 0L23.7848 0.164668Z" fill="white"/>
</svg>
