<svg width="16" height="16" viewBox="0 0 16 16" fill="none" xmlns="http://www.w3.org/2000/svg">
<path d="M11.7201 1.81995C10.5791 0.887584 9.1305 0.415927 7.65926 0.497759C6.18801 0.579592 4.80064 1.20899 3.77005 2.26215C2.73946 3.3153 2.14026 4.71598 2.09031 6.18865C2.04036 7.66132 2.54328 9.09938 3.50014 10.2199C4.49208 11.3373 5.37602 12.546 6.14014 13.8299L6.62014 14.6899C6.75729 14.9355 6.95749 15.1401 7.20008 15.2825C7.44267 15.4248 7.71886 15.4999 8.00014 15.4999C8.28143 15.4999 8.55762 15.4248 8.80021 15.2825C9.0428 15.1401 9.243 14.9355 9.38015 14.6899L9.94015 13.6799C10.6665 12.4579 11.5141 11.3121 12.4701 10.2599C12.9883 9.66255 13.3808 8.9669 13.6242 8.21451C13.8677 7.46212 13.957 6.66841 13.887 5.88072C13.8171 5.09303 13.5891 4.32751 13.2168 3.62983C12.8445 2.93216 12.3355 2.31662 11.7201 1.81995ZM8.00014 8.06995C7.67183 8.06995 7.35088 7.97259 7.0779 7.79019C6.80491 7.60778 6.59215 7.34853 6.4665 7.0452C6.34086 6.74188 6.30799 6.40811 6.37204 6.0861C6.43609 5.76409 6.59419 5.46831 6.82635 5.23615C7.0585 5.004 7.35429 4.8459 7.67629 4.78185C7.9983 4.7178 8.33207 4.75067 8.6354 4.87631C8.93873 5.00195 9.19798 5.21472 9.38038 5.4877C9.56279 5.76069 9.66015 6.08163 9.66015 6.40995C9.66069 6.6281 9.61812 6.8442 9.53489 7.04584C9.45166 7.24749 9.3294 7.4307 9.17515 7.58495C9.0209 7.7392 8.83768 7.86146 8.63604 7.94469C8.43439 8.02792 8.21829 8.07049 8.00014 8.06995Z" fill="#969696"/>
</svg>
