<svg width="343" height="2" viewBox="0 0 343 2" fill="none" xmlns="http://www.w3.org/2000/svg">
<g clip-path="url(#clip0_1212_5649)">
<path d="M171.244 0.882164C171.482 1.00905 170.65 1.16313 169.715 1.18428C168.622 1.22375 167.495 1.22375 166.402 1.18428C165.817 1.13806 165.178 1.11751 164.54 1.12434C163.901 1.13118 163.281 1.1652 162.731 1.22356C162.363 1.25847 161.951 1.27674 161.533 1.27674C161.116 1.27674 160.704 1.25847 160.336 1.22356C158.294 1.08387 156.025 1.09146 154.014 1.24471C152.4 1.33534 150.718 1.14501 149.104 1.27794C149.035 1.29103 148.953 1.30146 148.861 1.3086C148.768 1.31574 148.669 1.31942 148.569 1.31942C148.468 1.31942 148.369 1.31574 148.277 1.3086C148.185 1.30146 148.102 1.29103 148.033 1.27794C141.865 1.23565 135.748 1.43202 129.563 1.429C125.299 1.38573 121.022 1.41202 116.785 1.50754C116.231 1.53296 115.654 1.53912 115.086 1.52567C110.311 1.34138 105.502 1.48338 100.711 1.48036C98.486 1.49146 96.2734 1.41834 94.2197 1.26586L93.9818 1.23262L94.1857 1.2719C93.8629 1.38368 93.4041 1.51661 92.6565 1.48036C89.2581 1.30815 85.8597 1.39576 82.4613 1.38368C81.4885 1.41008 80.4942 1.37706 79.6406 1.29002C79.5068 1.26352 79.343 1.24233 79.16 1.22782C78.9771 1.2133 78.779 1.2058 78.5786 1.2058C78.3783 1.2058 78.1802 1.2133 77.9972 1.22782C77.8142 1.24233 77.6505 1.26352 77.5166 1.29002C75.6028 1.49388 73.3538 1.57492 71.1446 1.51963C68.8337 1.50453 66.4379 1.33232 64.3478 1.64954C62.0879 1.34742 59.2502 1.85195 56.9903 1.48639C56.6675 1.43503 55.563 1.42295 55.478 1.45317C54.5265 1.78247 53.2011 1.56193 52.0796 1.54984C50.5334 1.5287 49.7687 1.67371 49.5648 1.93655C49.8318 1.94051 50.0917 1.95386 50.3294 1.97583C50.5843 2.01208 50.4484 2.05437 50.0916 2.03927C49.7347 2.02416 49.7177 1.97885 49.5308 1.94561C47.4578 1.82477 45.8436 1.54078 43.4477 1.51057C41.9354 1.49244 40.678 1.22658 39.5225 1.66163C39.1827 1.79154 37.3476 1.57099 36.1242 1.55891L35.8863 1.53172L36.0392 1.57099C36.0392 1.67371 35.7164 1.82175 35.2576 1.74924C33.6773 1.50755 31.5873 1.57401 29.8201 1.41087C27.5602 1.20241 24.8245 1.46222 22.1907 1.41087C17.382 1.30513 12.4883 1.41087 7.81552 1.04833C5.87108 0.89957 3.71088 0.864649 1.64744 0.94863C1.00174 0.978842 0.254098 0.975826 -0.0517578 0.821747C2.2467 0.60548 4.85581 0.516065 7.4417 0.564948C7.67959 0.564948 8.12138 0.564948 8.17236 0.564948C9.48074 0.102712 11.095 0.447125 12.6243 0.501506C12.8452 0.501506 13.117 0.468276 13.3719 0.447128C12.8961 0.389726 11.9106 0.326279 12.5563 0.217517C13.202 0.108756 13.4908 0.287001 13.8137 0.374614C14.5443 0.299085 15.3939 0.217517 16.1756 0.302109C18.9623 0.604224 21.732 0.453166 24.5016 0.320235L24.2808 0.290022L24.5526 0.314196C25.1378 0.391218 25.8466 0.432791 26.5747 0.432791C27.3027 0.432791 28.0115 0.391218 28.5967 0.314196L29.1065 0.283983L28.9026 0.371599C28.9026 0.462233 28.7157 0.552866 28.6307 0.6435L28.4608 0.682777L28.6987 0.658602C29.8525 0.59122 30.8109 0.445793 31.3664 0.25377C32.4539 -0.048345 33.0656 -0.00906897 34.6119 0.377638C34.4929 0.422955 33.8642 0.438061 34.34 0.519632L34.6459 0.383677L36.1242 0.504521L36.7359 0.459206L36.447 0.564948C36.8888 0.634434 37.6194 0.685795 37.9253 0.613287C38.9618 0.368574 39.4886 -0.0694897 41.7485 0.398788C42.5131 0.0966734 43.9914 0.175218 45.2658 0.223556C47.101 0.296064 45.8096 0.453161 45.4697 0.58005L45.3168 0.625374L45.5207 0.589122C48.0016 0.84592 49.6838 0.670692 50.8052 0.238668C51.7909 0.46741 53.1688 0.632852 54.7304 0.709966C55.8349 0.595162 54.3226 0.407847 55.546 0.280959C58.2137 0.622349 61.2043 0.912381 64.8236 0.679753C64.5008 0.287004 64.5008 0.287004 67.3384 0.377638L67.8142 0.338362C67.8142 0.368573 67.6613 0.395766 67.5763 0.425977C67.3384 0.728092 65.7072 0.57703 64.9086 0.694855C65.0785 0.99697 66.6078 0.770389 67.2025 0.861023C69.0036 0.398788 72.538 0.818726 74.6959 0.368575C75.7325 0.154073 77.8564 0.489417 79.3517 0.619326C80.847 0.749235 81.8156 0.945612 82.7501 0.507545C83.2939 0.250748 84.2794 0.453166 85.061 0.546822C85.8427 0.640477 86.2165 0.812687 87.1341 0.664651C87.7798 0.55891 87.6268 0.268878 88.9522 0.341386C90.2776 0.413893 90.2096 0.643502 90.6514 0.824771C90.9063 0.912384 91.0422 1.00906 91.2801 1.12689C91.8069 0.867067 92.6055 0.682776 94.2877 0.709966L94.5256 0.746218L94.4236 0.637452C94.1518 0.52567 94.0328 0.30513 94.7805 0.377638C96.4073 0.554392 98.3549 0.612827 100.218 0.540783C101.169 0.50755 101.407 0.842891 102.648 0.76132C103.191 0.178239 103.191 0.178241 106.165 0.555885L105.927 0.592137L106.199 0.564948C107.507 0.625371 108.034 0.867064 109.02 0.990931C109.648 0.854979 109.241 0.719025 109.02 0.583074C108.663 0.323255 109.852 0.223559 110.719 0.302109C112.316 0.46223 114.253 0.380655 115.715 0.561924C117.176 0.743192 117.601 0.755283 117.754 0.416914C117.754 0.305132 118.688 0.335344 119.13 0.389725C120.166 0.519634 121.611 0.29607 122.715 0.616311C123.446 0.82477 123.905 0.268879 125.638 0.314196C126.827 0.338366 127.898 0.29002 127.949 0.58005C127.949 0.939566 129.648 0.821746 130.684 0.857999C130.95 0.851731 131.192 0.828017 131.364 0.791534C130.837 0.528694 130.362 0.326281 132.91 0.380662C134.61 0.416916 134.949 0.743193 136.309 0.770383C137.668 0.797574 136.445 0.447127 137.515 0.380662C138.586 0.314197 139.35 0.459206 140.183 0.534734C141.01 0.626364 141.945 0.682768 142.914 0.699538C143.884 0.716309 144.863 0.692994 145.773 0.631413L146.011 0.664651L145.841 0.619326C145.85 0.565395 145.932 0.512627 146.079 0.465503C146.227 0.418378 146.437 0.378295 146.69 0.348642C146.944 0.318989 147.234 0.300647 147.535 0.295176C147.837 0.289705 148.142 0.297261 148.424 0.317211C150.004 0.486396 151.381 0.353465 152.774 0.317211C154.167 0.280958 155.459 0.199391 156.02 0.586098C156.376 0.836853 157.515 0.652558 158.262 0.561924C158.205 0.51919 158.165 0.475775 158.144 0.432016C158.144 0.416911 158.33 0.401807 158.432 0.386701C158.551 0.349144 158.722 0.317515 158.927 0.294733C159.133 0.271952 159.368 0.25875 159.61 0.256342C159.852 0.253934 160.094 0.262401 160.313 0.280959C160.531 0.299517 160.72 0.327573 160.862 0.362536C161.31 0.453853 161.902 0.519114 162.561 0.549846L162.782 0.510569L162.918 0.534734L162.68 0.570987C163.816 0.656559 164.912 0.757564 165.96 0.873101C168.152 1.15105 168.118 0.812684 168.56 0.595161L168.73 0.549846L168.509 0.586098C168.084 0.6435 167.574 0.758303 167.234 0.746218C166.572 0.719028 166.741 0.586095 166.996 0.507545C167.155 0.437484 167.45 0.379818 167.827 0.344926C168.204 0.310034 168.638 0.300205 169.052 0.317211C170.48 0.395761 170.888 0.667663 171.244 0.882164ZM15.8187 0.540783V0.492443L15.6828 0.531719L15.8187 0.540783ZM71.1956 0.999994L71.0936 0.939567C70.9917 0.939567 70.8388 0.939575 70.7708 0.966765C70.7028 0.993956 70.5839 1.04229 70.9407 1.04229C71.0257 1.03927 71.1106 0.999994 71.1956 0.999994ZM84.3304 0.981867C84.0755 0.942593 83.8546 0.9577 83.7867 1.02114C83.7867 1.02114 83.9056 1.06948 83.9566 1.06646C84.0819 1.0632 84.1996 1.05379 84.2964 1.03927C84.3134 1.01812 84.3814 0.999991 84.3304 0.978843V0.981867ZM110.855 0.719029H110.651V0.767369L110.855 0.719029ZM140.132 0.915402C140.132 0.891233 140.132 0.864042 140.132 0.848936C140.103 0.838045 140.058 0.828842 140 0.822392C139.943 0.815943 139.877 0.812518 139.809 0.812518C139.741 0.812518 139.675 0.815943 139.618 0.822392C139.561 0.828842 139.515 0.838045 139.486 0.848936C139.458 0.858752 139.443 0.869629 139.443 0.880662C139.443 0.891694 139.458 0.902562 139.486 0.912378C139.673 0.960716 139.911 0.954674 140.132 0.912378V0.915402ZM148.628 1.19939L148.441 1.16918L148.271 1.20543L148.628 1.19939ZM152.893 0.649539H152.689V0.694855L152.893 0.649539ZM158.619 0.435041L158.347 0.395764C158.369 0.426959 158.414 0.457465 158.483 0.486395L158.619 0.435041Z" fill="#FFE500"/>
<path d="M257.547 0.377621C257.547 0.607228 258.159 0.93351 255.525 0.942574C252.217 0.91944 248.904 0.929528 245.602 0.972787C242.305 1.05134 238.975 1.04832 235.661 1.09666C234.274 1.12502 232.869 1.10239 231.532 1.03019C230.628 0.968269 229.662 0.939299 228.693 0.945008C227.724 0.950717 226.771 0.990983 225.891 1.06342C223.597 1.24167 220.929 1.12082 218.551 1.11478C208.967 1.09968 199.401 1.27792 189.817 1.18729C188.564 1.18501 187.314 1.21038 186.096 1.26281C184.618 1.31417 183.02 1.3746 181.865 1.10572L182.731 0.978826L182.884 0.936535L182.63 0.9607L181.814 1.09363C181.202 1.17822 180.981 1.39575 179.911 1.31115C178.174 1.23934 176.406 1.19287 174.626 1.17218C173.879 1.14197 172.842 1.22052 172.621 1.01508C172.419 0.909821 172.359 0.797632 172.444 0.687471C172.53 0.577309 172.759 0.472237 173.114 0.380645C173.223 0.355359 173.37 0.335959 173.537 0.324607C173.705 0.313254 173.887 0.310395 174.063 0.316346C174.239 0.322296 174.403 0.336818 174.535 0.358305C174.667 0.379792 174.764 0.407403 174.813 0.438047C175.408 0.679739 176.801 0.555866 177.719 0.649522L177.957 0.676711L177.787 0.637435C177.894 0.564793 178.107 0.498527 178.406 0.445432C178.705 0.392337 179.077 0.354328 179.486 0.33532C180.387 0.290003 181.185 0.271877 180.845 0.525654C180.506 0.77943 181.457 0.685777 181.984 0.622333C184.244 0.35043 184.227 0.347411 185.586 0.794541C187.285 0.510553 188.985 0.129887 191.771 0.350431C192.468 0.404812 191.414 0.540759 191.533 0.694837C194.439 0.483357 197.226 0.223543 200.437 0.283966L201.032 0.241665C200.93 0.274898 200.845 0.308129 200.743 0.344383C201.678 0.697857 201.949 0.719013 202.561 0.465236C203.173 0.21146 203.853 0.214482 204.617 0.371582C204.998 0.457604 205.508 0.522589 206.089 0.558965C206.67 0.595341 207.297 0.601606 207.897 0.577017C208.389 0.577017 209.12 0.631396 209.103 0.480339C209.103 0.253752 209.868 0.126864 210.802 0.178224C212.705 0.256774 215.067 0.00299372 216.512 0.410849L216.274 0.450125L216.529 0.413873C218.126 0.362513 218.856 0.685777 220.641 0.688798C220.556 0.528678 218.941 0.43502 219.774 0.280942C220.607 0.126863 221.252 0.280941 221.864 0.374596C222.476 0.468252 222.951 0.583058 223.563 0.471275C224.991 0.241668 226.214 0.114784 227.743 0.456173C228.168 0.55285 228.559 0.389707 228.984 0.341368C230.405 0.178072 232.097 0.106383 233.78 0.138274C235.462 0.170165 237.032 0.303701 238.227 0.516591H236.664L236.426 0.489402L236.596 0.528678C236.692 0.552985 236.819 0.572837 236.967 0.586542C237.115 0.600247 237.279 0.607397 237.446 0.607397C237.612 0.607397 237.777 0.600247 237.925 0.586542C238.073 0.572837 238.2 0.552985 238.295 0.528678L238.618 0.489402C242.22 0.0483139 242.441 0.0513351 245.024 0.56493L245.245 0.601183L245.075 0.555867C245.075 0.368556 244.344 0.0332104 246.774 0.283966C247.471 0.356473 248.321 0.661609 249.17 0.302092C249.17 0.302092 248.983 0.265834 249 0.250728C249.017 0.235623 249.221 0.211453 249.425 0.250728C249.995 0.17777 250.666 0.133635 251.366 0.122997C252.066 0.112359 252.769 0.135619 253.401 0.190311C253.979 0.244692 254.404 0.353447 255.219 0.250728C256.035 0.148009 257.547 0.0634211 257.547 0.377621ZM212.128 0.580032C212.016 0.570778 211.894 0.565644 211.771 0.56493C211.312 0.56493 211.278 0.598163 211.771 0.631396C211.891 0.640126 212.025 0.640126 212.145 0.631396C212.145 0.631396 212.094 0.595138 212.111 0.580032H212.128ZM231.566 0.561906C231.566 0.5468 231.43 0.525657 231.346 0.519615C231.261 0.513573 231.04 0.519615 230.972 0.519615C230.904 0.519615 230.819 0.580032 231.21 0.580032C231.327 0.576917 231.442 0.570813 231.549 0.561906H231.566Z" fill="#FFE500"/>
<path d="M343 0.53472C342.796 0.773391 341.709 0.749221 340.774 0.779433C333.552 1.003 326.28 0.879136 319.041 0.803607C313.655 0.749226 308.2 0.888195 302.848 0.685778C297.275 1.15708 291.344 0.719017 285.567 0.891223C280.469 1.03926 275.253 0.906329 270.087 0.891223C268.694 0.504516 267.691 0.873094 266.434 0.927475C264.378 1.01204 262.231 0.993203 260.232 0.873087C257.904 0.734115 258.822 0.413879 258.907 0.132912C260.861 0.0332139 261.269 0.435021 262.764 0.486381L263.376 0.570973C263.63 0.468254 262.934 0.516599 262.866 0.46524C262.866 0.329288 263.002 0.196356 263.834 0.199377C265.686 0.199377 267.59 -0.0332524 269.374 0.23563L270.325 0.377624C270.988 0.507533 272.024 0.49243 272.823 0.549832L273.027 0.577021L272.908 0.53472C272.159 0.439389 271.278 0.381968 270.359 0.368561C270.53 0.304019 270.781 0.247218 271.094 0.202448C271.406 0.157677 271.772 0.126102 272.163 0.110102C272.554 0.0941021 272.96 0.0940963 273.351 0.110084C273.742 0.126071 274.108 0.157632 274.42 0.202392C275.423 0.371577 275.525 0.447105 276.646 0.202392C277.768 -0.0423207 278.006 0.335326 278.719 0.413876C278.909 0.444706 279.121 0.471105 279.348 0.492429C279.654 0.513577 280.028 0.555868 280.266 0.468255L279.535 0.428978L278.787 0.398774C278.906 0.132913 279.926 0.0573846 281.149 0.0966595C285.431 0.271886 289.764 0.132913 294.029 0.0966595C309.118 0.00602505 324.173 0.184267 339.245 0.232606C339.962 0.224371 340.68 0.247623 341.334 0.300307C341.989 0.35299 342.561 0.433488 343 0.53472ZM283.851 0.510555H283.579L283.817 0.531706L283.851 0.510555ZM292.959 0.543783L292.177 0.495444L291.973 0.456177L292.109 0.504507C292.398 0.516592 292.534 0.634418 292.959 0.543783Z" fill="#FFE500"/>
<path d="M20.1866 0.0936507C20.1866 0.03927 19.9147 0.0241632 19.6259 0.0453112L19.269 0.154077C19.4729 0.172204 19.7448 0.208456 19.8808 0.199393C19.9754 0.187369 20.0525 0.171501 20.1057 0.153109C20.1589 0.134718 20.1866 0.114332 20.1866 0.0936507Z" fill="#FFE500"/>
<path d="M142.801 0.528724C142.801 0.489449 143.056 0.441106 142.988 0.410895C142.921 0.393883 142.832 0.380038 142.728 0.370558C142.625 0.361078 142.509 0.356255 142.393 0.356516C142.104 0.356516 142.002 0.416941 142.206 0.462258C142.382 0.490221 142.583 0.512693 142.801 0.528724Z" fill="#FFE500"/>
<path d="M27.7968 1.58612L27.8474 1.53174L27.5098 1.54987L27.7968 1.58612Z" fill="#FFE500"/>
<path d="M58.9961 0.31422C59.183 0.377664 59.3529 0.383699 59.4209 0.335361C59.4889 0.287023 59.251 0.305151 59.149 0.290046C59.0471 0.27494 58.8262 0.226602 58.7752 0.271919C58.7242 0.317237 58.9281 0.299114 58.9961 0.31422Z" fill="#FFE500"/>
</g>
<defs>
<clipPath id="clip0_1212_5649">
<rect width="343" height="2" fill="white"/>
</clipPath>
</defs>
</svg>
