<svg width="16" height="16" viewBox="0 0 16 16" fill="none" xmlns="http://www.w3.org/2000/svg">
<g clip-path="url(#clip0_1212_2953)">
<path d="M8 0C3.58891 0 0 3.58872 0 8C0 12.4113 3.58891 16 8 16C12.4113 16 16 12.4113 16 8C16 3.58872 12.4111 0 8 0ZM8 14.8321C4.23281 14.8321 1.16788 11.7672 1.16788 8C1.16788 4.23281 4.23281 1.16788 8 1.16788C11.7672 1.16788 14.8321 4.23278 14.8321 7.99981C14.8321 11.7672 11.7672 14.8321 8 14.8321Z" fill="#00BF91"/>
<path d="M10.7251 8.00001H8.19473V4.49635C8.19473 4.17382 7.93332 3.91241 7.61079 3.91241C7.28826 3.91241 7.02686 4.17382 7.02686 4.49635V8.58395C7.02686 8.90648 7.28826 9.16788 7.61079 9.16788H10.7251C11.0477 9.16788 11.3091 8.90648 11.3091 8.58395C11.3091 8.26142 11.0477 8.00001 10.7251 8.00001Z" fill="#00BF91"/>
</g>
<defs>
<clipPath id="clip0_1212_2953">
<rect width="16" height="16" fill="white"/>
</clipPath>
</defs>
</svg>
