<svg width="24" height="24" viewBox="0 0 24 24" fill="none" xmlns="http://www.w3.org/2000/svg">
<path d="M21.75 12.75H6.75C6.55109 12.75 6.36032 12.671 6.21967 12.5303C6.07902 12.3897 6 12.1989 6 12C6 11.8011 6.07902 11.6103 6.21967 11.4697C6.36032 11.329 6.55109 11.25 6.75 11.25H21.75C21.9489 11.25 22.1397 11.329 22.2803 11.4697C22.421 11.6103 22.5 11.8011 22.5 12C22.5 12.1989 22.421 12.3897 22.2803 12.5303C22.1397 12.671 21.9489 12.75 21.75 12.75ZM3 10.5C2.70333 10.5 2.41332 10.588 2.16665 10.7528C1.91997 10.9176 1.72771 11.1519 1.61418 11.426C1.50065 11.7001 1.47094 12.0017 1.52882 12.2926C1.5867 12.5836 1.72956 12.8509 1.93934 13.0607C2.14912 13.2704 2.41639 13.4133 2.70737 13.4712C2.99834 13.5291 3.29994 13.4994 3.57403 13.3858C3.84812 13.2723 4.08238 13.08 4.24721 12.8334C4.41203 12.5867 4.5 12.2967 4.5 12C4.5 11.6022 4.34197 11.2206 4.06066 10.9393C3.77936 10.658 3.39783 10.5 3 10.5ZM22.5 5.25C22.5 5.05109 22.421 4.86032 22.2803 4.71967C22.1397 4.57902 21.9489 4.5 21.75 4.5H6.75C6.55109 4.5 6.36032 4.57902 6.21967 4.71967C6.07902 4.86032 6 5.05109 6 5.25C6 5.44891 6.07902 5.63968 6.21967 5.78033C6.36032 5.92098 6.55109 6 6.75 6H21.75C21.9489 6 22.1397 5.92098 22.2803 5.78033C22.421 5.63968 22.5 5.44891 22.5 5.25ZM4.5 5.25C4.5 4.95333 4.41203 4.66332 4.24721 4.41665C4.08238 4.16997 3.84812 3.97771 3.57403 3.86418C3.29994 3.75065 2.99834 3.72094 2.70737 3.77882C2.41639 3.8367 2.14912 3.97956 1.93934 4.18934C1.72956 4.39912 1.5867 4.66639 1.52882 4.95737C1.47094 5.24834 1.50065 5.54994 1.61418 5.82403C1.72771 6.09812 1.91997 6.33238 2.16665 6.49721C2.41332 6.66203 2.70333 6.75 3 6.75C3.39783 6.75 3.77936 6.59197 4.06066 6.31066C4.34197 6.02936 4.5 5.64783 4.5 5.25ZM22.5 18.75C22.5 18.5511 22.421 18.3603 22.2803 18.2197C22.1397 18.079 21.9489 18 21.75 18H6.75C6.55109 18 6.36032 18.079 6.21967 18.2197C6.07902 18.3603 6 18.5511 6 18.75C6 18.9489 6.07902 19.1397 6.21967 19.2803C6.36032 19.421 6.55109 19.5 6.75 19.5H21.75C21.9489 19.5 22.1397 19.421 22.2803 19.2803C22.421 19.1397 22.5 18.9489 22.5 18.75ZM4.5 18.75C4.5 18.4533 4.41203 18.1633 4.24721 17.9166C4.08238 17.67 3.84812 17.4777 3.57403 17.3642C3.29994 17.2507 2.99834 17.2209 2.70737 17.2788C2.41639 17.3367 2.14912 17.4796 1.93934 17.6893C1.72956 17.8991 1.5867 18.1664 1.52882 18.4574C1.47094 18.7483 1.50065 19.0499 1.61418 19.324C1.72771 19.5981 1.91997 19.8324 2.16665 19.9972C2.41332 20.162 2.70333 20.25 3 20.25C3.39783 20.25 3.77936 20.092 4.06066 19.8107C4.34197 19.5294 4.5 19.1478 4.5 18.75Z" fill="#00BF91"/>
</svg>
