<svg width="14" height="14" viewBox="0 0 14 14" fill="none" xmlns="http://www.w3.org/2000/svg">
<path d="M6.66029 14C7.61954 14.004 8.4365 13.2888 8.57934 12.32H4.73435C4.88837 13.2853 5.7027 13.9956 6.66029 14Z" fill="#FF8181"/>
<path d="M11.698 9.24001H11.6295C11.251 9.24001 10.9441 8.92663 10.9441 8.54003V5.96404C10.9416 4.3755 10.0935 2.91401 8.73035 2.14906C8.62863 2.09932 8.56069 1.99789 8.55214 1.88305C8.53338 0.831976 7.68975 -0.00778765 6.66049 5.44802e-05C5.62564 0.0112435 4.78731 0.861245 4.76884 1.91803C4.76055 2.02907 4.69896 2.12868 4.60435 2.18404C3.22686 2.93862 2.36418 4.4026 2.35631 5.99902V8.61701C2.35631 9.0036 2.04946 9.31699 1.67094 9.31699C1.04147 9.32467 0.536235 9.85006 0.540058 10.493C0.540058 10.4977 0.54009 10.5024 0.540155 10.5071C0.547737 11.1642 1.07549 11.6907 1.71893 11.683H11.6227C12.2624 11.7042 12.7978 11.1149 12.8186 10.4615C12.8395 9.80816 12.3378 9.26128 11.698 9.24001Z" fill="#00BF91"/>
</svg>
