<svg width="107" height="67" viewBox="0 0 107 67" fill="none" xmlns="http://www.w3.org/2000/svg">
<path d="M105.774 0.00918215L4.59513 11.9786C4.34788 12.0059 4.11744 12.1179 3.94235 12.2958C3.76727 12.4737 3.65816 12.7068 3.63327 12.956L0.00733179 47.1631C-0.0105139 47.317 0.00430763 47.4729 0.0508152 47.6206C0.0973228 47.7682 0.174453 47.9042 0.277098 48.0196C0.379743 48.1349 0.505559 48.227 0.646209 48.2897C0.786859 48.3524 0.939135 48.3843 1.09294 48.3832H16.8148C17.1565 48.385 17.4904 48.4864 17.7762 48.6751C18.062 48.8639 18.2874 49.1319 18.4251 49.4469C18.5629 49.7618 18.6072 50.1102 18.5526 50.45C18.498 50.7897 18.3469 51.1063 18.1175 51.3614L13.8728 56.0648C13.7183 56.2281 13.6178 56.4355 13.5849 56.6586C13.5521 56.8817 13.5886 57.1096 13.6895 57.311C13.7903 57.5124 13.9505 57.6775 14.1481 57.7836C14.3457 57.8897 14.5711 57.9316 14.7934 57.9037L23.6259 57.0072C23.8575 56.9771 24.0927 57.023 24.2963 57.1382C24.5 57.2533 24.6614 57.4316 24.7564 57.6464C24.8515 57.8613 24.8753 58.1012 24.8242 58.3308C24.773 58.5603 24.6498 58.7671 24.4727 58.9205L17.3554 65.4321C17.239 65.5411 17.1674 65.6901 17.1546 65.8496C17.1418 66.0092 17.1888 66.1678 17.2862 66.2942C17.3837 66.4206 17.5247 66.5057 17.6813 66.5327C17.838 66.5597 17.999 66.5267 18.1327 66.4402L35.6632 54.7659C35.8724 54.6368 36.032 54.44 36.1159 54.2078C36.1999 53.9755 36.2032 53.7215 36.1254 53.4871C36.0475 53.2527 35.8931 53.0518 35.6873 52.9171C35.4816 52.7824 35.2366 52.722 34.9923 52.7455L27.2801 53.2156C27.0384 53.2383 26.7962 53.1788 26.5921 53.0466C26.388 52.9144 26.2337 52.7171 26.154 52.4863C26.0742 52.2554 26.0736 52.0043 26.1522 51.7731C26.2307 51.5418 26.384 51.3438 26.5875 51.2105C29.2124 49.3698 32.3343 48.383 35.5329 48.3832H98.2986C98.5592 48.3865 98.8122 48.2954 99.0115 48.1264C99.2108 47.9574 99.3431 47.7218 99.3842 47.4627L106.984 1.28397C107.013 1.11492 107.003 0.941176 106.954 0.77684C106.904 0.612503 106.817 0.462189 106.699 0.338052C106.582 0.213916 106.437 0.119447 106.276 0.0623123C106.115 0.00517753 105.943 -0.0130211 105.774 0.00918215Z" fill="white"/>
</svg>
