<svg width="12" height="12" viewBox="0 0 12 12" fill="none" xmlns="http://www.w3.org/2000/svg">
<path d="M5.55822 1.70313C5.47426 1.13945 5.45734 0.567709 5.50781 0C4.80202 0.768484 1.6122 3.50316 0.757459 4.25319C0.363495 4.58984 0.105845 5.06034 0.0333328 5.57553C-0.0195036 6.07019 -0.0094918 6.56963 0.0631239 7.06174C0.199703 8.09344 0.615513 9.06739 1.26503 9.877C1.91455 10.6866 2.77273 11.3007 3.74562 11.6519C4.2079 11.8282 4.6908 11.9437 5.18241 11.9957C5.6964 12.0286 6.20469 11.8719 6.61233 11.5549C7.51749 10.8788 10.8448 8.30792 11.7408 7.77483C11.1791 7.70421 10.6276 7.5671 10.0978 7.36635C8.8986 6.93168 7.84104 6.17363 7.04051 5.17494C6.23998 4.17624 5.72723 2.97529 5.55822 1.70313Z" fill="white"/>
</svg>
