<svg width="21" height="3" viewBox="0 0 21 3" fill="none" xmlns="http://www.w3.org/2000/svg">
<path d="M10.9757 0.595232C12.5271 1.16602 14.2257 1.46199 15.9461 1.46118C17.5762 1.55228 19.1915 1.76159 20.7703 2.08648C20.7703 2.08648 21 2.29493 21 2.39114C21 2.48735 20.812 2.66381 20.7285 2.66381C19.4336 2.66381 18.1597 2.48734 16.8858 2.37509C16.1966 2.37509 15.5283 2.15065 14.7974 2.11858C12.4598 2.01149 10.1313 1.80807 7.82214 1.50924C5.44136 1.20457 2.99795 1.09237 0.59629 0.851846C0.476795 0.829233 0.36483 0.787524 0.267683 0.729509C0.170536 0.671494 0.0903409 0.598437 0.032381 0.515076C-0.113807 0.178341 0.262103 0.0660998 0.617131 0.0179948C0.957521 -0.00599826 1.3001 -0.00599826 1.64049 0.0179948C2.32966 0.0179948 3.01884 0.178353 3.72889 0.226458C6.13056 0.386808 8.55308 0.466951 10.9547 0.595232H10.9757Z" fill="white"/>
</svg>
