<svg width="24" height="24" viewBox="0 0 24 24" fill="none" xmlns="http://www.w3.org/2000/svg">
<path d="M23 19.5H20.337C19.904 18.059 18.58 17 17 17C15.42 17 14.097 18.059 13.663 19.5H0.999984C0.447984 19.5 0 19.948 0 20.5C0 21.052 0.447984 21.5 0.999984 21.5H13.663C14.096 22.941 15.42 24 17 24C18.5799 24 19.903 22.941 20.337 21.5H23C23.5529 21.5 24 21.052 24 20.5C24 19.948 23.553 19.5 23 19.5ZM17 22C16.173 22 15.5 21.327 15.5 20.5C15.5 19.673 16.173 19 17 19C17.827 19 18.5 19.673 18.5 20.5C18.5 21.327 17.827 22 17 22Z" fill="white"/>
<path d="M23 3.49999H20.337C19.903 2.059 18.58 1 17 1C15.42 1 14.097 2.059 13.663 3.49999H0.999984C0.447984 3.49999 0 3.94797 0 4.49997C0 5.05197 0.447984 5.49996 0.999984 5.49996H13.663C14.097 6.94099 15.42 7.99999 17 7.99999C18.58 7.99999 19.903 6.94099 20.337 5.5H23C23.553 5.5 24 5.05202 24 4.50002C24 3.94802 23.553 3.49999 23 3.49999ZM17 5.99997C16.173 5.99997 15.5 5.32699 15.5 4.49997C15.5 3.67296 16.173 2.99997 17 2.99997C17.827 2.99997 18.5 3.67296 18.5 4.49997C18.5 5.32699 17.827 5.99997 17 5.99997Z" fill="white"/>
<path d="M23 11.5H10.337C9.903 10.059 8.58 9 7.00003 9C5.42006 9 4.09702 10.059 3.66305 11.5H0.999984C0.447984 11.5 0 11.948 0 12.5C0 13.052 0.447984 13.4999 0.999984 13.4999H3.663C4.09702 14.9409 5.42001 15.9999 6.99998 15.9999C8.57995 15.9999 9.903 14.9409 10.337 13.4999H23C23.5529 13.4999 24 13.052 24 12.5C24 11.948 23.553 11.5 23 11.5ZM6.99998 14C6.17297 14 5.49998 13.327 5.49998 12.5C5.49998 11.6729 6.17297 11 6.99998 11C7.827 11 8.49998 11.6729 8.49998 12.5C8.49998 13.327 7.827 14 6.99998 14Z" fill="white"/>
</svg>
