<svg width="24" height="24" viewBox="0 0 24 24" fill="none" xmlns="http://www.w3.org/2000/svg">
<path d="M19.7251 18.4424L17.0899 15.8007C18.0804 14.5255 18.6165 12.9678 18.6165 11.3282C18.6165 9.36977 17.8532 7.52975 16.472 6.14517C13.6277 3.28494 8.98424 3.28494 6.14 6.14517C3.28667 9.00541 3.28667 13.651 6.14 16.5021C7.52123 17.8867 9.35681 18.6519 11.3105 18.6519C12.9644 18.6519 14.5364 18.0962 15.8086 17.0942L18.4438 19.7358C18.6256 19.918 18.8528 20 19.089 20C19.3253 20 19.5525 19.9089 19.7342 19.7358C20.0886 19.3806 20.0886 18.8067 19.7342 18.4515L19.7251 18.4424ZM7.42127 15.2178C5.27673 13.068 5.27673 9.57927 7.42127 7.43865C8.49354 6.36379 9.90203 5.82636 11.3014 5.82636C12.7008 5.82636 14.1093 6.36379 15.1816 7.43865C16.2539 8.51352 16.79 9.86166 16.79 11.3282C16.79 12.7948 16.2175 14.1793 15.1816 15.2178C14.1457 16.2562 12.7644 16.8301 11.3014 16.8301C9.83842 16.8301 8.45719 16.2562 7.42127 15.2178Z" fill="#FF7757"/>
</svg>
