<svg width="50" height="50" viewBox="0 0 50 50" fill="none" xmlns="http://www.w3.org/2000/svg">
<g clip-path="url(#clip0_1212_21317)">
<path d="M12.0003 35.4991C10.75 35.4991 9.68753 35.9366 8.81245 36.8116C7.9377 37.6873 7.5 38.7496 7.5 39.9999C7.5 41.2502 7.93737 42.3125 8.81245 43.1882C9.68786 44.0632 10.7503 44.5007 12.0003 44.5007C13.2295 44.5007 14.2866 44.0632 15.1722 43.1882C16.0575 42.3136 16.5001 41.2502 16.5001 39.9999C16.5001 38.7496 16.0576 37.6881 15.1722 36.8116C14.2865 35.9374 13.2295 35.4991 12.0003 35.4991Z" fill="white" fill-opacity="0.4"/>
<path d="M11.0004 25.9996C11.0004 24.6247 10.5111 23.448 9.5318 22.4679C8.55264 21.4887 7.37536 20.9993 6.00041 20.9993C4.62535 20.9993 3.4483 21.4889 2.46902 22.4679C1.48996 23.4472 1.00049 24.6242 1.00049 25.9996C1.00049 27.3744 1.48985 28.5509 2.46902 29.5304C3.4483 30.5099 4.62535 30.9994 6.00041 30.9994C7.37536 30.9994 8.55264 30.5099 9.5318 29.5304C10.5111 28.5515 11.0004 27.3744 11.0004 25.9996Z" fill="white" fill-opacity="0.4"/>
<path d="M39.9997 14.5003C40.6867 14.5003 41.2762 14.2552 41.7651 13.7658C42.2547 13.276 42.5 12.6873 42.5 11.9999C42.5 11.3122 42.2547 10.7239 41.7651 10.2344C41.2759 9.74461 40.6867 9.49988 39.9997 9.49988C39.3121 9.49988 38.7232 9.74505 38.2336 10.2344C37.7444 10.724 37.4995 11.3122 37.4995 11.9999C37.4995 12.6876 37.7444 13.276 38.2336 13.7658C38.7232 14.2556 39.3121 14.5003 39.9997 14.5003Z" fill="white" fill-opacity="0.4"/>
<path d="M12.0006 6.50024C10.4795 6.50024 9.18274 7.03678 8.10978 8.10953C7.0367 9.18228 6.50049 10.4792 6.50049 11.9999C6.50049 13.5212 7.0367 14.8176 8.10978 15.8908C9.18307 16.9638 10.4799 17.5003 12.0006 17.5003C13.5214 17.5003 14.8183 16.9635 15.891 15.8908C16.9638 14.8176 17.5003 13.5209 17.5003 11.9999C17.5003 10.4792 16.9638 9.18228 15.891 8.10953C14.8183 7.03678 13.5214 6.50024 12.0006 6.50024Z" fill="white" fill-opacity="0.4"/>
<path d="M48.1244 23.8744C47.5413 23.291 46.833 22.9996 45.9999 22.9996C45.1661 22.9996 44.4579 23.291 43.8747 23.8744C43.2919 24.4578 43.0005 25.1663 43.0005 26.0001C43.0005 26.833 43.2919 27.5425 43.8747 28.1246C44.4582 28.7082 45.1661 28.9995 45.9999 28.9995C46.833 28.9995 47.5417 28.7082 48.1244 28.1246C48.708 27.5418 48.9991 26.833 48.9991 26.0001C48.9991 25.1667 48.7085 24.4581 48.1244 23.8744Z" fill="white" fill-opacity="0.4"/>
<path d="M39.9998 36.4996C39.0409 36.4996 38.218 36.8431 37.5303 37.5308C36.8434 38.2177 36.4995 39.041 36.4995 39.9999C36.4995 40.9581 36.8434 41.7814 37.5303 42.4692C38.218 43.1568 39.041 43.4999 39.9998 43.4999C40.958 43.4999 41.7808 43.1561 42.4685 42.4692C43.1562 41.7815 43.4998 40.9585 43.4998 39.9999C43.4998 39.041 43.1562 38.2186 42.4685 37.5308C41.7809 36.843 40.958 36.4996 39.9998 36.4996Z" fill="white" fill-opacity="0.4"/>
<path d="M25.9999 41.999C24.8957 41.999 23.9529 42.3904 23.1712 43.1718C22.3903 43.9532 21.9995 44.8955 21.9995 45.9998C21.9995 47.104 22.3898 48.0464 23.1712 48.8277C23.9529 49.6091 24.8953 50.0001 25.9999 50.0001C27.1042 50.0001 28.0466 49.6091 28.828 48.8277C29.6093 48.0464 30 47.104 30 45.9998C30 44.8955 29.6093 43.9532 28.828 43.1718C28.0466 42.3904 27.1042 41.999 25.9999 41.999Z" fill="white" fill-opacity="0.4"/>
<path d="M26.0002 0C24.3338 0 22.9165 0.583056 21.7497 1.74972C20.5833 2.91649 20 4.33346 20 6C20 7.66664 20.5831 9.08296 21.7497 10.2498C22.9165 11.4163 24.3335 11.9997 26.0002 11.9997C27.6674 11.9997 29.0837 11.4166 30.2501 10.2498C31.4164 9.08351 31.9997 7.66664 31.9997 6C31.9997 4.33357 31.4164 2.91692 30.2501 1.74972C29.0837 0.583385 27.6674 0 26.0002 0Z" fill="white" fill-opacity="0.4"/>
</g>
<defs>
<clipPath id="clip0_1212_21317">
<rect width="50" height="50" fill="white"/>
</clipPath>
</defs>
</svg>
