<svg width="5" height="5" viewBox="0 0 5 5" fill="none" xmlns="http://www.w3.org/2000/svg">
<path d="M4.70909 2.27887C4.25301 2.10236 3.83874 1.83151 3.49302 1.4838C3.14731 1.13608 2.87783 0.71923 2.70198 0.260145C2.6374 0.0858477 2.56249 0 2.485 0C2.4075 0 2.33259 0.0962535 2.26543 0.260145C2.08957 0.71923 1.8201 1.13608 1.47438 1.4838C1.12867 1.83151 0.714399 2.10236 0.258316 2.27887C0.0878273 2.34651 0 2.41934 0 2.49999C0 2.58063 0.0955768 2.65346 0.258316 2.7185C0.714488 2.89557 1.12877 3.16692 1.47446 3.51506C1.82015 3.86321 2.0896 4.28042 2.26543 4.73983C2.33259 4.91152 2.40492 4.99997 2.485 4.99997C2.56507 4.99997 2.6374 4.90112 2.70198 4.73983C2.87781 4.28042 3.14725 3.86321 3.49294 3.51506C3.83864 3.16692 4.25292 2.89557 4.70909 2.7185C4.87958 2.65346 4.9674 2.57803 4.9674 2.49999C4.9674 2.42194 4.87958 2.34651 4.70909 2.27887Z" fill="white"/>
</svg>
