<svg width="20" height="20" viewBox="0 0 20 20" fill="none" xmlns="http://www.w3.org/2000/svg">
<g clip-path="url(#clip0_1212_12472)">
<path d="M5.0148 10.6471H4.11789C3.8826 10.6471 3.6702 10.7872 3.57712 11.0029L1.09421 16.7843L6.99081 13.7727C6.28494 12.796 5.58655 11.7187 5.0148 10.6471Z" fill="white"/>
<path d="M16.4227 11.0029C16.3298 10.7872 16.1172 10.6471 15.8821 10.6471H14.9852C13.9055 12.6704 12.3325 14.7613 11.3318 15.9117C10.6281 16.7189 9.37103 16.718 8.66837 15.9117C8.5965 15.8291 8.22128 15.3947 7.70447 14.7267L6.64139 15.2699L10.6627 19.2834L18.2823 15.3332L16.4227 11.0029Z" fill="white"/>
<path d="M0.368803 18.474L0.0480632 19.2209C-0.117952 19.6075 0.166471 20.0391 0.588682 20.0391H9.22348C9.27749 19.999 9.2781 20.0014 9.56802 19.8511L5.54077 15.8323L0.368803 18.474Z" fill="white"/>
<path d="M19.9519 19.2209L18.7471 16.4154L11.7574 20.0391H19.4113C19.8326 20.0391 20.1183 19.6082 19.9519 19.2209Z" fill="white"/>
<path d="M10.5882 5.32516C10.5882 5.00137 10.3242 4.73816 10 4.73816C9.6756 4.73816 9.41177 5.00137 9.41177 5.32516C9.41177 5.6488 9.6756 5.91217 10 5.91217C10.3242 5.91217 10.5882 5.6488 10.5882 5.32516Z" fill="white"/>
<path d="M10.4439 15.1022C10.6419 14.8749 15.2939 9.49373 15.2939 5.79469C15.2939 -1.83287 4.70612 -1.92595 4.70612 5.79469C4.70612 9.49373 9.35806 14.8749 9.55612 15.1022C9.79065 15.3713 10.2098 15.371 10.4439 15.1022ZM8.23532 5.32518C8.23532 4.35411 9.02695 3.56416 10 3.56416C10.9729 3.56416 11.7645 4.35411 11.7645 5.32518C11.7645 6.2961 10.9729 7.08604 10 7.08604C9.02695 7.08604 8.23532 6.2961 8.23532 5.32518Z" fill="white"/>
</g>
<defs>
<clipPath id="clip0_1212_12472">
<rect width="20" height="20" fill="white"/>
</clipPath>
</defs>
</svg>
