<svg width="95" height="95" viewBox="0 0 95 95" fill="none" xmlns="http://www.w3.org/2000/svg">
<path d="M94.2322 39.6408C94.3329 40.2909 94.4352 40.9578 94.5425 41.6463C94.4286 41.2352 94.3081 40.5784 94.1926 39.975C94.1646 39.8229 94.1349 39.6759 94.1085 39.5355C94.082 39.3951 94.0408 39.2647 94.0094 39.1461C93.9654 38.9651 93.9058 38.7884 93.8312 38.6179C93.1028 35.3326 92.0569 32.1277 90.7086 29.0498C89.374 26.0021 87.7331 23.1016 85.812 20.3942C86.5506 21.2213 87.1925 22.1321 87.7248 23.1084C87.9575 23.5295 88.1737 23.934 88.3849 24.3318C88.5962 24.7295 88.786 25.1373 89.0154 25.5368C89.1721 25.8092 89.3355 26.0799 89.489 26.354L89.9247 27.1897C90.2086 27.7529 90.5172 28.3027 90.7664 28.8827C91.0156 29.4626 91.2912 30.0242 91.5355 30.6008L92.2221 32.3423C92.5059 33.1222 92.7694 33.8993 93.0126 34.6737C93.0374 34.7506 93.0638 34.8258 93.0869 34.9027L93.1215 35.0263C93.143 35.0932 93.1611 35.1584 93.1809 35.2252C93.171 35.1901 93.1595 35.155 93.1479 35.1183L93.3542 35.8553C93.5193 36.4854 93.7124 37.0971 93.8345 37.7272C93.9566 38.3572 94.1134 38.9873 94.2322 39.6408ZM93.2255 35.379C93.6117 36.6659 93.9335 37.9728 94.2289 39.2865C93.955 37.9996 93.6183 36.6909 93.2205 35.374L93.2255 35.379ZM94.937 47.1215C94.9551 47.7716 94.9733 48.4301 94.9931 49.107C94.9914 48.4986 94.9667 47.8084 94.937 47.1165V47.1215ZM85.3845 21.4237C87.1631 23.9126 88.6668 26.5915 89.8686 29.4125C88.6916 26.5791 87.1863 23.8974 85.3845 21.4237ZM54.3836 4.57543C54.1162 4.51527 53.8621 4.45343 53.6277 4.38992C53.2201 4.37989 52.7943 4.32808 52.5896 4.32307C51.2858 4.18268 50.1817 4.02224 49.0677 3.96207C48.7314 4.01068 48.3924 4.03803 48.0527 4.04396C47.622 4.04396 47.1978 4.05733 46.7803 4.06569C46.3627 4.07405 45.9551 4.0824 45.5425 4.10747C48.4975 3.97724 51.4581 4.13394 54.3836 4.57543ZM87.0464 64.3391L86.2625 66.0773C86.5183 65.5458 86.784 64.9491 87.0464 64.3391ZM90.0469 46.8908C90.2205 43.9438 90.0454 40.9864 89.5253 38.0815C90.0184 40.9896 90.1933 43.9439 90.0469 46.8908ZM80.9879 21.8215C80.8047 21.5123 80.6314 21.2098 80.4713 20.9173C80.3112 20.6248 80.1412 20.3624 79.9943 20.1017C79.651 19.7524 79.2599 19.2443 78.7648 18.6962C78.5238 18.4171 78.2697 18.1162 78.0089 17.802C77.8818 17.6349 77.7399 17.4878 77.5963 17.3307L77.1656 16.8511C76.0236 15.5579 74.8004 14.3409 73.5034 13.2077V13.2193C76.3684 15.7327 78.8859 18.6255 80.9879 21.8198V21.8215ZM89.7432 43.8056C89.7646 44.0831 89.7597 44.3622 89.763 44.6413V45.4769C89.763 45.756 89.763 46.0335 89.763 46.3126L89.7283 47.1482L89.6953 47.9839L89.6788 48.4C89.6706 48.5387 89.6557 48.6774 89.6442 48.8145C89.8975 46.3394 89.9119 43.8451 89.6871 41.3672L89.5088 39.8864C89.4362 39.3951 89.3438 38.9054 89.2662 38.4141L89.1424 37.6787L88.9774 36.95C88.8701 36.4653 88.7694 35.979 88.6572 35.496C89.1344 37.6873 89.4625 39.9092 89.6392 42.146L89.7432 43.8056ZM84.4009 28.0955C84.4801 28.2777 84.5527 28.4649 84.6286 28.6504C84.561 28.4615 84.4949 28.2727 84.424 28.0855C84.353 27.8983 84.2705 27.7161 84.1946 27.5323L83.7358 26.4326C83.716 26.461 83.7358 26.5997 83.6466 26.471L84.1418 27.5523L84.4009 28.0955ZM86.4639 33.9935L86.5662 34.4213C86.5216 34.1406 86.4903 33.8932 86.4705 33.701C86.3368 33.3801 86.213 33.0592 86.0942 32.7333C86.1767 33.0124 86.2592 33.2932 86.3401 33.569L86.4639 33.9935ZM88.106 45.7243C88.106 44.9772 88.1175 44.195 88.0499 43.3945C88.0384 43.2327 88.013 43.0722 87.974 42.9148C88.0037 43.3828 88.0482 43.8524 88.068 44.3221C88.0878 44.7917 88.0928 45.2597 88.1043 45.7226L88.106 45.7243ZM7.07192 25.7841C6.42827 26.8938 5.81102 28.0654 5.23173 29.2838C5.80277 28.0905 6.42827 26.9289 7.07852 25.7824L7.07192 25.7841ZM3.68532 48.6073C3.65066 48.8914 3.60941 49.137 3.5764 49.3259C3.61436 49.6719 3.64241 50.0162 3.66552 50.3621C3.66552 50.0713 3.66552 49.7788 3.66552 49.4864V49.0485L3.68532 48.6073ZM4.71846 40.0603C4.82079 39.604 4.90826 39.1394 5.02214 38.6831C5.13602 38.2269 5.26144 37.7756 5.38027 37.3277C5.17562 38.0464 4.93962 38.7901 4.77953 39.5789C4.74706 39.7368 4.72882 39.8974 4.72506 40.0586L4.71846 40.0603ZM83.2159 71.3318C83.9124 70.2705 84.5362 69.3931 85.0858 68.4605C85.1907 68.1489 85.317 67.8451 85.4637 67.5513C85.6585 67.182 85.8318 66.8093 86.01 66.4466C86.1882 66.0839 86.3632 65.7229 86.5216 65.3619C85.3207 67.9632 83.8772 70.4424 82.2108 72.7657C82.3758 72.5635 82.5409 72.373 82.7059 72.2008C82.8957 71.8465 83.1284 71.5039 83.2225 71.3301L83.2159 71.3318ZM92.9532 48.171L92.973 48.873C92.973 49.107 92.973 49.341 92.9631 49.5733C92.9543 50.039 92.9455 50.5031 92.9367 50.9654C92.9367 51.1977 92.9169 51.4267 92.9037 51.6574C92.8905 51.888 92.874 52.117 92.8608 52.3443C92.8476 52.5716 92.831 52.8022 92.8162 53.0312C92.8013 53.2601 92.7898 53.4874 92.7617 53.713L92.6132 55.0668C92.5884 55.2924 92.567 55.5164 92.5389 55.7353C92.5109 55.9542 92.468 56.1799 92.435 56.4038C92.3656 56.8467 92.2963 57.2896 92.227 57.7291C92.1989 57.9514 92.1478 58.167 92.1049 58.386L91.9712 59.0361C91.8804 59.469 91.8062 59.9052 91.7005 60.3314C91.5949 60.7575 91.4843 61.182 91.3705 61.6049C91.3259 61.772 91.2731 61.9492 91.2153 62.1581C91.184 62.2617 91.1543 62.3737 91.1163 62.4923C91.0783 62.611 91.0338 62.723 90.9909 62.845C90.8258 63.333 90.6162 63.8862 90.4017 64.4678C90.3505 64.6149 90.2895 64.7586 90.2267 64.9023L90.0386 65.3402C89.9115 65.6327 89.7844 65.9285 89.659 66.2193C89.418 66.8076 89.1292 67.3575 88.8784 67.8639C88.0365 69.6792 87.0886 71.4422 86.0397 73.1435C85.7657 73.5613 85.4907 73.9791 85.2145 74.3969L84.8052 75.0237C84.6649 75.2292 84.5164 75.4281 84.3728 75.6303L83.5014 76.8437C83.206 77.2415 82.8908 77.6259 82.5871 78.0136L82.092 78.627C81.9269 78.8342 81.7421 79.0214 81.5688 79.2203C81.2134 79.6102 80.8591 80.0002 80.506 80.3902C80.1396 80.7662 79.7616 81.1306 79.3886 81.4982L78.8259 82.0498L78.2383 82.5712C77.8455 82.9172 77.4544 83.2665 77.0566 83.6074L75.8238 84.5851C75.6159 84.7523 75.4162 84.9194 75.2 85.0665L74.5596 85.5244L73.9159 85.9823C73.6998 86.1344 73.4885 86.2898 73.2558 86.4269L71.9206 87.2809C71.8084 87.3511 71.6978 87.4246 71.5906 87.4932L71.2456 87.6904L70.5525 88.0865C69.6398 88.6347 68.671 89.0892 67.7138 89.5906C66.1575 90.3227 64.55 90.9962 62.8848 91.5962C62.5547 91.7332 62.2246 91.8536 61.8945 91.9789L60.632 92.4502L59.343 92.8664L58.6977 93.0736C58.4832 93.1438 58.262 93.1956 58.0376 93.2575L56.7255 93.6134C56.5077 93.6786 56.2865 93.7237 56.0654 93.7722L55.4052 93.9193L54.745 94.068L54.415 94.1416C54.3044 94.1633 54.1922 94.18 54.0849 94.2L52.7448 94.4307C52.3008 94.5176 51.8503 94.5661 51.4013 94.6212C50.9524 94.6764 50.5052 94.7349 50.0563 94.7883L48.7096 94.8886L48.0379 94.9388C47.8151 94.9521 47.5906 94.9538 47.3678 94.9605L46.0293 94.9956C45.8065 95.0056 45.5854 94.9956 45.3692 94.9956L44.709 94.9805L44.0489 94.9655C43.8294 94.9655 43.6099 94.9655 43.3887 94.9371L42.0816 94.8402C41.839 94.8218 41.5964 94.8151 41.3554 94.7883L40.6342 94.7098C40.1556 94.6546 39.6753 94.6112 39.2017 94.5427L37.7889 94.3254C37.5546 94.2869 37.3186 94.2586 37.0859 94.2134L36.3927 94.0747L35.0113 93.8006L33.6547 93.4664L32.9797 93.2992C32.7553 93.2424 32.5358 93.1705 32.3196 93.107L30.9992 92.7193C30.7781 92.6591 30.5652 92.5789 30.349 92.5054L29.7037 92.2831L29.0617 92.0625C28.8471 91.9889 28.6326 91.9171 28.4263 91.8302L27.1736 91.3288C26.9657 91.2452 26.7561 91.1617 26.5514 91.0798L25.9441 90.804L24.7327 90.2558C24.5297 90.1689 24.3366 90.0619 24.1402 89.9633L23.5543 89.6642C23.1649 89.462 22.7721 89.2714 22.3991 89.0608L21.2702 88.414L20.7751 88.1166C20.6843 88.0581 20.587 88.0012 20.4896 87.9344L20.1859 87.7205C19.7667 87.423 19.2914 87.082 18.793 86.7177C18.6659 86.6308 18.5454 86.5322 18.4233 86.4336L18.0553 86.1361L17.3175 85.5361C16.8224 85.1467 16.3702 84.7205 15.9527 84.3428C14.4425 83.0455 13.0097 81.6587 11.6617 80.1896L10.6813 79.0615L10.1862 78.4999C10.0212 78.3078 9.87593 78.1105 9.72079 77.9167C9.41052 77.5278 9.10079 77.1378 8.79162 76.7468C8.4896 76.3523 8.20573 75.9445 7.91196 75.5451L7.45646 74.8966C7.30133 74.681 7.17094 74.4521 7.02736 74.2281L6.20216 72.8911C5.9381 72.4348 5.69054 71.9702 5.43638 71.5106L5.05844 70.817L4.71351 70.1067C4.48576 69.6304 4.2547 69.1574 4.03355 68.6795L3.42456 67.2187C3.32553 66.9747 3.21496 66.7341 3.12749 66.485L2.85847 65.738L2.59111 64.9892C2.50199 64.7402 2.40957 64.4879 2.33696 64.2355L1.87154 62.7063C1.83359 62.5776 1.79233 62.4505 1.75767 62.3218L1.65865 61.9324C1.59263 61.6734 1.52827 61.4127 1.46225 61.1536C1.17839 60.1174 0.995191 59.0495 0.770739 57.9782C0.395258 55.7905 0.14782 53.5822 0.0297159 51.3649C0.0139461 50.8258 0.0282639 50.2862 0.0726175 49.7487C0.0726175 49.6886 0.0726247 49.6284 0.0594216 49.5699C0.031365 49.0685 0.0280562 48.5671 0.00990193 48.0658L0 47.2685C0 47.0045 0.0148543 46.7387 0.0214559 46.4747C0.043461 45.9443 0.066022 45.4156 0.0891274 44.8886C0.127086 44.3622 0.184851 43.8374 0.234362 43.3109L0.313578 42.5238L0.429107 41.7416C0.508326 41.2201 0.584237 40.697 0.670057 40.1756C0.755877 39.6541 0.882966 39.1411 0.988591 38.6246C1.04635 38.3656 1.08926 38.1049 1.15363 37.8492L1.35332 37.0804L1.55302 36.3099C1.61904 36.0525 1.68175 35.7951 1.76592 35.5428C1.92435 35.0347 2.08334 34.5261 2.24288 34.0169C2.28249 33.8899 2.32045 33.7628 2.36336 33.6358L2.50199 33.2581C2.59277 33.0074 2.68518 32.7567 2.77761 32.5044C3.12584 31.4882 3.57475 30.4988 3.98734 29.496C4.72672 27.8816 5.54696 26.2788 6.46293 24.6944C6.31934 24.7797 6.41506 24.4955 6.66592 23.9674C6.7996 23.7017 6.98775 23.3825 7.20065 23.0148C7.41355 22.6471 7.65451 22.236 7.93012 21.8064C9.09147 20.0581 10.3471 18.3759 11.6914 16.7675C11.3728 17.1018 11.3728 17.1018 11.0576 17.436C11.3706 17.126 11.6582 16.7906 11.9175 16.4332C11.2788 17.0884 10.102 18.4388 9.7241 18.7931L10.1383 18.0744C9.73895 18.509 9.27189 19.0588 8.77182 19.6672C8.52756 19.9764 8.29321 20.3123 8.044 20.6482C7.79479 20.9842 7.54889 21.3318 7.30133 21.6811L6.60651 22.749L6.26488 23.2705C6.151 23.4376 6.03877 23.6047 5.9348 23.7819C5.52881 24.4621 5.14757 25.0822 4.81254 25.5836C6.38777 22.8512 8.17236 20.2482 10.1499 17.7987C12.352 15.0944 14.8194 12.6233 17.5139 10.4233C17.8539 10.1291 18.217 9.86506 18.5751 9.58763L19.6528 8.77037L20.7718 8.00325L21.3329 7.61718C21.5194 7.48849 21.7158 7.37485 21.9073 7.25284L23.0625 6.53418C23.2523 6.4105 23.4537 6.30354 23.6517 6.19992L24.2475 5.86566L24.8433 5.53141L25.1404 5.36428C25.241 5.3108 25.3434 5.26233 25.4457 5.21052L26.6653 4.60384C27.068 4.39326 27.4905 4.21778 27.9015 4.03561C28.3124 3.85344 28.7267 3.66792 29.1442 3.49244L30.4068 3.00776L31.0372 2.76709C31.2485 2.68854 31.463 2.62504 31.6743 2.55317L32.9484 2.13535C33.158 2.06182 33.3742 2.00665 33.5871 1.94816L34.2274 1.771L34.8678 1.60387C35.079 1.54538 35.2919 1.48521 35.5065 1.43674L36.7872 1.15263C37.0248 1.10082 37.2592 1.03731 37.4985 0.993858L38.2114 0.863492C38.6868 0.778256 39.1571 0.681324 39.6308 0.604444L41.0468 0.40556C41.2812 0.375477 41.5155 0.335365 41.7515 0.310296L42.4546 0.24345L43.8558 0.109739L45.2504 0.0395473L45.9435 0.00445677C46.1746 -0.00557097 46.4056 0.00445677 46.635 0.00445677H48.0115C48.2392 0.00445677 48.467 0.0144821 48.6931 0.0228385L49.3747 0.0495747L50.053 0.077994C50.2791 0.077994 50.5035 0.0930339 50.728 0.118103L52.0681 0.235085C52.2893 0.255141 52.5121 0.27019 52.7283 0.29526L53.3884 0.383833L54.7087 0.560989C54.9282 0.586059 55.1428 0.63286 55.359 0.6713L56.0043 0.789955C56.4334 0.871848 56.8658 0.940373 57.2899 1.03229L58.5541 1.32979L59.1054 1.47519C59.2077 1.5036 59.3183 1.53034 59.4354 1.56711L59.787 1.6841C60.2722 1.85123 60.8234 2.03841 61.4027 2.24231C61.5479 2.29077 61.6915 2.34927 61.8368 2.40944C61.982 2.4696 62.1256 2.52977 62.2725 2.58827L63.1488 2.95261C63.332 3.02447 63.5119 3.10136 63.6868 3.17991L64.4262 3.4306L65.1837 3.72809C65.6888 3.92864 66.1938 4.12585 66.6955 4.33477L68.1809 5.01498C68.4268 5.13197 68.676 5.23559 68.9186 5.36595L69.6431 5.74534L70.3693 6.12638C70.6102 6.2534 70.8545 6.37709 71.0888 6.52082L72.5082 7.35646C72.6253 7.42666 72.7458 7.49518 72.863 7.56705L73.2079 7.79434L73.911 8.22052C74.8501 8.81048 75.7264 9.49571 76.644 10.1492C78.453 11.5533 80.178 13.0652 81.8098 14.6767C82.46 15.3452 83.1532 16.2176 83.2836 16.5001C83.3479 16.6438 83.272 16.6405 82.9799 16.3998C82.833 16.2795 82.6333 16.099 82.3692 15.8483L81.9253 15.4171C81.7602 15.25 81.5837 15.0661 81.3691 14.8773L80.3211 13.923C80.1445 13.7659 79.9745 13.6021 79.7946 13.4483L79.25 12.992L78.1624 12.0779L77.0352 11.2088C76.2958 10.6121 75.5036 10.0857 74.7246 9.53749L74.4342 9.33193L74.1338 9.13973L73.9572 9.02441L74.0249 9.07454C75.8382 10.2908 77.5674 11.6309 79.2005 13.0856L78.1756 12.2149C77.8455 11.9325 77.4956 11.6751 77.1936 11.4194C80.404 14.088 83.2854 17.1383 85.7756 20.5045C83.9169 18.1521 81.8701 15.9587 79.656 13.9464C79.2137 13.5452 78.7615 13.1542 78.3043 12.7765L78.4925 12.9636L79.0487 13.5185L79.5784 14.1018C79.9283 14.4912 80.2832 14.8789 80.6297 15.2717L81.1496 15.9118L81.8774 16.6923C82.4848 17.3257 83.0211 18.0143 83.5542 18.6828C83.2803 18.392 83.0079 18.0995 82.729 17.7987C82.4848 17.5146 82.2367 17.236 81.9847 16.963C82.026 17.0165 82.0705 17.0683 82.1085 17.1302L82.5755 17.7703L83.0426 18.4104C83.1977 18.6243 83.3578 18.8349 83.4998 19.0605L84.3728 20.3975C84.4454 20.5095 84.5197 20.6198 84.5907 20.7318L84.7937 21.0761L85.028 21.4705L85.302 21.8566C85.5991 22.2777 85.9044 22.6922 86.1965 23.1184L87.0332 24.422C88.3671 26.6331 89.4864 28.9699 90.3753 31.3996C90.3241 31.2643 90.2746 31.1289 90.2201 30.9952L90.0551 30.5991L89.7102 29.8052L89.3636 29.0114C89.2398 28.7507 89.1094 28.4933 88.9823 28.2342L88.5995 27.4404C88.4707 27.1813 88.3486 26.9189 88.2034 26.6682L87.3617 25.149C86.7532 24.1128 86.1074 23.0972 85.4241 22.1023C85.8961 22.9095 86.3153 23.7552 86.7626 24.5891C87.2115 25.5083 87.6389 26.4459 88.0449 27.4019L88.1918 27.6877C88.2413 27.7897 88.2875 27.895 88.3354 27.9986L88.9048 29.2487C89.1045 29.6615 89.2662 30.0843 89.4379 30.5139C89.6095 30.9434 89.7795 31.3612 89.9445 31.7857C90.1096 32.2102 90.2432 32.6464 90.3918 33.0759L90.6146 33.7194C90.6856 33.9333 90.745 34.1523 90.811 34.3695L91.1922 35.6681C91.2599 35.882 91.3094 36.1027 91.3573 36.3199L91.5223 36.9734L91.6873 37.6235C91.7402 37.8408 91.7946 38.0564 91.8326 38.2753C91.9151 38.7115 91.9976 39.1461 92.0818 39.5789C92.128 39.8213 92.1858 40.0603 92.2221 40.3026C92.2584 40.5449 92.2963 40.7856 92.3343 41.028C92.4069 41.511 92.4993 41.9906 92.5554 42.4703C92.6116 42.9499 92.6644 43.4313 92.7205 43.9093C92.7469 44.1483 92.7799 44.3856 92.798 44.6246L92.8476 45.3382C92.8806 45.8151 92.9136 46.2892 92.9466 46.7605C92.9455 47.2307 92.9504 47.6986 92.9614 48.1644L92.9532 48.171ZM77.0467 12.2082C76.7805 11.9854 76.5126 11.7681 76.243 11.5564C76.819 12.1013 77.3851 12.6611 77.9346 13.2277C79.4508 14.8138 80.8601 16.5011 82.153 18.2783C82.5689 18.7842 82.976 19.3012 83.3743 19.8293C83.6565 20.1786 83.9091 20.553 84.1698 20.9223L84.2688 21.0644C84.2259 20.9908 84.183 20.9156 84.1385 20.8438L83.6334 20.0616C83.3034 19.5435 82.9733 19.0187 82.5854 18.519C82.4006 18.265 82.2108 18.0176 82.021 17.7502C81.8774 17.5563 81.7355 17.3608 81.5837 17.1686L81.6332 17.2288C81.7008 17.3157 81.7668 17.4059 81.8329 17.4962L82.2323 18.031C82.498 18.3886 82.767 18.743 83.0277 19.104L83.7737 20.2137L84.0906 20.6867C83.9256 20.431 83.7473 20.1853 83.5757 19.9179C83.404 19.6505 83.2588 19.4416 83.0971 19.2026C83.0195 19.0822 82.932 18.9652 82.8462 18.8483L82.5887 18.499L82.0656 17.7937L81.8032 17.4393C81.7173 17.3207 81.6282 17.202 81.5325 17.0901L80.4003 15.7079C79.344 14.4825 78.2246 13.3143 77.0467 12.2082ZM76.6011 13.1257C76.9015 13.4502 77.2272 13.7498 77.5749 14.0216C76.9428 13.3531 75.6439 12.1313 75.299 11.7436L75.7314 12.0143C75.3633 11.6801 74.9871 11.3458 74.6075 11.0249L74.1767 10.7241C74.0315 10.6255 73.8895 10.5202 73.7443 10.4216C73.4852 10.2896 73.2492 10.1843 73.0644 10.1124C73.1436 10.2057 73.2359 10.2868 73.3383 10.3531L73.5958 10.5453L73.8483 10.7492C74.1635 11.0049 74.3434 11.157 73.8004 10.796C73.6667 10.7057 73.5314 10.6288 73.3961 10.5419C73.8362 10.8985 74.2763 11.2623 74.7164 11.6333C75.6538 12.3904 76.5483 13.1575 77.2464 13.7842L76.6011 13.1257ZM72.8927 9.47733L73.1733 9.66284L73.2855 9.73805C72.7623 9.33694 72.2326 8.94753 71.6962 8.56815C71.8002 8.65338 71.9058 8.73527 72.013 8.82552C72.3046 9.04168 72.5973 9.25895 72.8911 9.47733H72.8927ZM72.4075 9.15477L72.4323 9.17315L72.4917 9.21326L72.4075 9.15477ZM73.0033 10.3096C73.3581 10.5704 73.7196 10.8461 74.0793 11.1286C73.8439 10.9247 73.604 10.7224 73.3598 10.5219L73.0511 10.338L73.0033 10.3096ZM74.0711 10.6439L74.4837 10.928C74.3946 10.8511 74.3071 10.7759 74.2163 10.7007C74.076 10.6172 73.9391 10.5336 73.8087 10.4667C73.8945 10.5152 73.9803 10.5754 74.076 10.6355L74.0711 10.6439ZM75.0613 11.3291L75.1554 11.396L74.7048 10.9898L74.5893 10.9197C74.5745 10.9197 74.5629 10.9046 74.548 10.8963C74.723 11.0333 74.8913 11.177 75.0663 11.3208L75.0613 11.3291ZM75.5564 11.762C75.4591 11.6701 75.3567 11.5765 75.2511 11.4795L75.1851 11.4327C75.3056 11.533 75.4294 11.6433 75.5515 11.7536L75.5564 11.762ZM73.6354 9.27677C74.5266 10.0021 75.3963 10.7609 76.2364 11.5547L76.9906 12.1614C76.424 11.63 75.8447 11.1135 75.2528 10.6121C74.9095 10.3314 74.5926 10.0422 74.2724 9.74306L74.1239 9.60268C73.9572 9.48401 73.7938 9.37705 73.6304 9.26842L73.6354 9.27677ZM71.6912 7.38487C71.2539 7.12582 70.8198 6.86009 70.3709 6.61608L71.3397 7.23111L71.9668 7.63055C72.1731 7.76759 72.3745 7.913 72.5775 8.05506L72.8779 8.26564C73.0809 8.38431 73.3119 8.52971 73.5545 8.68179L74.3368 9.17315C74.591 9.32691 74.8121 9.48568 74.997 9.5893L74.5811 9.27343C74.4424 9.16981 74.2988 9.07956 74.1602 8.98262L73.335 8.42107C73.0611 8.2389 72.7953 8.05172 72.523 7.87958L71.6912 7.38487ZM70.2207 6.52415L70.2768 6.55925L70.6911 6.77318L71.8893 7.46342L72.3992 7.75757C72.1253 7.59044 71.848 7.44169 71.574 7.27791L70.8033 6.83335C70.6762 6.75647 70.5442 6.68627 70.4105 6.61942L70.2207 6.52415ZM64.2282 4.47181L64.3833 4.55036L65.2333 4.97988L65.4528 5.09019L65.6673 5.21052L66.1014 5.45453L67.2566 6.06957C67.4514 6.16817 67.6379 6.28182 67.8244 6.3938L68.3838 6.72805L69.4979 7.39657C69.615 7.47679 69.7322 7.5637 69.851 7.63556L70.0738 7.75256L70.3594 7.91969L70.9304 8.25394L71.5229 8.60324C70.059 7.55472 68.5382 6.58999 66.9678 5.71358L67.4943 5.96929C67.6692 6.05119 67.8359 6.14812 68.0076 6.2367C67.6659 6.00271 67.3028 5.80216 66.9365 5.59826L66.7285 5.48294C66.3984 5.3381 66.0684 5.19716 65.7383 5.06011C66.1509 5.27404 66.5635 5.48963 66.9629 5.71358C66.6592 5.56651 66.3539 5.41442 66.0436 5.25565L65.5699 5.01331C65.4363 4.94479 65.296 4.88462 65.1557 4.81944C64.8487 4.698 64.5395 4.57989 64.2282 4.46513V4.47181ZM63.776 4.5253C64.9312 5.07849 66.0865 5.67849 67.2104 6.32361L67.4101 6.41552L68.0125 6.69128C68.2122 6.78654 68.4053 6.89351 68.6017 6.99378L69.757 7.5988C69.4698 7.41162 69.181 7.23111 68.8823 7.06732L68.029 6.5743C67.7451 6.40717 67.4679 6.24004 67.1758 6.10467L65.466 5.2523C64.8982 4.98991 64.3288 4.75426 63.776 4.5186V4.5253ZM66.5998 8.15701C66.3687 8.0116 66.1245 7.8896 65.8868 7.75423L65.6789 7.61718L65.5617 7.56537C65.9891 7.81105 66.4067 8.06676 66.8358 8.35088L67.0685 8.44948L66.5998 8.15701ZM60.7079 3.50747C62.4312 4.1285 64.116 4.85403 65.7531 5.68015L66.1971 5.86734C64.9527 5.19882 63.6725 4.58601 62.3566 4.02892C61.812 3.84006 61.2641 3.66792 60.7079 3.50747ZM64.7943 7.25451L64.7315 7.23111C64.9312 7.32136 65.1194 7.38654 65.2696 7.43835C65.1177 7.37484 64.9593 7.313 64.7959 7.25451H64.7943ZM59.7243 2.47127C59.8893 2.52977 60.0659 2.59161 60.2359 2.65345L60.4752 2.72364L59.9718 2.55651L59.7985 2.49635L59.7243 2.47127ZM58.2983 2.71028C58.7588 2.84899 59.2159 2.99607 59.6731 3.14815C59.9949 3.23005 60.3167 3.31528 60.6353 3.4072L61.3416 3.60441C60.9621 3.45622 60.577 3.31193 60.1864 3.17154C59.5614 3.0033 58.9326 2.84787 58.3 2.70526L58.2983 2.71028ZM33.3775 2.46292L35.447 1.88299L36.2326 1.70583C35.9929 1.80658 35.7442 1.88381 35.49 1.93647C39.2245 1.08143 43.0504 0.705219 46.8776 0.816701C47.5015 0.786618 48.127 0.774912 48.7508 0.778255C48.5418 0.758199 48.3322 0.741489 48.122 0.728118L46.904 0.693028C46.4947 0.693028 46.0789 0.661272 45.6646 0.681327L44.4037 0.711409C44.1925 0.711409 43.9796 0.711405 43.7667 0.728118L43.1247 0.768228C42.6956 0.793297 42.2615 0.818372 41.8258 0.836756C41.3901 0.85514 40.9511 0.911967 40.5055 0.943721C40.2728 0.960434 40.0203 0.983828 39.7513 1.01224C39.6176 1.02394 39.4789 1.04233 39.3387 1.06739L38.9046 1.14093L37.9837 1.30806L37.5001 1.39663C37.3351 1.42839 37.1701 1.47184 37.005 1.51028C36.7611 1.5372 36.5212 1.5933 36.2904 1.67741L35.4322 1.88299C34.7605 2.06348 34.0624 2.25735 33.3874 2.46292H33.3775ZM22.7605 9.49906C22.5526 9.6244 22.3265 9.76312 22.0888 9.91353L21.9089 10.0305L21.729 10.1575L21.356 10.4283L20.5688 11.0082C20.4351 11.1102 20.2965 11.2121 20.1578 11.3157C20.0192 11.4194 19.8888 11.538 19.7519 11.65C19.5362 11.7893 19.3378 11.9542 19.161 12.1414L18.4579 12.733C17.8886 13.2244 17.3241 13.7358 16.7861 14.2372L18.4579 12.733L19.1181 12.2015C18.9384 12.4055 18.7406 12.5923 18.5273 12.7597C22.6549 9.39056 27.3047 6.73635 32.2882 4.90467C31.9895 5.02668 31.5818 5.23893 31.4102 5.32249C31.6512 5.21386 31.8888 5.0952 32.1347 4.98824L32.8708 4.6941L34.102 4.26457C34.5162 4.13756 34.9272 4.01889 35.3513 3.89354L35.9752 3.70803C36.1831 3.64619 36.3911 3.58269 36.604 3.5409L37.8682 3.23005C37.373 3.36876 36.9076 3.50748 36.5066 3.64452C38.5121 3.14598 40.5459 2.77258 42.5965 2.52643C42.2318 2.54983 41.877 2.56654 41.5419 2.61835V2.62671L40.3867 2.75874L39.8024 2.82559L39.2215 2.92085L38.2593 3.07628L36.3713 3.50915C35.7705 3.67628 35.178 3.86848 34.5921 4.05566L34.1548 4.19939L33.7257 4.36652L32.8724 4.70078L32.2899 4.90301C32.6463 4.73588 32.8147 4.64729 32.0951 4.87292C31.7122 4.99826 31.3343 5.15035 30.9497 5.29408C30.5652 5.43782 30.1774 5.5899 29.7945 5.75202L28.6392 6.28516L28.0566 6.55758C27.9592 6.60438 27.8602 6.64783 27.7628 6.69797L27.4757 6.85006L26.3122 7.46342C26.1174 7.56704 25.9161 7.66398 25.723 7.77596L25.142 8.11022C24.7525 8.33305 24.3581 8.55589 23.9587 8.77873C23.5593 9.01773 23.1715 9.26508 22.7704 9.49906H22.7605ZM13.8484 16.0656C14.1141 15.8282 14.3732 15.5976 14.629 15.3736C14.9591 15.0979 15.2892 14.8221 15.6193 14.5213C15.8388 14.314 16.055 14.1018 16.2794 13.8979L16.9643 13.3063C17.4248 12.9168 17.8704 12.5074 18.354 12.1497C18.8375 11.7921 19.3013 11.4093 19.7816 11.055L20.5572 10.5169L20.5836 10.4968C20.988 10.1977 21.3841 9.88846 21.7917 9.59766L22.6433 9.01605C21.103 9.96445 19.619 11.0035 18.1988 12.128C18.1695 12.1413 18.1377 12.1482 18.1056 12.1482C18.0734 12.1482 18.0417 12.1413 18.0123 12.128C17.818 12.3216 17.6137 12.5046 17.4001 12.6762C17.1806 12.86 16.9792 13.0556 16.8274 13.211C16.8785 13.1441 16.9066 13.0957 16.8818 13.089C16.5227 13.4618 16.1436 13.8145 15.7464 14.1452C15.4427 14.4177 15.1489 14.6734 14.6835 15.1213C14.4822 15.3319 14.3155 15.5491 14.129 15.7697L13.8484 16.0656ZM11.5247 18.6477C11.6369 18.4889 11.7491 18.3402 11.8547 18.1931C11.5148 18.6143 11.1698 19.0505 10.8398 19.5301L10.0921 20.5012C9.9634 20.6599 9.85118 20.8354 9.734 21.0025L9.38577 21.5039L8.686 22.5067L8.53581 22.749C9.50294 21.3351 10.5361 19.9741 11.6352 18.6661C9.85148 20.9294 8.25458 23.3375 6.86067 25.866C5.65751 28.0707 4.62405 30.366 3.76949 32.7317L4.04345 32.008C4.34547 31.2609 4.66565 30.5289 4.99738 29.8102C5.02379 29.7484 5.05019 29.6866 5.07825 29.6264L5.12116 29.5395C5.15582 29.466 5.19213 29.3924 5.22679 29.3172L5.17232 29.4376L5.5024 28.769C5.78792 28.2108 6.04868 27.6543 6.3672 27.1278C6.68573 26.6014 6.97784 26.0582 7.31287 25.5234L7.83934 24.7262L7.88721 24.6409C8.00274 24.4337 8.13642 24.2382 8.2602 24.0343C8.51106 23.632 8.76301 23.2293 9.01607 22.8259C9.1382 22.6204 9.27684 22.4282 9.41217 22.2309L9.81817 21.6443L10.2242 21.0577L10.4272 20.7635C10.4965 20.6683 10.5707 20.5747 10.6417 20.4794L11.5065 19.3463C11.7871 18.9619 12.099 18.6042 12.4027 18.2416C12.7063 17.8789 13.0117 17.5146 13.3186 17.1569L14.2792 16.1174L14.7594 15.6009C14.9245 15.4338 15.0895 15.2667 15.2545 15.0995L16.2547 14.1185C16.4197 13.9514 16.5947 13.8009 16.768 13.6472L17.2862 13.1842L17.7945 12.7313C15.5338 14.5027 13.4409 16.4833 11.5428 18.6477H11.5247ZM5.34396 29.5244C4.43215 31.4093 3.64055 33.3515 2.974 35.3389C2.67033 36.2464 2.39802 37.1639 2.14881 38.0848C1.79107 39.6094 1.51232 41.1519 1.31371 42.7059C1.27905 42.9833 1.24934 43.2625 1.21799 43.5416C1.43254 42.1711 1.69825 40.7706 2.03163 39.3516C2.82698 35.975 3.94233 32.684 5.36212 29.5244H5.34396ZM3.81571 36.7962C3.73649 37.1305 3.65892 37.4648 3.58465 37.7773C3.41959 38.4571 3.29503 39.1464 3.21166 39.8413C3.25787 39.6023 3.31398 39.3667 3.36349 39.131C3.47407 38.6296 3.57805 38.1166 3.67542 37.6269C3.77279 37.1372 3.90977 36.6508 4.0055 36.1728L3.81571 36.7962ZM0.760837 43.5884C1.15909 40.3542 1.8677 37.167 2.87664 34.072C2.87664 34.0837 2.87664 34.0971 2.87664 34.1055C3.73478 31.4634 4.83199 28.9071 6.1543 26.4693C5.95626 26.8554 5.75821 27.2465 5.56511 27.6259C5.37202 28.0052 5.20863 28.3863 5.03368 28.7273C5.63938 27.5022 6.29623 26.3122 6.99435 25.154C6.85571 25.3613 6.71544 25.5685 6.55865 25.8225C6.77155 25.3947 6.9927 24.9602 7.21881 24.5206C7.32608 24.2983 7.45811 24.0861 7.58354 23.8705L7.96808 23.2203C8.4632 22.3396 9.06064 21.5039 9.61847 20.6499C9.68779 20.5413 9.76206 20.4376 9.83962 20.3357L10.0657 20.0282L10.5163 19.4131C10.6648 19.2076 10.8117 19.002 10.9602 18.7981C11.1088 18.5942 11.2689 18.4037 11.4207 18.2065C11.7277 17.8154 12.0275 17.4254 12.3202 17.0366C12.6238 16.6605 12.9291 16.2945 13.2163 15.9268L12.642 16.5352L12.3466 16.8477C12.2459 16.953 12.1568 17.0667 12.061 17.182L10.9058 18.5391C10.1796 19.485 9.44188 20.4176 8.84444 21.3084C8.7058 21.4972 8.57542 21.6828 8.44999 21.8633C8.55727 21.7914 8.56387 21.8633 8.41204 22.1858C8.33282 22.3529 8.20904 22.5802 8.03245 22.8844C7.94168 23.0348 7.841 23.2053 7.72712 23.3975C7.61324 23.5897 7.47626 23.7969 7.34588 24.0409C5.52743 27.2281 4.02803 30.5913 2.87003 34.0804C2.87543 34.0061 2.88646 33.9323 2.90304 33.8598C2.92614 33.7729 2.9542 33.6693 2.99051 33.5556C3.05983 33.3283 3.15555 33.0542 3.24797 32.7751C3.3404 32.496 3.44437 32.2002 3.53679 31.9278C3.62921 31.6553 3.72658 31.4113 3.7827 31.2125L3.57805 31.6754C3.51038 31.8275 3.45591 31.9846 3.39485 32.1367L3.04992 33.0409C2.9377 33.34 2.82052 33.6308 2.71985 33.9266C2.61917 34.2225 2.53005 34.5199 2.43432 34.8158C2.24783 35.4074 2.05144 35.994 1.90621 36.6091C1.82699 36.9149 1.74117 37.2241 1.66855 37.5383C1.61079 37.7723 1.54807 38.0079 1.50351 38.2486L1.51836 38.1717C1.54146 38.0614 1.57118 37.9544 1.59758 37.8374L1.76262 37.1857C1.87155 36.7528 1.97552 36.3183 2.0927 35.8854L2.47723 34.6018L2.64227 34.0553C2.5515 34.3478 2.46568 34.6453 2.37326 34.9428C2.28084 35.2403 2.20823 35.4926 2.12406 35.7684C2.0795 35.9071 2.04319 36.0475 2.00853 36.1879C1.97387 36.3283 1.93756 36.4703 1.9029 36.6124C1.83194 36.8948 1.75932 37.1806 1.68835 37.4664L1.57942 37.896C1.54311 38.038 1.50846 38.1834 1.4804 38.3288C1.36488 38.9104 1.24605 39.4987 1.12887 40.087C0.703111 42.4874 0.468551 44.9186 0.427455 47.3571C0.427455 47.805 0.404348 48.2379 0.374641 48.6758C0.358138 48.8964 0.341636 49.117 0.325132 49.3443C0.325132 49.4128 0.325134 49.4813 0.316882 49.5499C0.336686 49.717 0.354835 49.9192 0.372989 50.1749C0.384542 50.3421 0.397752 50.5493 0.410955 50.7732C0.424158 50.9972 0.429106 51.2462 0.458813 51.522L0.468715 51.644C0.344653 48.9547 0.448458 46.2597 0.778989 43.5884H0.760837ZM1.85669 56.9587C1.81213 56.7648 1.76592 56.5726 1.72136 56.3821C1.6768 56.1916 1.64544 56.001 1.60583 55.8105C1.64049 56.2267 1.71475 56.6461 1.78572 57.0539C1.85669 57.4617 1.93591 57.8896 2.01182 58.3091C2.03163 58.4127 2.04979 58.518 2.07125 58.6233L2.14716 58.9341C2.19832 59.1431 2.24784 59.3503 2.299 59.5592C2.40462 59.9754 2.50859 60.3949 2.61257 60.8093C2.71654 61.2238 2.86343 61.6316 2.98886 62.0428C3.11429 62.4539 3.23476 62.8634 3.3767 63.2645C3.51863 63.6656 3.66386 64.065 3.80745 64.4611C3.95103 64.8572 4.07977 65.2566 4.2448 65.631C3.17487 62.822 2.37512 59.9149 1.85669 56.9503C1.9326 57.2846 2.00688 57.6188 2.08115 57.9631C2.11746 58.1303 2.15376 58.3091 2.19007 58.4862C2.22638 58.6634 2.27919 58.8406 2.32375 59.0211L2.60101 60.1425C2.64722 60.3347 2.69509 60.5319 2.74295 60.7341C2.79082 60.9363 2.85683 61.1352 2.90799 61.3425C2.79907 60.8896 2.69673 60.3297 2.568 59.723C2.50364 59.4205 2.43433 59.1063 2.36501 58.7854C2.34851 58.7052 2.33035 58.6183 2.3122 58.5431C2.29404 58.4679 2.28414 58.3759 2.27094 58.2974C2.24288 58.1303 2.21483 57.9631 2.18512 57.796L1.93591 56.5024C1.8897 56.2868 1.85999 56.0696 1.83029 55.8506L1.73786 55.1988C1.67845 54.7643 1.61738 54.3298 1.55797 53.8969C1.53321 53.6078 1.50681 53.3186 1.48206 53.0295C1.58108 54.508 1.75272 55.991 1.99698 57.4785C1.73787 55.8489 1.48205 54.1576 1.37643 52.4512C1.34837 52.025 1.31702 51.5989 1.29556 51.1727C1.27411 50.7465 1.28565 50.3203 1.2807 49.8975C1.2576 49.0485 1.32197 48.2095 1.37643 47.3905C1.38468 47.7749 1.38798 48.1627 1.38963 48.5605C1.35003 50.0011 1.37808 51.4551 1.47381 52.9142C1.52827 53.4807 1.57943 54.0456 1.67845 54.5988C1.73126 54.9331 1.78353 55.2607 1.83524 55.5815C1.8897 55.9058 1.93426 56.2317 2.01018 56.5492C2.15102 57.1854 2.28964 57.8133 2.42607 58.4328C2.45413 58.5364 2.48384 58.6383 2.5119 58.7436C2.38647 58.1102 2.26104 57.4768 2.18182 56.8367C2.23793 57.0372 2.29074 57.2528 2.34686 57.4734C1.83804 54.78 1.56576 52.0462 1.53322 49.3042C1.54972 49.8056 1.58108 50.3069 1.60583 50.8083L1.64379 51.5588C1.66029 51.8078 1.69165 52.0601 1.71476 52.3058L1.86659 53.7999C1.93095 54.3013 2.01513 54.7893 2.08775 55.284C2.23958 56.3771 2.43102 57.4701 2.66208 58.5564L2.72975 58.7837C2.79741 59.0044 2.86178 59.2166 2.92615 59.4155C2.58452 58.0534 2.3023 56.6762 2.08775 55.284L1.97387 54.4484C1.93756 54.1676 1.89465 53.8869 1.87814 53.6128C1.83193 53.0495 1.78407 52.4846 1.73786 51.9231C1.70816 51.6423 1.70816 51.3582 1.6966 51.0774L1.66855 50.2317L1.64214 49.3961L1.65534 48.5605L1.66855 47.7248C1.66855 47.6747 1.66855 47.6262 1.66855 47.5761C1.62069 47.6596 1.58603 47.6195 1.56458 47.4808C1.53817 48.0992 1.52661 48.7209 1.52991 49.3459C1.51341 48.6106 1.51341 47.8752 1.52991 47.1399C1.52991 47.0429 1.52991 46.9326 1.52991 46.8056C1.52991 46.4947 1.56622 46.1087 1.59923 45.6675C1.59923 45.6407 1.59923 45.6106 1.59923 45.5839C1.7328 43.4129 2.02518 41.2549 2.47394 39.1277V39.1126C2.29735 39.7193 2.14386 40.2709 2.04814 40.5182L2.11415 39.6558C1.93921 40.2475 1.75602 40.9795 1.56623 41.78C1.47711 42.1811 1.41108 42.604 1.33352 43.0335C1.26915 43.4029 1.20314 43.7772 1.14042 44.1549C0.908132 46.5867 0.884943 49.0343 1.07111 51.4702C1.07111 49.8641 1.00674 48.0006 1.10576 46.1889C1.12887 45.736 1.14373 45.2847 1.17509 44.8519C1.20644 44.419 1.26585 43.9811 1.31371 43.5633C1.39708 42.7906 1.53218 42.0245 1.71806 41.2703C0.891312 46.4692 0.944334 51.7727 1.87485 56.9537L1.85669 56.9587ZM11.2639 79.4609C9.24308 76.9654 7.4811 74.266 6.00577 71.4053C5.19746 69.8372 4.47353 68.226 3.83715 66.5786L3.72823 66.3513C3.66057 66.2009 3.583 66.0171 3.49388 65.8266C3.45262 65.7263 3.40311 65.6227 3.3602 65.5107L3.23146 65.1614C3.05322 64.675 2.85353 64.1202 2.64723 63.5369C2.59277 63.3915 2.54821 63.2411 2.50365 63.089C2.45909 62.9369 2.41287 62.7848 2.36831 62.6327C2.27754 62.3269 2.18677 62.0177 2.09765 61.7135C1.9062 61.1068 1.76757 60.4968 1.64379 59.947C1.62894 59.8918 1.61573 59.8366 1.60088 59.7798L1.63554 59.9704C1.66525 60.1375 1.70815 60.2946 1.74446 60.4534L1.96892 61.3976C2.04484 61.7068 2.11251 62.0144 2.19502 62.3169C2.27754 62.6194 2.37161 62.9135 2.45908 63.211C2.63732 63.806 2.80567 64.4026 3.03012 64.9909C3.13905 65.2884 3.24797 65.5875 3.3602 65.8917C3.44437 66.1174 3.52524 66.3463 3.61766 66.5753L3.5863 66.5034C3.54504 66.3998 3.50873 66.2945 3.46912 66.1892L3.23642 65.5608C3.08293 65.1413 2.92449 64.7252 2.77595 64.304L2.37162 63.0255L2.20658 62.479C2.29735 62.7731 2.39307 63.0672 2.48384 63.3647C2.57461 63.6622 2.64888 63.9129 2.74295 64.1887C2.78256 64.3274 2.83207 64.4644 2.88323 64.5998L3.03341 65.011C3.13409 65.2851 3.23476 65.5591 3.33544 65.8366L3.48892 66.2511C3.53844 66.3914 3.59125 66.5285 3.65396 66.6655C3.88502 67.2115 4.11718 67.7613 4.35043 68.3151C5.34853 70.5347 6.52076 72.6696 7.85585 74.6994C8.10671 75.0671 8.33116 75.4365 8.55231 75.8142L8.88239 76.3891C8.99627 76.5813 9.12336 76.7702 9.25044 76.9657C9.5079 77.3534 9.78351 77.7579 10.1053 78.1791C10.2733 78.3988 10.4529 78.6091 10.6434 78.8091C10.8513 79.0197 11.0593 79.2353 11.2854 79.4559L11.2639 79.4609ZM10.7011 77.6626C9.87593 76.4392 8.87414 75.0771 7.98954 73.6515C7.89711 73.5262 7.80799 73.4008 7.72547 73.2705L6.97454 72.1407L6.85407 71.9602C7.9801 73.9644 9.26678 75.8717 10.7011 77.6626ZM21.2636 87.5232C18.8059 85.8294 16.516 83.8984 14.4261 81.7573C14.6736 81.9868 14.9245 82.2214 15.1786 82.4609L15.5632 82.8303C15.6936 82.9523 15.8338 83.0692 15.9725 83.1929L16.829 83.955L17.2796 84.3595C17.4314 84.4982 17.5981 84.6252 17.7615 84.7623C17.4182 84.4531 17.0205 84.0503 16.5732 83.6258L15.88 82.9707L15.7001 82.8035L15.5269 82.6247L15.1803 82.267L14.2478 81.3445C14.0828 81.1941 13.9408 81.0336 13.7956 80.8715L13.3533 80.3868C13.0595 80.0643 12.7674 79.7417 12.4736 79.4208L11.6484 78.4181C12.0808 78.9295 12.4984 79.4526 12.9688 79.9222L13.6487 80.6409C13.8765 80.8765 14.0943 81.1189 14.3353 81.3361L15.7348 82.6464C16.2118 83.0559 16.692 83.4453 17.1558 83.8297C15.9626 82.75 14.799 81.6035 13.69 80.4002C13.6306 80.3434 13.5711 80.2866 13.5134 80.2331L13.0183 79.72L12.028 78.6988L11.0989 77.6426L10.6368 77.1178C10.4849 76.9507 10.3446 76.7568 10.1978 76.578L9.32965 75.4983C9.18112 75.3212 9.05073 75.1323 8.91375 74.9485L8.64804 74.5824C10.3373 77.1631 12.272 79.5701 14.4244 81.769C14.2775 81.6369 14.1339 81.5049 13.9903 81.3729C13.8468 81.2409 13.7131 81.1022 13.5728 80.9685C13.8352 81.291 14.1273 81.5885 14.4195 81.8893L15.309 82.7918C15.3849 82.8653 15.4575 82.9422 15.5351 83.0158L15.7728 83.228L16.2481 83.6542L17.2086 84.5016C17.5387 84.774 17.8688 85.0347 18.2104 85.2987C18.552 85.5628 18.8705 85.8336 19.2138 86.0826L20.242 86.818C20.5935 87.0553 20.922 87.311 21.2719 87.5299L21.2636 87.5232ZM9.49304 71.4672L9.57061 71.5674L9.42372 71.3151C9.45508 71.3719 9.47983 71.4237 9.50129 71.4738L9.49304 71.4672ZM45.7108 94.531L43.5653 94.4925L42.7616 94.4357C43.0201 94.4112 43.2804 94.4112 43.5389 94.4357C38.4585 94.092 33.4692 92.8999 28.7729 90.9076C29.0633 91.0162 29.4875 91.1366 29.6624 91.1884C29.4231 91.1065 29.1789 91.0346 28.9412 90.9427L28.2299 90.667L27.0862 90.1656C26.7099 89.9834 26.3385 89.7912 25.9639 89.6057L25.4044 89.3249C25.2163 89.2313 25.0298 89.1394 24.8482 89.0324L23.754 88.4191C24.198 88.6497 24.6122 88.8553 24.9852 89.0207C21.7146 87.2011 18.6677 84.9964 15.9081 82.4526C15.6671 82.2436 15.4262 82.0331 15.1885 81.8208C17.0599 83.6948 19.0924 85.3962 21.262 86.9049C21.153 86.8347 21.0474 86.7578 20.9319 86.6859C21.0375 86.7595 21.1415 86.8363 21.2488 86.9082L21.5788 87.1171L22.4139 87.6636L22.8315 87.936C22.9718 88.028 23.1104 88.1216 23.2556 88.2035L24.9918 89.2062C25.5266 89.4803 26.0646 89.7394 26.601 89.9917L27.002 90.1789L27.4113 90.3461L28.2365 90.6703L28.7795 90.911C28.423 90.7906 28.2431 90.7438 28.8967 91.0647C29.2482 91.2318 29.6113 91.3706 29.976 91.5227C30.3407 91.6747 30.7121 91.8218 31.09 91.9622L32.2453 92.3466C32.6364 92.4686 33.0243 92.614 33.4303 92.7143L34.6466 93.0485C34.8513 93.102 35.0559 93.1655 35.2639 93.2157L35.8894 93.3611C36.3085 93.4591 36.7305 93.5616 37.1552 93.6686C37.5827 93.7655 38.0151 93.8474 38.4475 93.946C38.6752 93.9962 38.9244 94.0463 39.1885 94.0964C39.3222 94.1248 39.4591 94.1449 39.6011 94.1616L40.0368 94.2168L40.9676 94.3254L41.4545 94.3772C41.6195 94.3939 41.7845 94.3989 41.9496 94.4106C42.1918 94.4544 42.4384 94.4685 42.684 94.4524L43.5637 94.5026C44.2898 94.531 45.0127 94.546 45.7191 94.5427L45.7108 94.531ZM48.4042 92.8363L47.7936 92.8613L47.0427 92.8965C46.7935 92.9081 46.5476 92.8965 46.2984 92.8965H45.9782H46.1267L47.7655 92.9499C47.9141 92.9549 48.1418 92.8948 48.4125 92.848L48.4042 92.8363ZM68.2749 87.1054C68.4895 87.0085 68.6991 86.9032 68.9087 86.7946C69.0737 86.6709 69.209 86.5539 69.3196 86.4603C69.2033 86.4833 69.0916 86.5263 68.9895 86.5873L68.7139 86.7227L68.4284 86.8497C68.0736 87.0068 67.8656 87.0937 68.4103 86.7845C68.6595 86.6458 68.8922 86.4871 69.1249 86.34C69.3576 86.1929 69.587 86.0492 69.8114 85.9088L70.4716 85.4976L71.0905 85.0765L72.254 84.291L73.2773 83.5272C73.861 83.0975 74.4183 82.632 74.9458 82.1333C75.1785 81.9127 75.398 81.7105 75.5812 81.4999C75.7511 81.305 75.9103 81.1008 76.0582 80.8882C76.1044 80.808 75.8816 80.935 75.5432 81.1523L75.2693 81.3294L74.954 81.5166L74.2939 81.9127C73.4274 82.4492 72.6435 82.8136 73.2822 82.3088C73.5463 82.0966 73.8516 81.8325 74.2048 81.5417C74.558 81.2509 74.9557 80.935 75.36 80.5556L75.9905 79.9841L76.3206 79.6866C76.4328 79.5863 76.545 79.486 76.6506 79.3757L78.0007 78.0387L78.7929 77.203L79.1988 76.7752C79.3342 76.6298 79.4761 76.4894 79.6032 76.3323C79.7059 76.2071 79.798 76.0735 79.8788 75.9328C81.3864 74.1538 82.7617 72.2639 83.9932 70.2789C84.144 70.0471 84.293 69.8148 84.4405 69.5819C84.5907 69.3513 84.7161 69.1073 84.8547 68.87C84.9869 68.6652 85.1319 68.4693 85.2888 68.2833C85.3581 68.1251 85.4291 67.9664 85.5017 67.807C85.5759 67.6499 85.6502 67.4945 85.7162 67.3324C85.8813 66.9981 86.0463 66.6756 86.2113 66.348L86.4573 65.8583C86.5381 65.6912 86.6223 65.5341 86.6933 65.3569C86.9821 64.6884 87.2824 64.0199 87.5564 63.3514C87.7214 62.9803 87.87 62.6093 88.0268 62.2416C88.1836 61.874 88.3568 61.5046 88.474 61.1269C88.441 61.1269 88.3668 61.2439 88.3849 61.0884C88.6539 60.2244 88.951 59.3704 89.1589 58.4929C89.2712 58.0567 89.3933 57.6222 89.489 57.186C89.5847 56.7498 89.6722 56.3052 89.7646 55.8657C89.8372 55.6016 89.9016 55.3459 89.9627 55.0969C90.07 54.5788 90.1673 54.0573 90.2581 53.5359C90.2281 53.5465 90.2007 53.5635 90.1776 53.5857C90.1546 53.6079 90.1364 53.6348 90.1244 53.6646L90.2119 53.1799C90.2416 53.0128 90.2548 52.8557 90.2779 52.6936L90.4 51.7426C90.4248 51.4568 90.4528 51.161 90.4726 50.8535C90.4941 50.439 90.5172 50.0078 90.5403 49.5682L90.5799 48.8997C90.5799 48.6758 90.5799 48.4502 90.5882 48.2312C90.5882 47.78 90.6014 47.327 90.608 46.8791C90.6146 46.4312 90.5783 45.9917 90.5634 45.5638C90.5486 45.136 90.5403 44.7282 90.4908 44.3338C90.4562 43.941 90.4231 43.5483 90.3885 43.1538L90.3357 42.5605L90.2498 41.9806L90.0848 40.794C90.0716 40.6954 90.06 40.5951 90.0435 40.4965L89.9907 40.2007L89.8818 39.6074C89.8587 39.3433 89.8406 39.0876 89.8306 38.8486C89.725 38.4642 89.6161 38.0581 89.5517 37.8709C89.4874 37.555 89.4263 37.2525 89.3685 36.96C89.3108 36.6675 89.2596 36.3801 89.187 36.1043L88.8107 34.4899C88.6565 34.1952 88.5183 33.8922 88.3965 33.5824C88.2644 33.1812 88.1373 32.7885 88.0037 32.4024L87.5581 31.2793L87.3105 30.6242C87.2296 30.4036 87.1273 30.1913 87.0365 29.974C86.8484 29.5412 86.6619 29.105 86.4721 28.6671C85.7817 27.1609 85.0103 25.6941 84.1616 24.2733C84.1814 24.3351 84.1302 24.2733 83.952 23.9607C83.81 23.7117 83.6483 23.4794 83.4981 23.2471L83.0542 22.5635L82.6333 21.905L82.2025 21.2883L81.3988 20.1301L80.6198 19.1123C80.1819 18.5318 79.7096 17.9787 79.2054 17.4561C78.9827 17.2254 78.778 17.0082 78.5651 16.8277C78.3522 16.6472 78.1459 16.4934 77.9495 16.358C77.8686 16.3146 77.999 16.5369 78.2218 16.8745L78.405 17.1469L78.5965 17.4611L79.0041 18.1296C79.552 18.9936 79.93 19.7708 79.4183 19.1441C79.2021 18.8817 78.9331 18.5792 78.6377 18.2299C78.3423 17.8806 78.0221 17.4828 77.6376 17.0884L77.0583 16.465L76.7563 16.1391C76.6556 16.0288 76.5533 15.9168 76.441 15.8048L75.0844 14.4678L74.2477 13.6856L73.8153 13.2845C73.6684 13.1525 73.5265 13.0121 73.368 12.8868C73.2422 12.7851 73.108 12.6945 72.967 12.616C71.2792 11.2186 69.4992 9.9393 67.6395 8.78709L67.1444 8.54307C67.5322 8.79544 67.9333 9.06117 68.364 9.33694C68.539 9.42719 68.8839 9.65448 69.2321 9.83832C69.4054 9.99543 69.5969 10.1575 69.8015 10.3247C68.7717 9.60379 67.6995 8.92135 66.5849 8.27734C64.1901 7.16063 61.7055 6.25315 59.1582 5.56483V5.54645C60.8873 6.00243 62.5853 6.57187 64.2414 7.25117L64.8619 7.49852C65.0666 7.58041 65.2696 7.65729 65.4627 7.74754C65.7713 7.88626 66.0684 8.01662 66.3572 8.1403C65.7465 7.791 65.1243 7.45674 64.4889 7.13752L63.9691 6.94031L63.5383 6.77318C63.3931 6.71636 63.2462 6.65954 63.0944 6.60605L61.2195 5.98935L60.0807 5.64672L59.4949 5.4796C59.2968 5.42277 59.0988 5.35759 58.8941 5.31247C58.7311 5.27689 58.5655 5.25454 58.399 5.24562C56.0484 4.69036 53.6603 4.31272 51.2545 4.11583L50.4029 4.03394C50.119 4.00552 49.8351 4.00552 49.5529 3.99048C49.3021 3.96567 49.053 3.92548 48.8069 3.87014C48.6287 3.88184 48.4488 3.89188 48.2706 3.89856C48.0923 3.90525 47.9124 3.90859 47.7325 3.92697L46.5971 3.94034H46.031C45.8428 3.94034 45.6547 3.94034 45.4666 3.95705C44.7173 4.00886 43.9696 4.0473 43.227 4.11248L41.9875 4.20942C41.5749 4.24619 41.1623 4.2629 40.7547 4.32975C40.7762 4.35649 40.9197 4.37153 40.7547 4.42836C39.8354 4.59549 38.9129 4.72585 38.0118 4.95482C37.5595 5.06011 37.1057 5.15537 36.6568 5.26902L35.3183 5.6484C34.5789 5.80383 33.9155 6.00104 33.3065 6.12138C33.0771 6.23502 32.8114 6.35202 32.5061 6.47903L32.28 6.58433L32.5754 6.46566C32.7091 6.41552 32.8378 6.36371 32.9517 6.31023C32.9763 6.33685 33.0067 6.35722 33.0406 6.3697C33.0744 6.38219 33.1107 6.38644 33.1464 6.3821L32.6628 6.53418C32.4978 6.58432 32.346 6.65117 32.1859 6.70131L31.26 7.04559C30.9877 7.15924 30.7022 7.27624 30.4134 7.40493L29.2069 7.96147L28.5798 8.24559L27.9592 8.56313L26.7148 9.19655C26.3105 9.41716 25.9194 9.65115 25.5365 9.86507C25.1536 10.079 24.7806 10.2912 24.4472 10.5336H24.4571L23.4273 11.2021L22.9123 11.5364L22.4172 11.8957L21.4105 12.616C21.328 12.6762 21.2455 12.7347 21.1596 12.7965L20.9154 12.9904L20.4203 13.3764C20.1892 13.5285 19.9664 13.6689 19.7601 13.7943C19.4581 14.0784 19.1412 14.3742 18.9993 14.5246L18.2582 15.1363C18.0173 15.3319 17.7813 15.5174 17.5651 15.7179L16.2745 16.8511C16.0778 17.1359 15.8668 17.4104 15.6424 17.6733C15.3404 17.9892 15.0433 18.2984 14.7545 18.6093L13.9441 19.5669L13.4655 20.1151C13.3005 20.2973 13.1586 20.4961 13.0051 20.685L12.0841 21.8432C10.0851 24.4692 8.36264 27.2995 6.94484 30.2882C6.92542 30.3149 6.9007 30.3372 6.87228 30.3536C6.84386 30.37 6.81235 30.3802 6.7798 30.3835C6.69893 30.6275 6.5768 30.9083 6.44972 31.1807C6.32264 31.4531 6.22857 31.7306 6.15596 31.9478C6.17411 31.8609 6.17906 31.8041 6.15596 31.8074C5.98716 32.3231 5.79215 32.8297 5.57171 33.325C5.40667 33.7211 5.25484 34.0971 5.02378 34.7339C4.92971 35.0247 4.87195 35.3055 4.79768 35.5963L4.66565 36.0224C4.51877 36.3784 4.38674 36.7377 4.26296 37.1037C4.20189 37.2876 4.14082 37.4714 4.08471 37.657C4.0286 37.8425 3.99064 38.0363 3.94443 38.2269C3.76784 38.9957 3.5731 39.7812 3.43941 40.6268L3.27438 41.4625C3.31068 41.3656 3.3536 41.2335 3.40311 41.0747C3.43282 40.9778 3.46582 40.8708 3.49883 40.7589C3.53183 40.6469 3.57804 40.5316 3.62095 40.4112L3.87347 39.6742C4.19364 38.6998 4.55343 37.9143 4.39334 38.7115C4.32733 39.0458 4.26295 39.4486 4.17878 39.8998C4.09462 40.3511 3.99229 40.8558 3.92957 41.404C3.89162 41.6781 3.85366 41.9605 3.81406 42.253C3.7926 42.3984 3.77279 42.5455 3.75134 42.6959C3.72988 42.8463 3.70843 42.9951 3.69853 43.1488C3.64241 43.7638 3.583 44.404 3.52359 45.0558C3.49828 45.4324 3.47242 45.8162 3.44601 46.2073C3.43446 46.4028 3.42126 46.6 3.40971 46.7989C3.39816 46.9978 3.38 47.1983 3.3833 47.4022C3.38493 47.5653 3.39984 47.728 3.42786 47.8886C3.41125 50.2323 3.5657 52.574 3.88997 54.8946L3.99394 55.7186C4.02035 55.9409 4.06327 56.1598 4.10453 56.3871L4.05501 55.9526C3.96754 55.2139 3.88997 54.4484 3.80085 53.5927C3.76124 53.3988 3.71998 52.9827 3.63581 52.5899C3.64571 52.3543 3.65066 52.1019 3.65231 51.8345C3.86 54.6987 4.33804 57.5361 5.0799 60.308C4.97097 59.9286 4.8802 59.5392 4.77953 59.1381C4.67885 58.7369 4.57818 58.3459 4.49236 57.9364C4.419 57.6246 4.32358 57.3185 4.20685 57.0205C4.19946 57.0402 4.18946 57.0587 4.17713 57.0757C4.17713 57.0255 4.16558 56.9737 4.16063 56.9236C4.16063 57.0473 4.17053 57.1592 4.16888 57.2579C4.21674 57.425 4.26461 57.5921 4.30917 57.7592C4.35373 57.9264 4.39499 58.0935 4.44945 58.2606C4.53362 58.62 4.61449 58.9776 4.70031 59.3336L4.82574 59.8684C4.86865 60.0472 4.90496 60.2261 4.95943 60.3999C5.15582 61.0684 5.34066 61.7369 5.54696 62.4054C5.53706 62.367 5.5288 62.3302 5.5189 62.2918C5.76316 63.1096 6.03438 63.9168 6.33255 64.7135C6.3441 64.7135 6.35895 64.7302 6.38535 64.7686C6.73028 65.6043 7.04551 66.4516 7.4482 67.2572C7.6413 67.6633 7.82449 68.0744 8.02584 68.4756L8.65794 69.6638C8.9022 70.212 9.15305 70.7051 9.37586 71.168C9.47323 71.3351 9.57061 71.5023 9.66963 71.6694C9.76865 71.8365 9.89244 71.9736 10.0146 72.1474L10.1598 72.3379L9.99475 72.0839C9.91883 71.9669 9.84457 71.8566 9.7703 71.7596C9.78731 71.732 9.79805 71.7008 9.80176 71.6685C9.80547 71.6361 9.80205 71.6033 9.79176 71.5725L10.0344 71.9986C10.1152 72.1407 10.1994 72.2744 10.2935 72.4131L10.8068 73.2203C10.9718 73.4527 11.1368 73.6983 11.3184 73.9457L12.0875 74.9702C12.2178 75.1473 12.3482 75.3262 12.4819 75.505L12.9044 76.0281C13.1883 76.3757 13.4721 76.7267 13.7527 77.0727C14.0333 77.4186 14.3402 77.7312 14.6241 78.047C14.908 78.3629 15.1786 78.6738 15.4641 78.9395V78.9295L16.2893 79.7651L16.7069 80.1829L17.1376 80.5874L18.014 81.3896C18.0883 81.4565 18.1609 81.525 18.2351 81.5902L18.4645 81.7807L18.925 82.1618C19.1132 82.3489 19.2881 82.5328 19.4498 82.7083C19.7799 82.9322 20.11 83.1712 20.2866 83.2731L21.0061 83.8481C21.2389 84.0353 21.46 84.2191 21.6894 84.3829L23.0097 85.3689C23.183 85.4625 23.5477 85.5762 23.9042 85.7918C24.2607 86.0074 24.6089 86.228 24.9555 86.4352L26.0118 87.0018L26.6208 87.3361C26.8221 87.4514 27.035 87.5467 27.243 87.6519L28.5072 88.282C31.3549 89.6238 34.3328 90.6617 37.3929 91.3789C37.422 91.3931 37.448 91.4132 37.4693 91.4379C37.4906 91.4626 37.5067 91.4915 37.5166 91.5227C37.7873 91.555 38.0561 91.6013 38.322 91.6614C38.5768 91.7138 38.834 91.7529 39.0928 91.7783C39.0086 91.7783 38.9541 91.7784 38.9624 91.8118C39.4751 91.8615 39.9847 91.9396 40.489 92.0458C40.8884 92.1143 41.2696 92.1845 41.9067 92.2714C42.1938 92.2981 42.4661 92.2931 42.7517 92.3015L43.1742 92.3366C43.5318 92.4023 43.8932 92.4547 44.2585 92.4937C44.44 92.5137 44.6232 92.5338 44.8064 92.5472L45.3642 92.5605C46.1102 92.5605 46.8793 92.5856 47.688 92.5321L48.9043 92.5137C49.0116 92.5137 49.1189 92.5137 49.2344 92.502C48.0354 92.523 46.8362 92.4812 45.6415 92.3767C47.0043 92.4823 48.3717 92.513 49.7378 92.4686L50.1256 92.4435L51.3403 92.3599L52.55 92.2179C52.8702 92.1778 53.1409 92.1527 53.3835 92.1343C53.6261 92.1159 53.834 92.0859 54.0321 92.0725C54.41 92.0391 54.745 92.019 55.1626 91.9739C57.8376 91.4339 60.4591 90.6508 62.9953 89.6341C63.0271 89.6285 63.0597 89.6298 63.091 89.6379C63.1223 89.6459 63.1516 89.6606 63.1769 89.6809C63.4173 89.5518 63.6641 89.4352 63.9162 89.3316C64.1551 89.2277 64.3887 89.1117 64.616 88.9839C64.5483 89.0324 64.5071 89.0709 64.5285 89.0842C64.9782 88.8309 65.441 88.6022 65.9149 88.399C66.2829 88.2319 66.6361 88.0647 67.2071 87.7689C67.288 87.7238 67.3639 87.6753 67.4398 87.6269L67.3342 87.6837C67.1411 87.784 66.9497 87.8943 66.7483 87.9829L66.4001 88.1383C66.6163 88.0313 66.8374 87.9361 67.0487 87.8191L67.5966 87.5232L67.9267 87.306L68.2749 87.1054ZM90.296 53.1515C90.2795 53.2785 90.268 53.4005 90.2614 53.5158C90.2729 53.449 90.2861 53.3821 90.296 53.3153C90.306 53.2484 90.3076 53.1649 90.3142 53.0863C90.3208 53.0077 90.3142 52.9192 90.3258 52.8456C90.3159 52.9443 90.306 53.0479 90.296 53.1465V53.1515ZM76.611 82.364C76.3008 82.6498 75.9509 82.979 75.5729 83.3116C74.723 84.042 73.7146 84.8157 72.7392 85.5294C74.6515 84.2442 76.4629 82.8116 78.1574 81.2442C80.2859 79.2775 82.2078 77.0933 83.8925 74.7262C82.8611 75.9479 81.7289 77.417 80.4977 78.7373C80.1907 79.0715 79.892 79.4058 79.5867 79.7183C79.2814 80.0309 78.9628 80.325 78.6592 80.6125C78.1037 81.147 77.5132 81.6429 76.8916 82.0966L76.611 82.364ZM71.7655 85.6013C72.4257 85.1183 73.0974 84.6436 73.7196 84.1706L72.9076 84.7489L72.6485 84.9344L72.3811 85.1015L71.8447 85.4458C71.4866 85.6731 71.1317 85.9054 70.7703 86.1277L70.3462 86.3701C70.229 86.4553 70.1102 86.5372 69.9946 86.6274C69.5969 86.8999 69.2024 87.1639 68.8245 87.4347L69.5457 87.0168L69.9171 86.8013C70.0408 86.7294 70.1597 86.6442 70.2818 86.5673L71.7655 85.6013ZM85.4637 73.6883C83.6081 76.3132 81.4898 78.7372 79.1427 80.9216C77.0918 82.8357 74.8833 84.569 72.5412 86.1026L72.3761 86.2581C72.8828 85.9556 73.4836 85.5628 74.1338 85.1233C74.4639 84.8976 74.7742 84.6436 75.1075 84.3912C75.4409 84.1389 75.7776 83.8798 76.1093 83.6141C76.441 83.3484 76.7579 83.0626 77.0748 82.7902L77.5485 82.389C77.7135 82.257 77.8604 82.1283 78.0023 81.9913C78.5816 81.4565 79.1229 80.9718 79.585 80.5874C77.357 82.7043 74.973 84.6464 72.4537 86.3968C72.9092 86.1093 73.3647 85.8252 73.8037 85.4976L74.5778 84.9428C74.7708 84.8024 74.9673 84.6637 75.162 84.5133L75.1009 84.5617C75.0135 84.6302 74.9227 84.6937 74.8319 84.7589L74.2939 85.1517C73.9341 85.4107 73.5776 85.6748 73.2162 85.9305L72.1022 86.6592L71.6285 86.9684C71.8843 86.8013 72.1401 86.6341 72.3992 86.467L73.1172 85.999C73.2393 85.9222 73.3565 85.8319 73.472 85.7534L73.8235 85.4993L74.5315 84.9879L74.888 84.7305C75.0085 84.6453 75.1257 84.5634 75.2396 84.4648L76.6308 83.3517C78.4861 81.797 80.2152 80.094 81.8015 78.2593C82.087 77.925 82.3808 77.6025 82.6828 77.2866L83.1449 76.812C83.2984 76.6448 83.4436 76.4777 83.5971 76.3005C83.9008 75.9496 84.2127 75.5735 84.5313 75.149C84.6965 74.9272 84.8502 74.6968 84.9917 74.4588C85.1468 74.2231 85.2987 73.9624 85.4505 73.6833L85.4637 73.6883ZM92.3079 46.6602C92.3079 46.4429 92.293 46.2257 92.2831 46.0084C92.2683 45.5739 92.2551 45.1343 92.2468 44.6914C92.2386 44.2485 92.194 43.804 92.1742 43.3544C92.1626 43.1187 92.1461 42.863 92.1247 42.5906C92.1247 42.4536 92.0999 42.3132 92.0785 42.1694C92.057 42.0257 92.0389 41.8803 92.0174 41.7299C91.9729 41.4291 91.925 41.1165 91.8771 40.7923C91.8524 40.6252 91.826 40.4681 91.8012 40.3009C91.7765 40.1338 91.7335 39.9667 91.7005 39.7995C91.6795 39.5513 91.6285 39.3066 91.5487 39.0709L91.3672 38.1968C91.2021 37.4882 91.0371 36.7779 90.844 36.0876C91.009 36.7762 91.1906 37.4882 91.3672 38.1968C91.42 38.4659 91.4711 38.7333 91.5223 38.9973C91.4299 38.7519 91.3597 38.4985 91.3127 38.2402C92.3119 43.2963 92.4791 48.4848 91.8078 53.5961C91.8342 53.2835 91.8375 52.8373 91.8425 52.6534C91.826 52.9091 91.821 53.1665 91.7963 53.4222L91.7187 54.1894L91.5322 55.4412C91.4563 55.8556 91.3672 56.2768 91.2912 56.6829L91.1708 57.3046C91.1295 57.5119 91.0916 57.7191 91.0371 57.923L90.7384 59.1531C90.8423 58.6517 90.9298 58.2005 90.9892 57.7943C89.8724 62.4937 88.0489 66.9913 85.5826 71.1296L85.1303 71.8465C84.9802 72.0855 84.8333 72.3262 84.6666 72.5535L83.6945 73.9356C83.5394 74.1696 83.3644 74.3852 83.1878 74.6042L82.6696 75.2727L82.153 75.9412L81.6035 76.5763L81.0572 77.2114C80.874 77.422 80.6941 77.6359 80.4977 77.8348L79.3424 79.0448C79.1543 79.252 78.943 79.4342 78.745 79.6281L78.1409 80.203C77.9396 80.3935 77.7416 80.5891 77.5353 80.7746L76.9048 81.3194C78.8319 79.7478 80.6009 77.9872 82.1861 76.0632C80.6508 77.9852 78.9599 79.7741 77.1309 81.4113L77.3521 81.2442C77.4789 81.1359 77.6207 81.047 77.7729 80.9801C77.9511 80.9267 77.7729 81.174 77.3851 81.6169C77.2481 81.764 77.0764 81.9278 76.89 82.1083C80.8556 78.6812 84.215 74.5942 86.8236 70.0232L86.5596 70.5496C86.4738 70.7268 86.3731 70.8922 86.2823 71.0644C86.5216 70.7301 86.7279 70.3608 86.9425 69.9947L87.5696 68.8917C87.6208 68.7981 87.6752 68.7062 87.7248 68.6109L87.865 68.3235L88.1473 67.7469C88.3321 67.3614 88.518 66.9747 88.7051 66.587C88.8701 66.1942 89.0352 65.7948 89.2002 65.4004C89.3652 65.006 89.5303 64.6132 89.6854 64.2138C89.8406 63.8143 89.9742 63.4149 90.1178 63.0171C90.2614 62.6193 90.4165 62.2316 90.5354 61.8322C89.5615 64.6767 88.3185 67.4192 86.8236 70.0215C86.9771 69.719 87.1339 69.4131 87.2989 69.1023C87.3798 68.9469 87.464 68.7881 87.5482 68.6293C87.6323 68.4705 87.7132 68.295 87.7875 68.1279L88.2826 67.09L88.5516 66.5452C88.6424 66.3614 88.7166 66.1642 88.8091 65.9686C88.6028 66.3848 88.3238 66.8795 88.035 67.426C87.8931 67.7001 87.7429 67.9859 87.5911 68.2767L87.4772 68.4956L87.3534 68.7112L87.1026 69.1441L86.4672 70.2973C86.3648 70.4911 86.2493 70.6766 86.1371 70.8622L85.7905 71.4204C85.5594 71.7914 85.3289 72.1624 85.099 72.5334L84.3547 73.6047C84.7293 73.0465 85.1188 72.5034 85.4472 71.9251L85.9539 71.0727C86.1189 70.7886 86.2939 70.5128 86.4374 70.2204L87.3204 68.509C87.5861 67.9374 87.832 67.3675 88.0779 66.8126C86.4661 70.1133 84.4883 73.2174 82.1827 76.0649C82.4897 75.6704 82.7835 75.2677 83.0855 74.8699L83.5344 74.2716C83.6813 74.0694 83.815 73.8588 83.9569 73.6532L84.8036 72.3981C85.0709 71.9769 85.3218 71.5457 85.5826 71.1212C87.3713 68.2506 88.8351 65.1851 89.9462 61.9826C89.9082 62.1063 89.862 62.2299 89.8207 62.3536C89.8636 62.2299 89.9099 62.1079 89.9511 61.9842L90.0633 61.6116C90.1657 61.2918 90.2669 60.972 90.367 60.6522L90.5189 60.1726C90.5684 60.0054 90.6228 59.8517 90.6624 59.6879C90.8308 59.0361 91.0008 58.3826 91.1724 57.7275C91.2945 57.1325 91.3985 56.5392 91.5025 55.9509L91.5768 55.5097L91.6279 55.0651L91.722 54.181L91.8111 53.5877C91.788 53.9671 91.7963 54.1543 91.925 53.4323C91.9894 53.0479 92.0306 52.6534 92.0801 52.2624C92.1296 51.8713 92.1742 51.4651 92.2089 51.0607C92.2435 50.6562 92.2518 50.2434 92.2732 49.829C92.2947 49.4145 92.3244 48.9933 92.3145 48.5738V47.297C92.3079 47.0847 92.3161 46.8691 92.3079 46.6602ZM72.3184 82.8553C72.6716 82.5211 73.1815 82.1333 73.7361 81.6453C74.0166 81.408 74.3186 81.159 74.6372 80.9016C74.8022 80.7762 74.9524 80.6358 75.1108 80.4955L75.5944 80.0693C76.8985 78.9448 78.129 77.7355 79.2781 76.4493H79.2682C76.7175 79.2911 73.8003 81.7719 70.5954 83.8247C70.9073 83.6459 71.2093 83.4771 71.5014 83.3233C71.7936 83.1695 72.0576 82.989 72.3184 82.8487V82.8553ZM48.6848 92.1594C48.4108 92.1728 48.1352 92.1594 47.8596 92.1594L47.0344 92.146C46.7605 92.146 46.4865 92.146 46.2092 92.1293L45.384 92.0742L44.5588 92.0207L44.1479 91.9939C44.0126 91.9823 43.8756 91.9639 43.7402 91.9488C46.1776 92.2643 48.6395 92.3388 51.0911 92.1711L52.5583 92.0257C53.0451 91.9639 53.5304 91.8853 54.0172 91.8151L54.745 91.7065L55.4679 91.5644C55.9498 91.4675 56.4317 91.3772 56.912 91.2736C54.7377 91.7066 52.5362 91.9858 50.3236 92.1093L48.6848 92.1594ZM65.9429 86.4018L64.8636 86.8848L64.3222 87.1271C64.1391 87.2024 63.9542 87.2709 63.7694 87.3444C63.9559 87.2776 64.1457 87.2174 64.3305 87.1489L64.8817 86.9316L65.9792 86.4921C65.9512 86.4653 65.8241 86.482 65.9429 86.3951V86.4018ZM58.4485 89.0759L58.0244 89.1711C58.3033 89.131 58.5475 89.106 58.7373 89.0892C59.0575 88.9622 59.3777 88.8452 59.7012 88.7316L58.876 88.9622L58.4485 89.0759ZM49.1321 90.458C49.2916 90.4499 49.4501 90.4275 49.6057 90.3912C49.1436 90.4112 48.6799 90.4463 48.2145 90.4547H46.8298C47.5675 90.4597 48.3382 90.4965 49.1321 90.448V90.458ZM4.75972 37.657C4.70691 38.1466 4.56168 38.7734 4.44945 39.5087C4.38674 39.8731 4.31412 40.2625 4.23655 40.6653C4.19199 40.8675 4.16394 41.0747 4.13258 41.287C4.10122 41.4992 4.06821 41.7115 4.0352 41.9271C3.75559 43.6411 3.58689 45.3718 3.53018 47.1081H3.54009C3.67561 43.2671 4.32292 39.4623 5.46444 35.7968C5.34066 36.1311 5.21689 36.4653 5.09311 36.7712C4.96933 37.077 4.87525 37.3795 4.75972 37.657ZM7.83934 29.6832L7.28317 30.7345C7.31617 30.7345 7.4053 30.6342 7.36734 30.7813L7.88391 29.7066L8.14302 29.1685C8.23379 28.9913 8.33281 28.8158 8.42688 28.6403C8.32621 28.8075 8.22059 28.983 8.12156 29.1568L7.83934 29.6832ZM10.645 24.9234L11.1401 24.2031L11.386 23.8421L11.6501 23.4911C11.462 23.705 11.292 23.8839 11.155 24.0192C10.9998 24.3267 10.8299 24.6259 10.6533 24.9234H10.645ZM17.2961 17.055C17.6377 16.7391 17.9694 16.4065 18.3193 16.0973L19.3739 15.1881C18.8029 15.6611 18.1922 16.1374 17.6163 16.6923C17.5022 16.8043 17.3973 16.9256 17.3027 17.055H17.2961Z" fill="white"/>
</svg>
