<svg width="24" height="16" viewBox="0 0 24 16" fill="none" xmlns="http://www.w3.org/2000/svg">
<path d="M23.7791 0.181046C23.5609 0.457357 23.3172 0.721366 23.0502 0.971138C21.3994 2.37032 19.62 3.65427 17.8835 4.98761C16.147 6.32094 14.9464 7.16045 13.4242 8.27979C11.9021 9.39913 10.4228 10.4032 8.85774 11.4238L4.03403 14.5021L3.79824 14.6337C2.81205 15.0617 1.65437 15.2263 0.86114 16C0.86114 16 0.303696 16 0.153625 15.9012C0.0840255 15.8257 0.0365351 15.7395 0.0143335 15.6486C-0.00786815 15.5577 -0.0042515 15.4642 0.0249979 15.3744C0.132042 15.1894 0.30248 15.0302 0.518112 14.9136C2.19033 13.9424 3.71246 12.8559 5.32037 11.8518L10.1655 8.83951C12.8668 7.19341 15.4609 5.5473 17.9478 3.67075C18.1665 3.45044 18.4266 3.25621 18.7196 3.09456C19.9534 2.53216 21.0491 1.80789 21.9568 0.954661C22.3855 0.606882 22.8517 0.287576 23.3503 0L23.7791 0.181046Z" fill="white"/>
</svg>
