<svg width="20" height="20" viewBox="0 0 20 20" fill="none" xmlns="http://www.w3.org/2000/svg">
<g clip-path="url(#clip0_1212_1353)">
<path d="M17.5585 2.38983H2.44569C1.09663 2.38983 0 3.48646 0 4.83552V15.1645C0 16.5136 1.09663 17.6102 2.44569 17.6102H17.5543C18.9034 17.6102 20 16.5136 20 15.1645V4.83966C20.0041 3.4906 18.9075 2.38983 17.5585 2.38983ZM18.8868 15.1645C18.8868 15.897 18.2909 16.4929 17.5585 16.4929H2.44569C1.71322 16.4929 1.11732 15.897 1.11732 15.1645V4.83966C1.11732 4.10719 1.71322 3.51129 2.44569 3.51129H17.5543C18.2868 3.51129 18.8827 4.10719 18.8827 4.83966V15.1645H18.8868Z" fill="#2F80ED"/>
<path d="M12.6133 9.87174L17.5046 5.48524C17.7322 5.27833 17.7529 4.92658 17.546 4.69484C17.3391 4.46724 16.9874 4.44655 16.7556 4.65346L10.0103 10.7077L8.69437 9.53241C8.69023 9.52827 8.68609 9.52413 8.68609 9.52C8.65713 9.49103 8.62816 9.4662 8.59505 9.44137L3.2402 4.64932C3.00846 4.44241 2.65671 4.4631 2.4498 4.69484C2.24289 4.92658 2.26358 5.27833 2.49532 5.48524L7.44463 9.90899L2.51601 14.5231C2.29255 14.7341 2.28013 15.0859 2.49118 15.3135C2.60291 15.4294 2.75189 15.4914 2.90086 15.4914C3.03743 15.4914 3.17399 15.4418 3.28158 15.3425L8.28469 10.6621L9.64202 11.8746C9.74962 11.9698 9.88204 12.0153 10.0145 12.0153C10.1469 12.0153 10.2834 11.9657 10.3869 11.8705L11.7815 10.6208L16.7556 15.3466C16.8632 15.4501 17.0039 15.4997 17.1405 15.4997C17.2895 15.4997 17.4343 15.4418 17.546 15.3259C17.7571 15.1024 17.7488 14.7466 17.5253 14.5355L12.6133 9.87174Z" fill="#2F80ED"/>
</g>
<defs>
<clipPath id="clip0_1212_1353">
<rect width="20" height="20" fill="white"/>
</clipPath>
</defs>
</svg>
