<svg width="43" height="6" viewBox="0 0 43 6" fill="none" xmlns="http://www.w3.org/2000/svg">
<path d="M42.0732 0.00714064L0.74003 4.07909C0.632888 4.08964 0.528856 4.12134 0.433877 4.17237C0.338897 4.2234 0.254829 4.29277 0.186472 4.37653C0.118115 4.46028 0.0668078 4.55677 0.0354797 4.66049C0.00415155 4.76422 -0.00658377 4.87315 0.0038866 4.98105C0.014357 5.08895 0.0458278 5.19372 0.0965026 5.28937C0.147177 5.38502 0.216064 5.46968 0.299228 5.53852C0.382393 5.60736 0.478206 5.65903 0.581199 5.69058C0.684192 5.72213 0.792348 5.73295 0.89949 5.7224L42.2327 1.64825C42.3424 1.64123 42.4496 1.61205 42.5478 1.56245C42.6461 1.51284 42.7335 1.44382 42.8047 1.3595C42.8759 1.27518 42.9296 1.17729 42.9624 1.07165C42.9953 0.966015 43.0067 0.854791 42.996 0.744614C42.9853 0.634437 42.9527 0.52756 42.9001 0.430344C42.8475 0.333127 42.7761 0.247564 42.69 0.17875C42.6039 0.109936 42.5049 0.0592726 42.3989 0.0297918C42.293 0.000311055 42.1822 -0.00739419 42.0732 0.00714064Z" fill="#6051BB"/>
</svg>
