<svg width="15" height="2" viewBox="0 0 15 2" fill="none" xmlns="http://www.w3.org/2000/svg">
<path d="M4.20818 1.26476C2.72454 1.42321 1.21832 1.13846 0 0.469335C0.36687 0.270497 0.561109 0.121417 0.755334 0.104847C2.99716 -0.118963 5.27502 0.0164281 7.44527 0.502507C8.95532 0.708293 10.496 0.747363 12.0204 0.618508C12.9268 0.526762 13.8469 0.672731 14.6316 1.03275C14.8043 1.13217 15.0201 1.34761 14.9985 1.48017C14.9526 1.56915 14.8762 1.64685 14.7775 1.7052C14.6787 1.76354 14.5612 1.80027 14.4374 1.81149C11.9988 1.64579 9.5602 1.49673 7.14317 1.26476C6.1747 1.06578 5.15512 1.06578 4.18664 1.26476H4.20818Z" fill="white"/>
</svg>
