<svg width="18" height="18" viewBox="0 0 18 18" fill="none" xmlns="http://www.w3.org/2000/svg">
<g clip-path="url(#clip0_1212_17485)">
<path d="M15.3679 2.63472C11.8583 -0.874822 6.14604 -0.874822 2.6365 2.63472C0.936466 4.33542 0 6.59609 0 9.00038C0 11.4047 0.936466 13.6653 2.6365 15.3654C4.39162 17.1205 6.69691 17.9977 9.00216 17.9977C11.3074 17.9977 13.6127 17.1205 15.3678 15.3654C18.8774 11.8558 18.8774 6.14493 15.3679 2.63472ZM14.3819 14.3794C11.4155 17.3457 6.5888 17.3457 3.62247 14.3794C2.18604 12.9429 1.39459 11.0323 1.39459 9.00038C1.39459 6.96844 2.18604 5.05782 3.62247 3.62069C6.5888 0.654349 11.4155 0.655052 14.3819 3.62069C17.3475 6.58702 17.3475 11.4137 14.3819 14.3794Z" fill="white"/>
<path d="M12.0068 10.9277L10.0327 8.95641L12.0068 6.98514C12.2787 6.71321 12.2787 6.27182 12.0075 5.99914C11.7349 5.7258 11.2935 5.7265 11.0208 5.99844L9.04538 7.97111L7.06993 5.99844C6.79729 5.7265 6.3559 5.7258 6.08326 5.99914C5.81132 6.27178 5.81132 6.71317 6.08396 6.98514L8.05804 8.95641L6.08396 10.9277C5.81132 11.1996 5.81132 11.641 6.08326 11.9137C6.21924 12.0503 6.39844 12.118 6.57696 12.118C6.75549 12.118 6.93398 12.0496 7.06996 11.9143L9.04541 9.94167L11.0209 11.9143C11.1568 12.0503 11.3353 12.118 11.5139 12.118C11.6924 12.118 11.8716 12.0496 12.0076 11.9137C12.2794 11.641 12.2794 11.1996 12.0068 10.9277Z" fill="white"/>
</g>
<defs>
<clipPath id="clip0_1212_17485">
<rect width="18" height="18" fill="white"/>
</clipPath>
</defs>
</svg>
