<svg width="36" height="36" viewBox="0 0 36 36" fill="none" xmlns="http://www.w3.org/2000/svg">
<path d="M32.841 14.9469L18.8005 0.904264C17.9724 0.0782324 16.6329 0.0880058 15.8156 0.903209C14.9937 1.7272 14.9937 3.06511 15.8156 3.88804L29.8582 17.9297C30.6809 18.7523 32.0183 18.7523 32.841 17.9297C33.6659 17.1048 33.6659 15.7716 32.841 14.9469Z" fill="#00BF91"/>
<path d="M14.7741 5.82928L14.6685 6.35902C13.9241 10.0826 12.1149 13.6201 9.66797 16.4873L17.3072 24.1265C20.174 21.68 23.6628 19.8223 27.3865 19.077L27.9172 18.9713L14.7741 5.82928Z" fill="#00BF91"/>
<path d="M8.26721 18.0696L3.04629 23.2894C1.81266 24.5231 1.80753 26.5259 3.04629 27.7646L6.02909 30.7474C7.26272 31.981 9.2655 31.9861 10.5043 30.7474L15.7247 25.527L8.26721 18.0696ZM9.01294 26.2733C8.60098 26.6853 7.9335 26.6853 7.52154 26.2733C7.10958 25.8613 7.10958 25.1939 7.52154 24.7819L9.01294 23.2905C9.4249 22.8785 10.0924 22.8785 10.5043 23.2905C10.9163 23.7025 10.9163 24.3699 10.5043 24.7819L9.01294 26.2733Z" fill="#00BF91"/>
<path d="M20.1285 31.3086L21.5633 29.8739C22.8021 28.6353 22.798 26.6325 21.5633 25.3999L20.4977 24.3334C19.9087 24.7291 19.3462 25.159 18.7993 25.6177L20.0719 26.8922C20.4829 27.3011 20.4858 27.9666 20.0719 28.3826L18.6135 29.841L16.4702 27.7645L13.4873 30.7474L18.2726 35.3843C19.0892 36.203 20.43 36.2077 21.2543 35.3833C22.0772 34.5603 22.0772 33.2224 21.2543 32.3994L20.1285 31.3086Z" fill="#00BF91"/>
<path d="M24.3892 0C23.8062 0 23.3345 0.471727 23.3345 1.05469V3.16406C23.3345 3.74702 23.8062 4.21875 24.3892 4.21875C24.9721 4.21875 25.4438 3.74702 25.4438 3.16406V1.05469C25.4438 0.471727 24.9721 0 24.3892 0Z" fill="#00BF91"/>
<path d="M32.8267 8.4375H30.7173C30.1343 8.4375 29.6626 8.90923 29.6626 9.49219C29.6626 10.0751 30.1343 10.5469 30.7173 10.5469H32.8267C33.4096 10.5469 33.8813 10.0751 33.8813 9.49219C33.8813 8.90923 33.4096 8.4375 32.8267 8.4375Z" fill="#00BF91"/>
<path d="M31.463 2.41835C31.051 2.00638 30.3835 2.00638 29.9716 2.41835L27.8622 4.52772C27.4502 4.93968 27.4502 5.60716 27.8622 6.01912C28.2742 6.43108 28.9416 6.43115 29.3536 6.01912L31.463 3.90974C31.8749 3.49778 31.8749 2.83031 31.463 2.41835Z" fill="#00BF91"/>
</svg>
