<svg width="24" height="24" viewBox="0 0 24 24" fill="none" xmlns="http://www.w3.org/2000/svg">
<path d="M17.58 2.72999C15.8684 1.33144 13.6955 0.623951 11.4886 0.7467C9.28178 0.86945 7.20072 1.81355 5.65483 3.39328C4.10895 4.97302 3.21014 7.07403 3.13522 9.28304C3.06029 11.492 3.81468 13.6491 5.24997 15.33C6.73788 17.006 8.06379 18.8191 9.20997 20.745L9.92997 22.035C10.1357 22.4034 10.436 22.7102 10.7999 22.9237C11.1638 23.1373 11.578 23.2499 12 23.2499C12.4219 23.2499 12.8362 23.1373 13.2001 22.9237C13.564 22.7102 13.8643 22.4034 14.07 22.035L14.91 20.52C15.9995 18.6869 17.2709 16.9682 18.705 15.39C19.4822 14.4939 20.0709 13.4504 20.4361 12.3218C20.8012 11.1932 20.9353 10.0027 20.8303 8.82114C20.7253 7.6396 20.3834 6.49133 19.825 5.44481C19.2665 4.3983 18.503 3.475 17.58 2.72999ZM12 12.105C11.5075 12.105 11.0261 11.9589 10.6166 11.6853C10.2071 11.4117 9.88797 11.0229 9.69951 10.5679C9.51105 10.1129 9.46174 9.61222 9.55782 9.12921C9.65389 8.6462 9.89104 8.20252 10.2393 7.85429C10.5875 7.50606 11.0312 7.26891 11.5142 7.17283C11.9972 7.07675 12.4979 7.12606 12.9529 7.31453C13.4078 7.50299 13.7967 7.82214 14.0703 8.23162C14.3439 8.64109 14.49 9.12251 14.49 9.61499C14.4908 9.9422 14.4269 10.2664 14.3021 10.5688C14.1772 10.8713 13.9939 11.1461 13.7625 11.3775C13.5311 11.6089 13.2563 11.7922 12.9538 11.9171C12.6513 12.0419 12.3272 12.1058 12 12.105Z" fill="#FF6A6A"/>
</svg>
