<svg width="106" height="106" viewBox="0 0 106 106" fill="none" xmlns="http://www.w3.org/2000/svg">
<g clip-path="url(#clip0_1212_21239)">
<path d="M0.0600723 61.473C0.0390483 61.3572 0.0180206 61.2384 0 61.1226C0.0180206 61.2384 0.0390483 61.3572 0.0600723 61.473Z" fill="white"/>
<path d="M44.6671 1.78972C44.9885 1.73965 45.3129 1.71775 45.6312 1.69585L46.5623 1.62701C46.0607 1.78659 45.5442 1.918 45.0216 2.04941C44.499 2.18083 43.9703 2.33727 43.4297 2.46556C43.1624 2.53126 42.8891 2.58132 42.6188 2.65329L41.8019 2.86605C41.2582 3.00998 40.7026 3.12575 40.153 3.27593L39.321 3.51373C39.0567 3.54814 38.7834 3.59195 38.5041 3.64827C38.0707 3.73029 37.6432 3.84319 37.2246 3.98619C36.312 4.28233 35.4174 4.63549 34.5456 5.04375C34.0951 5.25025 33.6446 5.45363 33.191 5.66952C32.7375 5.88541 32.29 6.11695 31.8665 6.32971L31.2088 6.6426C30.9895 6.74273 30.7793 6.85537 30.5691 6.95549C30.1456 7.15887 29.7251 7.34034 29.3106 7.49992C32.0296 5.79304 34.9331 4.42768 37.9605 3.43238C40.0245 2.75545 42.1323 2.23264 44.2677 1.86794L44.6671 1.78972Z" fill="white"/>
<path d="M43.4987 0.200248C43.8591 0.128284 44.2195 0.0625775 44.5799 0H44.6971C44.3427 0.0625775 43.9883 0.131413 43.6339 0.200248C43.0812 0.309758 42.5316 0.428654 41.982 0.55068C42.5827 0.425525 43.1323 0.309758 43.6909 0.200248H44.4688C42.9881 0.488104 40.9638 0.844798 39.0897 1.29223C40.5463 0.851056 42.0481 0.488104 43.4987 0.200248Z" fill="white"/>
<path d="M90.4181 23.4572C91.0188 24.255 91.5144 25.1155 92.049 25.9603C92.2052 26.0542 92.2172 25.8758 92.2743 25.8164C92.4845 26.2043 92.6497 26.6267 92.8269 27.0366L93.3555 28.2882C93.7189 28.9984 94.0583 29.7274 94.4097 30.4533C94.7611 31.1792 95.0404 31.9458 95.3558 32.6936C95.563 33.0065 95.7462 33.3601 95.9745 33.6792C95.9509 33.9658 95.9661 34.2544 96.0195 34.5365C96.1157 34.8244 96.2298 35.106 96.3199 35.4001L96.401 35.6754L96.1967 35.2593C96.0976 34.8432 95.9955 34.4333 95.8964 34.0297C95.6277 33.7743 95.4005 33.4753 95.2236 33.1442C95.0524 32.7155 94.8602 32.3056 94.677 31.8926C94.4938 31.4796 94.3076 31.0854 94.1094 30.7005C94.4938 31.5391 94.8542 32.3839 95.1906 33.2255C95.1305 33.116 95.0734 33.0065 95.0134 32.9126C94.0057 31.0229 92.9029 29.19 91.7096 27.4215C89.5607 24.1031 87.0468 21.0579 84.2191 18.3477C81.363 15.6419 78.2813 13.2063 75.0105 11.07L74.7102 10.8697L74.4099 10.6789L73.8092 10.3003L72.6078 9.53995C71.7849 9.07374 70.9769 8.60128 70.163 8.13195L68.9376 7.46863C68.5322 7.24961 68.1297 7.01807 67.7182 6.82095L66.5168 6.19518L66.4328 6.15137L66.7932 6.27966L67.2106 6.42358L67.6221 6.58941L68.4451 6.92107L69.262 7.25274C69.5353 7.36538 69.7996 7.49679 70.0669 7.61882C72.2075 8.57722 74.2801 9.69286 76.269 10.9573C74.1346 9.34399 71.8213 8.00455 69.3791 6.96801L67.8774 6.44861C67.6281 6.36414 67.3818 6.27027 67.1326 6.19518L66.3757 5.97302L65.5588 5.73523L65.2374 5.57879L64.1712 5.06878L65.1473 5.35664C65.3936 5.43173 65.6399 5.49431 65.8771 5.57879L66.5949 5.82597C67.0064 5.94799 67.4209 6.07315 67.8414 6.20456C68.2618 6.33598 68.6733 6.51745 69.0968 6.68641C69.4603 6.77052 69.8335 6.80002 70.2051 6.77402C70.7216 7.0869 71.2352 7.39979 71.7728 7.69391C72.0462 7.84096 72.3135 8.0068 72.5898 8.18514C72.8661 8.36349 73.1574 8.52619 73.4608 8.7014C73.677 8.73895 74.0915 8.92043 74.521 9.01429C74.7083 9.2359 74.9089 9.44491 75.1217 9.64007L75.6893 9.95295L75.9716 10.1125C76.0678 10.1657 76.1579 10.2252 76.248 10.2846C76.6174 10.513 76.9838 10.7414 77.3472 10.973L77.8968 11.314L78.4284 11.6801L79.4857 12.4123V12.3872C79.8521 12.6062 80.2005 12.891 80.5729 13.1694C80.9453 13.4479 81.3268 13.7389 81.7022 14.0487L82.8134 15.0155L83.3691 15.4973L83.8977 15.9979C84.2491 16.3265 84.5975 16.6456 84.9369 16.9366C85.1832 17.1619 85.4144 17.3872 85.6457 17.5968L86.3365 18.3978C86.4506 18.5355 86.5737 18.6638 86.6849 18.8077L87.0183 19.2332C87.0188 19.106 87.0624 18.983 87.1414 18.8859C87.0198 18.8062 86.907 18.7128 86.805 18.6074C86.7179 18.5292 86.6338 18.4447 86.5467 18.3571L86.775 18.5355C87.0187 18.7361 87.2767 18.917 87.5469 19.0768C87.8702 19.7618 88.2322 20.4263 88.6311 21.0667L89.5321 22.2275C89.8535 22.6437 90.1328 23.0661 90.4181 23.4572Z" fill="white"/>
<path d="M44.8863 0.00627431C44.5024 0.154145 44.0938 0.220113 43.6849 0.200263L44.0904 0.122041C44.3637 0.0782369 44.625 0.0406919 44.8863 0.00627431Z" fill="white"/>
<path d="M48.4693 2.8879H48.9769L48.229 2.93484C48.3082 2.91439 48.3884 2.89871 48.4693 2.8879Z" fill="white"/>
<path d="M86.3727 83.0779C85.8441 83.5754 85.3155 84.0603 84.7839 84.5234C85.1623 84.2105 85.5257 83.8507 85.8951 83.5159L86.3727 83.0779Z" fill="white"/>
<path d="M69.0098 99.1353L68.0728 99.4231C67.8434 99.5861 67.5691 99.6663 67.2919 99.6515C66.565 99.8361 65.8592 100.008 65.2075 100.146C64.6213 100.251 64.0295 100.319 63.4355 100.349L62.6996 100.384L61.9728 100.406C61.4893 100.424 61.0117 100.456 60.5372 100.493L57.7349 100.643L56.3654 100.668C55.9119 100.668 55.4644 100.687 55.0199 100.668C54.5753 100.65 54.1368 100.615 53.7044 100.575C53.4881 100.556 53.2719 100.534 53.0586 100.509C52.8454 100.484 52.6321 100.44 52.4219 100.399C51.632 100.265 51.8422 100.183 52.2597 100.124L51.611 100.065L50.6378 100.083C50.3135 100.083 49.9891 100.055 49.6617 100.036C49.3344 100.018 49.01 99.9894 48.6826 99.9582C48.3553 99.9269 48.0249 99.8893 47.7005 99.8236C46.9767 99.6672 46.2528 99.5107 45.538 99.3543L43.4116 98.7786C43.1323 98.7191 42.862 98.6284 42.5887 98.5533L43.0031 98.6597C39.4577 97.5706 36.0344 96.0895 32.7915 94.2417L31.3318 93.4876L29.9052 92.6616L29.1904 92.2486C28.9561 92.1078 28.7278 91.9357 28.4936 91.8043L27.106 90.9063C30.3377 93.3156 33.9598 95.3024 37.5819 97.0076C36.9452 96.8074 36.2905 96.604 35.6327 96.3819C34.975 96.1597 34.3292 95.8625 33.6655 95.5871C33.3291 95.4526 33.0047 95.2961 32.6773 95.1334L31.6922 94.6453C31.3648 94.4764 31.0285 94.3324 30.7101 94.1353L29.746 93.569C30.1545 93.8256 30.5629 94.0884 30.9804 94.3356L32.2509 95.0427L32.8906 95.3931L33.2089 95.5715L33.5363 95.731L34.8458 96.3725C35.4886 96.7479 36.1583 97.0702 36.765 97.3925C37.3717 97.7147 37.9213 98.0464 38.3749 98.3124C37.9273 98.1434 37.5129 97.9463 37.1074 97.7711C36.7019 97.5959 36.3115 97.4269 35.9301 97.2736C35.7408 97.1922 35.5486 97.1234 35.3654 97.042L34.8218 96.8042C34.4614 96.6509 34.107 96.4914 33.7556 96.3725C35.8418 97.4583 37.988 98.4143 40.1829 99.2354C39.7804 99.129 39.378 98.9663 38.9545 98.813C38.531 98.6597 38.0535 98.4813 37.603 98.2936L36.2424 97.6678L35.5636 97.3549L34.9029 97.0233C34.4674 96.8074 34.0379 96.6009 33.6204 96.3975C33.3201 96.2567 33.0408 96.1128 32.7644 95.9782L32.7374 95.9688C33.0768 96.0971 33.4192 96.216 33.7646 96.3506C32.0807 95.4703 30.4478 94.5181 28.866 93.4939L27.6436 92.6272C27.2441 92.33 26.8567 92.0014 26.4632 91.6885C25.6613 91.0878 24.9255 90.3963 24.1656 89.733C23.9854 89.6829 24.0275 89.8613 23.9884 89.9364C23.6731 89.6235 23.3877 89.2543 23.0874 88.907L22.2224 87.8557C21.6668 87.2674 21.1292 86.6542 20.5795 86.0534C20.0299 85.4527 19.5463 84.78 19.0267 84.1417C18.8796 84.0134 18.7264 83.8757 18.5942 83.7443C18.4621 83.6129 18.2939 83.4815 18.1497 83.3595C18.1212 83.2168 18.082 83.0766 18.0326 82.9402C18.1888 83.1185 18.333 83.2969 18.5072 83.4721C21.0885 86.2863 23.9763 88.777 27.112 90.8938C24.8929 89.2434 22.8624 87.3338 21.0601 85.2024C24.5628 88.7502 28.5113 91.7869 32.7975 94.2292C35.1553 95.4312 37.5922 96.4569 40.0898 97.2986C40.3901 97.405 40.6905 97.527 41.0209 97.6115L41.9639 97.8962C42.5947 98.0777 43.2134 98.2905 43.8531 98.4375L45.7543 98.9225L47.6675 99.323C47.1607 99.3532 46.6525 99.3407 46.1477 99.2854L47.5083 99.5201C47.7335 99.5577 47.9588 99.6046 48.1871 99.6359L48.8718 99.7266L50.2354 99.9081L50.5778 99.955L50.9202 99.9832L51.605 100.046C52.1696 100.027 52.7282 100.024 53.2869 99.9769C53.0826 100.03 52.5991 100.055 52.2537 100.105C57.9061 100.581 63.6097 100.268 68.9317 98.9663C68.6439 99.0359 68.3743 99.1705 68.1418 99.3605L69.0038 99.129C69.7757 98.9131 70.5326 98.6284 71.2714 98.4C70.5349 98.6997 69.7792 98.9454 69.0098 99.1353Z" fill="white"/>
<path d="M12.5453 73.9071C12.5123 73.782 12.4823 73.6568 12.4192 73.4096L12.7616 74.1418C12.6847 74.0685 12.6125 73.9902 12.5453 73.9071Z" fill="white"/>
<path d="M12.5302 73.8884C12.5033 73.8565 12.4829 73.8193 12.4702 73.7789C12.3681 73.5724 12.278 73.3628 12.1909 73.1531C12.3427 73.3767 12.4574 73.6253 12.5302 73.8884Z" fill="white"/>
<path d="M18.0207 79.68C17.8585 79.4954 17.6843 79.3139 17.5191 79.1199L17.0146 78.5129L15.9183 77.2332L15.675 76.9391C15.5699 76.7295 15.4648 76.5229 15.3747 76.3133L14.5668 74.5674C14.3085 73.9729 14.0712 73.3659 13.8309 72.7808C13.5907 72.1957 13.3864 71.6012 13.1972 71.0412C13.3324 71.2539 13.4615 71.4729 13.5907 71.6982L13.7799 72.033L13.9811 72.3678C14.2494 72.8184 14.5057 73.2814 14.75 73.757L16.3028 76.6262L17.1137 78.0592L17.3179 78.4159L17.5372 78.7632L17.9727 79.4485L18.3931 80.0961L18.0207 79.68Z" fill="white"/>
<path d="M6.0071 69.7114L6.03547 69.7994V69.7805C6.02797 69.7567 6.01847 69.7336 6.0071 69.7114Z" fill="white"/>
<path d="M52.9776 95.6747L53.1999 95.6935C52.8167 95.7032 52.4354 95.7524 52.0616 95.8405C51.9745 95.7967 51.8814 95.7623 51.7943 95.7216L52.449 95.7029C52.6232 95.6997 52.8004 95.6903 52.9776 95.6747Z" fill="white"/>
<path d="M52.47 95.656L51.7402 95.6873L52.47 95.656Z" fill="white"/>
<path d="M45.652 105.693L44.6248 105.537C44.3346 105.58 44.0385 105.536 43.7719 105.409C43.5736 105.377 43.3784 105.352 43.1712 105.315L42.6065 105.193C42.2341 105.111 41.8737 105.03 41.5313 104.949C41.1889 104.867 40.8585 104.789 40.5582 104.68C40.2578 104.57 39.9755 104.47 39.7202 104.367C39.2367 104.157 38.7501 103.976 38.2726 103.785C37.795 103.594 37.3205 103.391 36.8489 103.206L36.1371 102.937C35.9029 102.849 35.6746 102.743 35.4433 102.649L34.0648 102.086C33.6052 101.914 33.1637 101.688 32.7282 101.488C32.2927 101.288 31.8573 101.078 31.4278 100.862C30.5928 100.406 29.7819 99.9238 29.025 99.4169C28.3222 98.9194 28.5565 98.9445 28.98 99.104L28.3793 98.7411L27.4392 98.2937L26.9677 98.0621L26.5142 97.8024C25.9135 97.4489 25.3128 97.0797 24.7121 96.676L22.8379 95.2023C22.2373 94.6986 21.6366 94.1635 21.0359 93.6379L20.6845 93.3438C20.5674 93.2436 20.4562 93.1373 20.3421 93.0309C20.4592 93.131 20.5764 93.2343 20.6935 93.3438C17.7685 90.6086 15.158 87.529 12.9146 84.1668C12.5692 83.6881 12.2118 83.2281 11.8724 82.7244L10.8963 81.2319C10.7341 80.9816 10.5659 80.7375 10.4128 80.481L9.95923 79.7081L9.63488 79.1543C9.96826 79.6612 10.3046 80.1618 10.635 80.6624C10.8122 80.9221 10.9774 81.1943 11.1666 81.4447L11.3588 81.7075C11.509 81.9641 11.6592 82.2175 11.8154 82.4741C11.9715 82.7306 12.1698 83.0435 12.356 83.3251L12.9146 84.1668C16.3177 88.7679 20.349 92.8253 24.8803 96.2098C24.3852 95.9904 23.9063 95.7331 23.4476 95.4401L24.649 96.3131C24.8442 96.4633 25.0515 96.5978 25.2497 96.7323L25.8684 97.1422L27.1028 97.962L28.3673 98.7254L29.1842 99.1009C29.4575 99.2261 29.7428 99.3262 30.0192 99.4388C29.8089 99.3794 29.3103 99.2167 28.9649 99.0884C34.1526 102.14 39.7747 104.31 45.619 105.515C45.3142 105.446 44.9987 105.446 44.6939 105.515L45.625 105.687C46.4689 105.787 47.3159 105.875 48.1268 106C47.3159 105.944 46.4749 105.825 45.652 105.693Z" fill="white"/>
<path d="M68.5412 100.662C68.5172 100.625 68.4962 100.587 68.4721 100.553C68.8656 100.453 69.259 100.346 69.6525 100.24L69.4002 100.321C69.1012 100.396 68.8125 100.511 68.5412 100.662Z" fill="white"/>
<path d="M70.1359 100.086C70.3011 100.036 70.4663 99.9926 70.6345 99.9394C70.4813 100.005 70.3161 100.083 70.1359 100.174C70.1279 100.161 70.1236 100.146 70.1236 100.13C70.1236 100.115 70.1279 100.1 70.1359 100.086Z" fill="white"/>
<path d="M71.8268 99.5576C72.5086 99.3292 73.1843 99.0821 73.8601 98.8192C73.6974 98.9413 73.5233 99.0462 73.3405 99.1321C72.6828 99.3605 72.2533 99.4481 71.8268 99.5576Z" fill="white"/>
<path d="M76.2239 4.68389L77.1459 5.12819C77.4316 5.16942 77.6991 5.2979 77.9148 5.4974C78.089 5.58188 78.2692 5.66323 78.4374 5.75396L78.936 6.02931C79.2633 6.21391 79.5817 6.39538 79.882 6.5706C80.4248 6.88183 80.9404 7.24199 81.4228 7.64693C81.8222 7.98485 82.2307 8.29774 82.6242 8.61689C83.0176 8.93603 83.4111 9.26456 83.8075 9.57432L84.4082 10.0311C84.6034 10.1845 84.7927 10.344 84.9849 10.5036L86.1262 11.4423C86.5136 11.7395 86.862 12.068 87.2224 12.3809C87.5828 12.6938 87.9342 13.0067 88.2796 13.3415C88.9434 14.0111 89.5771 14.69 90.1508 15.3972C90.6764 16.0699 90.4511 15.9791 90.1027 15.71L90.5652 16.2232L91.3311 16.9147L91.7125 17.2682L92.07 17.6437C92.5445 18.1506 93.013 18.67 93.4605 19.2081L94.8271 21.1355C95.2656 21.7894 95.6741 22.4622 96.0946 23.1224L96.3468 23.4978C96.4309 23.6261 96.506 23.7606 96.5841 23.8889C96.503 23.7638 96.4219 23.6324 96.3348 23.5072C98.3534 26.9166 99.9842 30.5591 101.194 34.3613C101.393 34.9151 101.6 35.4626 101.795 36.0196L102.315 37.7029C102.399 37.9845 102.492 38.263 102.57 38.5477L102.789 39.405C102.93 39.9745 103.09 40.5471 103.219 41.1196C102.444 36.8831 101.032 32.6873 99.3953 28.7293C100.944 31.3706 102.161 34.2076 103.017 37.171L102.603 35.6723L102.116 34.1923L101.87 33.4508C101.789 33.2036 101.705 32.9564 101.606 32.7155L101.038 31.2606L100.849 30.6942L100.756 30.4126L100.651 30.1373C100.513 29.7743 100.377 29.4145 100.251 29.0672C100.002 28.3757 99.7978 27.7218 99.6266 27.1899C99.7347 27.4214 99.8519 27.6436 99.948 27.8689L100.248 28.5322C100.438 28.9671 100.627 29.3801 100.813 29.7837C100.906 29.9871 101.005 30.1811 101.089 30.3751L101.345 30.9602C101.516 31.3419 101.687 31.7142 101.864 32.0772C100.645 28.7019 99.1228 25.4543 97.317 22.3777C97.5843 22.7907 97.8215 23.2319 98.0768 23.6636C98.3321 24.0954 98.5874 24.5303 98.8457 24.9653C99.104 25.4002 99.3292 25.857 99.5755 26.3075C99.8218 26.7581 100.062 27.2055 100.293 27.6624C100.525 28.1192 100.726 28.601 100.939 29.0578L101.239 29.7556L101.396 30.106L101.531 30.4658C101.707 30.9414 101.877 31.4191 102.041 31.8989C102.211 32.3718 102.354 32.8544 102.471 33.3444C102.366 33.1348 102.276 32.922 102.17 32.7186C102.065 32.5152 101.963 32.2993 101.87 32.0928C104.01 37.9888 105.209 44.2099 105.42 50.5094C105.555 49.5849 105.586 48.6473 105.513 47.7153C105.48 47.2116 105.438 46.6922 105.387 46.1665C105.336 45.6409 105.231 45.109 105.15 44.5739C104.829 42.4244 104.297 40.2686 104.087 38.3381C105.054 41.6939 105.659 45.152 105.889 48.6477C106.128 52.2225 106.027 55.8131 105.588 59.3672C105.146 62.9102 104.419 66.4081 103.414 69.8239C102.909 71.5511 102.345 73.2438 101.732 74.9021L100.573 76.623L99.6897 77.8026C99.3893 78.1843 99.122 78.5723 98.8127 78.9071C98.5033 79.2419 98.212 79.5704 97.9357 79.8457C97.7945 79.9928 97.6533 80.1305 97.5182 80.2619C97.3887 80.3888 97.2523 80.5079 97.1097 80.6186C97.2359 80.3213 97.329 79.9928 97.4371 79.6955C97.2373 79.8138 97.0527 79.9578 96.8875 80.1242L96.7823 80.2181C97.0406 79.7832 97.2929 79.342 97.5302 78.8977C97.2599 79.3691 96.9816 79.8353 96.6952 80.2963C96.524 80.4496 96.3438 80.6092 96.1636 80.8032L95.4068 81.5572C95.2836 81.6761 95.1695 81.7982 95.0524 81.9014C94.9352 82.0047 94.8241 82.0985 94.722 82.183C94.9717 81.7435 95.3012 81.3588 95.6921 81.0504L94.9292 81.7387L94.9502 81.7012C95.2236 81.3226 95.5329 80.9064 95.8693 80.4715L96.4159 79.7706L96.9565 79.0228L97.5092 78.2594C97.6954 78.006 97.8816 77.7525 98.0468 77.4897L99.0259 75.9659C99.1851 75.7281 99.3262 75.481 99.4434 75.2463C99.5605 75.0116 99.6927 74.7863 99.8038 74.5736C100.023 74.1481 100.206 73.7695 100.332 73.4566C100.558 72.8151 100.576 72.4491 100.272 72.5179C99.969 72.5867 99.5815 73.0123 99.0709 73.6568C98.8157 73.9697 98.5393 74.3639 98.251 74.7926C98.1099 75.0116 97.9507 75.2275 97.7825 75.4559L97.2809 76.1631C95.9174 78.1061 94.1964 80.4089 92.4964 82.0923C92.7577 81.6417 93.0401 81.2005 93.3374 80.7625C93.4906 80.5466 93.6377 80.3119 93.7759 80.0867C93.9141 79.8614 94.0762 79.6361 94.2234 79.4108C94.3706 79.1855 94.5238 78.9603 94.692 78.7381C94.8602 78.516 94.9923 78.275 95.1485 78.0466C95.4508 77.5836 95.7602 77.1215 96.0765 76.6605L96.9565 75.2306C97.1007 74.9928 97.2569 74.7582 97.389 74.5141L97.7855 73.782C98.0438 73.2907 98.3141 72.812 98.5394 72.3177C98.7646 71.8233 98.9688 71.3258 99.1641 70.8377C98.5634 71.6512 98.0798 72.0204 97.338 73.225C97.1037 73.6036 96.8815 73.9885 96.6412 74.3608L95.8933 75.4622C95.4128 76.2037 94.8571 76.8921 94.3285 77.5961C94.2054 77.7775 94.0973 77.9653 93.9711 78.1405L93.6047 78.6599C93.3644 79.0041 93.1242 79.3389 92.8779 79.6611L92.6917 79.8989L92.4874 80.1179C92.3513 80.266 92.2101 80.4068 92.064 80.5403C91.7728 80.8157 91.4581 81.0629 91.1239 81.2788C91.0218 81.3914 90.9106 81.4946 90.8025 81.5916C90.6223 81.842 90.5022 82.1361 90.3069 82.3739C89.9324 82.7353 89.5306 83.0649 89.1056 83.3595C88.6679 83.6954 88.2785 84.0947 87.9493 84.5453C87.8982 84.5109 87.9072 84.4358 87.9493 84.3419C87.6729 84.733 87.0482 85.1179 86.7629 85.5935C86.6751 85.508 86.5615 85.4571 86.4415 85.4496C86.2793 85.5778 86.1232 85.7124 85.955 85.8344L85.4534 86.1973L84.4503 86.9264C84.2851 87.0515 84.1109 87.161 83.9367 87.2737L83.4201 87.6147C83.0717 87.84 82.7323 88.0715 82.3809 88.2937L81.3117 88.9195C80.9543 89.1291 80.6059 89.3544 80.2334 89.5452L79.1372 90.1335C78.951 90.2305 78.7738 90.3369 78.5846 90.4245L78.0199 90.6967L76.6924 91.3412L76.0316 91.626L77.2 91.0002C77.7466 90.7061 78.2752 90.3744 78.8098 90.0615L79.6087 89.5953L80.3836 89.0947L81.1585 88.5972C81.4138 88.4314 81.6751 88.2843 81.9214 88.0903L83.4231 87.0328C83.6724 86.8638 83.9096 86.6729 84.1499 86.4852L84.8677 85.9251L85.5856 85.3651C85.8168 85.1711 86.0451 84.9677 86.2763 84.7706C86.7299 84.3701 87.1954 83.9852 87.6399 83.5722C89.4137 81.9238 91.0541 80.1259 92.5445 78.1968C94.0191 76.2339 95.3076 74.1266 96.3919 71.9047L97.0496 70.2714C97.1578 69.9992 97.2749 69.7332 97.377 69.4579L97.6773 68.6287C97.8696 68.0749 98.0828 67.5305 98.257 66.9704L98.7706 65.2871C99.4281 63.036 99.9142 60.7343 100.224 58.4036C100.29 58.0907 100.359 57.7402 100.429 57.3898C100.498 57.0394 100.534 56.6733 100.588 56.3041C100.684 55.5688 100.804 54.8179 100.834 54.092C100.864 53.3661 100.933 52.6777 100.93 52.0738C100.93 51.9236 100.93 51.7766 100.93 51.6358L100.975 51.4981C101.014 51.3667 101.053 51.2416 101.086 51.1258C101.233 50.6658 101.36 50.3717 101.45 50.4656C101.622 50.7357 101.766 51.0241 101.879 51.326C101.996 51.6591 102.084 52.0026 102.14 52.3523C102.285 53.1841 102.35 54.029 102.333 54.8742C102.333 55.3466 102.333 55.841 102.333 56.3604C102.333 56.8798 102.276 57.4242 102.243 57.9905C102.231 58.2742 102.219 58.5652 102.207 58.8635C102.182 59.1576 102.161 59.4611 102.137 59.7677C102.113 60.0744 102.098 60.3935 102.083 60.7064C102.068 61.0193 102.059 61.3603 102.029 61.692C101.954 62.4242 102.056 62.177 102.207 61.7421L102.324 61.3948C102.36 61.2759 102.396 61.1538 102.432 61.0475C102.504 60.8347 102.576 60.6751 102.633 60.672C102.721 60.9526 102.78 61.242 102.81 61.5356C102.744 62.0174 102.66 62.4993 102.588 62.9811L102.459 63.8259C102.42 64.1106 102.354 64.386 102.303 64.6676L102.417 64.2326C102.528 63.7226 102.597 63.2095 102.678 62.7183C102.729 62.3459 102.786 61.983 102.819 61.6294C102.846 61.9423 102.858 62.3147 102.861 62.6901C102.864 63.0656 102.861 63.513 102.861 63.926C102.861 64.339 102.837 64.7395 102.84 65.115C103.141 64.1513 103.327 63.1657 103.549 62.1832C103.666 61.692 103.741 61.1945 103.825 60.697L104.072 59.2014C104.135 58.7008 104.186 58.2002 104.243 57.6964L104.327 56.9424L104.366 56.5669L104.39 56.1852L104.477 54.6708C104.477 54.4174 104.507 54.1671 104.513 53.9136V53.1533C104.558 49.1011 104.13 45.0583 103.24 41.1134C103.782 44.0162 103.984 46.977 103.84 49.9306L103.816 48.945C103.816 48.6321 103.774 48.291 103.756 47.9656L103.687 46.98C103.66 46.6671 103.654 46.323 103.609 45.9976C103.534 45.3468 103.462 44.6928 103.387 44.0389C103.357 43.7072 103.297 43.3849 103.246 43.0595L103.09 42.0833L102.93 41.104L102.729 40.134L102.525 39.161C102.453 38.8481 102.396 38.5102 102.306 38.191L101.801 36.2636C101.726 35.9507 101.621 35.6379 101.522 35.3093L101.221 34.3707C99.2413 29.0734 96.5297 24.1056 93.1722 19.6243C93.5797 19.9734 93.9621 20.353 94.3165 20.7601L93.4155 19.593C93.2683 19.3959 93.1151 19.2081 92.953 19.0235L92.4814 18.4603L91.5413 17.3339L90.5562 16.2482L89.8895 15.66C89.6642 15.466 89.4239 15.2876 89.1927 15.103C89.3759 15.2188 89.7933 15.5129 90.0937 15.7288C86.0375 11.3603 81.3381 7.69405 76.1728 4.86849C76.4427 5.01932 76.741 5.10688 77.0468 5.12506L76.2179 4.69328C75.452 4.35536 74.6801 4.02995 73.9473 3.68265C74.7161 3.97989 75.476 4.32094 76.2239 4.68389Z" fill="white"/>
<path d="M27.4511 6.10752C27.5773 6.00113 27.7064 5.90101 27.8326 5.79463C27.9587 5.68825 28.0939 5.62567 28.223 5.55058C28.7114 5.26843 29.2218 5.02978 29.7487 4.83719L30.1152 4.70265L30.4846 4.59314L31.2084 4.38037C31.6811 4.24127 32.1422 4.06234 32.587 3.84534C33.0976 3.59086 33.6142 3.34889 34.1368 3.11944C34.0557 3.20705 34.0286 3.28527 34.0587 3.3541C31.5139 4.29487 29.0477 5.45229 26.6852 6.81464C26.9273 6.5638 27.183 6.3277 27.4511 6.10752Z" fill="white"/>
<path d="M12.9149 26.4765C13.1191 26.1292 13.2393 26.0259 13.2723 26.0479C13.3053 26.0698 13.2723 26.2293 13.2152 26.439C13.3143 26.245 13.4285 26.0572 13.5366 25.8632C13.7949 25.2656 14.0532 24.6555 14.3505 24.0641C14.6479 23.4728 14.9932 22.9096 15.3507 22.3433L15.5038 22.1117L15.669 21.8896L16.0024 21.4421L16.6632 20.5535C16.7773 20.4065 16.8824 20.2407 16.9995 20.1124L17.354 19.69L18.0568 18.8452C18.237 18.6262 18.4021 18.3915 18.5944 18.1819C18.5013 18.2882 18.4142 18.404 18.3301 18.5198C18.4772 18.3383 18.6304 18.1725 18.8016 18.0004L19.2791 17.4904C19.5975 17.1525 19.9099 16.8052 20.2372 16.4798L21.2404 15.5223C21.5768 15.2094 21.9041 14.8778 22.2585 14.5837L23.3067 13.6919C23.4809 13.5449 23.6521 13.379 23.8323 13.2508L24.376 12.8377L25.4632 12.0148L25.7335 11.8083L26.0158 11.6175L26.5775 11.2389C28.3035 9.93505 30.1184 8.76385 32.0077 7.73454L31.6743 7.88786L31.3499 8.05994L30.6982 8.40725L30.0434 8.75455C29.8272 8.87345 29.6049 8.98296 29.3947 9.1175L28.1212 9.89346C27.911 10.0249 27.6948 10.15 27.4875 10.2877L26.8688 10.7101L25.6314 11.5518C25.229 11.8459 24.8325 12.1525 24.43 12.4498C23.6191 13.0286 22.8652 13.6794 22.0904 14.2989C23.9934 12.1681 26.1682 10.3194 28.5537 8.80462L27.3524 9.55555C26.9529 9.81212 26.5685 10.0968 26.175 10.3691C25.7816 10.6413 25.3821 10.9104 25.0067 11.2076L23.8714 12.1024L23.4239 12.4153L23.1986 12.5718L22.9854 12.7376C22.685 12.9598 22.4177 13.1757 22.1444 13.3634C21.8711 13.5511 21.6068 13.7576 21.3515 13.9328C21.0962 14.1081 20.874 14.2801 20.6517 14.4178C22.0603 13.1381 23.2617 12.1118 24.367 11.0918C21.7051 13.0706 19.2444 15.3278 17.0236 17.8283L17.4741 17.2964L17.9456 16.777L18.8887 15.7194L19.126 15.4504L19.3723 15.1969L19.8708 14.6838L20.874 13.6575C21.2244 13.3363 21.5778 13.0171 21.9342 12.7001L22.4688 12.2307L22.7391 11.9961L23.0184 11.7802C23.3939 11.4954 23.7693 11.2138 24.1507 10.9448L24.7214 10.5474C24.9136 10.4191 25.1178 10.3096 25.322 10.1938L24.8475 10.635L24.376 11.0918C26.7138 9.35076 29.1942 7.82738 31.7884 6.53931C32.5693 6.1482 33.3622 5.78525 34.1581 5.44108C34.5336 5.38163 34.8699 5.35347 35.2304 5.30654C35.4556 5.27838 35.6899 5.22831 35.9602 5.18451C36.264 5.12672 36.5648 5.05257 36.8612 4.96236L38.1677 4.58376L39.4892 4.27087L40.147 4.11443C40.3662 4.06437 40.5855 4.00805 40.8077 3.97363L42.1352 3.73584C43.0032 3.49805 43.8352 3.3197 44.6491 3.16951C44.8533 3.1351 45.0576 3.10381 45.2498 3.07877C45.442 3.05374 45.6583 3.05374 45.8505 3.05374C46.0427 3.05374 46.2349 3.05374 46.4241 3.06939C45.023 3.23304 43.6314 3.47537 42.2554 3.79529C38.692 4.64698 35.248 5.97084 32.0077 7.73454C34.4186 6.54184 36.9723 5.69154 39.6003 5.20641L38.7444 5.45046L38.3179 5.57249C38.1737 5.61629 38.0356 5.66948 37.8944 5.71329L36.2065 6.29213C35.6478 6.50177 35.0982 6.73017 34.5426 6.9492C33.9869 7.16822 33.4433 7.42166 32.8967 7.67197C31.7944 8.14755 30.7432 8.73891 29.674 9.30524L28.1122 10.2439L27.7188 10.4786L27.3404 10.732L26.5805 11.2451L25.7966 11.8302C25.5413 12.0336 25.292 12.2495 25.0397 12.456L24.2889 13.0818L23.9104 13.3947C23.7873 13.5011 23.6702 13.6168 23.55 13.7263L22.1084 15.0561L20.7358 16.4547C18.9427 18.3491 17.2854 20.3778 15.7772 22.5247C15.9598 22.044 16.185 21.5821 16.4499 21.1449L15.669 22.2901L14.9392 23.4697C14.4316 24.2425 13.9991 25.0623 13.5396 25.8632C13.3053 26.3826 13.1281 26.9271 12.9389 27.4621C12.984 27.2556 13.1371 26.7863 13.2393 26.439C10.5548 31.425 8.68326 36.8406 7.70093 42.4651C7.72281 42.2885 7.72281 42.1097 7.70093 41.9331C7.6885 41.8122 7.66945 41.692 7.64386 41.5733C7.59281 41.8674 7.55677 42.1678 7.51773 42.4713C7.48168 42.8749 7.44264 43.2817 7.40359 43.6822C7.38257 43.8824 7.35853 44.0827 7.33751 44.2798L7.29247 44.8743C7.29247 44.6741 7.29247 44.4738 7.29247 44.2735C7.29247 44.0733 7.3315 43.8731 7.35553 43.6728C7.40058 43.2723 7.45164 42.8718 7.50269 42.4713L7.54775 41.9738C7.56577 41.808 7.58981 41.6453 7.61083 41.4826C7.56533 41.2042 7.60307 40.9181 7.71895 40.6628C7.77301 40.2842 7.82706 39.9119 7.87512 39.5521C7.92317 39.1923 8.01628 38.8512 8.08837 38.5227C8.16045 38.1941 8.23854 37.8781 8.31663 37.584C8.35567 37.437 8.39172 37.2962 8.43677 37.1616C8.48183 37.0271 8.53288 36.8988 8.58093 36.7768C8.95636 35.8381 9.2507 34.9151 9.59309 34.014C9.75828 33.5603 9.90845 33.1066 10.0616 32.6592L10.5602 31.3388C11.1709 29.6327 11.9606 28.002 12.9149 26.4765Z" fill="white"/>
</g>
<defs>
<clipPath id="clip0_1212_21239">
<rect width="105.177" height="105.177" fill="white" transform="scale(1.00783)"/>
</clipPath>
</defs>
</svg>
