<svg width="12" height="12" viewBox="0 0 12 12" fill="none" xmlns="http://www.w3.org/2000/svg">
<g clip-path="url(#clip0_1212_18881)">
<path d="M0.619989 12C0.461919 12 0.30385 11.9399 0.183753 11.8189C-0.0573447 11.5778 -0.0573447 11.1869 0.183753 10.9458L10.9488 0.180823C11.1899 -0.0602744 11.5807 -0.0602744 11.8218 0.180823C12.0629 0.421921 12.0629 0.8128 11.8218 1.05405L1.05698 11.8189C0.935977 11.9392 0.777908 12 0.619989 12Z" fill="white" fill-opacity="0.4"/>
<path d="M11.3857 12C11.2277 12 11.0698 11.9399 10.9495 11.8189L0.183753 1.05405C-0.0573447 0.8128 -0.0573447 0.421921 0.183753 0.180823C0.42485 -0.0602744 0.81573 -0.0602744 1.05698 0.180823L11.8218 10.9458C12.0629 11.1869 12.0629 11.5778 11.8218 11.8189C11.7008 11.9392 11.5429 12 11.3857 12Z" fill="white" fill-opacity="0.4"/>
</g>
<defs>
<clipPath id="clip0_1212_18881">
<rect width="12" height="12" fill="white"/>
</clipPath>
</defs>
</svg>
