<svg width="16" height="16" viewBox="0 0 16 16" fill="none" xmlns="http://www.w3.org/2000/svg">
<path d="M8.271 1.44141C5.47952 1.44141 3.2085 3.71243 3.2085 6.50391C3.2085 7.39744 3.44457 8.27591 3.89118 9.04433C3.9953 9.22348 4.11169 9.39805 4.23717 9.56323L8.05104 14.6659H8.49093L12.3048 9.56326C12.4303 9.39806 12.5467 9.2235 12.6508 9.04435C13.0974 8.27591 13.3335 7.39744 13.3335 6.50391C13.3335 3.71243 11.0625 1.44141 8.271 1.44141ZM8.271 8.1828C7.34526 8.1828 6.59211 7.42965 6.59211 6.50391C6.59211 5.57817 7.34526 4.82502 8.271 4.82502C9.19674 4.82502 9.94989 5.57817 9.94989 6.50391C9.94989 7.42965 9.19674 8.1828 8.271 8.1828Z" fill="#FF7A7A"/>
</svg>
