<svg width="60" height="60" viewBox="0 0 60 60" fill="none" xmlns="http://www.w3.org/2000/svg">
<path d="M51.2132 8.78671C45.547 3.12058 38.0133 0 30 0C21.9867 0 14.453 3.12058 8.78671 8.78671C3.12047 14.4528 0 21.9867 0 30C0 38.0133 3.12058 45.547 8.78671 51.2132C14.4528 56.8795 21.9867 60 30 60C38.0133 60 45.547 56.8794 51.2132 51.2132C56.8795 45.5471 60 38.0133 60 30C60 21.9867 56.8794 14.453 51.2132 8.78671ZM49.9702 10.0297C53.236 13.2955 55.6016 17.2208 56.9465 21.5047C55.4783 19.5901 53.5026 17.8291 51.0598 16.2912C49.5586 15.3459 47.9258 14.515 46.1897 13.8027C46.1856 13.7913 46.1823 13.7798 46.1776 13.7686C44.2493 9.07675 41.579 5.41429 38.4841 3.04992C42.7724 4.39429 46.7016 6.76113 49.9702 10.0297ZM10.0297 10.0297C13.2971 6.7623 17.225 4.39593 21.5115 3.05121C19.6631 4.46707 17.9573 6.35496 16.4584 8.67761C16.1952 9.08531 16.3125 9.62941 16.7203 9.89261C17.1279 10.1556 17.6721 10.0387 17.9353 9.6307C21.2117 4.55379 25.4963 1.75781 30 1.75781C35.4744 1.75781 40.5903 5.91023 43.8986 12.9516C39.6615 11.5366 34.9199 10.7856 30 10.7856C22.058 10.7856 14.5786 12.7408 8.93999 16.291C6.49722 17.829 4.52156 19.5901 3.05332 21.5046C4.3984 17.2208 6.76394 13.2955 10.0297 10.0297ZM9.87656 17.7786C10.8491 17.1662 11.8812 16.6045 12.9633 16.0941C11.537 20.3645 10.7856 25.1259 10.7856 30C10.7856 34.9199 11.5366 39.6616 12.9517 43.8988C5.90636 40.5915 1.75781 35.4856 1.75781 30C1.75781 25.4153 4.64109 21.075 9.87656 17.7786ZM10.0297 49.9702C6.76453 46.705 4.39922 42.7803 3.05402 38.4972C5.42343 41.5947 9.0962 44.2631 13.8033 46.1914C14.5154 47.927 15.3462 49.5593 16.291 51.06C17.829 53.5027 19.5901 55.4784 21.5046 56.9466C17.2208 55.6016 13.2955 53.236 10.0297 49.9702ZM17.7786 50.1234C14.4026 44.7616 12.5434 37.6151 12.5434 30C12.5434 24.7331 13.451 19.6114 15.1662 15.1536C19.5823 13.4532 24.6762 12.5434 30 12.5434C37.6149 12.5434 44.7616 14.4026 50.1234 17.7786C55.3589 21.075 58.2421 25.4153 58.2421 30C58.2421 34.5847 55.3589 38.925 50.1234 42.2213C49.1541 42.8316 48.1258 43.3916 47.0477 43.9006C48.4631 39.663 49.2144 34.9206 49.2144 30C49.2144 28.8998 49.1761 27.7905 49.1002 26.703C49.0666 26.2188 48.6465 25.8535 48.1625 25.8873C47.6783 25.9209 47.313 26.3408 47.3468 26.825C47.4195 27.8722 47.4566 28.9404 47.4566 30C47.4566 35.3274 46.5454 40.4246 44.8428 44.8428C40.4246 46.5456 35.3274 47.4566 30 47.4566C26.5646 47.4566 23.2072 47.077 20.0212 46.3284C19.5487 46.2171 19.0757 46.5104 18.9646 46.9829C18.8535 47.4554 19.1465 47.9285 19.619 48.0396C22.9369 48.8191 26.4294 49.2144 30 49.2144C34.9206 49.2144 39.663 48.4631 43.9006 47.0477C43.3916 48.1258 42.8315 49.1541 42.2213 50.1234C38.925 55.3589 34.5847 58.2421 30 58.2421C25.4153 58.2421 21.075 55.3589 17.7786 50.1234ZM49.9702 49.9702C46.7045 53.236 42.7791 55.6016 38.4952 56.9465C40.4099 55.4783 42.1708 53.5026 43.7088 51.0598C44.6531 49.5602 45.4832 47.9292 46.195 46.195C47.9292 45.4832 49.5602 44.6531 51.0598 43.7088C53.5026 42.1708 55.4783 40.4097 56.9465 38.4952C55.6016 42.7791 53.236 46.7045 49.9702 49.9702Z" fill="white"/>
<path d="M38.6287 23.7282C36.3599 23.7282 34.5141 25.574 34.5141 27.8428V32.1569C34.5141 34.4257 36.3599 36.2715 38.6287 36.2715C40.8974 36.2715 42.7433 34.4257 42.7433 32.1569V27.8428C42.7433 25.574 40.8974 23.7282 38.6287 23.7282ZM40.9854 32.157C40.9854 33.4566 39.9283 34.5138 38.6287 34.5138C37.3291 34.5138 36.2719 33.4566 36.2719 32.157V27.8429C36.2719 26.5433 37.3291 25.4861 38.6287 25.4861C39.9283 25.4861 40.9854 26.5433 40.9854 27.8429V32.157Z" fill="white"/>
<path d="M28.9215 28.0425C28.0468 28.0425 27.2356 28.3176 26.5683 28.7849C26.6403 26.9538 28.1517 25.4861 30.0001 25.4861C30.4856 25.4861 30.879 25.0927 30.879 24.6072C30.879 24.1217 30.4856 23.7283 30.0001 23.7283C27.1365 23.7283 24.8071 26.0579 24.8071 28.9214V32.157C24.8071 34.4258 26.6528 36.2716 28.9215 36.2716C31.1903 36.2716 33.0361 34.4258 33.0361 32.157C33.0361 29.8883 31.1903 28.0425 28.9215 28.0425ZM28.9215 34.5139C27.622 34.5139 26.5649 33.4568 26.5649 32.1572C26.5649 30.8575 27.622 29.8004 28.9215 29.8004C30.2211 29.8004 31.2783 30.8575 31.2783 32.1572C31.2783 33.4568 30.2211 34.5139 28.9215 34.5139Z" fill="white"/>
<path d="M21.9968 30C22.8126 29.3439 23.3289 28.3784 23.3289 27.3035C23.3289 25.3322 21.5916 23.7282 19.4562 23.7282C18.2444 23.7282 17.1255 24.2363 16.3864 25.1223C16.0755 25.495 16.1254 26.0492 16.4982 26.3601C16.8709 26.6713 17.425 26.621 17.7361 26.2483C18.1343 25.7709 18.7774 25.4859 19.4562 25.4859C20.6224 25.4859 21.5711 26.3013 21.5711 27.3035C21.5711 28.3057 20.6224 29.1209 19.4562 29.1209C18.9707 29.1209 18.5773 29.5143 18.5773 29.9998C18.5773 30.4854 18.9707 30.8787 19.4562 30.8787C20.6224 30.8787 21.5711 31.6941 21.5711 32.6963C21.5711 33.6985 20.6224 34.5138 19.4562 34.5138C18.7755 34.5138 18.1314 34.2276 17.7335 33.7482C17.4233 33.3747 16.8691 33.3234 16.4957 33.6335C16.1223 33.9436 16.0709 34.4977 16.381 34.8712C17.1201 35.7612 18.2409 36.2717 19.4562 36.2717C21.5916 36.2717 23.3289 34.6678 23.3289 32.6963C23.3289 31.6215 22.8126 30.656 21.9968 30Z" fill="white"/>
<path d="M45.0996 18.3355C43.4256 18.3355 42.0636 19.6974 42.0636 21.3714C42.0636 23.0455 43.4256 24.4074 45.0996 24.4074C46.7736 24.4074 48.1356 23.0455 48.1356 21.3714C48.1356 19.6974 46.7736 18.3355 45.0996 18.3355ZM45.0996 22.6496C44.3947 22.6496 43.8214 22.0762 43.8214 21.3714C43.8214 20.6667 44.3948 20.0933 45.0996 20.0933C45.8044 20.0933 46.3778 20.6667 46.3778 21.3714C46.3778 22.0762 45.8044 22.6496 45.0996 22.6496Z" fill="white"/>
</svg>
