<svg width="24" height="24" viewBox="0 0 24 24" fill="none" xmlns="http://www.w3.org/2000/svg">
<g clip-path="url(#clip0_1212_1693)">
<path d="M2.11355 5.20056C1.33971 6.32375 0.751615 7.58491 0.39502 8.9404H5.85359L2.11355 5.20056Z" fill="#29337A"/>
<path d="M8.63949 0.480347C7.25688 0.882998 5.97642 1.52551 4.84888 2.36354L8.63949 6.15415V0.480347Z" fill="#29337A"/>
<path d="M5.13062 21.8366C6.18824 22.5767 7.36985 23.1497 8.63931 23.5193V18.3285L5.13062 21.8366Z" fill="#29337A"/>
<path d="M0.532715 15.5432C0.929489 16.8284 1.5375 18.0208 2.31453 19.0814L5.85277 15.5432H0.532715Z" fill="#29337A"/>
<path d="M2.31149 4.92206C2.24441 5.01377 2.17829 5.10679 2.11348 5.20078L5.85353 8.94061H0.394953C0.306489 9.2773 0.234288 9.62046 0.174805 9.96834H7.35819L2.31149 4.92206Z" fill="white"/>
<path d="M4.85229 21.6386C4.9436 21.7067 5.03743 21.7714 5.13061 21.8366L8.63931 18.3283V23.5192C8.9764 23.6177 9.31875 23.7028 9.66704 23.7712V16.824L4.85229 21.6386Z" fill="white"/>
<path d="M0.266113 14.5155C0.340594 14.8637 0.428501 15.2067 0.532521 15.5432H5.85262L2.31438 19.0815C2.6992 19.6072 3.12592 20.1006 3.58957 20.5569L9.63091 14.5155H0.266113Z" fill="white"/>
<path d="M8.63934 0.480351V6.15415L4.84868 2.36375C4.3261 2.75236 3.83762 3.18379 3.38501 3.65084L9.66687 9.9327V0.228333C9.31879 0.297138 8.97643 0.382411 8.63934 0.480351Z" fill="white"/>
<path d="M8.63929 15.507L8.60327 15.5433H8.63929V15.507Z" fill="#D32030"/>
<path d="M9.6311 14.5155H9.66708V14.4793L9.6311 14.5155Z" fill="#D32030"/>
<path d="M14.249 9.96814H14.2144V10.003L14.249 9.96814Z" fill="#D32030"/>
<path d="M8.67482 8.94059L8.6394 8.90497V8.94059H8.67482Z" fill="#D32030"/>
<path d="M9.66699 9.93268V9.96815H9.70246L9.66699 9.93268Z" fill="#D32030"/>
<path d="M15.2419 20.8629V23.5529C16.5279 23.1929 17.7269 22.6254 18.7993 21.8861L15.8847 18.9714C15.6517 19.7897 15.5665 20.2128 15.2419 20.8629Z" fill="#252F6C"/>
<path d="M15.9 5.49591L19.0819 2.31406C17.9388 1.47694 16.642 0.838992 15.2419 0.446777V3.21006C15.6162 3.95943 15.6476 4.52882 15.9 5.49591Z" fill="#252F6C"/>
<path d="M21.6365 19.1513C22.4378 18.0734 23.0623 16.8566 23.4679 15.5432H18.0283L21.6365 19.1513Z" fill="#252F6C"/>
<path d="M23.6052 8.94055C23.241 7.55643 22.6353 6.27162 21.837 5.1308L18.0269 8.94055H23.6052Z" fill="#252F6C"/>
<path d="M16.6003 14.7188L17.4249 15.5434L21.3721 19.4905C21.4617 19.3784 21.5507 19.2666 21.6364 19.1516L18.0282 15.5434H23.4679C23.5715 15.2071 23.6596 14.864 23.7339 14.5157H16.6775C16.6659 14.6614 16.6142 14.5741 16.6003 14.7188Z" fill="#E7E7E7"/>
<path d="M15.7751 6.0977L19.3526 2.51985C19.2629 2.45033 19.1732 2.38117 19.0816 2.31409L15.8998 5.49592C15.9328 5.62173 15.7444 5.96885 15.7751 6.0977Z" fill="#E7E7E7"/>
<path d="M15.2418 2.98897V0.446596C14.9052 0.352254 14.5624 0.272301 14.2141 0.207092V1.44722C14.5965 1.86178 14.9392 2.38249 15.2418 2.98897Z" fill="#E7E7E7"/>
<path d="M16.5194 9.96813H23.8253C23.766 9.62025 23.6937 9.27729 23.6052 8.9404H18.0268L21.837 5.13065C21.4624 4.59555 21.0462 4.09233 20.5914 3.62604L16.2998 7.91723C16.4154 8.69563 16.4671 9.14768 16.5194 9.96813Z" fill="#E7E7E7"/>
<path d="M15.7112 18.7976L18.7994 21.8863C19.3131 21.5325 19.7968 21.1388 20.2482 20.7113L16.186 16.649C16.0564 17.4003 15.9026 18.1259 15.7112 18.7976Z" fill="#E7E7E7"/>
<path d="M14.2144 22.4101V23.7923C14.5626 23.7275 14.9052 23.6472 15.2421 23.5528V20.8629C14.9393 21.4696 14.5965 21.9961 14.2144 22.4101Z" fill="#E7E7E7"/>
<path d="M16.3 7.91721L20.5912 3.626C20.2049 3.22923 19.7907 2.85997 19.3526 2.51984L15.9807 5.89229C16.1306 6.51869 16.1986 7.23568 16.3 7.91721Z" fill="#D71F28"/>
<path d="M11.4011 0.0147948C11.6011 0.00511738 11.8004 0 11.9999 0C11.7992 0 11.5995 0.00511738 11.4011 0.0147948Z" fill="#D32030"/>
<path d="M11.9997 24C11.8002 24 11.6009 23.9946 11.4014 23.9849C11.5998 23.9949 11.7991 24 11.9997 24Z" fill="#D32030"/>
<path d="M11.9998 24C12.7569 24 13.4962 23.9267 14.2143 23.7923V22.4101C13.584 23.0933 12.8466 24 11.9998 24Z" fill="#D32030"/>
<path d="M23.8253 9.96808H16.6143C16.7098 11.4731 16.6983 13.0207 16.5798 14.5155H23.734C23.9072 13.7039 24 12.863 24 12.0002C24 11.3071 23.9383 10.6291 23.8253 9.96808Z" fill="#D71F28"/>
<path d="M16.6006 14.7188C16.5339 15.4278 16.3016 15.9803 16.186 16.6491L20.2482 20.7113C20.6501 20.3304 21.0258 19.923 21.3721 19.4905L17.4251 15.5432L16.6006 14.7188Z" fill="#D71F28"/>
<path d="M14.2144 1.53643V0.207279C13.4965 0.0733154 12.7571 0 11.9998 0C12.8466 0 13.584 0.853387 14.2144 1.53643Z" fill="#D32030"/>
<path d="M15.2419 21.3819C15.5665 20.7316 15.8448 19.983 16.0779 19.1649L15.2419 18.3289V21.3819Z" fill="#29337A"/>
<path d="M16.1819 5.21397C15.9291 4.24689 15.6162 3.36771 15.2419 2.61835V6.15354L16.1819 5.21397Z" fill="#29337A"/>
<path d="M16.8332 14.9514C16.8468 14.8067 16.8592 14.6614 16.8709 14.5154H16.3972L16.8332 14.9514Z" fill="white"/>
<path d="M15.2418 6.15356V2.61817C14.9391 2.01168 14.5965 1.49062 14.2141 1.07642V7.65838L16.278 5.59445C16.247 5.46561 16.2143 5.3394 16.1818 5.21359L15.2418 6.15356Z" fill="white"/>
<path d="M14.249 9.96808H16.9055C16.8534 9.14769 16.7704 8.34051 16.655 7.56232L14.249 9.96808Z" fill="white"/>
<path d="M14.2144 22.9234C14.5967 22.5089 14.9393 21.9882 15.2421 21.3817V18.3287L16.078 19.1646C16.2698 18.4926 16.4306 17.7746 16.5606 17.0234L14.2144 14.6773L14.2144 22.9234Z" fill="white"/>
<path d="M14.2144 22.9234V14.6773L16.5605 17.0235C16.6759 16.3545 16.7667 15.6606 16.8331 14.9515L16.3971 14.5155H16.8708C16.9892 13.0207 17.0008 11.4731 16.9053 9.9681H14.2489L16.6547 7.56232C16.5533 6.88059 16.4279 6.22121 16.278 5.59461L14.2145 7.65854V1.07657C13.584 0.393329 12.8466 0 11.9998 0C11.8003 0 11.6009 0.00511738 11.4011 0.0147948C10.8108 0.0443337 10.232 0.11694 9.66698 0.228357V9.93268L3.38497 3.65082C2.99899 4.04911 2.63996 4.4735 2.31138 4.92201L6.32994 8.94057L7.35803 9.9683H0.1747C0.0621686 10.6292 0 11.3071 0 12.0002C0 12.8633 0.0932275 13.7039 0.266002 14.5155H9.63101L3.58961 20.5569C3.98522 20.9455 4.40642 21.3074 4.85229 21.6386L9.66683 16.824V23.7713C10.2318 23.8827 10.811 23.9553 11.4013 23.9849C11.6008 23.9945 11.8001 24 11.9996 24C12.8466 24 13.584 23.6067 14.2144 22.9234Z" fill="#E51D35"/>
</g>
<defs>
<clipPath id="clip0_1212_1693">
<rect width="24" height="24" fill="white"/>
</clipPath>
</defs>
</svg>
