<svg width="133" height="133" viewBox="0 0 133 133" fill="none" xmlns="http://www.w3.org/2000/svg">
<g clip-path="url(#clip0_1212_21267)">
<path d="M0.0753909 77.1312C0.0490057 76.9859 0.0226159 76.8367 0 76.6915C0.0226159 76.8367 0.0490057 76.9859 0.0753909 77.1312Z" fill="white"/>
<path d="M56.0446 2.24558C56.4478 2.18277 56.8548 2.15529 57.2543 2.12781L58.4225 2.04144C57.7932 2.24165 57.145 2.40654 56.4893 2.57143C55.8336 2.73631 55.1703 2.93261 54.492 3.09357C54.1566 3.17601 53.8137 3.23882 53.4745 3.32912L52.4495 3.59608C51.7674 3.77667 51.0703 3.92192 50.3806 4.11036L49.3368 4.40872C49.0051 4.45191 48.6622 4.50687 48.3118 4.57754C47.768 4.68045 47.2316 4.82211 46.7064 5.00153C45.5613 5.3731 44.4388 5.81621 43.3449 6.32847C42.7797 6.58757 42.2144 6.84275 41.6454 7.11364C41.0763 7.38452 40.5148 7.67503 39.9835 7.94199L39.1582 8.33458C38.8831 8.4602 38.6193 8.60153 38.3555 8.72716C37.8242 8.98234 37.2966 9.21004 36.7765 9.41026C40.1881 7.26861 43.8312 5.55547 47.6297 4.30665C50.2195 3.4573 52.8641 2.80133 55.5434 2.34373L56.0446 2.24558Z" fill="white"/>
<path d="M54.5786 0.251254C55.0308 0.16096 55.483 0.078517 55.9352 0H56.0822C55.6375 0.078517 55.1928 0.164886 54.7482 0.251254C54.0548 0.388659 53.3651 0.53784 52.6755 0.690948C53.4292 0.533914 54.1188 0.388659 54.8197 0.251254H55.7958C53.9379 0.612433 51.398 1.05998 49.0465 1.62138C50.8742 1.06783 52.7584 0.612433 54.5786 0.251254Z" fill="white"/>
<path d="M113.449 29.4321C114.203 30.4332 114.825 31.5128 115.496 32.5728C115.692 32.6906 115.707 32.4668 115.778 32.3922C116.042 32.879 116.249 33.409 116.472 33.9233L117.135 35.4936C117.591 36.3848 118.017 37.2995 118.458 38.2103C118.899 39.1211 119.249 40.083 119.645 41.0212C119.905 41.4138 120.135 41.8575 120.421 42.2579C120.391 42.6174 120.41 42.9795 120.477 43.3336C120.598 43.6947 120.741 44.0481 120.854 44.4171L120.956 44.7626L120.7 44.2404C120.575 43.7183 120.447 43.204 120.323 42.6976C119.986 42.3772 119.701 42.002 119.479 41.5866C119.264 41.0487 119.023 40.5344 118.793 40.0162C118.563 39.498 118.329 39.0034 118.081 38.5205C118.563 39.5726 119.015 40.6326 119.437 41.6886C119.362 41.5512 119.29 41.4138 119.215 41.2961C117.951 38.925 116.567 36.6252 115.07 34.4062C112.373 30.2426 109.219 26.4217 105.671 23.0212C102.088 19.6261 98.221 16.5702 94.1171 13.8897L93.7403 13.6384L93.3635 13.399L92.6098 12.9239L91.1024 11.9699C90.0698 11.385 89.0561 10.7922 88.0349 10.2033L86.4973 9.37103C85.9886 9.09622 85.4836 8.80571 84.9673 8.55838L83.46 7.77321L83.3544 7.71825L83.8067 7.87921L84.3305 8.0598L84.8468 8.26787L85.8793 8.684L86.9043 9.10015C87.2473 9.24148 87.5789 9.40637 87.9143 9.55947C90.6002 10.762 93.2007 12.1618 95.6961 13.7484C93.018 11.7241 90.1155 10.0435 87.0513 8.7429L85.1671 8.0912C84.8543 7.98521 84.5453 7.86743 84.2325 7.77321L83.2828 7.49447L82.2578 7.19611L81.8546 6.99982L80.5168 6.3599L81.7415 6.72108C82.0506 6.8153 82.3596 6.89382 82.6573 6.99982L83.5579 7.30996C84.0742 7.46307 84.5943 7.6201 85.1219 7.78499C85.6494 7.94987 86.1657 8.17757 86.6971 8.38957C87.1532 8.4951 87.6214 8.53212 88.0876 8.49949C88.7358 8.89207 89.3802 9.28466 90.0547 9.65369C90.3977 9.83821 90.7331 10.0463 91.0798 10.2701C91.4265 10.4938 91.792 10.698 92.1726 10.9178C92.444 10.9649 92.964 11.1926 93.5029 11.3104C93.7379 11.5885 93.9897 11.8507 94.2566 12.0956L94.9688 12.4882L95.3231 12.6884C95.4436 12.7551 95.5567 12.8297 95.6697 12.9043C96.1333 13.1909 96.593 13.4775 97.049 13.768L97.7386 14.1959L98.4056 14.6552L99.7322 15.5739V15.5425C100.192 15.8173 100.629 16.1745 101.096 16.5239C101.564 16.8733 102.042 17.2384 102.513 17.6271L103.908 18.8402L104.605 19.4448L105.268 20.0729C105.709 20.4851 106.146 20.8856 106.572 21.2507C106.881 21.5333 107.171 21.816 107.461 22.079L108.328 23.084C108.471 23.2568 108.626 23.4177 108.765 23.5983L109.183 24.1322C109.184 23.9726 109.239 23.8183 109.338 23.6965C109.185 23.5965 109.044 23.4793 108.916 23.3471C108.807 23.2489 108.701 23.1429 108.592 23.033L108.878 23.2568C109.184 23.5085 109.508 23.7355 109.847 23.9359C110.252 24.7955 110.707 25.6293 111.207 26.4328L112.338 27.8893C112.741 28.4114 113.091 28.9414 113.449 29.4321Z" fill="white"/>
<path d="M56.3199 0.00760768C55.838 0.193143 55.3253 0.275915 54.8121 0.251009L55.321 0.152862C55.664 0.0979003 55.9919 0.050792 56.3199 0.00760768Z" fill="white"/>
<path d="M60.8155 3.62359H61.4525L60.514 3.68321C60.6133 3.65723 60.714 3.63732 60.8155 3.62359Z" fill="white"/>
<path d="M108.373 104.239C107.71 104.863 107.047 105.472 106.379 106.053C106.854 105.66 107.311 105.209 107.774 104.789L108.373 104.239Z" fill="white"/>
<path d="M86.5877 124.387L85.412 124.748C85.1242 124.952 84.78 125.053 84.4321 125.034C83.5202 125.266 82.6346 125.482 81.8168 125.655C81.0813 125.786 80.3388 125.872 79.5935 125.91L78.6702 125.953L77.7582 125.981C77.1515 126.004 76.5523 126.043 75.9569 126.091L72.4409 126.279L70.7225 126.31C70.1535 126.31 69.592 126.334 69.0343 126.31C68.4765 126.287 67.9263 126.244 67.3837 126.193C67.1123 126.169 66.841 126.142 66.5734 126.11C66.3059 126.079 66.0383 126.024 65.7745 125.973C64.7834 125.804 65.0472 125.702 65.571 125.627L64.7571 125.553L63.5361 125.576C63.1291 125.576 62.7221 125.541 62.3113 125.517C61.9006 125.494 61.4936 125.458 61.0828 125.419C60.6721 125.38 60.2575 125.333 59.8505 125.25C58.9423 125.054 58.0341 124.858 57.1372 124.662L54.4692 123.939C54.1187 123.865 53.7795 123.751 53.4366 123.657L53.9567 123.79C49.5082 122.424 45.2128 120.565 41.1439 118.247L39.3125 117.301L37.5225 116.264L36.6256 115.746C36.3316 115.569 36.0452 115.353 35.7513 115.188L34.0102 114.062C38.0651 117.085 42.6099 119.578 47.1546 121.717C46.3557 121.466 45.5342 121.211 44.7089 120.932C43.8836 120.653 43.0734 120.28 42.2406 119.935C41.8185 119.766 41.4115 119.57 41.0007 119.366L39.7647 118.753C39.3539 118.541 38.9318 118.361 38.5324 118.113L37.3227 117.403C37.8352 117.725 38.3477 118.054 38.8716 118.364L40.4656 119.252L41.2683 119.691L41.6677 119.915L42.0785 120.115L43.7216 120.92C44.528 121.391 45.3684 121.796 46.1296 122.2C46.8908 122.604 47.5805 123.021 48.1495 123.354C47.588 123.142 47.0679 122.895 46.5592 122.675C46.0505 122.455 45.5606 122.243 45.082 122.051C44.8446 121.949 44.6034 121.862 44.3735 121.76L43.6914 121.462C43.2392 121.27 42.7945 121.069 42.3536 120.92C44.9712 122.283 47.6641 123.482 50.4181 124.512C49.9131 124.379 49.4082 124.175 48.8768 123.982C48.3454 123.79 47.7463 123.566 47.181 123.331L45.4739 122.545L44.6222 122.153L43.7932 121.737C43.2467 121.466 42.7078 121.207 42.184 120.952C41.8072 120.775 41.4567 120.594 41.11 120.426L41.0761 120.414C41.5019 120.575 41.9315 120.724 42.3649 120.893C40.2521 119.788 38.2033 118.593 36.2186 117.308L34.6848 116.221C34.1836 115.848 33.6975 115.436 33.2038 115.043C32.1976 114.289 31.2744 113.422 30.3209 112.59C30.0948 112.527 30.1476 112.75 30.0986 112.845C29.7029 112.452 29.3449 111.989 28.9681 111.553L27.8827 110.234C27.1856 109.496 26.511 108.726 25.8214 107.973C25.1318 107.219 24.525 106.375 23.8731 105.574C23.6884 105.413 23.4963 105.24 23.3304 105.075C23.1646 104.911 22.9536 104.746 22.7727 104.593C22.7369 104.414 22.6877 104.238 22.6257 104.067C22.8217 104.29 23.0026 104.514 23.2212 104.734C26.4601 108.265 30.0834 111.39 34.0178 114.046C31.2335 111.975 28.6857 109.579 26.4244 106.905C30.8193 111.356 35.7735 115.167 41.1515 118.231C44.1099 119.739 47.1675 121.026 50.3013 122.082C50.6781 122.216 51.055 122.369 51.4695 122.475L52.6528 122.832C53.4441 123.06 54.2205 123.327 55.0231 123.511L57.4086 124.12L59.8091 124.622C59.1733 124.66 58.5356 124.644 57.9023 124.575L59.6093 124.87C59.892 124.917 60.1746 124.976 60.461 125.015L61.3202 125.129L63.0311 125.356L63.4607 125.415L63.8903 125.451L64.7495 125.529C65.458 125.506 66.1589 125.502 66.8598 125.443C66.6036 125.51 65.9969 125.541 65.5635 125.604C72.6557 126.2 79.812 125.808 86.4897 124.175C86.1286 124.262 85.7903 124.431 85.4986 124.669L86.5802 124.379C87.5487 124.108 88.4983 123.751 89.4253 123.464C88.5013 123.84 87.5531 124.148 86.5877 124.387Z" fill="white"/>
<path d="M15.7408 92.7325C15.6994 92.5755 15.6617 92.4185 15.5825 92.1083L16.0122 93.027C15.9157 92.9351 15.8251 92.8367 15.7408 92.7325Z" fill="white"/>
<path d="M15.7223 92.7089C15.6884 92.6689 15.6628 92.6222 15.6469 92.5715C15.5187 92.3124 15.4057 92.0494 15.2964 91.7863C15.4869 92.0669 15.6309 92.3787 15.7223 92.7089Z" fill="white"/>
<path d="M22.6109 99.9757C22.4074 99.7441 22.1888 99.5164 21.9815 99.273L21.3485 98.5114L19.973 96.9057L19.6677 96.5367C19.5358 96.2736 19.4039 96.0145 19.2909 95.7515L18.2772 93.5609C17.9531 92.815 17.6554 92.0533 17.3539 91.3192C17.0524 90.5851 16.7962 89.8391 16.5587 89.1364C16.7283 89.4034 16.8904 89.6782 17.0524 89.9609L17.2898 90.3809L17.5423 90.801C17.8789 91.3663 18.2005 91.9473 18.507 92.5441L20.4553 96.1441L21.4728 97.9421L21.729 98.3897L22.0042 98.8254L22.5506 99.6852L23.0782 100.498L22.6109 99.9757Z" fill="white"/>
<path d="M7.53701 87.468L7.57058 87.576V87.5528C7.5617 87.5236 7.55047 87.4953 7.53701 87.468Z" fill="white"/>
<path d="M66.4719 120.045L66.7508 120.068C66.27 120.08 65.7914 120.142 65.3223 120.253C65.213 120.198 65.0961 120.155 64.9868 120.104L65.8085 120.08C66.0271 120.076 66.2495 120.064 66.4719 120.045Z" fill="white"/>
<path d="M65.835 120.021L64.9191 120.06L65.835 120.021Z" fill="white"/>
<path d="M57.2806 132.615L55.9918 132.419C55.6276 132.473 55.2561 132.418 54.9216 132.258C54.6728 132.219 54.4279 132.187 54.1679 132.14L53.4594 131.987C52.9921 131.885 52.5399 131.783 52.1103 131.681C51.6807 131.579 51.2662 131.481 50.8893 131.343C50.5125 131.206 50.1582 131.08 49.8379 130.951C49.2312 130.688 48.6207 130.46 48.0215 130.221C47.4223 129.981 46.8269 129.726 46.2353 129.494L45.3422 129.157C45.0482 129.047 44.7618 128.913 44.4717 128.795L42.7419 128.089C42.1654 127.873 41.6114 127.59 41.065 127.339C40.5185 127.088 39.9721 126.825 39.4332 126.554C38.3856 125.981 37.3681 125.376 36.4185 124.74C35.5367 124.116 35.8306 124.147 36.3619 124.347L35.6083 123.892L34.4287 123.331L33.8371 123.04L33.2681 122.714C32.5144 122.271 31.7607 121.807 31.007 121.301L28.6554 119.452C27.9018 118.82 27.1481 118.149 26.3944 117.489L25.9535 117.12C25.8065 116.994 25.6671 116.861 25.5239 116.727C25.6708 116.853 25.8178 116.983 25.9648 117.12C22.2947 113.688 19.0193 109.824 16.2045 105.605C15.7711 105.005 15.3227 104.428 14.8968 103.796L13.6721 101.923C13.4686 101.609 13.2576 101.303 13.0654 100.981L12.4963 100.011L12.0893 99.3162C12.5076 99.9522 12.9297 100.58 13.3442 101.208C13.5666 101.534 13.7738 101.876 14.0112 102.19L14.2524 102.52C14.4409 102.842 14.6293 103.16 14.8252 103.482C15.0212 103.803 15.2699 104.196 15.5036 104.549L16.2045 105.605C20.4744 111.379 25.5325 116.469 31.218 120.716C30.5968 120.441 29.996 120.118 29.4205 119.75L30.9278 120.846C31.1728 121.034 31.4328 121.203 31.6815 121.372L32.4578 121.886L34.0067 122.915L35.5932 123.872L36.6182 124.344C36.9611 124.501 37.3191 124.626 37.6658 124.768C37.402 124.693 36.7765 124.489 36.3431 124.328C42.8521 128.157 49.9063 130.879 57.2392 132.392C56.8567 132.305 56.4609 132.305 56.0785 132.392L57.2467 132.607C58.3056 132.733 59.3683 132.843 60.3858 133C59.3683 132.929 58.3132 132.78 57.2806 132.615Z" fill="white"/>
<path d="M86 126.302C85.9699 126.255 85.9435 126.208 85.9133 126.165C86.4071 126.039 86.9009 125.906 87.3947 125.772L87.0781 125.875C86.7028 125.969 86.3405 126.113 86 126.302Z" fill="white"/>
<path d="M88.001 125.58C88.2083 125.517 88.4156 125.462 88.6267 125.396C88.4345 125.478 88.2272 125.576 88.001 125.69C87.9909 125.674 87.9856 125.655 87.9856 125.635C87.9856 125.616 87.9909 125.597 88.001 125.58Z" fill="white"/>
<path d="M90.1226 124.917C90.9782 124.63 91.8263 124.32 92.6744 123.99C92.4702 124.143 92.2517 124.275 92.0223 124.383C91.1968 124.669 90.6578 124.779 90.1226 124.917Z" fill="white"/>
<path d="M95.6393 5.87696L96.7962 6.43443C97.1547 6.48617 97.4904 6.64737 97.7609 6.89768C97.9795 7.00368 98.2056 7.10575 98.4167 7.2196L99.0422 7.56508C99.453 7.7967 99.8524 8.0244 100.229 8.24425C100.91 8.63475 101.557 9.08664 102.162 9.59474C102.664 10.0187 103.176 10.4113 103.67 10.8118C104.164 11.2122 104.657 11.6244 105.155 12.0131L105.908 12.5862C106.153 12.7786 106.391 12.9788 106.632 13.179L108.064 14.3568C108.55 14.7298 108.987 15.142 109.439 15.5346C109.892 15.9271 110.333 16.3197 110.766 16.7398C111.599 17.5799 112.394 18.4318 113.114 19.3191C113.773 20.1631 113.49 20.0493 113.053 19.7117L113.634 20.3555L114.595 21.2231L115.073 21.6667L115.522 22.1378C116.117 22.7738 116.705 23.4255 117.266 24.1008L118.981 26.5191C119.531 27.3396 120.044 28.1836 120.571 29.012L120.888 29.4831C120.993 29.6441 121.088 29.8129 121.186 29.9738C121.084 29.8168 120.982 29.6519 120.873 29.4949C123.406 33.7727 125.452 38.343 126.97 43.1137C127.219 43.8085 127.479 44.4956 127.724 45.1944L128.376 47.3065C128.481 47.6598 128.598 48.0092 128.696 48.3665L128.971 49.4421C129.148 50.1566 129.348 50.8751 129.51 51.5935C128.538 46.2779 126.767 41.0133 124.713 36.0471C126.656 39.3612 128.183 42.9208 129.258 46.6391L128.738 44.7586L128.127 42.9017L127.818 41.9712C127.716 41.6611 127.611 41.351 127.486 41.0487L126.774 39.2231L126.537 38.5126L126.42 38.1592L126.288 37.8138C126.115 37.3584 125.945 36.9069 125.787 36.4711C125.474 35.6035 125.218 34.783 125.003 34.1156C125.139 34.4061 125.286 34.6849 125.406 34.9675L125.783 35.7998C126.021 36.3455 126.258 36.8637 126.492 37.3701C126.608 37.6253 126.733 37.8687 126.838 38.1121L127.159 38.8463C127.373 39.3252 127.588 39.7924 127.811 40.2478C126.281 36.0127 124.371 31.9379 122.105 28.0776C122.441 28.5959 122.738 29.1494 123.059 29.6912C123.379 30.2329 123.699 30.7786 124.023 31.3243C124.347 31.87 124.63 32.4432 124.939 33.0085C125.248 33.5738 125.55 34.1352 125.84 34.7084C126.13 35.2816 126.382 35.8862 126.65 36.4593L127.027 37.3348L127.223 37.7745L127.392 38.226C127.613 38.8227 127.827 39.4221 128.033 40.024C128.245 40.6174 128.425 41.223 128.572 41.8378C128.44 41.5747 128.327 41.3078 128.195 41.0526C128.063 40.7974 127.935 40.5265 127.818 40.2674C130.503 47.6651 132.008 55.4709 132.272 63.375C132.441 62.215 132.48 61.0386 132.389 59.8692C132.348 59.2371 132.295 58.5854 132.231 57.9259C132.167 57.2664 132.035 56.599 131.933 55.9276C131.53 53.2306 130.863 50.5257 130.599 48.1034C131.813 52.3141 132.572 56.6529 132.86 61.0391C133.16 65.5244 133.034 70.0296 132.483 74.4891C131.929 78.9345 131.016 83.3234 129.755 87.6093C129.122 89.7763 128.414 91.9002 127.645 93.9809L126.19 96.1401L125.082 97.6202C124.705 98.0991 124.37 98.5859 123.982 99.006C123.594 99.4261 123.228 99.8383 122.881 100.184C122.704 100.368 122.527 100.541 122.358 100.706C122.195 100.865 122.024 101.015 121.845 101.153C122.003 100.78 122.12 100.368 122.256 99.9953C122.005 100.144 121.774 100.324 121.566 100.533L121.434 100.651C121.758 100.105 122.075 99.5517 122.373 98.9942C122.034 99.5857 121.684 100.171 121.325 100.749C121.11 100.941 120.884 101.142 120.658 101.385L119.708 102.331C119.554 102.48 119.411 102.634 119.264 102.763C119.117 102.893 118.977 103.01 118.849 103.116C119.163 102.565 119.576 102.082 120.066 101.695L119.109 102.559L119.136 102.512C119.479 102.037 119.867 101.515 120.289 100.969L120.975 100.09L121.653 99.1513L122.346 98.1934C122.58 97.8754 122.814 97.5574 123.021 97.2276L124.249 95.3157C124.449 95.0174 124.626 94.7072 124.773 94.4128C124.92 94.1183 125.086 93.8357 125.225 93.5687C125.501 93.0348 125.73 92.5598 125.889 92.1672C126.171 91.3624 126.194 90.9031 125.813 90.9894C125.433 91.0758 124.947 91.6097 124.306 92.4184C123.986 92.811 123.639 93.3057 123.277 93.8435C123.1 94.1183 122.9 94.3892 122.689 94.6758L122.06 95.563C120.349 98.001 118.19 100.89 116.057 103.003C116.385 102.437 116.739 101.884 117.112 101.334C117.304 101.063 117.489 100.769 117.662 100.486C117.835 100.203 118.039 99.9207 118.224 99.6381C118.408 99.3554 118.601 99.0727 118.812 98.794C119.023 98.5153 119.188 98.213 119.384 97.9264C119.764 97.3454 120.152 96.7657 120.549 96.1873L121.653 94.3931C121.834 94.0948 122.03 93.8003 122.196 93.4941L122.693 92.5755C123.017 91.9591 123.356 91.3585 123.639 90.7382C123.922 90.1179 124.178 89.4937 124.423 88.8812C123.669 89.902 123.062 90.3652 122.132 91.8767C121.838 92.3517 121.559 92.8346 121.257 93.3018L120.319 94.6836C119.716 95.6141 119.019 96.4778 118.356 97.3611C118.201 97.5888 118.065 97.8243 117.907 98.0442L117.447 98.6959C117.146 99.1277 116.844 99.5478 116.535 99.9521L116.302 100.251L116.045 100.525C115.875 100.711 115.698 100.888 115.514 101.055C115.149 101.401 114.754 101.711 114.335 101.982C114.206 102.123 114.067 102.253 113.931 102.374C113.705 102.688 113.555 103.057 113.31 103.356C112.84 103.809 112.336 104.223 111.802 104.593C111.253 105.014 110.764 105.515 110.351 106.08C110.287 106.037 110.299 105.943 110.351 105.825C110.005 106.316 109.221 106.799 108.863 107.396C108.753 107.288 108.61 107.224 108.46 107.215C108.256 107.376 108.06 107.545 107.849 107.698L107.22 108.153L105.961 109.068C105.754 109.225 105.535 109.362 105.317 109.504L104.669 109.932C104.231 110.214 103.806 110.505 103.365 110.784L102.023 111.569C101.575 111.832 101.137 112.114 100.67 112.354L99.2947 113.092C99.0611 113.214 98.8387 113.347 98.6013 113.457L97.8929 113.799L96.2272 114.607L95.3981 114.965L96.8641 114.179C97.5499 113.81 98.2132 113.394 98.884 113.002L99.8864 112.417L100.859 111.789L101.831 111.164C102.151 110.956 102.479 110.772 102.788 110.528L104.672 109.201C104.985 108.989 105.283 108.75 105.584 108.514L106.485 107.812L107.386 107.109C107.676 106.866 107.962 106.61 108.252 106.363C108.821 105.861 109.405 105.378 109.963 104.859C112.189 102.791 114.247 100.535 116.117 98.1148C117.967 95.6519 119.584 93.0079 120.944 90.22L121.77 88.1707C121.905 87.8291 122.052 87.4954 122.181 87.1499L122.557 86.1096C122.799 85.4147 123.066 84.7316 123.285 84.0289L123.929 81.9168C124.754 79.0923 125.364 76.2043 125.753 73.2799C125.836 72.8873 125.923 72.4476 126.009 72.0079C126.096 71.5682 126.141 71.1089 126.209 70.6457C126.33 69.7231 126.48 68.7809 126.518 67.8701C126.556 66.9593 126.642 66.0956 126.639 65.3379C126.639 65.1495 126.639 64.965 126.639 64.7883L126.695 64.6155C126.744 64.4507 126.793 64.2936 126.835 64.1484C127.019 63.5713 127.178 63.2022 127.291 63.32C127.507 63.6589 127.687 64.0208 127.829 64.3996C127.976 64.8175 128.086 65.2485 128.157 65.6873C128.339 66.731 128.42 67.7911 128.398 68.8515C128.398 69.4444 128.398 70.0646 128.398 70.7163C128.398 71.368 128.327 72.0511 128.285 72.7617C128.27 73.1176 128.255 73.4827 128.24 73.857C128.21 74.226 128.184 74.6068 128.154 74.9916C128.123 75.3763 128.105 75.7767 128.086 76.1693C128.067 76.5619 128.056 76.9898 128.018 77.406C127.924 78.3246 128.052 78.0145 128.24 77.4688L128.387 77.033C128.432 76.8838 128.478 76.7307 128.523 76.5973C128.613 76.3303 128.704 76.1301 128.775 76.1262C128.886 76.4782 128.96 76.8414 128.998 77.2097C128.915 77.8143 128.809 78.4188 128.719 79.0234L128.557 80.0834C128.508 80.4407 128.425 80.7861 128.361 81.1395L128.504 80.5938C128.643 79.9539 128.73 79.31 128.832 78.6937C128.896 78.2265 128.968 77.7711 129.009 77.3275C129.043 77.72 129.058 78.1872 129.062 78.6583C129.065 79.1294 129.062 79.6908 129.062 80.209C129.062 80.7272 129.032 81.2298 129.035 81.7009C129.412 80.4917 129.646 79.2551 129.925 78.0223C130.072 77.406 130.166 76.7818 130.271 76.1575L130.58 74.281C130.66 73.6529 130.724 73.0247 130.795 72.3927L130.901 71.4465L130.95 70.9754L130.98 70.4965L131.089 68.5964C131.089 68.2784 131.127 67.9643 131.134 67.6463V66.6923C131.19 61.608 130.654 56.5353 129.537 51.5856C130.217 55.2279 130.47 58.9428 130.29 62.6487L130.26 61.4121C130.26 61.0195 130.207 60.5915 130.185 60.1833L130.098 58.9466C130.064 58.554 130.057 58.1222 130 57.7139C129.906 56.8973 129.815 56.0768 129.721 55.2563C129.684 54.8402 129.608 54.4358 129.544 54.0275L129.348 52.8027L129.148 51.5739L128.896 50.3569L128.64 49.1359C128.549 48.7433 128.478 48.3193 128.365 47.9189L127.731 45.5006C127.637 45.108 127.505 44.7154 127.381 44.3032L127.004 43.1254C124.52 36.4789 121.117 30.2457 116.905 24.6229C117.416 25.0609 117.896 25.5372 118.34 26.048L117.21 24.5836C117.025 24.3363 116.833 24.1008 116.63 23.8691L116.038 23.1625L114.858 21.7492L113.622 20.3869L112.786 19.6488C112.503 19.4054 112.202 19.1817 111.911 18.95C112.141 19.0953 112.665 19.4643 113.042 19.7352C107.953 14.2539 102.056 9.65385 95.5752 6.10858C95.9139 6.29783 96.2882 6.4077 96.6719 6.4305L95.6318 5.88874C94.6708 5.46474 93.7023 5.05646 92.7828 4.62069C93.7476 4.99364 94.701 5.42156 95.6393 5.87696Z" fill="white"/>
<path d="M34.4436 7.66322C34.6019 7.52974 34.7639 7.40411 34.9222 7.27064C35.0805 7.13716 35.2501 7.05864 35.4121 6.96442C36.0249 6.6104 36.6653 6.31097 37.3265 6.06933L37.7862 5.90051L38.2497 5.76311L39.1579 5.49615C39.751 5.32162 40.3295 5.09711 40.8877 4.82483C41.5283 4.50553 42.1765 4.20193 42.8322 3.91403C42.7304 4.02395 42.6965 4.1221 42.7342 4.20847C39.5412 5.38886 36.4469 6.84109 33.4826 8.55046C33.7863 8.23573 34.1072 7.93949 34.4436 7.66322Z" fill="white"/>
<path d="M16.2044 33.2205C16.4606 32.7847 16.6114 32.6552 16.6528 32.6827C16.6943 32.7101 16.6528 32.9104 16.5812 33.1734C16.7056 32.93 16.8488 32.6944 16.9844 32.451C17.3085 31.7012 17.6326 30.9357 18.0057 30.1937C18.3788 29.4517 18.8121 28.745 19.2606 28.0345L19.4528 27.7439L19.66 27.4652L20.0784 26.9038L20.9074 25.7889C21.0506 25.6043 21.1825 25.3963 21.3295 25.2353L21.7742 24.7053L22.656 23.6454C22.8821 23.3705 23.0893 23.0761 23.3305 22.8131C23.2137 22.9466 23.1044 23.0918 22.9989 23.2371C23.1836 23.0094 23.3757 22.8013 23.5905 22.5854L24.1897 21.9455C24.5892 21.5215 24.9811 21.0857 25.3919 20.6774L26.6505 19.4761C27.0726 19.0835 27.4833 18.6674 27.928 18.2983L29.2432 17.1795C29.4618 16.995 29.6766 16.7869 29.9027 16.6259L30.5848 16.1077L31.949 15.0752L32.2881 14.8161L32.6424 14.5766L33.3471 14.1016C35.5128 12.4657 37.7899 10.9961 40.1604 9.70465L39.7421 9.89702L39.3351 10.1129L38.5174 10.5487L37.6959 10.9845C37.4245 11.1337 37.1457 11.2711 36.8819 11.4399L35.284 12.4135C35.0203 12.5784 34.7489 12.7354 34.4889 12.9081L33.7126 13.4381L32.16 14.4942C31.655 14.8632 31.1576 15.248 30.6526 15.6209C29.6351 16.3472 28.6893 17.1638 27.717 17.9411C30.1048 15.2675 32.8335 12.9479 35.8267 11.0473L34.3193 11.9895C33.8181 12.3114 33.3358 12.6687 32.8421 13.0102C32.3484 13.3518 31.8472 13.6894 31.3762 14.0623L29.9517 15.1851L29.3902 15.5777L29.1075 15.774L28.84 15.9821C28.4632 16.2608 28.1277 16.5317 27.7848 16.7673C27.4419 17.0028 27.1103 17.2619 26.79 17.4818C26.4696 17.7016 26.1908 17.9175 25.9119 18.0903C27.6793 16.4846 29.1867 15.1969 30.5735 13.9171C27.2336 16.3998 24.1462 19.232 21.3596 22.3695L21.9249 21.7021L22.5165 21.0504L23.6998 19.7234L23.9975 19.3858L24.3065 19.0678L24.9321 18.424L26.1908 17.1363C26.6304 16.7332 27.0739 16.3328 27.521 15.935L28.1918 15.3461L28.531 15.0517L28.8815 14.7808C29.3525 14.4235 29.8235 14.0702 30.3021 13.7326L31.0182 13.234C31.2593 13.073 31.5156 12.9356 31.7718 12.7904L31.1764 13.3439L30.5848 13.9171C33.5181 11.7325 36.6303 9.82114 39.8853 8.20497C40.8651 7.71424 41.86 7.25884 42.8586 6.827C43.3297 6.75241 43.7518 6.71708 44.204 6.65819C44.4866 6.62286 44.7805 6.56005 45.1197 6.50508C45.5009 6.43258 45.8783 6.33954 46.2502 6.22635L47.8895 5.75131L49.5476 5.35873L50.3729 5.16244C50.648 5.09962 50.9231 5.02896 51.202 4.98577L52.8676 4.68741C53.9567 4.38905 55.0006 4.16528 56.0218 3.97683C56.2781 3.93365 56.5343 3.89439 56.7755 3.86298C57.0167 3.83157 57.288 3.83157 57.5292 3.83157C57.7704 3.83157 58.0116 3.83157 58.249 3.8512C56.491 4.05655 54.7449 4.36059 53.0184 4.762C48.5473 5.83063 44.2262 7.49171 40.1604 9.70465C43.1855 8.20815 46.3896 7.14127 49.6871 6.53256L48.6131 6.83878L48.078 6.99189C47.8971 7.04685 47.7237 7.11359 47.5466 7.16855L45.4287 7.89483C44.7278 8.15786 44.0382 8.44445 43.341 8.71926C42.6438 8.99407 41.9618 9.31207 41.2759 9.62613C39.8929 10.2229 38.5739 10.9649 37.2323 11.6754L35.2727 12.8532L34.7791 13.1476L34.3043 13.4656L33.3508 14.1095L32.3673 14.8436C32.047 15.0988 31.7342 15.3697 31.4176 15.6288L30.4755 16.4139L30.0007 16.8065C29.8462 16.94 29.6992 17.0852 29.5485 17.2227L27.7396 18.8911L26.0174 20.646C23.7676 23.0229 21.6881 25.5684 19.7957 28.2621C20.0248 27.659 20.3074 27.0794 20.6398 26.5308L19.66 27.9677L18.7443 29.4478C18.1074 30.4174 17.5648 31.446 16.9882 32.451C16.6943 33.1027 16.4719 33.7858 16.2345 34.4571C16.2911 34.198 16.4832 33.6092 16.6114 33.1734C13.2431 39.4295 10.8949 46.2245 9.66234 53.2816C9.68979 53.0601 9.68979 52.8358 9.66234 52.6142C9.64675 52.4624 9.62284 52.3117 9.59074 52.1627C9.52668 52.5318 9.48146 52.9086 9.43247 53.2895C9.38725 53.7959 9.33826 54.3063 9.28927 54.8088C9.26289 55.06 9.23273 55.3113 9.20635 55.5586L9.14984 56.3045C9.14984 56.0533 9.14984 55.802 9.14984 55.5507C9.14984 55.2995 9.19881 55.0482 9.22896 54.797C9.28549 54.2945 9.34955 53.792 9.41361 53.2895L9.47015 52.6652C9.49276 52.4572 9.52291 52.253 9.54929 52.0489C9.4922 51.6996 9.53955 51.3406 9.68495 51.0203C9.75278 50.5453 9.8206 50.0781 9.88089 49.6266C9.94119 49.1752 10.058 48.7472 10.1485 48.335C10.2389 47.9228 10.3369 47.5263 10.4349 47.1573C10.4839 46.9728 10.5291 46.7961 10.5856 46.6273C10.6421 46.4585 10.7062 46.2975 10.7665 46.1444C11.2376 44.9667 11.6069 43.8085 12.0365 42.6779C12.2437 42.1086 12.4321 41.5394 12.6243 40.978L13.2499 39.3213C14.0161 37.1806 15.007 35.1346 16.2044 33.2205Z" fill="white"/>
</g>
<defs>
<clipPath id="clip0_1212_21267">
<rect width="132.312" height="132.312" fill="white" transform="scale(1.0052)"/>
</clipPath>
</defs>
</svg>
