<svg width="20" height="20" viewBox="0 0 20 20" fill="none" xmlns="http://www.w3.org/2000/svg">
<g clip-path="url(#clip0_0_4)">
<path d="M20 1.82537C20 0.878584 19.2789 0.111084 18.3893 0.111084H1.61074C0.721141 0.111084 0 0.878584 0 1.82537V18.3968C0 19.3436 0.721141 20.1111 1.61074 20.1111H18.3893C19.2789 20.1111 20 19.3436 20 18.3968V1.82537ZM6.10738 2.25394H8.99329V4.68251H6.10738V2.25394ZM4.09396 17.9682H2.01342V15.5397H4.09396V17.9682ZM4.09396 4.68251H2.01342V2.25394H4.09396V4.68251ZM8.99329 17.9682H6.10738V15.5397H8.99329V17.9682ZM8.25503 12.0902V8.13187C8.25503 7.54258 8.64886 7.32458 9.11208 7.64737L11.8125 9.52394C12.2758 9.84673 12.2795 10.3749 11.8163 10.6978L9.1102 12.5747C8.64698 12.8976 8.25503 12.6795 8.25503 12.0902ZM13.8926 17.9682H11.0067V15.5397H13.8926V17.9682ZM13.8926 4.68251H11.0067V2.25394H13.8926V4.68251ZM17.9866 17.9682H15.906V15.5397H17.9866V17.9682ZM17.9866 4.68251H15.906V2.25394H17.9866V4.68251Z" fill="white"/>
</g>
<defs>
<clipPath id="clip0_0_4">
<rect width="20" height="20" fill="white"/>
</clipPath>
</defs>
</svg>
