<svg width="36" height="36" viewBox="0 0 36 36" fill="none" xmlns="http://www.w3.org/2000/svg">
<path d="M27 4.5H9C8.70163 4.5 8.41548 4.38147 8.2045 4.1705C7.99353 3.95952 7.875 3.67337 7.875 3.375C7.875 3.07663 7.99353 2.79048 8.2045 2.5795C8.41548 2.36853 8.70163 2.25 9 2.25H27C27.2984 2.25 27.5845 2.36853 27.7955 2.5795C28.0065 2.79048 28.125 3.07663 28.125 3.375C28.125 3.67337 28.0065 3.95952 27.7955 4.1705C27.5845 4.38147 27.2984 4.5 27 4.5ZM31.5 7.875C31.5 7.57663 31.3815 7.29048 31.1705 7.0795C30.9595 6.86853 30.6734 6.75 30.375 6.75H5.625C5.32663 6.75 5.04048 6.86853 4.8295 7.0795C4.61853 7.29048 4.5 7.57663 4.5 7.875C4.5 8.17337 4.61853 8.45952 4.8295 8.6705C5.04048 8.88147 5.32663 9 5.625 9H30.375C30.6734 9 30.9595 8.88147 31.1705 8.6705C31.3815 8.45952 31.5 8.17337 31.5 7.875ZM14.625 25.1798L19.9845 22.5L14.625 19.8202V25.1798ZM33.75 14.625V30.375C33.75 31.2701 33.3944 32.1286 32.7615 32.7615C32.1286 33.3944 31.2701 33.75 30.375 33.75H5.625C4.72989 33.75 3.87145 33.3944 3.23851 32.7615C2.60558 32.1286 2.25 31.2701 2.25 30.375V14.625C2.25 13.7299 2.60558 12.8714 3.23851 12.2385C3.87145 11.6056 4.72989 11.25 5.625 11.25H30.375C31.2701 11.25 32.1286 11.6056 32.7615 12.2385C33.3944 12.8714 33.75 13.7299 33.75 14.625ZM23.625 22.5C23.6251 22.2909 23.5669 22.086 23.457 21.9081C23.3472 21.7303 23.1899 21.5866 23.0029 21.4931L14.0029 16.9931C13.8313 16.9074 13.6407 16.867 13.4491 16.8756C13.2575 16.8843 13.0713 16.9418 12.9082 17.0427C12.7451 17.1436 12.6105 17.2845 12.5172 17.452C12.4239 17.6196 12.3749 17.8082 12.375 18V27C12.3749 27.1918 12.4239 27.3804 12.5172 27.548C12.6105 27.7155 12.7451 27.8564 12.9082 27.9573C13.0713 28.0582 13.2575 28.1157 13.4491 28.1244C13.6407 28.133 13.8313 28.0926 14.0029 28.0069L23.0029 23.5069C23.1899 23.4134 23.3472 23.2697 23.457 23.0919C23.5669 22.914 23.6251 22.7091 23.625 22.5Z" fill="#FF7757"/>
</svg>
