<svg width="24" height="24" viewBox="0 0 24 24" fill="none" xmlns="http://www.w3.org/2000/svg">
<path d="M16.7031 4.29848C16.8887 4.53186 16.9874 4.78858 16.999 5.06864C17.0106 5.3487 16.9119 5.59375 16.7031 5.80379L10.5761 11.965L16.7379 18.1613C16.9235 18.348 17.0106 18.5989 16.999 18.9139C16.9874 19.229 16.8887 19.4799 16.7031 19.6666C16.471 19.9 16.2215 20.0108 15.9546 19.9992C15.6877 19.9875 15.4498 19.8766 15.241 19.6666L8.31331 12.7002C8.19727 12.5835 8.11604 12.4668 8.06963 12.3501C8.02321 12.2334 8 12.1051 8 11.965C8 11.825 8.02321 11.6967 8.06963 11.58C8.11604 11.4633 8.19727 11.3466 8.31331 11.2299L15.2061 4.29848C15.415 4.08844 15.6587 3.98925 15.9372 4.00092C16.2157 4.01259 16.471 4.11178 16.7031 4.29848Z" fill="#FF7A7A"/>
</svg>
