<svg width="20" height="20" viewBox="0 0 20 20" fill="none" xmlns="http://www.w3.org/2000/svg">
<g clip-path="url(#clip0_1212_1361)">
<path d="M9.9999 0.384644C4.68467 0.384644 0.384521 4.69922 0.384521 10C0.384521 15.2886 4.66914 19.6154 9.9999 19.6154C15.3133 19.6154 19.6153 15.3021 19.6153 10C19.6153 4.70264 15.3177 0.384644 9.9999 0.384644ZM16.7898 15.6697C16.0372 15.2829 15.1842 14.9807 14.3554 14.7655C14.7438 13.4403 14.9645 11.9449 14.9957 10.3846H18.8377C18.7537 12.325 18.0359 14.1789 16.7898 15.6697ZM3.20998 15.6697C1.96391 14.1789 1.2461 12.325 1.1621 10.3846H5.00406C5.03529 11.9449 5.25602 13.4403 5.6444 14.7655C4.81475 14.9811 3.97614 15.2774 3.20998 15.6697ZM3.20998 4.33033C3.9749 4.72222 4.81598 5.01887 5.6444 5.23453C5.25602 6.5598 5.03529 8.0551 5.00406 9.61541H1.1621C1.2461 7.67499 1.96391 5.82114 3.20998 4.33033ZM14.1177 4.50272C13.7282 3.41703 13.1486 2.28318 12.3377 1.46968C13.8054 1.87284 15.1574 2.65091 16.2492 3.73995C15.5819 4.06203 14.8164 4.32803 14.1177 4.50272ZM10.3845 4.99556V1.19184C11.3237 1.37587 12.2122 2.23037 12.9194 3.64491C13.0812 3.96845 13.2289 4.31283 13.3623 4.67483C12.382 4.87156 11.3763 4.97457 10.3845 4.99556ZM9.61529 4.99556C8.6151 4.97441 7.60667 4.86972 6.63748 4.67483C6.77083 4.3128 6.9186 3.96841 7.08033 3.64491C7.7876 2.23037 8.67606 1.37584 9.61529 1.19184V4.99556ZM9.61529 5.76495V9.61541H5.7734C5.8046 8.11037 6.01856 6.67376 6.39402 5.40926C7.39029 5.61545 8.4804 5.74187 9.61529 5.76495ZM9.61529 10.3846V14.2351C8.5434 14.2569 7.43956 14.3735 6.39406 14.5908C6.01856 13.3263 5.8046 11.8897 5.7734 10.3846H9.61529ZM9.61529 15.0045V18.8082C8.67606 18.6242 7.7876 17.7696 7.08033 16.3551C6.91856 16.0316 6.77083 15.6872 6.63748 15.3252C7.56933 15.1371 8.58336 15.0263 9.61529 15.0045ZM10.3845 15.0045C11.4141 15.0263 12.424 15.1362 13.3623 15.3252C13.2289 15.6872 13.0812 16.0316 12.9194 16.3551C12.2122 17.7696 11.3237 18.6242 10.3845 18.8082V15.0045ZM10.3845 14.2351V10.3846H14.2264C14.1952 11.8897 13.9813 13.3263 13.6057 14.5908C12.6154 14.3851 11.5179 14.2582 10.3845 14.2351ZM10.3845 9.61541V5.76495C11.5322 5.7416 12.6181 5.61337 13.6058 5.40926C13.9813 6.67372 14.1952 8.11037 14.2264 9.61541H10.3845ZM5.88213 4.50272C5.16098 4.3206 4.41825 4.06268 3.75056 3.73995C4.84237 2.65091 6.19437 1.87284 7.66213 1.46968C6.84998 2.28437 6.27064 3.41968 5.88213 4.50272ZM5.88213 15.4973C6.27048 16.5801 6.8499 17.7156 7.66213 18.5304C6.19437 18.1272 4.84237 17.3491 3.75056 16.2601C4.41925 15.9367 5.16233 15.68 5.88213 15.4973ZM14.1176 15.4973C14.8069 15.6696 15.5822 15.9373 16.2492 16.2601C15.1574 17.3491 13.8054 18.1272 12.3377 18.5304C13.1499 17.7156 13.7294 16.58 14.1176 15.4973ZM14.9957 9.61541C14.9645 8.0551 14.7438 6.5598 14.3554 5.23453C15.1981 5.01568 16.0421 4.7138 16.7898 4.33037C18.0359 5.82114 18.7537 7.67503 18.8377 9.61545H14.9957V9.61541Z" fill="#00D16D"/>
</g>
<defs>
<clipPath id="clip0_1212_1361">
<rect width="20" height="20" fill="white"/>
</clipPath>
</defs>
</svg>
