<svg width="343" height="2" viewBox="0 0 343 2" fill="none" xmlns="http://www.w3.org/2000/svg">
<g clip-path="url(#clip0_1212_8873)">
<path d="M171.756 0.882164C171.518 1.00905 172.351 1.16313 173.285 1.18428C174.378 1.22375 175.505 1.22375 176.599 1.18428C177.183 1.13806 177.822 1.11751 178.461 1.12434C179.099 1.13118 179.72 1.1652 180.269 1.22356C180.638 1.25847 181.049 1.27674 181.467 1.27674C181.885 1.27674 182.296 1.25847 182.665 1.22356C184.707 1.08387 186.975 1.09146 188.986 1.24471C190.6 1.33534 192.282 1.14501 193.896 1.27794C193.965 1.29103 194.048 1.30146 194.14 1.3086C194.232 1.31574 194.331 1.31942 194.432 1.31942C194.532 1.31942 194.632 1.31574 194.724 1.3086C194.816 1.30146 194.899 1.29103 194.967 1.27794C201.135 1.23565 207.252 1.43202 213.437 1.429C217.701 1.38573 221.978 1.41202 226.215 1.50754C226.77 1.53296 227.347 1.53912 227.914 1.52567C232.689 1.34138 237.498 1.48338 242.29 1.48036C244.514 1.49146 246.727 1.41834 248.781 1.26586L249.018 1.23262L248.814 1.2719C249.137 1.38368 249.596 1.51661 250.344 1.48036C253.742 1.30815 257.141 1.39576 260.539 1.38368C261.512 1.41008 262.506 1.37706 263.36 1.29002C263.493 1.26352 263.657 1.24233 263.84 1.22782C264.023 1.2133 264.221 1.2058 264.422 1.2058C264.622 1.2058 264.82 1.2133 265.003 1.22782C265.186 1.24233 265.35 1.26352 265.484 1.29002C267.397 1.49388 269.646 1.57492 271.856 1.51963C274.167 1.50453 276.562 1.33232 278.652 1.64954C280.912 1.34742 283.75 1.85195 286.01 1.48639C286.333 1.43503 287.437 1.42295 287.522 1.45317C288.474 1.78247 289.799 1.56193 290.921 1.54984C292.467 1.5287 293.232 1.67371 293.435 1.93655C293.168 1.94051 292.909 1.95386 292.671 1.97583C292.416 2.01208 292.552 2.05437 292.909 2.03927C293.266 2.02416 293.283 1.97885 293.469 1.94561C295.542 1.82477 297.157 1.54078 299.553 1.51057C301.065 1.49244 302.322 1.22658 303.478 1.66163C303.818 1.79154 305.653 1.57099 306.876 1.55891L307.114 1.53172L306.961 1.57099C306.961 1.67371 307.284 1.82175 307.743 1.74924C309.323 1.50755 311.413 1.57401 313.18 1.41087C315.44 1.20241 318.176 1.46222 320.81 1.41087C325.618 1.30513 330.512 1.41087 335.185 1.04833C337.129 0.89957 339.289 0.864649 341.353 0.94863C341.998 0.978842 342.746 0.975826 343.052 0.821747C340.754 0.60548 338.144 0.516065 335.559 0.564948C335.321 0.564948 334.879 0.564948 334.828 0.564948C333.52 0.102712 331.905 0.447125 330.376 0.501506C330.155 0.501506 329.883 0.468276 329.628 0.447128C330.104 0.389726 331.09 0.326279 330.444 0.217517C329.798 0.108756 329.509 0.287001 329.187 0.374614C328.456 0.299085 327.606 0.217517 326.825 0.302109C324.038 0.604224 321.268 0.453166 318.499 0.320235L318.719 0.290022L318.448 0.314196C317.862 0.391218 317.154 0.432791 316.426 0.432791C315.698 0.432791 314.989 0.391218 314.404 0.314196L313.894 0.283983L314.098 0.371599C314.098 0.462233 314.285 0.552866 314.37 0.6435L314.539 0.682777L314.302 0.658602C313.148 0.59122 312.189 0.445793 311.634 0.25377C310.546 -0.048345 309.935 -0.00906897 308.388 0.377638C308.507 0.422955 309.136 0.438061 308.66 0.519632L308.354 0.383677L306.876 0.504521L306.264 0.459206L306.553 0.564948C306.111 0.634434 305.381 0.685795 305.075 0.613287C304.038 0.368574 303.512 -0.0694897 301.252 0.398788C300.487 0.0966734 299.009 0.175218 297.734 0.223556C295.899 0.296064 297.191 0.453161 297.531 0.58005L297.683 0.625374L297.48 0.589122C294.999 0.84592 293.316 0.670692 292.195 0.238668C291.209 0.46741 289.831 0.632852 288.27 0.709966C287.165 0.595162 288.678 0.407847 287.454 0.280959C284.787 0.622349 281.796 0.912381 278.177 0.679753C278.499 0.287004 278.499 0.287004 275.662 0.377638L275.186 0.338362C275.186 0.368573 275.339 0.395766 275.424 0.425977C275.662 0.728092 277.293 0.57703 278.092 0.694855C277.922 0.99697 276.392 0.770389 275.798 0.861023C273.997 0.398788 270.462 0.818726 268.304 0.368575C267.268 0.154073 265.144 0.489417 263.649 0.619326C262.153 0.749235 261.185 0.945612 260.25 0.507545C259.706 0.250748 258.721 0.453166 257.939 0.546822C257.158 0.640477 256.784 0.812687 255.866 0.664651C255.22 0.55891 255.373 0.268878 254.048 0.341386C252.723 0.413893 252.791 0.643502 252.349 0.824771C252.094 0.912384 251.958 1.00906 251.72 1.12689C251.193 0.867067 250.395 0.682776 248.713 0.709966L248.475 0.746218L248.577 0.637452C248.848 0.52567 248.967 0.30513 248.22 0.377638C246.593 0.554392 244.645 0.612827 242.782 0.540783C241.831 0.50755 241.593 0.842891 240.353 0.76132C239.809 0.178239 239.809 0.178241 236.835 0.555885L237.073 0.592137L236.801 0.564948C235.493 0.625371 234.966 0.867064 233.981 0.990931C233.352 0.854979 233.76 0.719025 233.981 0.583074C234.337 0.323255 233.148 0.223559 232.281 0.302109C230.684 0.46223 228.747 0.380655 227.286 0.561924C225.824 0.743192 225.4 0.755283 225.247 0.416914C225.247 0.305132 224.312 0.335344 223.87 0.389725C222.834 0.519634 221.389 0.29607 220.285 0.616311C219.554 0.82477 219.096 0.268879 217.362 0.314196C216.173 0.338366 215.102 0.29002 215.051 0.58005C215.051 0.939566 213.352 0.821746 212.316 0.857999C212.05 0.851731 211.808 0.828017 211.636 0.791534C212.163 0.528694 212.639 0.326281 210.09 0.380662C208.391 0.416916 208.051 0.743193 206.691 0.770383C205.332 0.797574 206.555 0.447127 205.485 0.380662C204.414 0.314197 203.65 0.459206 202.817 0.534734C201.99 0.626364 201.056 0.682768 200.086 0.699538C199.116 0.716309 198.138 0.692994 197.227 0.631413L196.989 0.664651L197.159 0.619326C197.15 0.565395 197.069 0.512627 196.921 0.465503C196.773 0.418378 196.564 0.378295 196.31 0.348642C196.057 0.318989 195.767 0.300647 195.465 0.295176C195.163 0.289705 194.858 0.297261 194.576 0.317211C192.996 0.486396 191.62 0.353465 190.226 0.317211C188.833 0.280958 187.541 0.199391 186.981 0.586098C186.624 0.836853 185.485 0.652558 184.738 0.561924C184.795 0.51919 184.835 0.475775 184.857 0.432016C184.857 0.416911 184.67 0.401807 184.568 0.386701C184.449 0.349144 184.279 0.317515 184.073 0.294733C183.867 0.271952 183.632 0.25875 183.39 0.256342C183.148 0.253934 182.906 0.262401 182.688 0.280959C182.469 0.299517 182.28 0.327573 182.138 0.362536C181.69 0.453853 181.098 0.519114 180.439 0.549846L180.218 0.510569L180.082 0.534734L180.32 0.570987C179.185 0.656559 178.088 0.757564 177.04 0.873101C174.848 1.15105 174.882 0.812684 174.441 0.595161L174.271 0.549846L174.492 0.586098C174.916 0.6435 175.426 0.758303 175.766 0.746218C176.429 0.719028 176.259 0.586095 176.004 0.507545C175.845 0.437484 175.55 0.379818 175.173 0.344926C174.796 0.310034 174.362 0.300205 173.948 0.317211C172.521 0.395761 172.113 0.667663 171.756 0.882164ZM327.181 0.540783V0.492443L327.317 0.531719L327.181 0.540783ZM271.805 0.999994L271.907 0.939567C272.009 0.939567 272.161 0.939575 272.229 0.966765C272.297 0.993956 272.416 1.04229 272.06 1.04229C271.975 1.03927 271.89 0.999994 271.805 0.999994ZM258.67 0.981867C258.925 0.942593 259.146 0.9577 259.214 1.02114C259.214 1.02114 259.095 1.06948 259.044 1.06646C258.918 1.0632 258.801 1.05379 258.704 1.03927C258.687 1.01812 258.619 0.999991 258.67 0.978843V0.981867ZM232.145 0.719029H232.349V0.767369L232.145 0.719029ZM202.868 0.915402C202.868 0.891233 202.868 0.864042 202.868 0.848936C202.897 0.838045 202.943 0.828842 203 0.822392C203.057 0.815943 203.123 0.812518 203.191 0.812518C203.259 0.812518 203.325 0.815943 203.382 0.822392C203.439 0.828842 203.485 0.838045 203.514 0.848936C203.542 0.858752 203.557 0.869629 203.557 0.880662C203.557 0.891694 203.542 0.902562 203.514 0.912378C203.327 0.960716 203.089 0.954674 202.868 0.912378V0.915402ZM194.372 1.19939L194.559 1.16918L194.729 1.20543L194.372 1.19939ZM190.107 0.649539H190.311V0.694855L190.107 0.649539ZM184.381 0.435041L184.653 0.395764C184.632 0.426959 184.586 0.457465 184.517 0.486395L184.381 0.435041Z" fill="#FF7757"/>
<path d="M85.4526 0.377651C85.4526 0.607258 84.8409 0.933541 87.4747 0.942604C90.783 0.91947 94.096 0.929559 97.398 0.972818C100.694 1.05137 104.025 1.04835 107.338 1.09669C108.726 1.12505 110.131 1.10242 111.467 1.03022C112.372 0.9683 113.338 0.93933 114.307 0.945038C115.276 0.950747 116.229 0.991014 117.109 1.06345C119.403 1.2417 122.07 1.12085 124.449 1.11481C134.033 1.09971 143.599 1.27795 153.183 1.18732C154.436 1.18504 155.686 1.21041 156.904 1.26285C158.382 1.3142 159.979 1.37463 161.135 1.10575L160.268 0.978857L160.115 0.936565L160.37 0.96073L161.186 1.09366C161.798 1.17825 162.018 1.39578 163.089 1.31118C164.826 1.23937 166.594 1.1929 168.373 1.17221C169.121 1.142 170.158 1.22055 170.378 1.01511C170.58 0.909851 170.641 0.797663 170.555 0.687501C170.47 0.57734 170.24 0.472268 169.886 0.380675C169.777 0.35539 169.63 0.33599 169.462 0.324637C169.295 0.313285 169.113 0.310425 168.937 0.316376C168.761 0.322327 168.597 0.336848 168.465 0.358336C168.332 0.379823 168.236 0.407433 168.187 0.438078C167.592 0.67977 166.198 0.555897 165.281 0.649553L165.043 0.676742L165.213 0.637465C165.106 0.564824 164.892 0.498558 164.594 0.445463C164.295 0.392368 163.922 0.354358 163.514 0.335351C162.613 0.290033 161.815 0.271908 162.154 0.525684C162.494 0.779461 161.543 0.685807 161.016 0.622363C158.756 0.35046 158.773 0.347441 157.414 0.794571C155.714 0.510583 154.015 0.129918 151.229 0.350462C150.532 0.404843 151.585 0.540789 151.466 0.694868C148.561 0.483388 145.774 0.223573 142.563 0.283996L141.968 0.241696C142.07 0.274928 142.155 0.30816 142.257 0.344414C141.322 0.697888 141.05 0.719043 140.439 0.465267C139.827 0.211491 139.147 0.214512 138.383 0.371612C138.002 0.457635 137.491 0.522619 136.911 0.558996C136.33 0.595372 135.703 0.601637 135.103 0.577048C134.61 0.577048 133.88 0.631426 133.897 0.480369C133.897 0.253783 133.132 0.126895 132.198 0.178254C130.294 0.256804 127.933 0.00302424 126.488 0.410879L126.726 0.450156L126.471 0.413903C124.874 0.362544 124.143 0.685808 122.359 0.688829C122.444 0.528708 124.058 0.435051 123.226 0.280972C122.393 0.126894 121.747 0.280971 121.136 0.374627C120.524 0.468283 120.048 0.583088 119.437 0.471306C118.009 0.241699 116.786 0.114814 115.257 0.456204C114.832 0.552881 114.441 0.389737 114.016 0.341399C112.595 0.178102 110.902 0.106414 109.22 0.138305C107.538 0.170196 105.968 0.303732 104.772 0.516621H106.336L106.574 0.489432L106.404 0.528709C106.308 0.553016 106.181 0.572867 106.033 0.586572C105.885 0.600277 105.721 0.607427 105.554 0.607427C105.387 0.607427 105.223 0.600277 105.075 0.586572C104.927 0.572867 104.8 0.553016 104.705 0.528709L104.382 0.489432C100.779 0.0483444 100.558 0.0513656 97.9757 0.564961L97.7548 0.601213L97.9247 0.555898C97.9247 0.368587 98.6554 0.0332409 96.2255 0.283996C95.5288 0.356504 94.6792 0.661639 93.8296 0.302122C93.8296 0.302122 94.0166 0.265865 93.9996 0.250759C93.9826 0.235653 93.7787 0.211484 93.5748 0.250759C93.0044 0.1778 92.3336 0.133666 91.6336 0.123027C90.9335 0.112389 90.2303 0.135649 89.5987 0.190341C89.0209 0.244722 88.5961 0.353478 87.7805 0.250759C86.9649 0.14804 85.4526 0.0634516 85.4526 0.377651ZM130.872 0.580063C130.984 0.570809 131.106 0.565675 131.229 0.564961C131.688 0.564961 131.722 0.598194 131.229 0.631426C131.109 0.640156 130.975 0.640156 130.855 0.631426C130.855 0.631426 130.906 0.595169 130.889 0.580063H130.872ZM111.433 0.561937C111.433 0.546831 111.569 0.525688 111.654 0.519645C111.739 0.513603 111.96 0.519645 112.028 0.519645C112.096 0.519645 112.181 0.580063 111.79 0.580063C111.673 0.576947 111.558 0.570843 111.45 0.561937H111.433Z" fill="#FF7757"/>
<path d="M7.62939e-05 0.534751C0.203979 0.773422 1.29147 0.749252 2.22602 0.779463C9.44761 1.00303 16.7202 0.879166 23.9587 0.803638C29.3452 0.749257 34.7996 0.888225 40.1521 0.685808C45.7255 1.15711 51.6557 0.719048 57.4329 0.891253C62.5305 1.03929 67.7471 0.906359 72.9126 0.891253C74.306 0.504546 75.3085 0.873125 76.5659 0.927506C78.6216 1.01207 80.7691 0.993233 82.768 0.873118C85.0959 0.734145 84.1783 0.413909 84.0933 0.132942C82.1393 0.0332444 81.7314 0.435052 80.2362 0.486411L79.6245 0.571003C79.3696 0.468284 80.0662 0.51663 80.1342 0.46527C80.1342 0.329319 79.9983 0.196387 79.1657 0.199408C77.3136 0.199408 75.4104 -0.0332219 73.6263 0.23566L72.6747 0.377655C72.012 0.507564 70.9755 0.49246 70.1769 0.549862L69.973 0.577051L70.092 0.534751C70.8415 0.439419 71.7223 0.381999 72.6408 0.368591C72.4698 0.30405 72.2186 0.247249 71.9062 0.202478C71.5937 0.157707 71.2283 0.126132 70.8372 0.110132C70.4462 0.0941327 70.0398 0.0941268 69.6487 0.110114C69.2577 0.126101 68.8921 0.157662 68.5797 0.202423C67.5772 0.371607 67.4752 0.447136 66.3537 0.202423C65.2322 -0.0422902 64.9944 0.335357 64.2807 0.413907C64.0908 0.444736 63.8795 0.471135 63.652 0.49246C63.3461 0.513608 62.9723 0.555899 62.7344 0.468285L63.4651 0.429009L64.2127 0.398805C64.0938 0.132944 63.0743 0.0574151 61.8509 0.09669C57.5689 0.271917 53.2359 0.132944 48.9709 0.09669C33.8821 0.00605557 18.8272 0.184298 3.75529 0.232636C3.03802 0.224401 2.32036 0.247654 1.66552 0.300337C1.01067 0.35302 0.438751 0.433518 7.62939e-05 0.534751ZM59.1491 0.510586H59.421L59.1831 0.531736L59.1491 0.510586ZM50.0414 0.543814L50.8231 0.495475L51.027 0.456207L50.891 0.504538C50.6022 0.516622 50.4662 0.634448 50.0414 0.543814Z" fill="#FF7757"/>
<path d="M322.814 0.0936507C322.814 0.03927 323.086 0.0241632 323.374 0.0453112L323.731 0.154077C323.527 0.172204 323.255 0.208456 323.119 0.199393C323.025 0.187369 322.948 0.171501 322.895 0.153109C322.841 0.134718 322.814 0.114332 322.814 0.0936507Z" fill="#FF7757"/>
<path d="M200.2 0.528694C200.2 0.489419 199.945 0.441076 200.013 0.410864C200.079 0.393853 200.168 0.380008 200.272 0.370528C200.376 0.361048 200.491 0.356224 200.607 0.356486C200.896 0.356486 200.998 0.416911 200.794 0.462228C200.619 0.49019 200.417 0.512663 200.2 0.528694Z" fill="#FF7757"/>
<path d="M315.203 1.58609L315.152 1.53171L315.49 1.54983L315.203 1.58609Z" fill="#FF7757"/>
<path d="M284.004 0.314189C283.817 0.377633 283.647 0.383669 283.579 0.33533C283.511 0.286992 283.749 0.305121 283.851 0.290015C283.953 0.274909 284.174 0.226572 284.225 0.271889C284.276 0.317206 284.072 0.299084 284.004 0.314189Z" fill="#FF7757"/>
</g>
<defs>
<clipPath id="clip0_1212_8873">
<rect width="343" height="2" fill="white" transform="matrix(-1 0 0 1 343 0)"/>
</clipPath>
</defs>
</svg>
