<svg width="24" height="24" viewBox="0 0 24 24" fill="none" xmlns="http://www.w3.org/2000/svg">
<path d="M6.63163 9.03159C6.7983 8.89826 6.98163 8.82743 7.18163 8.81909C7.38163 8.81076 7.55663 8.88159 7.70663 9.03159L12.1066 13.4316L16.5316 9.00659C16.665 8.87326 16.8441 8.81076 17.0691 8.81909C17.2941 8.82743 17.4733 8.89826 17.6066 9.0316C17.7733 9.19826 17.8525 9.37743 17.8441 9.56909C17.8358 9.76076 17.7566 9.93159 17.6066 10.0816L12.6316 15.0566C12.5483 15.1399 12.465 15.1983 12.3816 15.2316C12.2983 15.2649 12.2066 15.2816 12.1066 15.2816C12.0066 15.2816 11.915 15.2649 11.8316 15.2316C11.7483 15.1983 11.665 15.1399 11.5816 15.0566L6.63163 10.1066C6.48163 9.95659 6.4108 9.78159 6.41913 9.58159C6.42747 9.38159 6.4983 9.19826 6.63163 9.03159Z" fill="#FFE500"/>
</svg>
