<svg width="107" height="49" viewBox="0 0 107 49" fill="none" xmlns="http://www.w3.org/2000/svg">
<path d="M105.774 0.00923359L4.59511 11.9786C4.34753 12.006 4.11683 12.1183 3.9417 12.2966C3.76658 12.475 3.65767 12.7086 3.63326 12.9582L0.00733176 47.1652C-0.0105139 47.319 0.00430761 47.4749 0.050815 47.6226C0.0973224 47.7702 0.174452 47.9062 0.277097 48.0216C0.379742 48.137 0.50556 48.229 0.646209 48.2917C0.786859 48.3544 0.939131 48.3863 1.09294 48.3853H18.3367L30.3435 48.5821C30.5269 48.4532 30.7453 48.3845 30.9688 48.3853H98.2982C98.5583 48.3858 98.8102 48.2933 99.009 48.1244C99.2078 47.9554 99.3406 47.7209 99.3838 47.4625L106.983 1.28619C107.013 1.11698 107.003 0.942994 106.954 0.778369C106.905 0.613744 106.818 0.463118 106.7 0.338716C106.582 0.214315 106.437 0.119653 106.276 0.0624035C106.115 0.00515422 105.943 -0.0130615 105.774 0.00923359Z" fill="#311F9C"/>
</svg>
