<svg width="36" height="43" viewBox="0 0 36 43" fill="none" xmlns="http://www.w3.org/2000/svg">
<path d="M28.8609 10.1911C25.0924 5.49074 19.2663 0.000753645 15.2552 0.000753645C14.4103 -0.0164381 13.5855 0.260954 12.9204 0.785968C11.452 1.97906 11.1639 4.07516 12.0541 7.01319C11.9155 9.95122 11.1314 13.7966 8.53894 17.3541L5.72336 20.4077C5.29019 20.8898 3.20666 22.6914 2.21255 23.5573C1.85518 23.8671 1.5628 24.1222 1.3787 24.2836C0.641906 24.9226 0.166549 25.814 0.0445522 26.7854C-0.0247908 27.4205 -0.0131476 28.0619 0.0792029 28.694C0.260494 30.0166 0.797127 31.2642 1.63115 32.3021C2.46517 33.34 3.56488 34.1287 4.81154 34.5831C5.40545 34.8078 6.02567 34.9544 6.65683 35.0193C6.77265 35.0317 6.88906 35.0376 7.00553 35.0368C7.17866 35.0371 7.35161 35.0255 7.52316 35.0019L14.1549 41.0437C15.0148 41.8133 16.1255 42.238 17.2759 42.2368C18.3504 42.2357 19.3925 41.8656 20.2301 41.1877C20.7591 40.7546 21.1882 40.2106 21.4874 39.5936C21.7866 38.9766 21.9488 38.3014 21.9627 37.6149C21.9801 36.931 21.8493 36.2516 21.5797 35.6237C21.31 34.9958 20.9079 34.4346 20.4012 33.9789L15.7966 29.7497L17.6397 28.6591C19.9768 27.6151 22.5076 27.0835 25.0642 27.0995C26.178 27.1009 27.2899 27.1936 28.3888 27.3766C29.8897 28.2294 31.1762 28.6438 32.3132 28.6438C33.1552 28.6591 33.9767 28.3818 34.6393 27.8586C38.6505 24.5868 32.9067 15.2078 28.8609 10.1911Z" fill="#FFB400"/>
</svg>
