<svg width="118" height="118" viewBox="0 0 118 118" fill="none" xmlns="http://www.w3.org/2000/svg">
<path d="M117.046 49.238C117.171 50.0455 117.298 50.8738 117.432 51.7291C117.29 51.2184 117.141 50.4026 116.997 49.6532C116.962 49.4643 116.925 49.2816 116.893 49.1072C116.86 48.9328 116.808 48.7709 116.77 48.6235C116.715 48.3987 116.641 48.1792 116.548 47.9675C115.643 43.8867 114.344 39.906 112.67 36.0829C111.012 32.2973 108.974 28.6946 106.587 25.3317C107.505 26.3591 108.302 27.4904 108.963 28.703C109.252 29.2262 109.521 29.7285 109.783 30.2226C110.046 30.7167 110.281 31.2232 110.566 31.7193C110.761 32.0577 110.964 32.394 111.155 32.7344L111.696 33.7724C112.048 34.472 112.432 35.155 112.741 35.8753C113.051 36.5957 113.393 37.2932 113.697 38.0093L114.549 40.1725C114.902 41.1412 115.229 42.1065 115.531 43.0684C115.562 43.1639 115.595 43.2573 115.624 43.3528L115.667 43.5064C115.693 43.5894 115.716 43.6704 115.74 43.7534C115.728 43.7098 115.714 43.6662 115.699 43.6205L115.956 44.536C116.161 45.3187 116.401 46.0785 116.552 46.8611C116.704 47.6437 116.899 48.4263 117.046 49.238ZM115.796 43.9444C116.276 45.5429 116.675 47.1662 117.042 48.7979C116.702 47.1994 116.284 45.574 115.79 43.9382L115.796 43.9444ZM117.922 58.5298C117.944 59.3373 117.967 60.1552 117.991 60.996C117.989 60.2404 117.959 59.383 117.922 58.5236V58.5298ZM106.056 26.6105C108.266 29.702 110.133 33.0295 111.626 36.5334C110.164 33.0141 108.295 29.6831 106.056 26.6105ZM67.5501 5.68317C67.218 5.60843 66.9023 5.53163 66.6112 5.45274C66.1049 5.44029 65.576 5.37593 65.3218 5.3697C63.7024 5.19532 62.3309 4.99604 60.9472 4.92131C60.5295 4.98169 60.1084 5.01566 59.6865 5.02303C59.1515 5.02303 58.6246 5.03963 58.106 5.05001C57.5873 5.06039 57.081 5.07077 56.5685 5.10191C60.239 4.94015 63.9163 5.13479 67.5501 5.68317ZM108.121 79.9159L107.147 82.0749C107.465 81.4147 107.795 80.6736 108.121 79.9159ZM111.848 58.2433C112.063 54.5828 111.846 50.9094 111.2 47.3012C111.812 50.9133 112.03 54.5829 111.848 58.2433ZM100.595 27.1046C100.368 26.7205 100.153 26.3448 99.9538 25.9815C99.7549 25.6182 99.5438 25.2923 99.3613 24.9684C98.9349 24.5346 98.4491 23.9035 97.8341 23.2226C97.5348 22.8759 97.2191 22.5023 96.8952 22.112C96.7374 21.9044 96.5611 21.7217 96.3827 21.5266L95.8477 20.9308C94.4293 19.3246 92.9099 17.8129 91.2989 16.4053V16.4198C94.8575 19.5416 97.9845 23.1349 100.595 27.1025V27.1046ZM111.47 54.4112C111.497 54.7558 111.491 55.1025 111.495 55.4491V56.4871C111.495 56.8338 111.495 57.1784 111.495 57.5251L111.452 58.563L111.411 59.601L111.39 60.1179C111.38 60.2902 111.362 60.4625 111.347 60.6327C111.662 57.5584 111.68 54.4603 111.401 51.3824L111.179 49.5431C111.089 48.9328 110.974 48.3246 110.878 47.7143L110.724 46.8009L110.519 45.8958C110.386 45.2938 110.261 44.6896 110.122 44.0897C110.714 46.8116 111.122 49.5714 111.341 52.3498L111.47 54.4112ZM104.835 34.8975C104.933 35.1238 105.023 35.3563 105.118 35.5868C105.034 35.3522 104.952 35.1176 104.863 34.8851C104.775 34.6526 104.673 34.4263 104.578 34.198L104.009 32.832C103.984 32.8673 104.009 33.0396 103.898 32.8798L104.513 34.2229L104.835 34.8975ZM107.397 42.2235L107.524 42.7549C107.469 42.4062 107.43 42.0989 107.405 41.8602C107.239 41.4616 107.086 41.063 106.938 40.6582C107.04 41.0049 107.143 41.3537 107.243 41.6962L107.397 42.2235ZM109.437 56.7943C109.437 55.8664 109.451 54.8949 109.367 53.9005C109.353 53.6995 109.321 53.5001 109.273 53.3047C109.31 53.886 109.365 54.4693 109.39 55.0526C109.414 55.636 109.42 56.2172 109.435 56.7923L109.437 56.7943ZM8.78407 32.0266C7.98458 33.405 7.21789 34.8602 6.49836 36.3735C7.20764 34.8913 7.98458 33.4486 8.79226 32.0245L8.78407 32.0266ZM4.57755 60.3753C4.5345 60.7282 4.48326 61.0333 4.44226 61.2679C4.48941 61.6976 4.52426 62.1253 4.55295 62.555C4.55295 62.1938 4.55295 61.8305 4.55295 61.4672V60.9233L4.57755 60.3753ZM5.86083 49.759C5.98792 49.1923 6.09658 48.6152 6.23802 48.0485C6.37947 47.4818 6.53526 46.9213 6.68286 46.3649C6.42867 47.2576 6.13552 48.1814 5.93667 49.1612C5.89634 49.3573 5.87369 49.5567 5.86902 49.757L5.86083 49.759ZM103.363 88.6015C104.228 87.2833 105.003 86.1935 105.685 85.0351C105.816 84.6481 105.973 84.2707 106.155 83.9058C106.397 83.447 106.612 82.9841 106.833 82.5336C107.055 82.0832 107.272 81.6348 107.469 81.1864C105.977 84.4174 104.184 87.4968 102.114 90.3827C102.319 90.1315 102.524 89.8948 102.729 89.681C102.965 89.2409 103.254 88.8154 103.371 88.5995L103.363 88.6015ZM115.458 59.8335L115.482 60.7054C115.482 60.996 115.482 61.2866 115.47 61.5752C115.459 62.1537 115.448 62.7301 115.437 63.3044C115.437 63.593 115.412 63.8774 115.396 64.1638C115.38 64.4503 115.359 64.7347 115.343 65.017C115.326 65.2994 115.306 65.5858 115.287 65.8702C115.269 66.1546 115.255 66.437 115.22 66.7172L115.035 68.3987C115.005 68.679 114.978 68.9571 114.943 69.2291C114.908 69.501 114.855 69.7813 114.814 70.0595C114.728 70.6096 114.642 71.1597 114.556 71.7056C114.521 71.9817 114.457 72.2495 114.404 72.5215L114.238 73.329C114.125 73.8667 114.033 74.4085 113.902 74.9379C113.77 75.4672 113.633 75.9945 113.492 76.5197C113.436 76.7273 113.371 76.9473 113.299 77.2068C113.26 77.3355 113.223 77.4746 113.176 77.622C113.129 77.7694 113.073 77.9085 113.02 78.06C112.815 78.6662 112.555 79.3533 112.288 80.0758C112.225 80.2584 112.149 80.437 112.071 80.6155L111.837 81.1594C111.68 81.5227 111.522 81.8901 111.366 82.2513C111.067 82.982 110.708 83.665 110.396 84.294C109.35 86.5489 108.173 88.7387 106.87 90.8518C106.53 91.3708 106.188 91.8898 105.845 92.4088L105.337 93.1872C105.163 93.4426 104.978 93.6896 104.8 93.9408L103.717 95.4479C103.351 95.942 102.959 96.4194 102.582 96.9011L101.967 97.6629C101.762 97.9203 101.532 98.1528 101.317 98.3999C100.876 98.8842 100.436 99.3686 99.9968 99.853C99.5417 100.32 99.0723 100.773 98.609 101.229L97.91 101.914L97.1802 102.562C96.6923 102.992 96.2064 103.426 95.7124 103.849L94.1811 105.064C93.9228 105.271 93.6748 105.479 93.4062 105.661L92.6108 106.23L91.8113 106.799C91.5428 106.988 91.2804 107.181 90.9914 107.351L89.333 108.412C89.1936 108.499 89.0562 108.591 88.923 108.676L88.4945 108.921L87.6335 109.413C86.4999 110.094 85.2966 110.658 84.1076 111.281C82.1745 112.19 80.1778 113.027 78.1094 113.772C77.6995 113.942 77.2895 114.092 76.8795 114.247L75.3113 114.833L73.7102 115.35L72.9087 115.607C72.6422 115.694 72.3675 115.759 72.0887 115.836L70.459 116.278C70.1884 116.359 69.9137 116.415 69.639 116.475L68.819 116.658L67.9991 116.842L67.5891 116.934C67.4517 116.961 67.3123 116.981 67.1791 117.006L65.5145 117.293C64.9631 117.401 64.4034 117.461 63.8459 117.529C63.2883 117.598 62.7327 117.671 62.1751 117.737L60.5024 117.862L59.6681 117.924C59.3913 117.94 59.1125 117.943 58.8358 117.951L57.1733 117.994C56.8965 118.007 56.6218 117.994 56.3533 117.994L55.5333 117.976L54.7133 117.957C54.4407 117.957 54.168 117.957 53.8933 117.922L52.2698 117.801C51.9684 117.779 51.6671 117.77 51.3678 117.737L50.4719 117.639C49.8775 117.571 49.2809 117.517 48.6926 117.432L46.9378 117.162C46.6467 117.114 46.3536 117.079 46.0645 117.023L45.2036 116.851L43.4878 116.51L41.8027 116.095L40.9643 115.887C40.6855 115.817 40.4128 115.728 40.1443 115.649L38.5043 115.167C38.2296 115.092 37.9652 114.993 37.6966 114.901L36.8951 114.625L36.0977 114.351C35.8312 114.26 35.5647 114.171 35.3084 114.063L33.7525 113.44C33.4942 113.336 33.2339 113.232 32.9797 113.131L32.2253 112.788L30.7206 112.107C30.4685 111.999 30.2286 111.866 29.9847 111.744L29.257 111.372C28.7732 111.121 28.2853 110.884 27.822 110.623L26.4198 109.819L25.8048 109.45C25.6921 109.377 25.5711 109.307 25.4502 109.224L25.073 108.958C24.5523 108.588 23.9619 108.165 23.3429 107.712C23.185 107.604 23.0353 107.482 22.8836 107.36L22.4265 106.99L21.5102 106.245C20.8952 105.761 20.3335 105.232 19.8149 104.763C17.9391 103.151 16.1594 101.429 14.485 99.6039L13.2673 98.2027L12.6523 97.5051C12.4473 97.2664 12.2669 97.0215 12.0742 96.7807C11.6888 96.2977 11.3041 95.8133 10.9201 95.3275C10.545 94.8376 10.1924 94.3311 9.82749 93.8349L9.26171 93.0295C9.06901 92.7617 8.90706 92.4773 8.72871 92.1991L7.70373 90.5384C7.37574 89.9716 7.06825 89.3945 6.75255 88.8237L6.28312 87.9622L5.85467 87.0799C5.57178 86.4883 5.28478 85.9008 5.01009 85.3071L4.25366 83.4927C4.13066 83.1896 3.99331 82.8907 3.88467 82.5814L3.55052 81.6534L3.21843 80.7234C3.10773 80.4141 2.99294 80.1007 2.90274 79.7872L2.32465 77.8877C2.27751 77.7279 2.22626 77.5701 2.18321 77.4103L2.06021 76.9266C1.97822 76.6048 1.89827 76.281 1.81627 75.9592C1.46368 74.6721 1.23613 73.3456 0.957338 72.015C0.490952 69.2976 0.183607 66.5547 0.0369102 63.8006C0.0173225 63.1309 0.0351067 62.4607 0.0901985 61.7931C0.0901985 61.7184 0.0902075 61.6437 0.0738079 61.571C0.0389587 60.9482 0.0348487 60.3255 0.0122992 59.7027L0 58.7125C0 58.3845 0.0184506 58.0544 0.0266504 57.7264C0.0539832 57.0677 0.0820062 56.411 0.110706 55.7564C0.157855 55.1025 0.229604 54.4506 0.291103 53.7967L0.389496 52.819L0.532996 51.8474C0.631394 51.1997 0.725684 50.55 0.832281 49.9023C0.938879 49.2546 1.09674 48.6173 1.22793 47.9758C1.29968 47.6541 1.35298 47.3302 1.43293 47.0126L1.68097 46.0577L1.92901 45.1007C2.01101 44.781 2.08891 44.4613 2.19345 44.1478C2.39025 43.5168 2.58773 42.885 2.78589 42.2525C2.83509 42.0948 2.88224 41.937 2.93554 41.7792L3.10774 41.3101C3.22049 40.9987 3.33528 40.6873 3.45008 40.3738C3.88262 39.1117 4.44021 37.8827 4.9527 36.6372C5.87108 34.6318 6.88991 32.641 8.02763 30.6731C7.84928 30.7789 7.96818 30.426 8.27977 29.77C8.44582 29.44 8.67951 29.0435 8.94396 28.5868C9.2084 28.1301 9.5077 27.6194 9.85004 27.0859C11.2926 24.9142 12.8522 22.8247 14.5219 20.827C14.1262 21.2422 14.1262 21.2422 13.7347 21.6574C14.1235 21.2722 14.4807 20.8557 14.8027 20.4118C14.0094 21.2256 12.5478 22.9029 12.0783 23.343L12.5929 22.4504C12.0968 22.9901 11.5167 23.6731 10.8955 24.4287C10.5921 24.8127 10.301 25.23 9.99149 25.6473C9.68195 26.0645 9.3765 26.4963 9.06901 26.9302L8.20598 28.2567L7.78163 28.9044C7.64019 29.112 7.50079 29.3196 7.37164 29.5396C6.86735 30.3845 6.39382 31.1547 5.97768 31.7775C7.93428 28.3835 10.1509 25.1504 12.6072 22.1078C15.3425 18.7489 18.4072 15.6795 21.7541 12.9468C22.1764 12.5814 22.6274 12.2534 23.0723 11.9088L24.4109 10.8937L25.8007 9.94087L26.4977 9.46134C26.7294 9.30149 26.9733 9.16033 27.2111 9.00879L28.6461 8.11613C28.8818 7.96252 29.1319 7.82966 29.3779 7.70095L30.1179 7.28577L30.858 6.87058L31.227 6.66299C31.352 6.59656 31.4791 6.53636 31.6062 6.47201L33.1211 5.71845C33.6213 5.45689 34.1461 5.23892 34.6565 5.01265C35.167 4.78637 35.6815 4.55595 36.2002 4.33797L37.7684 3.73595L38.5515 3.43702C38.8139 3.33945 39.0803 3.26057 39.3427 3.17131L40.9253 2.65233C41.1856 2.56099 41.4542 2.49247 41.7186 2.41982L42.514 2.19977L43.3094 1.99218C43.5718 1.91952 43.8362 1.84479 44.1027 1.78459L45.6935 1.43169C45.9887 1.36734 46.2798 1.28845 46.577 1.23448L47.4626 1.07255C48.053 0.966676 48.6372 0.846275 49.2256 0.750783L50.9844 0.503748C51.2755 0.466382 51.5666 0.416558 51.8598 0.38542L52.733 0.30239L54.4735 0.136307L56.2057 0.0491219L57.0667 0.00553578C57.3537 -0.00691972 57.6406 0.00553578 57.9256 0.00553578H59.6352C59.9181 0.00553578 60.201 0.0179882 60.4819 0.0283678L61.3285 0.0615769L62.171 0.0968767C62.4519 0.0968767 62.7307 0.115558 63.0095 0.146697L64.674 0.292001C64.9487 0.316912 65.2255 0.335605 65.494 0.366743L66.314 0.47676L67.954 0.696807C68.2266 0.727946 68.4931 0.786079 68.7616 0.833825L69.5632 0.981207C70.0962 1.08293 70.6333 1.16804 71.1601 1.28222L72.7304 1.65174L73.415 1.83234C73.5421 1.86763 73.6795 1.90084 73.825 1.94651L74.2617 2.09183C74.8644 2.29942 75.549 2.53192 76.2686 2.78518C76.449 2.84538 76.6273 2.91804 76.8077 2.99277C76.9881 3.0675 77.1665 3.14224 77.3489 3.2149L78.4374 3.66744C78.665 3.75671 78.8884 3.85221 79.1057 3.94978L80.0241 4.26117L80.965 4.63067C81.5923 4.87978 82.2196 5.12474 82.8428 5.38423L84.6878 6.22913C84.9932 6.37445 85.3027 6.50315 85.6041 6.66507L86.504 7.13631L87.406 7.60961C87.7053 7.76738 88.0087 7.92101 88.2998 8.09954L90.0627 9.1375C90.2083 9.22468 90.3579 9.3098 90.5035 9.39906L90.9319 9.68138L91.8052 10.2107C92.9716 10.9435 94.0601 11.7947 95.1999 12.6063C97.4469 14.3505 99.5894 16.2283 101.616 18.23C102.424 19.0604 103.285 20.144 103.447 20.4948C103.527 20.6734 103.433 20.6692 103.07 20.3703C102.887 20.2208 102.639 19.9966 102.311 19.6852L101.76 19.1496C101.555 18.942 101.335 18.7137 101.069 18.4791L99.7672 17.2938C99.5479 17.0986 99.3367 16.8952 99.1133 16.7042L98.4368 16.1375L97.0859 15.002L95.6858 13.9225C94.7674 13.1814 93.7834 12.5275 92.8158 11.8466L92.455 11.5912L92.0819 11.3525L91.8626 11.2093L91.9466 11.2715C94.199 12.7822 96.3468 14.4468 98.3753 16.2537L97.1023 15.1722C96.6923 14.8214 96.2577 14.5017 95.8826 14.184C99.8702 17.4987 103.449 21.2876 106.542 25.4687C104.234 22.5469 101.691 19.8224 98.9411 17.3228C98.3917 16.8246 97.83 16.3389 97.2622 15.8697L97.4959 16.1022L98.1867 16.7914L98.8447 17.5159C99.2793 17.9996 99.7201 18.4812 100.151 18.969L100.796 19.7641L101.7 20.7336C102.455 21.5203 103.121 22.3756 103.783 23.206C103.443 22.8448 103.105 22.4815 102.758 22.1078C102.455 21.7549 102.147 21.4089 101.834 21.0699C101.885 21.1363 101.94 21.2006 101.987 21.2775L102.567 22.0725L103.148 22.8676C103.34 23.1333 103.539 23.3949 103.715 23.6751L104.8 25.3359C104.89 25.475 104.982 25.612 105.07 25.7511L105.323 26.1787L105.614 26.6686L105.954 27.1482C106.323 27.6713 106.702 28.1861 107.065 28.7155L108.104 30.3347C109.761 33.0812 111.151 35.9837 112.256 39.0016C112.192 38.8335 112.13 38.6653 112.063 38.4993L111.858 38.0073L111.429 37.0212L110.999 36.0352C110.845 35.7113 110.683 35.3916 110.525 35.0699L110.05 34.0838C109.89 33.762 109.738 33.4361 109.558 33.1247L108.512 31.2377C107.757 29.9506 106.954 28.6892 106.106 27.4533C106.692 28.456 107.213 29.5064 107.768 30.5423C108.326 31.684 108.857 32.8486 109.361 34.0361L109.543 34.391C109.605 34.5177 109.662 34.6484 109.722 34.7772L110.429 36.3299C110.677 36.8427 110.878 37.3679 111.091 37.9014C111.304 38.4349 111.516 38.9539 111.72 39.4812C111.925 40.0085 112.092 40.5503 112.276 41.0838L112.553 41.883C112.641 42.1487 112.715 42.4207 112.797 42.6906L113.27 44.3035C113.354 44.5692 113.416 44.8433 113.475 45.1131L113.68 45.9248L113.885 46.7324C113.951 47.0022 114.019 47.27 114.066 47.542C114.168 48.0838 114.271 48.6235 114.375 49.1612C114.433 49.4622 114.504 49.759 114.549 50.06C114.595 50.3611 114.642 50.66 114.689 50.961C114.779 51.561 114.894 52.1567 114.964 52.7525C115.033 53.3483 115.099 53.9462 115.169 54.5399C115.201 54.8368 115.242 55.1315 115.265 55.4284L115.326 56.3148C115.367 56.9071 115.408 57.496 115.449 58.0814C115.448 58.6654 115.454 59.2467 115.468 59.8252L115.458 59.8335ZM95.7001 15.1639C95.3694 14.8871 95.0366 14.6172 94.7018 14.3543C95.4172 15.031 96.1203 15.7265 96.803 16.4302C98.6862 18.4003 100.437 20.4961 102.043 22.7036C102.559 23.3319 103.065 23.9741 103.56 24.6301C103.91 25.0639 104.224 25.5289 104.548 25.9877L104.671 26.1642C104.617 26.0728 104.564 25.9794 104.509 25.8902L103.881 24.9186C103.471 24.2751 103.061 23.6232 102.58 23.0025C102.35 22.687 102.114 22.3798 101.879 22.0476C101.7 21.8068 101.524 21.5639 101.335 21.3252L101.397 21.3999C101.481 21.5079 101.563 21.62 101.645 21.7321L102.141 22.3964C102.471 22.8406 102.805 23.2807 103.129 23.7291L104.056 25.1075L104.449 25.695C104.244 25.3774 104.023 25.0722 103.81 24.7401C103.597 24.4079 103.416 24.1485 103.215 23.8516C103.119 23.7021 103.01 23.5568 102.904 23.4115L102.584 22.9776L101.934 22.1016L101.608 21.6615C101.501 21.5141 101.391 21.3667 101.272 21.2276L99.8656 19.5108C98.5535 17.9887 97.1631 16.5377 95.7001 15.1639ZM95.1466 16.3036C95.5197 16.7066 95.9242 17.0787 96.3561 17.4163C95.571 16.5859 93.9576 15.0684 93.5292 14.5868L94.0663 14.9231C93.6092 14.5079 93.1418 14.0927 92.6703 13.6941L92.1352 13.3205C91.9548 13.198 91.7785 13.0672 91.5981 12.9447C91.2763 12.7807 90.9832 12.6499 90.7536 12.5607C90.852 12.6766 90.9666 12.7773 91.0939 12.8596L91.4137 13.0983L91.7273 13.3516C92.1188 13.6692 92.3423 13.8581 91.6678 13.4097C91.5018 13.2976 91.3337 13.2021 91.1656 13.0942C91.7123 13.5371 92.2589 13.9889 92.8056 14.4498C93.9699 15.3902 95.081 16.343 95.9482 17.1215L95.1466 16.3036ZM90.5404 11.7718L90.8889 12.0023L91.0283 12.0957C90.3784 11.5975 89.7204 11.1138 89.0542 10.6425C89.1833 10.7484 89.3145 10.8501 89.4477 10.9622C89.8099 11.2307 90.1734 11.5006 90.5383 11.7718H90.5404ZM89.9377 11.3712L89.9684 11.394L90.0422 11.4438L89.9377 11.3712ZM90.6777 12.8056C91.1185 13.1295 91.5674 13.472 92.0143 13.8228C91.7218 13.5696 91.4239 13.3184 91.1205 13.0693L90.7372 12.8409L90.6777 12.8056ZM92.004 13.2208L92.5165 13.5737C92.4058 13.4782 92.2972 13.3848 92.1844 13.2914C92.0102 13.1876 91.84 13.0838 91.6781 13.0008C91.7847 13.061 91.8913 13.1357 92.0102 13.2104L92.004 13.2208ZM93.234 14.0719L93.3509 14.155L92.7912 13.6505L92.6477 13.5634C92.6293 13.5634 92.6149 13.5447 92.5965 13.5343C92.8138 13.7045 93.0229 13.883 93.2402 14.0616L93.234 14.0719ZM93.849 14.6096C93.728 14.4954 93.601 14.3792 93.4698 14.2588L93.3878 14.2006C93.5374 14.3252 93.6912 14.4622 93.8429 14.5992L93.849 14.6096ZM91.4629 11.5227C92.5698 12.4237 93.6502 13.3661 94.6936 14.3522L95.6304 15.1058C94.9266 14.4456 94.2071 13.8042 93.4718 13.1814C93.0454 12.8326 92.6518 12.4735 92.2541 12.1019L92.0696 11.9275C91.8626 11.7801 91.6596 11.6473 91.4567 11.5123L91.4629 11.5227ZM89.048 9.17278C88.5048 8.85102 87.9656 8.52095 87.408 8.21787L88.6114 8.9818L89.3903 9.47794C89.6466 9.64816 89.8967 9.82877 90.1488 10.0052L90.5219 10.2668C90.7741 10.4142 91.0611 10.5948 91.3624 10.7837L92.3341 11.394C92.6498 11.585 92.9245 11.7822 93.1541 11.9109L92.6375 11.5186C92.4653 11.3899 92.2869 11.2778 92.1147 11.1574L91.0898 10.4599C90.7495 10.2336 90.4194 10.0011 90.0812 9.78726L89.048 9.17278ZM87.2215 8.10368L87.2912 8.14728L87.8057 8.413L89.294 9.27034L89.9274 9.63571C89.5871 9.42812 89.2427 9.24336 88.9025 9.03992L87.9451 8.48773C87.7873 8.39224 87.6233 8.30504 87.4572 8.22201L87.2215 8.10368ZM79.7781 5.55446L79.9708 5.65202L81.0265 6.18553L81.2992 6.32255L81.5657 6.47201L82.1048 6.7751L83.5398 7.53904C83.7817 7.66152 84.0133 7.80268 84.245 7.94176L84.9399 8.35695L86.3236 9.18732C86.4692 9.28696 86.6147 9.39491 86.7623 9.48417L87.039 9.62949L87.3937 9.83708L88.103 10.2523L88.8389 10.6861C87.0206 9.38375 85.1316 8.18546 83.181 7.09686L83.835 7.41449C84.0523 7.51621 84.2593 7.6366 84.4725 7.74663C84.0482 7.456 83.5972 7.20689 83.1421 6.95363L82.8838 6.81039C82.4738 6.63047 82.0638 6.45541 81.6538 6.28519C82.1663 6.5509 82.6788 6.81869 83.1749 7.09686C82.7977 6.91418 82.4184 6.72528 82.0331 6.52807L81.4447 6.22705C81.2787 6.14194 81.1044 6.06721 80.9302 5.98625C80.5489 5.8354 80.1649 5.68871 79.7781 5.54616V5.55446ZM79.2164 5.62089C80.6514 6.30802 82.0864 7.05328 83.4824 7.85458L83.7304 7.96875L84.4787 8.31127C84.7267 8.4296 84.9665 8.56246 85.2105 8.68701L86.6455 9.43851C86.2888 9.206 85.93 8.98179 85.559 8.77835L84.4991 8.16597C84.1466 7.95838 83.8022 7.75078 83.4393 7.58264L81.3156 6.52391C80.6104 6.19799 79.9032 5.90528 79.2164 5.61258V5.62089ZM82.7239 10.1319C82.4369 9.95125 82.1335 9.79971 81.8383 9.63156L81.58 9.46134L81.4345 9.39699C81.9654 9.70214 82.4841 10.0198 83.017 10.3727L83.3061 10.4951L82.7239 10.1319ZM75.4056 4.35665C77.5461 5.12802 79.6387 6.02922 81.6723 7.05534L82.2237 7.28785C80.678 6.45748 79.088 5.69631 77.4535 5.00434C76.777 4.76976 76.0964 4.55594 75.4056 4.35665ZM80.4812 9.01085L80.4033 8.9818C80.6514 9.0939 80.8851 9.17486 81.0716 9.23921C80.883 9.16033 80.6862 9.08351 80.4833 9.01085H80.4812ZM74.1838 3.06958C74.3888 3.14224 74.6081 3.21905 74.8193 3.29586L75.1165 3.38304L74.4913 3.17545L74.276 3.10072L74.1838 3.06958ZM72.4126 3.36645C72.9846 3.53875 73.5524 3.72143 74.1202 3.91034C74.52 4.01206 74.9197 4.11793 75.3154 4.2321L76.1927 4.47706C75.7212 4.29299 75.2429 4.11377 74.7578 3.93939C73.9815 3.73041 73.2005 3.53736 72.4147 3.36021L72.4126 3.36645ZM41.4583 3.0592L44.0289 2.33886L45.0047 2.11882C44.707 2.24396 44.3981 2.33989 44.0822 2.4053C48.721 1.34324 53.4731 0.875955 58.2269 1.01443C59.0018 0.977062 59.7787 0.962522 60.5536 0.966674C60.294 0.941763 60.0336 0.921006 59.7726 0.904399L58.2597 0.860813C57.7513 0.860813 57.2348 0.821369 56.7202 0.84628L55.154 0.883645C54.8917 0.883645 54.6272 0.88364 54.3628 0.904399L53.5653 0.954219C53.0323 0.985358 52.4932 1.0165 51.952 1.03934C51.4108 1.06217 50.8655 1.13276 50.3121 1.1722C50.023 1.19296 49.7094 1.22202 49.3752 1.25731C49.2092 1.27184 49.037 1.29468 48.8627 1.32582L48.3236 1.41716L47.1797 1.62475L46.5791 1.73477C46.3741 1.77421 46.1691 1.82818 45.9641 1.87593C45.6612 1.90936 45.3632 1.97905 45.0765 2.08352L44.0105 2.33886C43.1762 2.56306 42.309 2.80386 41.4706 3.0592H41.4583ZM28.2709 11.7988C28.0126 11.9545 27.7318 12.1268 27.4366 12.3136L27.2132 12.459L26.9897 12.6167L26.5264 12.953L25.5486 13.6734C25.3825 13.8 25.2104 13.9266 25.0382 14.0553C24.866 14.1841 24.704 14.3314 24.5339 14.4705C24.266 14.6435 24.0196 14.8484 23.8 15.0808L22.9267 15.8157C22.2195 16.426 21.5184 17.0613 20.8501 17.684L22.9267 15.8157L23.7467 15.1556C23.5235 15.4089 23.2778 15.641 23.0128 15.8489C28.1398 11.6641 33.9153 8.36725 40.1053 6.09211C39.7343 6.24366 39.2279 6.5073 39.0148 6.61109C39.314 6.47616 39.6092 6.32877 39.9147 6.19591L40.829 5.83056L42.3582 5.29705C42.8728 5.13928 43.3832 4.99188 43.91 4.83619L44.6849 4.60576C44.9432 4.52895 45.2015 4.45007 45.466 4.39817L47.0362 4.01205C46.4212 4.18436 45.8431 4.35665 45.345 4.52688C47.836 3.90763 50.3622 3.44383 52.9093 3.13809C52.4563 3.16715 52.0156 3.18791 51.5994 3.25226V3.26265L50.1645 3.42664L49.4388 3.50967L48.7172 3.628L47.5221 3.82106L45.1769 4.35873C44.4307 4.56632 43.6948 4.80505 42.9671 5.03756L42.4238 5.21608L41.8908 5.42368L40.831 5.83886L40.1074 6.09005C40.5502 5.88246 40.7593 5.77242 39.8655 6.05267C39.3899 6.20837 38.9205 6.39728 38.4428 6.57581C37.9652 6.75434 37.4834 6.94324 37.0078 7.14461L35.5729 7.80683L34.8492 8.1452C34.7283 8.20333 34.6053 8.25731 34.4844 8.31958L34.1277 8.50849L32.6824 9.27034C32.4406 9.39905 32.1905 9.51947 31.9506 9.65855L31.229 10.0737C30.7452 10.3505 30.2553 10.6273 29.7592 10.9041C29.2631 11.201 28.7814 11.5082 28.2832 11.7988H28.2709ZM17.2012 19.9551C17.5312 19.6603 17.8531 19.3738 18.1708 19.0957C18.5808 18.7531 18.9908 18.4106 19.4008 18.037C19.6734 17.7795 19.942 17.5159 20.2208 17.2626L21.0715 16.5278C21.6434 16.0441 22.1969 15.5355 22.7976 15.0912C23.3982 14.647 23.9742 14.1716 24.5708 13.7315L25.5342 13.063L25.567 13.0381C26.0693 12.6666 26.5613 12.2825 27.0676 11.9213L28.1254 11.1989C26.2121 12.3769 24.3688 13.6676 22.6049 15.0642C22.5684 15.0808 22.529 15.0893 22.489 15.0893C22.4491 15.0893 22.4096 15.0808 22.3732 15.0642C22.1319 15.3048 21.878 15.5321 21.6127 15.7451C21.34 15.9735 21.0899 16.2164 20.9013 16.4094C20.9649 16.3264 20.9997 16.2662 20.969 16.2579C20.5229 16.721 20.0521 17.159 19.5586 17.5699C19.1814 17.9082 18.8165 18.2259 18.2385 18.7822C17.9884 19.0438 17.7813 19.3136 17.5497 19.5877L17.2012 19.9551ZM14.3148 23.1624C14.4542 22.9652 14.5936 22.7804 14.7248 22.5977C14.3025 23.1209 13.8741 23.6627 13.4641 24.2585L12.5355 25.4646C12.3756 25.6618 12.2362 25.8798 12.0906 26.0874L11.6581 26.7101L10.7889 27.9557L10.6024 28.2567C11.8036 26.5005 13.0869 24.81 14.4522 23.1852C12.2366 25.9966 10.253 28.9877 8.52166 32.1283C7.02722 34.8667 5.74356 37.7178 4.6821 40.6561L5.02239 39.7573C5.39753 38.8293 5.79523 37.9201 6.20727 37.0274C6.24007 36.9506 6.27287 36.8738 6.30772 36.7991L6.36102 36.6911C6.40407 36.5998 6.44917 36.5085 6.49222 36.415L6.42456 36.5645L6.83456 35.7342C7.1892 35.0408 7.51309 34.3495 7.90873 33.6956C8.30437 33.0417 8.66721 32.367 9.08335 31.7027L9.73729 30.7125L9.79674 30.6066C9.94024 30.3492 10.1063 30.1063 10.26 29.8531C10.5716 29.3535 10.8846 28.8532 11.1989 28.3522C11.3506 28.0969 11.5228 27.8581 11.6909 27.6132L12.1952 26.8845L12.6995 26.1559L12.9516 25.7905C13.0377 25.6722 13.13 25.5559 13.2181 25.4376L14.2923 24.0301C14.6408 23.5527 15.0282 23.1084 15.4054 22.6579C15.7826 22.2075 16.1618 21.7549 16.5431 21.3107L17.7362 20.0195L18.3328 19.378C18.5378 19.1704 18.7428 18.9628 18.9477 18.7552L20.19 17.5366C20.395 17.3291 20.6123 17.1422 20.8276 16.9512L21.4712 16.3762L22.1026 15.8136C19.2946 18.0138 16.6949 20.474 14.3374 23.1624H14.3148ZM6.63776 36.6725C5.5052 39.0137 4.52194 41.426 3.69402 43.8946C3.31683 45.0218 2.97859 46.1615 2.66905 47.3053C2.2247 49.199 1.87846 51.1149 1.63177 53.0452C1.58872 53.3898 1.55182 53.7365 1.51287 54.0832C1.77936 52.3809 2.1094 50.6413 2.52349 48.8789C3.51141 44.6848 4.89678 40.597 6.66031 36.6725H6.63776ZM4.73951 45.7048C4.64111 46.12 4.54476 46.5351 4.45251 46.9233C4.24749 47.7678 4.09278 48.6239 3.98922 49.4871C4.04662 49.1902 4.11631 48.8975 4.17781 48.6048C4.31516 47.9821 4.44431 47.3447 4.56525 46.7365C4.6862 46.1283 4.85635 45.5242 4.97524 44.9305L4.73951 45.7048ZM0.945039 54.1413C1.43971 50.1241 2.31988 46.1653 3.57308 42.321C3.57308 42.3356 3.57308 42.3522 3.57308 42.3626C4.63898 39.0808 6.00183 35.9057 7.64429 32.8777C7.3983 33.3572 7.1523 33.843 6.91246 34.3142C6.67261 34.7855 6.46966 35.2588 6.25236 35.6823C7.0047 34.1606 7.82058 32.6825 8.68771 31.2439C8.51551 31.5014 8.34128 31.7588 8.14653 32.0743C8.41098 31.5429 8.68567 31.0031 8.96651 30.4572C9.09976 30.1811 9.26375 29.9174 9.41955 29.6496L9.89719 28.8421C10.5122 27.7481 11.2543 26.7101 11.9471 25.6493C12.0332 25.5144 12.1255 25.3857 12.2218 25.2591L12.5027 24.8771L13.0623 24.1132C13.2468 23.8578 13.4293 23.6025 13.6138 23.3492C13.7983 23.096 13.9971 22.8593 14.1857 22.6143C14.567 22.1286 14.9394 21.6442 15.3029 21.1612C15.6801 20.6941 16.0594 20.2395 16.416 19.7828L15.7027 20.5384L15.3357 20.9266C15.2107 21.0574 15.1 21.1986 14.9811 21.3418L13.5461 23.0275C12.6441 24.2024 11.7278 25.3608 10.9857 26.4672C10.8135 26.7018 10.6516 26.9323 10.4958 27.1565C10.629 27.0672 10.6372 27.1565 10.4486 27.5571C10.3502 27.7647 10.1965 28.047 9.97714 28.4248C9.86439 28.6117 9.73934 28.8234 9.59789 29.0621C9.45644 29.3009 9.2863 29.5583 9.12435 29.8614C6.86564 33.8201 5.00323 37.9976 3.56487 42.3314C3.57158 42.2391 3.58529 42.1475 3.60588 42.0574C3.63458 41.9494 3.66943 41.8207 3.71453 41.6796C3.80063 41.3973 3.91953 41.0568 4.03432 40.7101C4.14912 40.3634 4.27827 39.996 4.39306 39.6576C4.50786 39.3193 4.62881 39.0162 4.69851 38.7691L4.44431 39.3442C4.36027 39.5331 4.29261 39.7282 4.21676 39.9171L3.78833 41.0402C3.64893 41.4118 3.50338 41.773 3.37833 42.1404C3.25329 42.5079 3.14258 42.8774 3.02368 43.2448C2.79204 43.9797 2.5481 44.7083 2.36771 45.4723C2.26931 45.8522 2.16271 46.2362 2.07251 46.6265C2.00077 46.9171 1.92287 47.2098 1.86752 47.5088L1.88596 47.4133C1.91466 47.2762 1.95157 47.1434 1.98437 46.9981L2.18936 46.1885C2.32466 45.6508 2.45381 45.1111 2.59935 44.5734L3.07698 42.9791L3.28198 42.3003C3.16923 42.6636 3.06263 43.0331 2.94784 43.4026C2.83304 43.7721 2.74285 44.0856 2.6383 44.4281C2.58295 44.6004 2.53785 44.7748 2.4948 44.9491C2.45176 45.1235 2.40665 45.3 2.3636 45.4764C2.27546 45.8273 2.18526 46.1822 2.09711 46.5372L1.96181 47.0707C1.91671 47.2472 1.87367 47.4278 1.83882 47.6084C1.69532 48.3308 1.54772 49.0615 1.40217 49.7923C0.873338 52.7739 0.58199 55.7937 0.530944 58.8225C0.530944 59.3789 0.502243 59.9165 0.465344 60.4604C0.444844 60.7344 0.424347 61.0085 0.403848 61.2908C0.403848 61.3759 0.40385 61.461 0.3936 61.5461C0.4182 61.7537 0.440742 62.0049 0.463292 62.3225C0.477642 62.5301 0.49405 62.7875 0.510449 63.0657C0.526849 63.3438 0.532994 63.6532 0.569894 63.9957L0.582193 64.1472C0.428095 60.8069 0.557032 57.4593 0.967585 54.1413H0.945039ZM2.3062 70.7486C2.25085 70.5078 2.19346 70.2691 2.13811 70.0325C2.08277 69.7958 2.04381 69.5591 1.99461 69.3225C2.03766 69.8394 2.1299 70.3604 2.21805 70.867C2.3062 71.3735 2.4046 71.9049 2.4989 72.426C2.5235 72.5547 2.54605 72.6855 2.5727 72.8163L2.66699 73.2024C2.73054 73.4619 2.79205 73.7193 2.8556 73.9788C2.9868 74.4957 3.11594 75.0167 3.24508 75.5316C3.37423 76.0464 3.55668 76.5529 3.71248 77.0636C3.86827 77.5743 4.01792 78.0829 4.19421 78.5811C4.37051 79.0793 4.5509 79.5754 4.72925 80.0674C4.90759 80.5594 5.0675 81.0556 5.27249 81.5206C3.94352 78.0315 2.95014 74.4206 2.3062 70.7383C2.4005 71.1534 2.49275 71.5686 2.585 71.9963C2.6301 72.2039 2.6752 72.426 2.72029 72.646C2.76539 72.8661 2.83099 73.0861 2.88634 73.3103L3.23073 74.7033C3.28813 74.942 3.34759 75.187 3.40704 75.4381C3.46649 75.6893 3.54848 75.9364 3.61203 76.1938C3.47674 75.6312 3.34963 74.9358 3.18973 74.1822C3.10978 73.8065 3.02369 73.4162 2.93759 73.0176C2.91709 72.918 2.89454 72.81 2.87199 72.7166C2.84944 72.6232 2.83714 72.509 2.82074 72.4115C2.78589 72.2039 2.75105 71.9963 2.71415 71.7887L2.40461 70.1819C2.34721 69.9141 2.3103 69.6443 2.27341 69.3723L2.15861 68.5627C2.08481 68.023 2.00896 67.4832 1.93516 66.9456C1.90441 66.5864 1.87162 66.2273 1.84087 65.8682C1.96387 67.7047 2.17706 69.5467 2.48045 71.3943C2.15861 69.3702 1.84087 67.2694 1.70967 65.1499C1.67482 64.6205 1.63587 64.0912 1.60922 63.5618C1.58257 63.0325 1.59692 62.5031 1.59077 61.9779C1.56207 60.9233 1.64202 59.8812 1.70967 58.864C1.71992 59.3415 1.72402 59.8231 1.72607 60.3172C1.67687 62.1066 1.71172 63.9127 1.83062 65.7249C1.89827 66.4287 1.96182 67.1303 2.08481 67.8175C2.15041 68.2326 2.21533 68.6395 2.27956 69.0381C2.34721 69.4408 2.40256 69.8456 2.49686 70.2401C2.67179 71.0303 2.84397 71.8101 3.01344 72.5796C3.04829 72.7083 3.08519 72.835 3.12004 72.9657C2.96424 72.179 2.80844 71.3922 2.71005 70.5971C2.77975 70.8462 2.84534 71.114 2.91504 71.388C2.28304 68.0425 1.94484 64.6469 1.90442 61.2409C1.92492 61.8637 1.96387 62.4865 1.99461 63.1093L2.04176 64.0414C2.06226 64.3507 2.10121 64.6641 2.12991 64.9693L2.3185 66.8252C2.39845 67.4479 2.503 68.0541 2.5932 68.6686C2.78179 70.0262 3.01958 71.3839 3.30658 72.7332L3.39063 73.0156C3.47468 73.2896 3.55463 73.5532 3.63458 73.8002C3.21024 72.1084 2.85969 70.3978 2.5932 68.6686L2.45175 67.6306C2.40665 67.2819 2.35335 66.9331 2.33285 66.5927C2.27545 65.8931 2.21601 65.1914 2.15861 64.4939C2.12171 64.1452 2.12171 63.7923 2.10736 63.4435L2.07251 62.3931L2.03971 61.3551L2.05611 60.3172L2.07251 59.2792C2.07251 59.2169 2.07251 59.1567 2.07251 59.0944C2.01307 59.1982 1.97002 59.1484 1.94337 58.9761C1.91057 59.7442 1.89621 60.5164 1.90031 61.2928C1.87981 60.3794 1.87981 59.466 1.90031 58.5526C1.90031 58.4322 1.90031 58.2952 1.90031 58.1374C1.90031 57.7513 1.94541 57.2718 1.98641 56.7238C1.98641 56.6905 1.98641 56.6532 1.98641 56.62C2.15232 53.9234 2.51549 51.2429 3.07289 48.6007V48.582C2.85355 49.3356 2.6629 50.0206 2.544 50.3278L2.62599 49.2567C2.4087 49.9915 2.18116 50.9008 1.94542 51.8952C1.83472 52.3934 1.75272 52.9186 1.65637 53.4521C1.57642 53.9109 1.49442 54.3759 1.41653 54.845C1.128 57.8656 1.09919 60.9058 1.33043 63.9313C1.33043 61.9364 1.25048 59.6217 1.37347 57.3714C1.40217 56.8089 1.42063 56.2484 1.45958 55.7107C1.49853 55.1731 1.57232 54.6291 1.63177 54.1102C1.73532 53.1504 1.90312 52.1988 2.13401 51.262C1.1071 57.7196 1.17296 64.3072 2.32876 70.7424L2.3062 70.7486ZM13.9909 98.6988C11.4809 95.5991 9.2923 92.2461 7.45979 88.6929C6.45578 86.7451 5.55659 84.7438 4.76615 82.6976L4.63085 82.4153C4.54681 82.2285 4.45046 82.0001 4.33976 81.7635C4.28851 81.6389 4.22702 81.5102 4.17372 81.3711L4.01382 80.9372C3.79242 80.3331 3.54438 79.6439 3.28814 78.9195C3.22049 78.7389 3.16514 78.552 3.10979 78.3631C3.05444 78.1742 2.99704 77.9853 2.94169 77.7964C2.82895 77.4165 2.7162 77.0324 2.6055 76.6546C2.3677 75.9011 2.19551 75.1434 2.04176 74.4604C2.02331 74.3919 2.00691 74.3234 1.98846 74.2528L2.03151 74.4895C2.06841 74.697 2.12171 74.8922 2.1668 75.0894L2.44561 76.2623C2.53991 76.6463 2.62395 77.0283 2.72645 77.4041C2.82895 77.7798 2.94579 78.1452 3.05444 78.5147C3.27583 79.2537 3.48493 79.9948 3.76373 80.7255C3.89902 81.095 4.03432 81.4666 4.17372 81.8444C4.27827 82.1247 4.37871 82.4091 4.49351 82.6935L4.45456 82.6042C4.40331 82.4755 4.35821 82.3447 4.30901 82.2139L4.01997 81.4334C3.82933 80.9123 3.63252 80.3954 3.44803 79.8723L2.9458 78.2842L2.7408 77.6054C2.85355 77.9708 2.97244 78.3361 3.08519 78.7056C3.19794 79.0751 3.29019 79.3865 3.40704 79.7291C3.45624 79.9014 3.51773 80.0716 3.58128 80.2397L3.76782 80.7504C3.89287 81.0909 4.01792 81.4313 4.14296 81.7759L4.33361 82.2907C4.39511 82.4651 4.46071 82.6353 4.5386 82.8056C4.8256 83.4837 5.11396 84.1667 5.40369 84.8545C6.64344 87.6114 8.09947 90.2633 9.75779 92.7845C10.0694 93.2412 10.3482 93.7 10.6229 94.1691L11.0329 94.8833C11.1743 95.122 11.3322 95.3566 11.49 95.5994C11.8098 96.0811 12.1521 96.5834 12.5519 97.1066C12.7605 97.3795 12.9836 97.6408 13.2202 97.8892C13.4785 98.1508 13.7367 98.4185 14.0176 98.6926L13.9909 98.6988ZM13.2919 96.4651C12.2669 94.9455 11.0226 93.2537 9.92384 91.4829C9.80904 91.3272 9.69834 91.1715 9.59584 91.0096L8.66311 89.6063L8.51347 89.3821C9.91212 91.8716 11.5103 94.2406 13.2919 96.4651ZM26.4116 108.713C23.3589 106.609 20.5146 104.211 17.9187 101.551C18.2262 101.836 18.5378 102.128 18.8534 102.425L19.3311 102.884C19.493 103.035 19.6673 103.181 19.8395 103.334L20.9034 104.281L21.463 104.783C21.6516 104.956 21.8587 105.113 22.0616 105.284C21.6352 104.9 21.1412 104.399 20.5857 103.872L19.7247 103.058L19.5012 102.851L19.286 102.629L18.8555 102.184L17.6973 101.038C17.4923 100.852 17.316 100.652 17.1356 100.451L16.5862 99.8489C16.2213 99.4482 15.8585 99.0476 15.4936 98.649L14.4686 97.4034C15.0057 98.0387 15.5243 98.6884 16.1086 99.2718L16.9531 100.164C17.236 100.457 17.5066 100.758 17.8059 101.028L19.5443 102.655C20.1367 103.164 20.7332 103.648 21.3093 104.125C19.8272 102.784 18.3819 101.36 17.0044 99.8655C16.9306 99.7949 16.8568 99.7243 16.785 99.6579L16.17 99.0206L14.9401 97.7522L13.7859 96.4402L13.212 95.7884C13.0234 95.5808 12.8491 95.34 12.6667 95.1178L11.5884 93.7768C11.4039 93.5568 11.242 93.3222 11.0718 93.0938L10.7418 92.6392C12.84 95.8446 15.2431 98.8343 17.9166 101.566C17.7342 101.402 17.5558 101.238 17.3775 101.074C17.1991 100.91 17.0331 100.737 16.8588 100.571C17.1848 100.972 17.5476 101.341 17.9105 101.715L19.0154 102.836C19.1097 102.927 19.1999 103.023 19.2962 103.114L19.5914 103.378L20.1818 103.907L21.3749 104.96C21.7849 105.298 22.1949 105.622 22.6192 105.95C23.0435 106.278 23.4392 106.614 23.8656 106.924L25.1427 107.837C25.5793 108.132 25.9873 108.449 26.4219 108.721L26.4116 108.713ZM11.7913 88.7697L11.8877 88.8942L11.7053 88.5808C11.7442 88.6514 11.7749 88.7157 11.8016 88.778L11.7913 88.7697ZM56.7776 117.417L54.1127 117.37L53.1143 117.299C53.4355 117.269 53.7587 117.269 54.0799 117.299C47.7695 116.872 41.5722 115.391 35.7389 112.917C36.0997 113.052 36.6266 113.201 36.8439 113.266C36.5466 113.164 36.2432 113.075 35.948 112.96L35.0645 112.618L33.6439 111.995C33.1765 111.769 32.7152 111.53 32.2499 111.3L31.555 110.951C31.3213 110.835 31.0896 110.72 30.8641 110.588L29.505 109.826C30.0565 110.112 30.571 110.368 31.0343 110.573C26.9718 108.313 23.1873 105.574 19.7595 102.415C19.4602 102.155 19.1609 101.894 18.8657 101.63C21.1901 103.958 23.7147 106.071 26.4096 107.945C26.2743 107.858 26.1431 107.762 25.9996 107.673C26.1308 107.764 26.2599 107.86 26.3932 107.949L26.8032 108.209L27.8404 108.887L28.3591 109.226C28.5333 109.34 28.7055 109.456 28.8859 109.558L31.0425 110.803C31.7067 111.144 32.375 111.466 33.0412 111.779L33.5393 112.012L34.0477 112.219L35.0727 112.622L35.7471 112.921C35.3043 112.771 35.0809 112.713 35.8927 113.112C36.3293 113.319 36.7803 113.492 37.2333 113.681C37.6864 113.87 38.1476 114.052 38.6171 114.227L40.052 114.704C40.5379 114.856 41.0196 115.036 41.5239 115.161L43.0347 115.576C43.2889 115.642 43.5431 115.721 43.8014 115.784L44.5783 115.964C45.099 116.086 45.6231 116.213 46.1506 116.346C46.6816 116.467 47.2187 116.568 47.7558 116.691C48.0387 116.753 48.3482 116.815 48.6762 116.878C48.8422 116.913 49.0124 116.938 49.1887 116.959L49.7299 117.027L50.886 117.162L51.4908 117.226C51.6958 117.247 51.9008 117.253 52.1058 117.268C52.4067 117.322 52.713 117.34 53.018 117.32L54.1106 117.382C55.0126 117.417 55.9105 117.436 56.7879 117.432L56.7776 117.417ZM60.1231 115.312L59.3647 115.343L58.4319 115.387C58.1224 115.402 57.8169 115.387 57.5074 115.387H57.1097H57.2942L59.3298 115.454C59.5143 115.46 59.7972 115.385 60.1334 115.327L60.1231 115.312ZM84.8046 108.194C85.0711 108.074 85.3314 107.943 85.5918 107.808C85.7968 107.654 85.9649 107.509 86.1022 107.393C85.9577 107.421 85.819 107.475 85.6922 107.551L85.3499 107.719L84.9952 107.876C84.5545 108.072 84.2962 108.18 84.9727 107.795C85.2822 107.623 85.5713 107.426 85.8603 107.243C86.1494 107.061 86.4343 106.882 86.7131 106.708L87.5331 106.197L88.3018 105.674L89.747 104.698L91.018 103.75C91.7431 103.216 92.4353 102.638 93.0905 102.018C93.3796 101.744 93.6522 101.493 93.8797 101.231C94.0908 100.989 94.2886 100.736 94.4722 100.472C94.5296 100.372 94.2528 100.53 93.8326 100.8L93.4923 101.02L93.1008 101.252L92.2808 101.744C91.2046 102.411 90.2308 102.863 91.0242 102.236C91.3522 101.973 91.7314 101.645 92.1701 101.283C92.6088 100.922 93.1028 100.53 93.6051 100.059L94.3881 99.3486L94.7981 98.979C94.9375 98.8545 95.0769 98.7299 95.2081 98.5929L96.885 96.9322L97.869 95.8942L98.3732 95.3628C98.5413 95.1822 98.7176 95.0078 98.8755 94.8127C99.003 94.6572 99.1175 94.4913 99.2178 94.3165C101.09 92.1068 102.799 89.7594 104.328 87.2937C104.516 87.0058 104.701 86.7173 104.884 86.4281C105.07 86.1416 105.226 85.8385 105.398 85.5437C105.563 85.2894 105.743 85.046 105.938 84.8151C106.024 84.6185 106.112 84.4213 106.202 84.2234C106.294 84.0283 106.387 83.8352 106.469 83.6339C106.674 83.2187 106.879 82.818 107.083 82.4112L107.389 81.8029C107.489 81.5953 107.594 81.4002 107.682 81.1801C108.041 80.3498 108.414 79.5194 108.754 78.689C108.959 78.2282 109.144 77.7673 109.338 77.3106C109.533 76.8539 109.748 76.3952 109.894 75.926C109.853 75.926 109.761 76.0713 109.783 75.8782C110.117 74.805 110.486 73.7442 110.745 72.6543C110.884 72.1125 111.036 71.5728 111.155 71.031C111.274 70.4892 111.382 69.937 111.497 69.391C111.587 69.063 111.667 68.7454 111.743 68.4361C111.876 67.7925 111.997 67.1449 112.11 66.4972C112.073 66.5104 112.039 66.5315 112.01 66.559C111.981 66.5866 111.959 66.62 111.944 66.657L112.053 66.055C112.09 65.8474 112.106 65.6523 112.135 65.4509L112.286 64.2697C112.317 63.9147 112.352 63.5473 112.376 63.1653C112.403 62.6505 112.432 62.1149 112.461 61.5689L112.51 60.7386C112.51 60.4604 112.51 60.1802 112.52 59.9082C112.52 59.3477 112.536 58.7851 112.545 58.2288C112.553 57.6725 112.508 57.1265 112.489 56.595C112.471 56.0636 112.461 55.5571 112.399 55.0672C112.356 54.5793 112.315 54.0915 112.272 53.6016L112.206 52.8646L112.1 52.1443L111.895 50.6704C111.878 50.5479 111.864 50.4233 111.844 50.3009L111.778 49.9334L111.643 49.1965C111.614 48.8685 111.591 48.5509 111.579 48.254C111.448 47.7765 111.313 47.2721 111.233 47.0396C111.153 46.6473 111.077 46.2715 111.005 45.9082C110.933 45.5449 110.87 45.1879 110.78 44.8453L110.312 42.84C110.121 42.474 109.949 42.0977 109.798 41.7128C109.634 41.2146 109.476 40.7267 109.31 40.2472L108.756 38.8522L108.449 38.0384C108.348 37.7644 108.221 37.5007 108.108 37.2309C107.875 36.6932 107.643 36.1514 107.407 35.6075C106.55 33.7367 105.592 31.9147 104.537 30.1499C104.562 30.2267 104.499 30.1499 104.277 29.7617C104.101 29.4524 103.9 29.1639 103.713 28.8753L103.162 28.0263L102.639 27.2084L102.104 26.4423L101.106 25.0037L100.138 23.7395C99.5943 23.0184 99.0076 22.3314 98.3815 21.6823C98.1047 21.3958 97.8505 21.1259 97.5861 20.9017C97.3216 20.6775 97.0654 20.4865 96.8214 20.3184C96.721 20.2644 96.8829 20.5405 97.1597 20.9598L97.3872 21.2982L97.625 21.6885L98.1314 22.5189C98.8119 23.5921 99.2814 24.5574 98.6459 23.7789C98.3773 23.453 98.0432 23.0773 97.6763 22.6434C97.3093 22.2095 96.9116 21.7155 96.434 21.2256L95.7145 20.4512L95.3393 20.0464C95.2143 19.9094 95.0872 19.7703 94.9478 19.6313L93.2627 17.9705L92.2234 16.999L91.6863 16.5008C91.5038 16.3368 91.3276 16.1624 91.1308 16.0067C90.9745 15.8804 90.8078 15.7679 90.6326 15.6704C88.5362 13.9346 86.3253 12.3457 84.0154 10.9145L83.4004 10.6114C83.8821 10.9249 84.3803 11.2549 84.9153 11.5975C85.1326 11.7096 85.561 11.9919 85.9936 12.2202C86.2088 12.4154 86.4466 12.6167 86.7008 12.8243C85.4216 11.9289 84.0898 11.0812 82.7054 10.2813C79.7309 8.89425 76.6447 7.76707 73.4806 6.91211V6.88927C75.6284 7.45564 77.7375 8.16295 79.7945 9.00671L80.5653 9.31394C80.8195 9.41566 81.0716 9.51115 81.3115 9.62325C81.6948 9.79555 82.0638 9.95748 82.4226 10.1111C81.6641 9.67723 80.8912 9.26205 80.102 8.86555L79.4563 8.62059L78.9212 8.413C78.7408 8.34242 78.5584 8.27184 78.3698 8.20541L76.041 7.4394L74.6266 7.01382L73.8988 6.80623C73.6528 6.73565 73.4068 6.65469 73.1527 6.59864C72.9502 6.55444 72.7445 6.52668 72.5377 6.51561C69.618 5.82592 66.6517 5.35685 63.6634 5.11229L62.6056 5.01057C62.253 4.97528 61.9004 4.97528 61.5499 4.95659C61.2384 4.92577 60.9289 4.87585 60.6233 4.80712C60.4019 4.82165 60.1785 4.83412 59.9571 4.84242C59.7357 4.85072 59.5123 4.85487 59.2888 4.87771L57.8784 4.89432H57.1753C56.9416 4.89432 56.7079 4.89431 56.4742 4.91507C55.5435 4.97943 54.6149 5.02717 53.6924 5.10813L52.1529 5.22854C51.6404 5.27421 51.1279 5.29496 50.6216 5.378C50.6482 5.41121 50.8266 5.4299 50.6216 5.50048C49.4798 5.70808 48.3338 5.87 47.2146 6.1544C46.6529 6.28519 46.0891 6.40351 45.5316 6.54468L43.869 7.0159C42.9507 7.20896 42.1266 7.45392 41.3702 7.60339C41.0852 7.74455 40.7552 7.88987 40.3759 8.04764L40.0951 8.17842L40.462 8.03103C40.6281 7.96875 40.788 7.9044 40.9294 7.83797C40.96 7.87103 40.9978 7.89633 41.0398 7.91184C41.0819 7.92734 41.1269 7.93262 41.1713 7.92723L40.5707 8.11613C40.3657 8.17841 40.1771 8.26145 39.9782 8.32373L38.8282 8.75136C38.49 8.89253 38.1353 9.03785 37.7766 9.19769L36.2781 9.88898L35.4991 10.2419L34.7283 10.6363L33.1826 11.4231C32.6804 11.6971 32.1946 11.9877 31.719 12.2534C31.2434 12.5192 30.7801 12.7828 30.366 13.0838H30.3783L29.0991 13.9142L28.4595 14.3294L27.8445 14.7757L26.5941 15.6704C26.4916 15.7451 26.3891 15.8178 26.2825 15.8946L25.9791 16.1354L25.3641 16.6149C25.0771 16.8038 24.8004 16.9782 24.5441 17.1339C24.169 17.4868 23.7754 17.8543 23.5991 18.0411L22.6787 18.8009C22.3794 19.0438 22.0862 19.2742 21.8177 19.5233L20.2146 20.9308C19.9703 21.2846 19.7083 21.6255 19.4295 21.9521C19.0543 22.3445 18.6853 22.7285 18.3266 23.1146L17.3201 24.3041L16.7256 24.985C16.5206 25.2113 16.3443 25.4584 16.1537 25.6929L15.0098 27.1315C12.5268 30.3933 10.3873 33.9089 8.62621 37.6212C8.60209 37.6543 8.5714 37.6819 8.53609 37.7023C8.50078 37.7227 8.46165 37.7353 8.42122 37.7395C8.32077 38.0426 8.16907 38.3913 8.01123 38.7297C7.85338 39.0681 7.73654 39.4127 7.64634 39.6825C7.66889 39.5746 7.67504 39.504 7.64634 39.5082C7.43669 40.1487 7.19446 40.7779 6.92065 41.3931C6.71565 41.8851 6.52706 42.3522 6.24006 43.1431C6.12322 43.5043 6.05147 43.8531 5.95922 44.2143L5.79523 44.7436C5.61278 45.1858 5.44878 45.6321 5.29504 46.0867C5.21919 46.3151 5.14334 46.5435 5.07364 46.7739C5.00394 47.0043 4.9568 47.2451 4.8994 47.4818C4.68005 48.4367 4.43816 49.4124 4.27211 50.4628L4.06712 51.5007C4.11222 51.3803 4.16552 51.2163 4.22702 51.0191C4.26392 50.8987 4.30491 50.7659 4.34591 50.6268C4.38691 50.4877 4.4443 50.3445 4.4976 50.195L4.81125 49.2795C5.20894 48.0692 5.65584 47.0936 5.45699 48.0838C5.37499 48.499 5.29504 48.9993 5.19049 49.5598C5.08594 50.1203 4.95884 50.7472 4.88094 51.4281C4.83379 51.7685 4.78665 52.1194 4.73746 52.4827C4.71081 52.6633 4.68621 52.8459 4.65956 53.0328C4.63291 53.2196 4.60626 53.4044 4.59396 53.5953C4.52426 54.3593 4.45046 55.1544 4.37666 55.964C4.34523 56.4317 4.31311 56.9085 4.28031 57.3943C4.26596 57.6372 4.24956 57.8821 4.23521 58.1291C4.22086 58.3762 4.19831 58.6253 4.20241 58.8785C4.20444 59.0811 4.22295 59.2832 4.25776 59.4826C4.23712 62.3937 4.42897 65.3024 4.83175 68.1849L4.96089 69.2083C4.99369 69.4844 5.047 69.7563 5.09825 70.0387L5.03674 69.4989C4.92809 68.5814 4.83175 67.6306 4.72105 66.5677C4.67185 66.3269 4.6206 65.81 4.51606 65.3222C4.52836 65.0295 4.5345 64.716 4.53655 64.3839C4.79452 67.9414 5.38831 71.4659 6.30977 74.9088C6.17447 74.4376 6.06172 73.9539 5.93667 73.4557C5.81163 72.9574 5.68658 72.4717 5.57998 71.9631C5.48886 71.5757 5.37034 71.1956 5.22535 70.8255C5.21617 70.8499 5.20374 70.8729 5.18844 70.894C5.18844 70.8317 5.17409 70.7673 5.16794 70.7051C5.16794 70.8587 5.18024 70.9978 5.17819 71.1202C5.23764 71.3278 5.29709 71.5354 5.35244 71.743C5.40779 71.9506 5.45903 72.1582 5.52668 72.3658C5.63123 72.8121 5.73168 73.2563 5.83828 73.6985L5.99408 74.3628C6.04738 74.5849 6.09248 74.8071 6.16012 75.023C6.40407 75.8533 6.63366 76.6837 6.88991 77.5141C6.87761 77.4663 6.86735 77.4207 6.85505 77.3729C7.15844 78.3887 7.49533 79.3914 7.86569 80.3809C7.88004 80.3809 7.89848 80.4017 7.93128 80.4494C8.35972 81.4874 8.75126 82.5399 9.25145 83.5404C9.49129 84.0449 9.71884 84.5556 9.96893 85.0538L10.7541 86.5298C11.0575 87.2107 11.369 87.8231 11.6458 88.3981C11.7667 88.6057 11.8877 88.8133 12.0107 89.0209C12.1337 89.2285 12.2874 89.3987 12.4391 89.6146L12.6195 89.8512L12.4145 89.5357C12.3202 89.3904 12.228 89.2534 12.1357 89.133C12.1569 89.0986 12.1702 89.0599 12.1748 89.0197C12.1794 88.9795 12.1752 88.9388 12.1624 88.9005L12.4637 89.4298C12.5642 89.6063 12.6687 89.7723 12.7856 89.9447L13.4231 90.9473C13.6281 91.2359 13.8331 91.541 14.0586 91.8483L15.0139 93.1208C15.1758 93.3409 15.3378 93.563 15.5038 93.7851L16.0286 94.4349C16.3812 94.8666 16.7338 95.3026 17.0823 95.7323C17.4308 96.162 17.8121 96.5502 18.1647 96.9426C18.5173 97.3349 18.8534 97.721 19.2081 98.0511V98.0386L20.2331 99.0766L20.7517 99.5956L21.2867 100.098L22.3753 101.094C22.4675 101.177 22.5577 101.263 22.65 101.344L22.9349 101.58L23.5068 102.053C23.7405 102.286 23.9578 102.514 24.1587 102.732C24.5687 103.01 24.9787 103.307 25.1981 103.434L26.0918 104.148C26.3809 104.381 26.6556 104.609 26.9405 104.812L28.5805 106.037C28.7957 106.153 29.2488 106.295 29.6916 106.562C30.1343 106.83 30.5669 107.104 30.9974 107.362L32.3094 108.065L33.0658 108.481C33.3159 108.624 33.5803 108.742 33.8386 108.873L35.4089 109.656C38.9461 111.322 42.645 112.611 46.4458 113.502C46.4821 113.52 46.5144 113.545 46.5408 113.575C46.5672 113.606 46.5872 113.642 46.5996 113.681C46.9357 113.721 47.2696 113.778 47.6 113.853C47.9164 113.918 48.2359 113.967 48.5573 113.998C48.4527 113.998 48.3851 113.998 48.3953 114.04C49.0322 114.102 49.6652 114.199 50.2916 114.33C50.7876 114.416 51.2612 114.503 52.0525 114.611C52.4092 114.644 52.7474 114.638 53.102 114.648L53.6268 114.692C54.071 114.773 54.5199 114.838 54.9736 114.887C55.1991 114.912 55.4267 114.937 55.6542 114.953L56.3471 114.97C57.2737 114.97 58.229 115.001 59.2335 114.935L60.7443 114.912C60.8775 114.912 61.0108 114.912 61.1543 114.897C59.665 114.923 58.1754 114.871 56.6915 114.741C58.3842 114.873 60.0827 114.911 61.7795 114.856L62.2612 114.825L63.77 114.721L65.2726 114.544C65.6703 114.494 66.0065 114.463 66.3079 114.44C66.6092 114.418 66.8675 114.38 67.1135 114.364C67.5829 114.322 67.9991 114.297 68.5177 114.241C71.8404 113.57 75.0966 112.598 78.2468 111.335C78.2863 111.328 78.3268 111.33 78.3657 111.34C78.4045 111.35 78.4408 111.368 78.4723 111.393C78.7709 111.233 79.0774 111.088 79.3907 110.959C79.6874 110.83 79.9775 110.686 80.2598 110.527C80.1758 110.588 80.1245 110.635 80.1512 110.652C80.7098 110.337 81.2846 110.053 81.8732 109.801C82.3303 109.593 82.769 109.386 83.4783 109.018C83.5787 108.962 83.673 108.902 83.7673 108.842L83.6361 108.912C83.3963 109.037 83.1585 109.174 82.9084 109.284L82.4758 109.477C82.7444 109.344 83.0191 109.226 83.2815 109.08L83.9621 108.713L84.3721 108.443L84.8046 108.194ZM112.157 66.0197C112.137 66.1775 112.122 66.329 112.114 66.4723C112.128 66.3892 112.145 66.3062 112.157 66.2231C112.169 66.1401 112.172 66.0363 112.18 65.9387C112.188 65.8412 112.18 65.7312 112.194 65.6398C112.182 65.7623 112.169 65.891 112.157 66.0135V66.0197ZM95.1589 102.305C94.7735 102.66 94.3389 103.069 93.8695 103.482C92.8138 104.389 91.5612 105.35 90.3497 106.236C92.7249 104.64 94.9749 102.861 97.0797 100.914C99.7235 98.471 102.111 95.7579 104.203 92.8177C102.922 94.3352 101.516 96.16 99.9866 97.7999C99.6053 98.2151 99.2342 98.6303 98.855 99.0185C98.4758 99.4067 98.0801 99.7721 97.7029 100.129C97.013 100.793 96.2795 101.409 95.5074 101.973L95.1589 102.305ZM89.1403 106.326C89.9602 105.726 90.7946 105.136 91.5674 104.549L90.5588 105.267L90.237 105.497L89.9049 105.705L89.2386 106.133C88.7938 106.415 88.3531 106.704 87.9041 106.98L87.3773 107.281C87.2317 107.387 87.0842 107.488 86.9407 107.6C86.4466 107.939 85.9567 108.267 85.4872 108.603L86.3831 108.084L86.8443 107.816C86.998 107.727 87.1456 107.621 87.2973 107.526L89.1403 106.326ZM106.155 91.5286C103.85 94.789 101.219 97.7998 98.3036 100.513C95.7561 102.891 93.0129 105.044 90.1037 106.948L89.8987 107.142C90.5281 106.766 91.2743 106.278 92.0819 105.732C92.4919 105.452 92.8773 105.136 93.2914 104.823C93.7055 104.509 94.1237 104.188 94.5357 103.857C94.9478 103.527 95.3414 103.172 95.735 102.834L96.3233 102.336C96.5283 102.172 96.7107 102.012 96.887 101.842C97.6066 101.177 98.279 100.575 98.8529 100.098C96.0854 102.727 93.1243 105.14 89.9951 107.314C90.5609 106.957 91.1267 106.604 91.6719 106.197L92.6334 105.508C92.8732 105.333 93.1172 105.161 93.3591 104.974L93.2832 105.035C93.1746 105.12 93.0618 105.198 92.9491 105.279L92.2808 105.767C91.8339 106.089 91.3911 106.417 90.9422 106.735L89.5584 107.64L88.9701 108.024C89.2878 107.816 89.6056 107.609 89.9274 107.401L90.8192 106.82C90.9709 106.724 91.1164 106.612 91.2599 106.515L91.6965 106.199L92.576 105.564L93.0188 105.244C93.1684 105.138 93.314 105.037 93.4554 104.914L95.1835 103.532C97.4879 101.6 99.6356 99.4851 101.606 97.2062C101.961 96.791 102.326 96.3904 102.701 95.998L103.275 95.4085C103.465 95.2009 103.646 94.9933 103.836 94.7732C104.214 94.3373 104.601 93.8702 104.997 93.3429C105.202 93.0674 105.393 92.7812 105.569 92.4856C105.761 92.1929 105.95 91.869 106.138 91.5223L106.155 91.5286ZM114.656 57.9568C114.656 57.687 114.638 57.4171 114.625 57.1472C114.607 56.6075 114.59 56.0615 114.58 55.5114C114.57 54.9613 114.515 54.4091 114.49 53.8507C114.476 53.558 114.455 53.2404 114.428 52.902C114.428 52.7318 114.398 52.5574 114.371 52.3789C114.344 52.2003 114.322 52.0197 114.295 51.8329C114.24 51.4592 114.18 51.071 114.121 50.6683C114.09 50.4607 114.057 50.2656 114.027 50.058C113.996 49.8504 113.943 49.6428 113.902 49.4352C113.876 49.1268 113.812 48.8229 113.713 48.5301L113.488 47.4444C113.283 46.5642 113.078 45.6819 112.838 44.8246C113.043 45.6799 113.268 46.5642 113.488 47.4444C113.553 47.7786 113.617 48.1108 113.68 48.4388C113.565 48.134 113.478 47.8192 113.42 47.4984C114.661 53.7785 114.869 60.2232 114.035 66.5719C114.068 66.1837 114.072 65.6294 114.078 65.4011C114.057 65.7187 114.051 66.0384 114.021 66.356L113.924 67.3089L113.693 68.8637C113.598 69.3785 113.488 69.9017 113.393 70.4061L113.244 71.1783C113.192 71.4358 113.145 71.6932 113.078 71.9465L112.707 73.4743C112.836 72.8516 112.944 72.2911 113.018 71.7866C111.631 77.6237 109.366 83.2102 106.302 88.3504L105.741 89.2409C105.554 89.5378 105.372 89.8367 105.165 90.119L103.957 91.8358C103.765 92.1264 103.547 92.3942 103.328 92.6662L102.684 93.4965L102.043 94.3269L101.36 95.1158L100.681 95.9046C100.454 96.1662 100.231 96.4319 99.9866 96.6789L98.5516 98.1819C98.3179 98.4393 98.0555 98.6656 97.8095 98.9064L97.0592 99.6205C96.8091 99.8571 96.5631 100.1 96.3069 100.33L95.5238 101.007C97.9175 99.0551 100.115 96.8682 102.084 94.4785C100.177 96.8657 98.0764 99.0877 95.8047 101.121L96.0794 100.914C96.2369 100.779 96.413 100.669 96.6021 100.586C96.8235 100.519 96.6021 100.827 96.1203 101.377C95.9502 101.559 95.737 101.763 95.5054 101.987C100.431 97.7302 104.604 92.6538 107.844 86.9761L107.516 87.63C107.409 87.85 107.284 88.0556 107.172 88.2694C107.469 87.8542 107.725 87.3954 107.992 86.9408L108.771 85.5707C108.834 85.4545 108.902 85.3403 108.963 85.2219L109.138 84.8649L109.488 84.1487C109.718 83.6699 109.949 83.1896 110.181 82.708C110.386 82.2202 110.591 81.724 110.796 81.2341C111.001 80.7442 111.206 80.2564 111.399 79.7602C111.591 79.2641 111.757 78.7679 111.936 78.2738C112.114 77.7798 112.307 77.2982 112.454 76.802C111.245 80.3352 109.701 83.7417 107.844 86.974C108.035 86.5983 108.229 86.2184 108.434 85.8323C108.535 85.6392 108.639 85.442 108.744 85.2448C108.849 85.0476 108.949 84.8296 109.041 84.622L109.656 83.3329L109.99 82.6561C110.103 82.4278 110.195 82.1828 110.31 81.9399C110.054 82.4568 109.707 83.0713 109.349 83.7501C109.172 84.0906 108.986 84.4455 108.797 84.8068L108.656 85.0787L108.502 85.3465L108.19 85.8842L107.401 87.3166C107.274 87.5574 107.131 87.7878 106.991 88.0182L106.561 88.7116C106.274 89.1724 105.987 89.6333 105.702 90.0941L104.777 91.4248C105.243 90.7314 105.726 90.0568 106.134 89.3385L106.764 88.2798C106.969 87.9269 107.186 87.5843 107.364 87.221L108.461 85.0953C108.791 84.3853 109.097 83.6775 109.402 82.9882C107.4 87.0881 104.943 90.9437 102.08 94.4805C102.461 93.9906 102.826 93.4903 103.201 92.9963L103.758 92.2531C103.941 92.0019 104.107 91.7403 104.283 91.485L105.335 89.926C105.667 89.4028 105.979 88.8673 106.302 88.34C108.524 84.7744 110.342 80.9667 111.723 76.9889C111.675 77.1425 111.618 77.2961 111.567 77.4497C111.62 77.2961 111.677 77.1445 111.729 76.9909L111.868 76.528C111.995 76.1308 112.121 75.7336 112.245 75.3364L112.434 74.7406C112.495 74.533 112.563 74.342 112.612 74.1386C112.821 73.329 113.032 72.5173 113.246 71.7036C113.397 70.9645 113.527 70.2276 113.656 69.4969L113.748 68.9488L113.811 68.3966L113.928 67.2985L114.039 66.5615C114.01 67.0327 114.021 67.2653 114.18 66.3685C114.26 65.891 114.312 65.4011 114.373 64.9153C114.435 64.4296 114.49 63.9251 114.533 63.4227C114.576 62.9204 114.586 62.4076 114.613 61.8928C114.64 61.378 114.677 60.8548 114.664 60.3338V58.7478C114.656 58.4841 114.666 58.2163 114.656 57.9568ZM89.827 102.915C90.2657 102.5 90.8991 102.018 91.5879 101.412C91.9364 101.117 92.3115 100.808 92.7072 100.488C92.9122 100.333 93.0987 100.158 93.2955 99.9838L93.8961 99.4544C95.516 98.0577 97.0443 96.5557 98.4717 94.958H98.4594C95.2912 98.4878 91.6677 101.569 87.6868 104.119C88.0743 103.897 88.4494 103.687 88.8123 103.496C89.1751 103.305 89.5031 103.081 89.827 102.907V102.915ZM60.4716 114.472C60.1313 114.488 59.789 114.472 59.4467 114.472L58.4217 114.455C58.0814 114.455 57.7411 114.455 57.3967 114.434L56.3717 114.366L55.3467 114.299L54.8363 114.266C54.6682 114.252 54.4981 114.229 54.33 114.21C57.3574 114.602 60.4153 114.694 63.4605 114.486L65.2829 114.306C65.8876 114.229 66.4903 114.131 67.095 114.044L67.9991 113.909L68.8969 113.733C69.4955 113.612 70.0941 113.5 70.6907 113.371C67.9899 113.909 65.2555 114.256 62.5072 114.409L60.4716 114.472ZM81.908 107.32L80.5673 107.92L79.895 108.221C79.6674 108.314 79.4378 108.4 79.2082 108.491C79.4399 108.408 79.6756 108.333 79.9052 108.248L80.5899 107.978L81.9531 107.432C81.9183 107.399 81.7604 107.42 81.908 107.312V107.32ZM72.5992 110.642L72.0723 110.76C72.4188 110.71 72.7222 110.679 72.9579 110.658C73.3556 110.5 73.7533 110.355 74.1551 110.214L73.1301 110.5L72.5992 110.642ZM61.0272 112.358C61.2253 112.348 61.4222 112.32 61.6155 112.275C61.0415 112.3 60.4655 112.344 59.8874 112.354H58.1675C59.0838 112.36 60.0411 112.406 61.0272 112.346V112.358ZM5.91208 46.7739C5.84648 47.3821 5.66608 48.1606 5.52668 49.074C5.44878 49.5265 5.35859 50.0102 5.26224 50.5105C5.20689 50.7617 5.17204 51.0191 5.1331 51.2828C5.09415 51.5464 5.05314 51.8101 5.01214 52.0779C4.66484 54.2068 4.4553 56.3565 4.38486 58.5132H4.39716C4.5655 53.7423 5.36952 49.0163 6.78741 44.4634C6.63366 44.8786 6.47992 45.2937 6.32617 45.6736C6.17242 46.0535 6.05557 46.4293 5.91208 46.7739ZM9.73729 36.8697L9.04645 38.1754C9.08745 38.1754 9.19815 38.0509 9.151 38.2336L9.79264 36.8987L10.1145 36.2303C10.2272 36.0103 10.3502 35.7923 10.4671 35.5743C10.342 35.7819 10.2108 35.9999 10.0878 36.2158L9.73729 36.8697ZM13.2222 30.9575L13.8372 30.0627L14.1427 29.6143L14.4706 29.1784C14.2369 29.4441 14.0258 29.6662 13.8557 29.8344C13.663 30.2164 13.4518 30.5879 13.2325 30.9575H13.2222ZM21.4835 21.184C21.9079 20.7917 22.3199 20.3786 22.7545 19.9945L24.0644 18.8652C23.3551 19.4527 22.5967 20.0444 21.8812 20.7336C21.7395 20.8727 21.6092 21.0234 21.4917 21.184H21.4835Z" fill="white"/>
</svg>
