<svg width="343" height="2" viewBox="0 0 343 2" fill="none" xmlns="http://www.w3.org/2000/svg">
<g clip-path="url(#clip0_1212_15978)">
<path d="M171.756 0.882226C171.518 1.00911 172.351 1.16319 173.285 1.18434C174.378 1.22381 175.505 1.22381 176.599 1.18434C177.183 1.13812 177.822 1.11757 178.461 1.1244C179.099 1.13124 179.72 1.16526 180.269 1.22362C180.638 1.25853 181.049 1.2768 181.467 1.2768C181.885 1.2768 182.296 1.25853 182.665 1.22362C184.707 1.08393 186.975 1.09152 188.986 1.24477C190.6 1.3354 192.282 1.14507 193.896 1.278C193.965 1.29109 194.048 1.30152 194.14 1.30866C194.232 1.3158 194.331 1.31948 194.432 1.31948C194.532 1.31948 194.632 1.3158 194.724 1.30866C194.816 1.30152 194.899 1.29109 194.967 1.278C201.135 1.23571 207.252 1.43208 213.437 1.42906C217.701 1.38579 221.978 1.41208 226.215 1.50761C226.77 1.53302 227.347 1.53918 227.914 1.52573C232.689 1.34144 237.498 1.48344 242.29 1.48042C244.514 1.49152 246.727 1.41841 248.781 1.26592L249.018 1.23268L248.814 1.27196C249.137 1.38374 249.596 1.51667 250.344 1.48042C253.742 1.30821 257.141 1.39582 260.539 1.38374C261.512 1.41014 262.506 1.37713 263.36 1.29008C263.493 1.26358 263.657 1.24239 263.84 1.22788C264.023 1.21337 264.221 1.20586 264.422 1.20586C264.622 1.20586 264.82 1.21337 265.003 1.22788C265.186 1.24239 265.35 1.26358 265.484 1.29008C267.397 1.49394 269.646 1.57498 271.856 1.51969C274.167 1.50459 276.562 1.33238 278.652 1.6496C280.912 1.34748 283.75 1.85201 286.01 1.48645C286.333 1.4351 287.437 1.42302 287.522 1.45323C288.474 1.78253 289.799 1.56199 290.921 1.54991C292.467 1.52876 293.232 1.67377 293.435 1.93661C293.168 1.94057 292.909 1.95392 292.671 1.97589C292.416 2.01214 292.552 2.05444 292.909 2.03933C293.266 2.02422 293.283 1.97891 293.469 1.94568C295.542 1.82483 297.157 1.54084 299.553 1.51063C301.065 1.4925 302.322 1.22664 303.478 1.66169C303.818 1.7916 305.653 1.57105 306.876 1.55897L307.114 1.53178L306.961 1.57106C306.961 1.67378 307.284 1.82181 307.743 1.7493C309.323 1.50761 311.413 1.57407 313.18 1.41093C315.44 1.20247 318.176 1.46229 320.81 1.41093C325.618 1.30519 330.512 1.41093 335.185 1.04839C337.129 0.899631 339.289 0.86471 341.353 0.948691C341.998 0.978903 342.746 0.975887 343.052 0.821808C340.754 0.605541 338.144 0.516126 335.559 0.565009C335.321 0.565009 334.879 0.565009 334.828 0.565009C333.52 0.102773 331.905 0.447186 330.376 0.501567C330.155 0.501567 329.883 0.468337 329.628 0.447189C330.104 0.389787 331.09 0.32634 330.444 0.217579C329.798 0.108817 329.509 0.287062 329.187 0.374675C328.456 0.299146 327.606 0.217578 326.825 0.30217C324.038 0.604285 321.268 0.453227 318.499 0.320296L318.719 0.290083L318.448 0.314257C317.862 0.391279 317.154 0.432852 316.426 0.432852C315.698 0.432852 314.989 0.391279 314.404 0.314257L313.894 0.284044L314.098 0.37166C314.098 0.462294 314.285 0.552927 314.37 0.643561L314.539 0.682838L314.302 0.658664C313.148 0.591281 312.189 0.445854 311.634 0.253831C310.546 -0.048284 309.935 -0.00900793 308.388 0.377699C308.507 0.423016 309.136 0.438122 308.66 0.519693L308.354 0.383738L306.876 0.504582L306.264 0.459267L306.553 0.565009C306.111 0.634495 305.381 0.685856 305.075 0.613348C304.038 0.368635 303.512 -0.0694287 301.252 0.398849C300.487 0.0967344 299.009 0.175279 297.734 0.223617C295.899 0.296125 297.191 0.453223 297.531 0.580111L297.683 0.625435L297.48 0.589183C294.999 0.845981 293.316 0.670753 292.195 0.238729C291.209 0.467471 289.831 0.632913 288.27 0.710027C287.165 0.595223 288.678 0.407908 287.454 0.28102C284.787 0.62241 281.796 0.912442 278.177 0.679814C278.499 0.287065 278.499 0.287065 275.662 0.377699L275.186 0.338423C275.186 0.368634 275.339 0.395827 275.424 0.426038C275.662 0.728153 277.293 0.577091 278.092 0.694916C277.922 0.997031 276.392 0.77045 275.798 0.861084C273.997 0.398849 270.462 0.818787 268.304 0.368636C267.268 0.154134 265.144 0.489478 263.649 0.619387C262.153 0.749296 261.185 0.945673 260.25 0.507606C259.706 0.250809 258.721 0.453227 257.939 0.546883C257.158 0.640538 256.784 0.812748 255.866 0.664712C255.22 0.558972 255.373 0.268939 254.048 0.341447C252.723 0.413954 252.791 0.643563 252.349 0.824832C252.094 0.912445 251.958 1.00912 251.72 1.12695C251.193 0.867128 250.395 0.682837 248.713 0.710027L248.475 0.746279L248.577 0.637513C248.848 0.525731 248.967 0.305191 248.22 0.377699C246.593 0.554453 244.645 0.612888 242.782 0.540844C241.831 0.507611 241.593 0.842952 240.353 0.761381C239.809 0.1783 239.809 0.178302 236.835 0.555946L237.073 0.592198L236.801 0.565009C235.493 0.625432 234.966 0.867125 233.981 0.990992C233.352 0.85504 233.76 0.719086 233.981 0.583135C234.337 0.323316 233.148 0.22362 232.281 0.30217C230.684 0.462291 228.747 0.380716 227.286 0.561985C225.824 0.743253 225.4 0.755344 225.247 0.416975C225.247 0.305193 224.312 0.335405 223.87 0.389786C222.834 0.519696 221.389 0.296131 220.285 0.616372C219.554 0.824831 219.096 0.26894 217.362 0.314257C216.173 0.338427 215.102 0.290081 215.051 0.580111C215.051 0.939627 213.352 0.821807 212.316 0.85806C212.05 0.851792 211.808 0.828078 211.636 0.791595C212.163 0.528755 212.639 0.326342 210.09 0.380723C208.391 0.416977 208.051 0.743254 206.691 0.770445C205.332 0.797635 206.555 0.447188 205.485 0.380723C204.414 0.314258 203.65 0.459267 202.817 0.534795C201.99 0.626425 201.056 0.682829 200.086 0.6996C199.116 0.71637 198.138 0.693055 197.227 0.631474L196.989 0.664712L197.159 0.619387C197.15 0.565456 197.069 0.512688 196.921 0.465564C196.773 0.418439 196.564 0.378356 196.31 0.348703C196.057 0.31905 195.767 0.300708 195.465 0.295237C195.163 0.289766 194.858 0.297323 194.576 0.317272C192.996 0.486457 191.62 0.353526 190.226 0.317272C188.833 0.281019 187.541 0.199452 186.981 0.586159C186.624 0.836914 185.485 0.652619 184.738 0.561985C184.795 0.519251 184.835 0.475836 184.857 0.432077C184.857 0.416972 184.67 0.401868 184.568 0.386762C184.449 0.349205 184.279 0.317576 184.073 0.294794C183.867 0.272013 183.632 0.258811 183.39 0.256403C183.148 0.253995 182.906 0.262462 182.688 0.28102C182.469 0.299578 182.28 0.327634 182.138 0.362597C181.69 0.453914 181.098 0.519175 180.439 0.549907L180.218 0.51063L180.082 0.534795L180.32 0.571048C179.185 0.656621 178.088 0.757625 177.04 0.873162C174.848 1.15111 174.882 0.812745 174.441 0.595222L174.271 0.549907L174.492 0.586159C174.916 0.643561 175.426 0.758364 175.766 0.746279C176.429 0.719089 176.259 0.586156 176.004 0.507606C175.845 0.437545 175.55 0.379879 175.173 0.344987C174.796 0.310095 174.362 0.300266 173.948 0.317272C172.521 0.395822 172.113 0.667724 171.756 0.882226ZM327.181 0.540844V0.492504L327.317 0.53178L327.181 0.540844ZM271.805 1.00005L271.907 0.939628C272.009 0.939628 272.161 0.939636 272.229 0.966826C272.297 0.994017 272.416 1.04236 272.06 1.04236C271.975 1.03933 271.89 1.00005 271.805 1.00005ZM258.67 0.981929C258.925 0.942654 259.146 0.957761 259.214 1.0212C259.214 1.0212 259.095 1.06954 259.044 1.06652C258.918 1.06326 258.801 1.05385 258.704 1.03933C258.687 1.01818 258.619 1.00005 258.67 0.978904V0.981929ZM232.145 0.71909H232.349V0.76743L232.145 0.71909ZM202.868 0.915463C202.868 0.891294 202.868 0.864103 202.868 0.848997C202.897 0.838106 202.943 0.828903 203 0.822453C203.057 0.816004 203.123 0.812579 203.191 0.812579C203.259 0.812579 203.325 0.816004 203.382 0.822453C203.439 0.828903 203.485 0.838106 203.514 0.848997C203.542 0.858813 203.557 0.86969 203.557 0.880723C203.557 0.891755 203.542 0.902623 203.514 0.912439C203.327 0.960777 203.089 0.954735 202.868 0.912439V0.915463ZM194.372 1.19945L194.559 1.16924L194.729 1.20549L194.372 1.19945ZM190.107 0.6496H190.311V0.694916L190.107 0.6496ZM184.381 0.435102L184.653 0.395825C184.632 0.42702 184.586 0.457526 184.517 0.486456L184.381 0.435102Z" fill="#EE952D"/>
<path d="M85.4526 0.377621C85.4526 0.607228 84.8409 0.93351 87.4747 0.942574C90.783 0.91944 94.096 0.929528 97.398 0.972787C100.694 1.05134 104.025 1.04832 107.338 1.09666C108.726 1.12502 110.131 1.10239 111.467 1.03019C112.372 0.968269 113.338 0.939299 114.307 0.945008C115.276 0.950717 116.229 0.990983 117.109 1.06342C119.403 1.24167 122.07 1.12082 124.449 1.11478C134.033 1.09968 143.599 1.27792 153.183 1.18729C154.436 1.18501 155.686 1.21038 156.904 1.26281C158.382 1.31417 159.979 1.3746 161.135 1.10572L160.268 0.978826L160.115 0.936535L160.37 0.9607L161.186 1.09363C161.798 1.17822 162.018 1.39575 163.089 1.31115C164.826 1.23934 166.594 1.19287 168.373 1.17218C169.121 1.14197 170.158 1.22052 170.378 1.01508C170.58 0.909821 170.641 0.797632 170.555 0.687471C170.47 0.577309 170.24 0.472237 169.886 0.380645C169.777 0.355359 169.63 0.335959 169.462 0.324607C169.295 0.313254 169.113 0.310395 168.937 0.316346C168.761 0.322296 168.597 0.336818 168.465 0.358305C168.332 0.379792 168.236 0.407403 168.187 0.438047C167.592 0.679739 166.198 0.555866 165.281 0.649522L165.043 0.676711L165.213 0.637435C165.106 0.564793 164.892 0.498527 164.594 0.445432C164.295 0.392337 163.922 0.354328 163.514 0.33532C162.613 0.290003 161.815 0.271877 162.154 0.525654C162.494 0.77943 161.543 0.685777 161.016 0.622333C158.756 0.35043 158.773 0.347411 157.414 0.794541C155.714 0.510553 154.015 0.129887 151.229 0.350431C150.532 0.404812 151.585 0.540759 151.466 0.694837C148.561 0.483357 145.774 0.223543 142.563 0.283966L141.968 0.241665C142.07 0.274898 142.155 0.308129 142.257 0.344383C141.322 0.697857 141.05 0.719013 140.439 0.465236C139.827 0.21146 139.147 0.214482 138.383 0.371582C138.002 0.457604 137.491 0.522589 136.911 0.558965C136.33 0.595341 135.703 0.601606 135.103 0.577017C134.61 0.577017 133.88 0.631396 133.897 0.480339C133.897 0.253752 133.132 0.126864 132.198 0.178224C130.294 0.256774 127.933 0.00299372 126.488 0.410849L126.726 0.450125L126.471 0.413873C124.874 0.362513 124.143 0.685777 122.359 0.688798C122.444 0.528678 124.058 0.43502 123.226 0.280942C122.393 0.126863 121.747 0.280941 121.136 0.374596C120.524 0.468252 120.048 0.583058 119.437 0.471275C118.009 0.241668 116.786 0.114784 115.257 0.456173C114.832 0.55285 114.441 0.389707 114.016 0.341368C112.595 0.178072 110.902 0.106383 109.22 0.138274C107.538 0.170165 105.968 0.303701 104.772 0.516591H106.336L106.574 0.489402L106.404 0.528678C106.308 0.552985 106.181 0.572837 106.033 0.586542C105.885 0.600247 105.721 0.607397 105.554 0.607397C105.387 0.607397 105.223 0.600247 105.075 0.586542C104.927 0.572837 104.8 0.552985 104.705 0.528678L104.382 0.489402C100.779 0.0483139 100.558 0.0513351 97.9757 0.56493L97.7548 0.601183L97.9247 0.555867C97.9247 0.368556 98.6554 0.0332104 96.2255 0.283966C95.5288 0.356473 94.6792 0.661609 93.8296 0.302092C93.8296 0.302092 94.0166 0.265834 93.9996 0.250728C93.9826 0.235623 93.7787 0.211453 93.5748 0.250728C93.0044 0.17777 92.3336 0.133635 91.6336 0.122997C90.9335 0.112359 90.2303 0.135619 89.5987 0.190311C89.0209 0.244692 88.5961 0.353447 87.7805 0.250728C86.9649 0.148009 85.4526 0.0634211 85.4526 0.377621ZM130.872 0.580032C130.984 0.570778 131.106 0.565644 131.229 0.56493C131.688 0.56493 131.722 0.598163 131.229 0.631396C131.109 0.640126 130.975 0.640126 130.855 0.631396C130.855 0.631396 130.906 0.595138 130.889 0.580032H130.872ZM111.433 0.561906C111.433 0.5468 111.569 0.525657 111.654 0.519615C111.739 0.513573 111.96 0.519615 112.028 0.519615C112.096 0.519615 112.181 0.580032 111.79 0.580032C111.673 0.576917 111.558 0.570813 111.45 0.561906H111.433Z" fill="#EE952D"/>
<path d="M7.62939e-05 0.534781C0.203979 0.773452 1.29147 0.749282 2.22602 0.779494C9.44761 1.00306 16.7202 0.879197 23.9587 0.803668C29.3452 0.749287 34.7996 0.888256 40.1521 0.685839C45.7255 1.15714 51.6557 0.719078 57.4329 0.891284C62.5305 1.03932 67.7471 0.90639 72.9126 0.891284C74.306 0.504577 75.3085 0.873156 76.5659 0.927536C78.6216 1.0121 80.7691 0.993264 82.768 0.873149C85.0959 0.734176 84.1783 0.41394 84.0933 0.132973C82.1393 0.0332749 81.7314 0.435082 80.2362 0.486442L79.6245 0.571034C79.3696 0.468315 80.0662 0.51666 80.1342 0.465301C80.1342 0.329349 79.9983 0.196417 79.1657 0.199438C77.3136 0.199438 75.4104 -0.0331914 73.6263 0.235691L72.6747 0.377685C72.012 0.507594 70.9755 0.492491 70.1769 0.549893L69.973 0.577082L70.092 0.534781C70.8415 0.43945 71.7223 0.382029 72.6408 0.368622C72.4698 0.30408 72.2186 0.247279 71.9062 0.202509C71.5937 0.157738 71.2283 0.126163 70.8372 0.110163C70.4462 0.0941632 70.0398 0.0941573 69.6487 0.110145C69.2577 0.126132 68.8921 0.157693 68.5797 0.202453C67.5772 0.371638 67.4752 0.447166 66.3537 0.202453C65.2322 -0.0422596 64.9944 0.335388 64.2807 0.413937C64.0908 0.444767 63.8795 0.471166 63.652 0.49249C63.3461 0.513638 62.9723 0.555929 62.7344 0.468316L63.4651 0.429039L64.2127 0.398835C64.0938 0.132974 63.0743 0.0574456 61.8509 0.0967205C57.5689 0.271947 53.2359 0.132974 48.9709 0.0967205C33.8821 0.00608609 18.8272 0.184328 3.75529 0.232667C3.03802 0.224432 2.32036 0.247684 1.66552 0.300368C1.01067 0.353051 0.438751 0.433549 7.62939e-05 0.534781ZM59.1491 0.510616H59.421L59.1831 0.531767L59.1491 0.510616ZM50.0414 0.543844L50.8231 0.495505L51.027 0.456238L50.891 0.504568C50.6022 0.516653 50.4662 0.634479 50.0414 0.543844Z" fill="#EE952D"/>
<path d="M322.814 0.0936507C322.814 0.03927 323.086 0.0241632 323.374 0.0453112L323.731 0.154077C323.527 0.172204 323.255 0.208456 323.119 0.199393C323.025 0.187369 322.948 0.171501 322.895 0.153109C322.841 0.134718 322.814 0.114332 322.814 0.0936507Z" fill="#EE952D"/>
<path d="M200.2 0.528663C200.2 0.489388 199.945 0.441045 200.013 0.410834C200.079 0.393822 200.168 0.379977 200.272 0.370497C200.376 0.361017 200.491 0.356194 200.607 0.356455C200.896 0.356455 200.998 0.41688 200.794 0.462197C200.619 0.490159 200.417 0.512632 200.2 0.528663Z" fill="#EE952D"/>
<path d="M315.203 1.58612L315.152 1.53174L315.49 1.54987L315.203 1.58612Z" fill="#EE952D"/>
<path d="M284.004 0.314159C283.817 0.377603 283.647 0.383638 283.579 0.3353C283.511 0.286961 283.749 0.30509 283.851 0.289984C283.953 0.274879 284.174 0.226541 284.225 0.271858C284.276 0.317176 284.072 0.299053 284.004 0.314159Z" fill="#EE952D"/>
</g>
<defs>
<clipPath id="clip0_1212_15978">
<rect width="343" height="2" fill="white" transform="matrix(-1 0 0 1 343 0)"/>
</clipPath>
</defs>
</svg>
