<svg width="15" height="2" viewBox="0 0 15 2" fill="none" xmlns="http://www.w3.org/2000/svg">
<path d="M4.31656 1.26488C2.79757 1.44376 1.2478 1.15811 0 0.469382C0.366907 0.287096 0.561166 0.121429 0.755411 0.104857C2.99746 -0.118975 5.27562 0.0164298 7.44609 0.502558C8.95629 0.708364 10.497 0.747438 12.0216 0.618571C12.9281 0.526815 13.8483 0.672799 14.6331 1.03286C14.7366 1.08339 14.8235 1.15155 14.8871 1.23201C14.9507 1.31248 14.9894 1.40303 15.0001 1.49681C14.9531 1.58372 14.8759 1.65905 14.7769 1.71457C14.678 1.7701 14.561 1.80369 14.4389 1.81167C12 1.64596 9.56117 1.49689 7.1439 1.26488C6.18267 1.06572 5.1699 1.06572 4.20867 1.26488H4.31656Z" fill="white"/>
</svg>
