<svg width="4" height="4" viewBox="0 0 4 4" fill="none" xmlns="http://www.w3.org/2000/svg">
<path d="M1.17915 1.61589C2.15551 1.34935 2.58945 0.616386 3.34884 0.099951C3.47897 0.0369682 3.62902 0.00241529 3.78281 0C3.88727 0.157325 3.96042 0.325771 3.99979 0.499755C3.99979 0.499755 3.99979 0.633004 3.99979 0.682982C2.93664 1.68253 1.83006 2.64878 0.701815 3.61501C0.631887 3.64418 0.553615 3.65945 0.474039 3.65945C0.394463 3.65945 0.316125 3.64418 0.246197 3.61501C0.116016 3.61501 -0.0358312 3.36512 0.00756273 3.29849C0.289623 2.81537 0.636758 2.34894 0.940516 1.86582L1.33104 1.58264L1.17915 1.61589Z" fill="white"/>
</svg>
