<svg width="343" height="2" viewBox="0 0 343 2" fill="none" xmlns="http://www.w3.org/2000/svg">
<g clip-path="url(#clip0_1212_18936)">
<path d="M171.244 0.882226C171.482 1.00911 170.65 1.16319 169.715 1.18434C168.622 1.22381 167.495 1.22381 166.402 1.18434C165.817 1.13812 165.178 1.11757 164.54 1.1244C163.901 1.13124 163.281 1.16526 162.731 1.22362C162.363 1.25853 161.951 1.2768 161.533 1.2768C161.116 1.2768 160.704 1.25853 160.336 1.22362C158.294 1.08393 156.025 1.09152 154.014 1.24477C152.4 1.3354 150.718 1.14507 149.104 1.278C149.035 1.29109 148.953 1.30152 148.861 1.30866C148.768 1.3158 148.669 1.31948 148.569 1.31948C148.468 1.31948 148.369 1.3158 148.277 1.30866C148.185 1.30152 148.102 1.29109 148.033 1.278C141.865 1.23571 135.748 1.43208 129.563 1.42906C125.299 1.38579 121.022 1.41208 116.785 1.50761C116.231 1.53302 115.654 1.53918 115.086 1.52573C110.311 1.34144 105.502 1.48344 100.711 1.48042C98.486 1.49152 96.2734 1.41841 94.2197 1.26592L93.9818 1.23268L94.1857 1.27196C93.8629 1.38374 93.4041 1.51667 92.6565 1.48042C89.2581 1.30821 85.8597 1.39582 82.4613 1.38374C81.4885 1.41014 80.4942 1.37713 79.6406 1.29008C79.5068 1.26358 79.343 1.24239 79.16 1.22788C78.9771 1.21337 78.779 1.20586 78.5786 1.20586C78.3783 1.20586 78.1802 1.21337 77.9972 1.22788C77.8142 1.24239 77.6505 1.26358 77.5166 1.29008C75.6028 1.49394 73.3538 1.57498 71.1446 1.51969C68.8337 1.50459 66.4379 1.33238 64.3478 1.6496C62.0879 1.34748 59.2502 1.85201 56.9903 1.48645C56.6675 1.4351 55.563 1.42302 55.478 1.45323C54.5265 1.78253 53.2011 1.56199 52.0796 1.54991C50.5334 1.52876 49.7687 1.67377 49.5648 1.93661C49.8318 1.94057 50.0917 1.95392 50.3294 1.97589C50.5843 2.01214 50.4484 2.05444 50.0916 2.03933C49.7347 2.02422 49.7177 1.97891 49.5308 1.94568C47.4578 1.82483 45.8436 1.54084 43.4477 1.51063C41.9354 1.4925 40.678 1.22664 39.5225 1.66169C39.1827 1.7916 37.3476 1.57105 36.1242 1.55897L35.8863 1.53178L36.0392 1.57106C36.0392 1.67378 35.7164 1.82181 35.2576 1.7493C33.6773 1.50761 31.5873 1.57407 29.8201 1.41093C27.5602 1.20247 24.8245 1.46229 22.1907 1.41093C17.382 1.30519 12.4883 1.41093 7.81552 1.04839C5.87108 0.899631 3.71088 0.86471 1.64744 0.948691C1.00174 0.978903 0.254098 0.975887 -0.0517578 0.821808C2.2467 0.605541 4.85581 0.516126 7.4417 0.565009C7.67959 0.565009 8.12138 0.565009 8.17236 0.565009C9.48074 0.102773 11.095 0.447186 12.6243 0.501567C12.8452 0.501567 13.117 0.468337 13.3719 0.447189C12.8961 0.389787 11.9106 0.32634 12.5563 0.217579C13.202 0.108817 13.4908 0.287062 13.8137 0.374675C14.5443 0.299146 15.3939 0.217578 16.1756 0.30217C18.9623 0.604285 21.732 0.453227 24.5016 0.320296L24.2808 0.290083L24.5526 0.314257C25.1378 0.391279 25.8466 0.432852 26.5747 0.432852C27.3027 0.432852 28.0115 0.391279 28.5967 0.314257L29.1065 0.284044L28.9026 0.37166C28.9026 0.462294 28.7157 0.552927 28.6307 0.643561L28.4608 0.682838L28.6987 0.658664C29.8525 0.591281 30.8109 0.445854 31.3664 0.253831C32.4539 -0.048284 33.0656 -0.00900793 34.6119 0.377699C34.4929 0.423016 33.8642 0.438122 34.34 0.519693L34.6459 0.383738L36.1242 0.504582L36.7359 0.459267L36.447 0.565009C36.8888 0.634495 37.6194 0.685856 37.9253 0.613348C38.9618 0.368635 39.4886 -0.0694287 41.7485 0.398849C42.5131 0.0967344 43.9914 0.175279 45.2658 0.223617C47.101 0.296125 45.8096 0.453223 45.4697 0.580111L45.3168 0.625435L45.5207 0.589183C48.0016 0.845981 49.6838 0.670753 50.8052 0.238729C51.7909 0.467471 53.1688 0.632913 54.7304 0.710027C55.8349 0.595223 54.3226 0.407908 55.546 0.28102C58.2137 0.62241 61.2043 0.912442 64.8236 0.679814C64.5008 0.287065 64.5008 0.287065 67.3384 0.377699L67.8142 0.338423C67.8142 0.368634 67.6613 0.395827 67.5763 0.426038C67.3384 0.728153 65.7072 0.577091 64.9086 0.694916C65.0785 0.997031 66.6078 0.77045 67.2025 0.861084C69.0036 0.398849 72.538 0.818787 74.6959 0.368636C75.7325 0.154134 77.8564 0.489478 79.3517 0.619387C80.847 0.749296 81.8156 0.945673 82.7501 0.507606C83.2939 0.250809 84.2794 0.453227 85.061 0.546883C85.8427 0.640538 86.2165 0.812748 87.1341 0.664712C87.7798 0.558972 87.6268 0.268939 88.9522 0.341447C90.2776 0.413954 90.2096 0.643563 90.6514 0.824832C90.9063 0.912445 91.0422 1.00912 91.2801 1.12695C91.8069 0.867128 92.6055 0.682837 94.2877 0.710027L94.5256 0.746279L94.4236 0.637513C94.1518 0.525731 94.0328 0.305191 94.7805 0.377699C96.4073 0.554453 98.3549 0.612888 100.218 0.540844C101.169 0.507611 101.407 0.842952 102.648 0.761381C103.191 0.1783 103.191 0.178302 106.165 0.555946L105.927 0.592198L106.199 0.565009C107.507 0.625432 108.034 0.867125 109.02 0.990992C109.648 0.85504 109.241 0.719086 109.02 0.583135C108.663 0.323316 109.852 0.22362 110.719 0.30217C112.316 0.462291 114.253 0.380716 115.715 0.561985C117.176 0.743253 117.601 0.755344 117.754 0.416975C117.754 0.305193 118.688 0.335405 119.13 0.389786C120.166 0.519696 121.611 0.296131 122.715 0.616372C123.446 0.824831 123.905 0.26894 125.638 0.314257C126.827 0.338427 127.898 0.290081 127.949 0.580111C127.949 0.939627 129.648 0.821807 130.684 0.85806C130.95 0.851792 131.192 0.828078 131.364 0.791595C130.837 0.528755 130.362 0.326342 132.91 0.380723C134.61 0.416977 134.949 0.743254 136.309 0.770445C137.668 0.797635 136.445 0.447188 137.515 0.380723C138.586 0.314258 139.35 0.459267 140.183 0.534795C141.01 0.626425 141.945 0.682829 142.914 0.6996C143.884 0.71637 144.863 0.693055 145.773 0.631474L146.011 0.664712L145.841 0.619387C145.85 0.565456 145.932 0.512688 146.079 0.465564C146.227 0.418439 146.437 0.378356 146.69 0.348703C146.944 0.31905 147.234 0.300708 147.535 0.295237C147.837 0.289766 148.142 0.297323 148.424 0.317272C150.004 0.486457 151.381 0.353526 152.774 0.317272C154.167 0.281019 155.459 0.199452 156.02 0.586159C156.376 0.836914 157.515 0.652619 158.262 0.561985C158.205 0.519251 158.165 0.475836 158.144 0.432077C158.144 0.416972 158.33 0.401868 158.432 0.386762C158.551 0.349205 158.722 0.317576 158.927 0.294794C159.133 0.272013 159.368 0.258811 159.61 0.256403C159.852 0.253995 160.094 0.262462 160.313 0.28102C160.531 0.299578 160.72 0.327634 160.862 0.362597C161.31 0.453914 161.902 0.519175 162.561 0.549907L162.782 0.51063L162.918 0.534795L162.68 0.571048C163.816 0.656621 164.912 0.757625 165.96 0.873162C168.152 1.15111 168.118 0.812745 168.56 0.595222L168.73 0.549907L168.509 0.586159C168.084 0.643561 167.574 0.758364 167.234 0.746279C166.572 0.719089 166.741 0.586156 166.996 0.507606C167.155 0.437545 167.45 0.379879 167.827 0.344987C168.204 0.310095 168.638 0.300266 169.052 0.317272C170.48 0.395822 170.888 0.667724 171.244 0.882226ZM15.8187 0.540844V0.492504L15.6828 0.53178L15.8187 0.540844ZM71.1956 1.00005L71.0936 0.939628C70.9917 0.939628 70.8388 0.939636 70.7708 0.966826C70.7028 0.994017 70.5839 1.04236 70.9407 1.04236C71.0257 1.03933 71.1106 1.00005 71.1956 1.00005ZM84.3304 0.981929C84.0755 0.942654 83.8546 0.957761 83.7867 1.0212C83.7867 1.0212 83.9056 1.06954 83.9566 1.06652C84.0819 1.06326 84.1996 1.05385 84.2964 1.03933C84.3134 1.01818 84.3814 1.00005 84.3304 0.978904V0.981929ZM110.855 0.71909H110.651V0.76743L110.855 0.71909ZM140.132 0.915463C140.132 0.891294 140.132 0.864103 140.132 0.848997C140.103 0.838106 140.058 0.828903 140 0.822453C139.943 0.816004 139.877 0.812579 139.809 0.812579C139.741 0.812579 139.675 0.816004 139.618 0.822453C139.561 0.828903 139.515 0.838106 139.486 0.848997C139.458 0.858813 139.443 0.86969 139.443 0.880723C139.443 0.891755 139.458 0.902623 139.486 0.912439C139.673 0.960777 139.911 0.954735 140.132 0.912439V0.915463ZM148.628 1.19945L148.441 1.16924L148.271 1.20549L148.628 1.19945ZM152.893 0.6496H152.689V0.694916L152.893 0.6496ZM158.619 0.435102L158.347 0.395825C158.369 0.42702 158.414 0.457526 158.483 0.486456L158.619 0.435102Z" fill="#FF7A7A"/>
<path d="M257.547 0.377621C257.547 0.607228 258.159 0.93351 255.525 0.942574C252.217 0.91944 248.904 0.929528 245.602 0.972787C242.305 1.05134 238.975 1.04832 235.661 1.09666C234.274 1.12502 232.869 1.10239 231.532 1.03019C230.628 0.968269 229.662 0.939299 228.693 0.945008C227.724 0.950717 226.771 0.990983 225.891 1.06342C223.597 1.24167 220.929 1.12082 218.551 1.11478C208.967 1.09968 199.401 1.27792 189.817 1.18729C188.564 1.18501 187.314 1.21038 186.096 1.26281C184.618 1.31417 183.02 1.3746 181.865 1.10572L182.731 0.978826L182.884 0.936535L182.63 0.9607L181.814 1.09363C181.202 1.17822 180.981 1.39575 179.911 1.31115C178.174 1.23934 176.406 1.19287 174.626 1.17218C173.879 1.14197 172.842 1.22052 172.621 1.01508C172.419 0.909821 172.359 0.797632 172.444 0.687471C172.53 0.577309 172.759 0.472237 173.114 0.380645C173.223 0.355359 173.37 0.335959 173.537 0.324607C173.705 0.313254 173.887 0.310395 174.063 0.316346C174.239 0.322296 174.403 0.336818 174.535 0.358305C174.667 0.379792 174.764 0.407403 174.813 0.438047C175.408 0.679739 176.801 0.555866 177.719 0.649522L177.957 0.676711L177.787 0.637435C177.894 0.564793 178.107 0.498527 178.406 0.445432C178.705 0.392337 179.077 0.354328 179.486 0.33532C180.387 0.290003 181.185 0.271877 180.845 0.525654C180.506 0.77943 181.457 0.685777 181.984 0.622333C184.244 0.35043 184.227 0.347411 185.586 0.794541C187.285 0.510553 188.985 0.129887 191.771 0.350431C192.468 0.404812 191.414 0.540759 191.533 0.694837C194.439 0.483357 197.226 0.223543 200.437 0.283966L201.032 0.241665C200.93 0.274898 200.845 0.308129 200.743 0.344383C201.678 0.697857 201.949 0.719013 202.561 0.465236C203.173 0.21146 203.853 0.214482 204.617 0.371582C204.998 0.457604 205.508 0.522589 206.089 0.558965C206.67 0.595341 207.297 0.601606 207.897 0.577017C208.389 0.577017 209.12 0.631396 209.103 0.480339C209.103 0.253752 209.868 0.126864 210.802 0.178224C212.705 0.256774 215.067 0.00299372 216.512 0.410849L216.274 0.450125L216.529 0.413873C218.126 0.362513 218.856 0.685777 220.641 0.688798C220.556 0.528678 218.941 0.43502 219.774 0.280942C220.607 0.126863 221.252 0.280941 221.864 0.374596C222.476 0.468252 222.951 0.583058 223.563 0.471275C224.991 0.241668 226.214 0.114784 227.743 0.456173C228.168 0.55285 228.559 0.389707 228.984 0.341368C230.405 0.178072 232.097 0.106383 233.78 0.138274C235.462 0.170165 237.032 0.303701 238.227 0.516591H236.664L236.426 0.489402L236.596 0.528678C236.692 0.552985 236.819 0.572837 236.967 0.586542C237.115 0.600247 237.279 0.607397 237.446 0.607397C237.612 0.607397 237.777 0.600247 237.925 0.586542C238.073 0.572837 238.2 0.552985 238.295 0.528678L238.618 0.489402C242.22 0.0483139 242.441 0.0513351 245.024 0.56493L245.245 0.601183L245.075 0.555867C245.075 0.368556 244.344 0.0332104 246.774 0.283966C247.471 0.356473 248.321 0.661609 249.17 0.302092C249.17 0.302092 248.983 0.265834 249 0.250728C249.017 0.235623 249.221 0.211453 249.425 0.250728C249.995 0.17777 250.666 0.133635 251.366 0.122997C252.066 0.112359 252.769 0.135619 253.401 0.190311C253.979 0.244692 254.404 0.353447 255.219 0.250728C256.035 0.148009 257.547 0.0634211 257.547 0.377621ZM212.128 0.580032C212.016 0.570778 211.894 0.565644 211.771 0.56493C211.312 0.56493 211.278 0.598163 211.771 0.631396C211.891 0.640126 212.025 0.640126 212.145 0.631396C212.145 0.631396 212.094 0.595138 212.111 0.580032H212.128ZM231.566 0.561906C231.566 0.5468 231.43 0.525657 231.346 0.519615C231.261 0.513573 231.04 0.519615 230.972 0.519615C230.904 0.519615 230.819 0.580032 231.21 0.580032C231.327 0.576917 231.442 0.570813 231.549 0.561906H231.566Z" fill="#FF7A7A"/>
<path d="M343 0.534781C342.796 0.773452 341.709 0.749282 340.774 0.779494C333.552 1.00306 326.28 0.879197 319.041 0.803668C313.655 0.749287 308.2 0.888256 302.848 0.685839C297.275 1.15714 291.344 0.719078 285.567 0.891284C280.469 1.03932 275.253 0.90639 270.087 0.891284C268.694 0.504577 267.691 0.873156 266.434 0.927536C264.378 1.0121 262.231 0.993264 260.232 0.873149C257.904 0.734176 258.822 0.41394 258.907 0.132973C260.861 0.0332749 261.269 0.435082 262.764 0.486442L263.376 0.571034C263.63 0.468315 262.934 0.51666 262.866 0.465301C262.866 0.329349 263.002 0.196417 263.834 0.199438C265.686 0.199438 267.59 -0.0331914 269.374 0.235691L270.325 0.377685C270.988 0.507594 272.024 0.492491 272.823 0.549893L273.027 0.577082L272.908 0.534781C272.159 0.43945 271.278 0.382029 270.359 0.368622C270.53 0.30408 270.781 0.247279 271.094 0.202509C271.406 0.157738 271.772 0.126163 272.163 0.110163C272.554 0.0941632 272.96 0.0941573 273.351 0.110145C273.742 0.126132 274.108 0.157693 274.42 0.202453C275.423 0.371638 275.525 0.447166 276.646 0.202453C277.768 -0.0422596 278.006 0.335388 278.719 0.413937C278.909 0.444767 279.121 0.471166 279.348 0.49249C279.654 0.513638 280.028 0.555929 280.266 0.468316L279.535 0.429039L278.787 0.398835C278.906 0.132974 279.926 0.0574456 281.149 0.0967205C285.431 0.271947 289.764 0.132974 294.029 0.0967205C309.118 0.00608609 324.173 0.184328 339.245 0.232667C339.962 0.224432 340.68 0.247684 341.334 0.300368C341.989 0.353051 342.561 0.433549 343 0.534781ZM283.851 0.510616H283.579L283.817 0.531767L283.851 0.510616ZM292.959 0.543844L292.177 0.495505L291.973 0.456238L292.109 0.504568C292.398 0.516653 292.534 0.634479 292.959 0.543844Z" fill="#FF7A7A"/>
<path d="M20.1866 0.0936507C20.1866 0.03927 19.9147 0.0241632 19.6259 0.0453112L19.269 0.154077C19.4729 0.172204 19.7448 0.208456 19.8808 0.199393C19.9754 0.187369 20.0525 0.171501 20.1057 0.153109C20.1589 0.134718 20.1866 0.114332 20.1866 0.0936507Z" fill="#FF7A7A"/>
<path d="M142.801 0.528663C142.801 0.489388 143.056 0.441045 142.988 0.410834C142.921 0.393822 142.832 0.379977 142.728 0.370497C142.625 0.361017 142.509 0.356194 142.393 0.356455C142.104 0.356455 142.002 0.41688 142.206 0.462197C142.382 0.490159 142.583 0.512632 142.801 0.528663Z" fill="#FF7A7A"/>
<path d="M27.7968 1.58612L27.8474 1.53174L27.5098 1.54987L27.7968 1.58612Z" fill="#FF7A7A"/>
<path d="M58.9961 0.314159C59.183 0.377603 59.3529 0.383638 59.4209 0.3353C59.4889 0.286961 59.251 0.30509 59.149 0.289984C59.0471 0.274879 58.8262 0.226541 58.7752 0.271858C58.7242 0.317176 58.9281 0.299053 58.9961 0.314159Z" fill="#FF7A7A"/>
</g>
<defs>
<clipPath id="clip0_1212_18936">
<rect width="343" height="2" fill="white"/>
</clipPath>
</defs>
</svg>
