<svg width="56" height="60" viewBox="0 0 56 60" fill="none" xmlns="http://www.w3.org/2000/svg">
<path d="M8.23332 60C6.75247 59.9969 5.29921 59.5992 4.02315 58.8478C2.79897 58.1477 1.78191 57.136 1.0753 55.9155C0.368686 54.6951 -0.00230619 53.3093 1.07866e-05 51.8991V8.10161C-0.00230619 6.69136 0.368686 5.30562 1.0753 4.08516C1.78191 2.86471 2.79897 1.85302 4.02315 1.15288C5.27969 0.409097 6.71081 0.0113993 8.17094 0.000241428C9.63107 -0.0109164 11.0681 0.364864 12.3359 1.08936L51.1556 22.9907C52.4076 23.6843 53.4511 24.7004 54.1776 25.9335C54.9042 27.1666 55.2874 28.5717 55.2874 30.003C55.2874 31.4342 54.9042 32.8394 54.1776 34.0725C53.4511 35.3056 52.4076 36.3217 51.1556 37.0152L12.3359 58.9166C11.0845 59.6251 9.67133 59.9983 8.23332 60ZM8.23332 3.535C7.37856 3.53601 6.53963 3.76569 5.80356 4.20023C5.11378 4.59184 4.53997 5.15911 4.14048 5.84436C3.74098 6.52961 3.53003 7.30841 3.52908 8.10161V51.9044C3.53003 52.6976 3.74098 53.4764 4.14048 54.1616C4.53997 54.8469 5.11378 55.4141 5.80356 55.8058C6.52914 56.2349 7.35537 56.4644 8.19834 56.4709C9.0413 56.4774 9.87097 56.2607 10.6031 55.8428L49.4228 33.9414C50.1306 33.5557 50.7213 32.9863 51.1329 32.2933C51.5445 31.6002 51.7617 30.809 51.7617 30.003C51.7617 29.1969 51.5445 28.4058 51.1329 27.7127C50.7213 27.0197 50.1306 26.4503 49.4228 26.0646L10.6031 4.16317C9.88038 3.75336 9.06414 3.53699 8.23332 3.535Z" fill="white" fill-opacity="0.6"/>
</svg>
