<svg width="24" height="24" viewBox="0 0 24 24" fill="none" xmlns="http://www.w3.org/2000/svg">
<path fill-rule="evenodd" clip-rule="evenodd" d="M12 24C18.6274 24 24 18.6274 24 12C24 5.37258 18.6274 0 12 0C5.37258 0 0 5.37258 0 12C0 18.6274 5.37258 24 12 24ZM13 4.66661C13 4.11432 12.5523 3.66661 12 3.66661C11.4477 3.66661 11 4.11432 11 4.66661V11.7499C11 12.4403 11.5596 12.9999 12.25 12.9999H16.6667C17.219 12.9999 17.6667 12.5522 17.6667 11.9999C17.6667 11.4477 17.219 10.9999 16.6667 10.9999H13V4.66661Z" fill="white" fill-opacity="0.5"/>
</svg>
