<svg width="35" height="17" viewBox="0 0 35 17" fill="none" xmlns="http://www.w3.org/2000/svg">
<path d="M0 16.6858C0.571832 15.8415 1.4728 15.1554 2.57706 14.7232L8.02446 12.5193L13.3671 10.1545C15.2108 9.38235 16.9707 8.54584 18.7516 7.64497C20.5325 6.74411 22.3553 6.03631 24.1362 5.15154C25.9171 4.26676 27.4884 3.38193 29.1645 2.48107C30.8407 1.5802 32.2234 0.8724 33.7948 0.0841456C33.9415 0.0287779 34.1028 0 34.2662 0C34.4297 0 34.591 0.0287779 34.7376 0.0841456C35.1567 0.309361 35.01 0.679339 34.7376 0.968901C34.4586 1.23652 34.1344 1.47454 33.7738 1.67673C31.6787 2.96367 29.395 4.18635 27.1531 5.37677C24.9113 6.5672 22.6276 7.77367 20.281 8.85149C17.1383 10.3476 13.9956 11.7632 10.7481 13.1788C7.56175 14.6272 4.1923 15.8238 0.691436 16.7501C0.458422 16.7503 0.226211 16.7287 0 16.6858Z" fill="white"/>
</svg>
