<svg width="89" height="86" viewBox="0 0 89 86" fill="none" xmlns="http://www.w3.org/2000/svg">
<g clip-path="url(#clip0_1212_21295)">
<path d="M0.0508569 49.8742C0.0330581 49.7803 0.0152561 49.6839 0 49.5899C0.0152561 49.6839 0.0330581 49.7803 0.0508569 49.8742Z" fill="white"/>
<path d="M37.4441 1.45204C37.7135 1.41143 37.9854 1.39366 38.2523 1.37589L39.0328 1.32004C38.6123 1.4495 38.1793 1.55612 37.7412 1.66274C37.3031 1.76936 36.86 1.89629 36.4068 2.00036C36.1827 2.05367 35.9536 2.09429 35.727 2.15267L35.0422 2.32529C34.5864 2.44207 34.1207 2.53599 33.6599 2.65784L32.9625 2.85077C32.7409 2.87869 32.5118 2.91423 32.2777 2.95992C31.9143 3.02647 31.556 3.11807 31.2051 3.23409C30.4401 3.47435 29.6901 3.76087 28.9593 4.0921C28.5816 4.25964 28.2039 4.42465 27.8237 4.59981C27.4436 4.77496 27.0684 4.96281 26.7134 5.13543L26.162 5.38929C25.9782 5.47052 25.802 5.56191 25.6257 5.64314C25.2707 5.80814 24.9183 5.95538 24.5708 6.08484C26.8501 4.70002 29.2841 3.59227 31.8219 2.78477C33.5522 2.23556 35.3191 1.8114 37.1092 1.51551L37.4441 1.45204Z" fill="white"/>
<path d="M36.4646 0.162465C36.7668 0.104079 37.0689 0.0507704 37.371 0H37.4692C37.1721 0.0507704 36.875 0.106618 36.5779 0.162465C36.1147 0.251313 35.6539 0.347776 35.1932 0.446778C35.6967 0.345237 36.1575 0.251313 36.6258 0.162465H37.2779C36.0366 0.396009 34.3396 0.685401 32.7686 1.04841C33.9897 0.690479 35.2486 0.396009 36.4646 0.162465Z" fill="white"/>
<path d="M75.797 19.0313C76.3006 19.6787 76.716 20.3767 77.1642 21.0621C77.2951 21.1383 77.3052 20.9936 77.353 20.9454C77.5292 21.2602 77.6677 21.6029 77.8163 21.9354L78.2594 22.9508C78.5641 23.5271 78.8486 24.1185 79.1431 24.7075C79.4377 25.2964 79.6719 25.9183 79.9362 26.525C80.1099 26.7789 80.2635 27.0658 80.4549 27.3247C80.4351 27.5572 80.4478 27.7913 80.4927 28.0202C80.5732 28.2538 80.6689 28.4822 80.7444 28.7209L80.8124 28.9442L80.6412 28.6066C80.5581 28.269 80.4725 27.9365 80.3894 27.609C80.1641 27.4018 79.9737 27.1592 79.8254 26.8906C79.6819 26.5428 79.5208 26.2103 79.3672 25.8752C79.2136 25.5401 79.0575 25.2202 78.8914 24.908C79.2136 25.5883 79.5158 26.2737 79.7977 26.9566C79.7474 26.8677 79.6996 26.7789 79.6492 26.7027C78.8045 25.1696 77.88 23.6825 76.8797 22.2476C75.0783 19.5554 72.9709 17.0847 70.6004 14.8859C68.2061 12.6906 65.6228 10.7146 62.8809 8.98134L62.6291 8.81887L62.3774 8.66402L61.8738 8.35686L60.8667 7.74C60.1768 7.36176 59.4996 6.97844 58.8173 6.59767L57.79 6.0595C57.4501 5.8818 57.1127 5.69395 56.7678 5.53403L55.7607 5.02632L55.6902 4.99078L55.9923 5.09486L56.3423 5.21163L56.6872 5.34617L57.3771 5.61526L58.0619 5.88434C58.291 5.97573 58.5126 6.08235 58.7367 6.18135C60.5312 6.95892 62.2686 7.86407 63.9359 8.88995C62.1466 7.58101 60.2074 6.49431 58.1601 5.65334L56.9012 5.23194C56.6923 5.1634 56.4858 5.08725 56.2768 5.02632L55.6424 4.84609L54.9575 4.65316L54.6881 4.52623L53.7943 4.11245L54.6126 4.346C54.819 4.40692 55.0255 4.45769 55.2244 4.52623L55.8262 4.72677C56.1711 4.82578 56.5185 4.92732 56.871 5.03394C57.2235 5.14056 57.5684 5.28779 57.9235 5.42487C58.2282 5.49311 58.541 5.51704 58.8525 5.49595C59.2856 5.7498 59.7161 6.00365 60.1668 6.24227C60.3959 6.36158 60.62 6.49612 60.8516 6.64082C61.0832 6.78552 61.3275 6.91752 61.5818 7.05967C61.763 7.09014 62.1105 7.23737 62.4705 7.31353C62.6276 7.49332 62.7957 7.6629 62.9741 7.82123L63.4499 8.07508L63.6866 8.20455C63.7672 8.2477 63.8427 8.29593 63.9182 8.34416C64.2279 8.52948 64.5351 8.71479 64.8397 8.90264L65.3005 9.17934L65.7461 9.47634L66.6324 10.0704V10.0501C66.9396 10.2277 67.2316 10.4588 67.5438 10.6847C67.856 10.9106 68.1758 11.1467 68.4905 11.398L69.4221 12.1824L69.8879 12.5733L70.331 12.9795C70.6256 13.246 70.9176 13.505 71.2021 13.7411C71.4086 13.9238 71.6024 14.1066 71.7963 14.2767L72.3754 14.9265C72.4711 15.0382 72.5743 15.1423 72.6675 15.2591L72.9469 15.6043C72.9474 15.5011 72.984 15.4013 73.0502 15.3226C72.9482 15.2579 72.8537 15.1821 72.7682 15.0966C72.6952 15.0332 72.6246 14.9646 72.5516 14.8935L72.743 15.0382C72.9473 15.201 73.1636 15.3478 73.39 15.4774C73.6611 16.0332 73.9646 16.5723 74.299 17.0919L75.0543 18.0337C75.3237 18.3713 75.5578 18.714 75.797 19.0313Z" fill="white"/>
<path d="M37.6278 0.00513491C37.306 0.125105 36.9635 0.178627 36.6207 0.162522L36.9606 0.0990589C37.1897 0.0635196 37.4088 0.0330586 37.6278 0.00513491Z" fill="white"/>
<path d="M40.6318 2.34311H41.0573L40.4303 2.38119C40.4967 2.3646 40.5639 2.35188 40.6318 2.34311Z" fill="white"/>
<path d="M72.4059 67.4028C71.9628 67.8064 71.5197 68.1999 71.074 68.5756C71.3913 68.3218 71.6959 68.0298 72.0056 67.7582L72.4059 67.4028Z" fill="white"/>
<path d="M57.8506 80.4304L57.0651 80.664C56.8728 80.7962 56.6429 80.8613 56.4105 80.8493C55.8012 80.9991 55.2095 81.1387 54.6632 81.2504C54.1717 81.3355 53.6757 81.3906 53.1777 81.4154L52.5608 81.4433L51.9515 81.4611C51.5462 81.4763 51.1458 81.5017 50.748 81.5322L48.399 81.654L47.2509 81.6743C46.8707 81.6743 46.4955 81.6896 46.1229 81.6743C45.7503 81.6591 45.3827 81.6312 45.0201 81.5982C44.8389 81.5829 44.6576 81.5652 44.4788 81.5449C44.3 81.5246 44.1213 81.489 43.945 81.456C43.2829 81.3468 43.4591 81.2809 43.8091 81.2326L43.2653 81.1844L42.4495 81.1996C42.1776 81.1996 41.9057 81.1768 41.6312 81.1615C41.3568 81.1463 41.0849 81.1235 40.8104 81.0981C40.536 81.0727 40.2591 81.0422 39.9871 80.9889C39.3804 80.862 38.7736 80.7351 38.1743 80.6081L36.3918 80.1411C36.1576 80.0928 35.931 80.0192 35.7019 79.9583L36.0494 80.0446C33.0773 79.161 30.2075 77.9594 27.489 76.4602L26.2653 75.8484L25.0694 75.1783L24.4702 74.8432C24.2738 74.7289 24.0824 74.5893 23.8861 74.4827L22.7229 73.7541C25.432 75.7088 28.4684 77.3208 31.5048 78.7043C30.971 78.5418 30.4222 78.3768 29.8708 78.1966C29.3194 78.0163 28.7781 77.7752 28.2216 77.5518C27.9397 77.4426 27.6677 77.3157 27.3933 77.1837L26.5675 76.7877C26.293 76.6506 26.011 76.5338 25.7442 76.3739L24.936 75.9144C25.2784 76.1226 25.6208 76.3358 25.9708 76.5364L27.0358 77.1101L27.5721 77.3944L27.8389 77.5391L28.1134 77.6685L29.2111 78.1889C29.7499 78.4936 30.3114 78.755 30.82 79.0165C31.3285 79.278 31.7893 79.547 32.1695 79.7628C31.7943 79.6257 31.4469 79.4658 31.107 79.3237C30.7671 79.1815 30.4398 79.0444 30.12 78.92C29.9614 78.854 29.8003 78.7982 29.6467 78.7322L29.191 78.5392C28.8888 78.4149 28.5918 78.2854 28.2972 78.1889C30.046 79.0699 31.8452 79.8455 33.6852 80.5117C33.3478 80.4254 33.0104 80.2934 32.6554 80.169C32.3004 80.0446 31.9001 79.8999 31.5224 79.7476L30.3819 79.2399L29.8129 78.986L29.259 78.7169C28.8939 78.5418 28.5338 78.3742 28.1839 78.2092C27.9321 78.095 27.698 77.9782 27.4663 77.8691L27.4437 77.8615C27.7282 77.9655 28.0152 78.062 28.3047 78.1712C26.8931 77.457 25.5243 76.6844 24.1983 75.8535L23.1735 75.1503C22.8387 74.9092 22.5139 74.6426 22.184 74.3888C21.5118 73.9014 20.895 73.3404 20.258 72.8022C20.1069 72.7616 20.1421 72.9063 20.1094 72.9672C19.8451 72.7134 19.6059 72.4138 19.3541 72.132L18.629 71.2791C18.1632 70.8018 17.7125 70.3043 17.2518 69.8169C16.791 69.3295 16.3856 68.7837 15.9501 68.2659C15.8267 68.1618 15.6983 68.0501 15.5875 67.9435C15.4767 67.8369 15.3357 67.7302 15.2149 67.6312C15.1909 67.5155 15.1581 67.4017 15.1167 67.2911C15.2476 67.4358 15.3685 67.5805 15.5145 67.7226C17.6785 70.0058 20.0993 72.0266 22.7279 73.744C20.8676 72.4049 19.1655 70.8557 17.6546 69.1264C20.591 72.0049 23.9009 74.4685 27.494 76.4501C29.4706 77.4253 31.5134 78.2575 33.6071 78.9403C33.8589 79.0266 34.1107 79.1257 34.3876 79.1942L35.1782 79.4252C35.7069 79.5724 36.2256 79.7451 36.7619 79.8644L38.3556 80.2578L39.9594 80.5828C39.5347 80.6073 39.1086 80.5971 38.6855 80.5523L39.826 80.7427C40.0148 80.7731 40.2037 80.8112 40.395 80.8366L40.9691 80.9102L42.1121 81.0575L42.3992 81.0955L42.6862 81.1184L43.2602 81.1692C43.7336 81.1539 44.2019 81.1514 44.6702 81.1133C44.499 81.1565 44.0936 81.1768 43.8041 81.2174C48.5425 81.6032 53.3237 81.3494 57.7852 80.2934C57.5439 80.3498 57.3178 80.459 57.123 80.6132L57.8456 80.4254C58.4927 80.2502 59.1271 80.0192 59.7465 79.8339C59.1291 80.0771 58.4956 80.2764 57.8506 80.4304Z" fill="white"/>
<path d="M10.5169 59.9624C10.4892 59.8608 10.464 59.7593 10.4112 59.5587L10.6982 60.1528C10.6337 60.0933 10.5732 60.0297 10.5169 59.9624Z" fill="white"/>
<path d="M10.5039 59.9471C10.4814 59.9212 10.4642 59.891 10.4536 59.8582C10.368 59.6907 10.2925 59.5206 10.2195 59.3505C10.3467 59.5319 10.4429 59.7336 10.5039 59.9471Z" fill="white"/>
<path d="M15.1066 64.6459C14.9706 64.4962 14.8246 64.3489 14.6861 64.1915L14.2631 63.6991L13.3441 62.6608L13.1402 62.4222C13.0521 62.2521 12.964 62.0846 12.8884 61.9145L12.2111 60.498C11.9946 60.0157 11.7957 59.5232 11.5943 59.0485C11.3929 58.5738 11.2217 58.0915 11.063 57.6371C11.1763 57.8097 11.2846 57.9874 11.3929 58.1702L11.5515 58.4418L11.7202 58.7134C11.9451 59.079 12.1599 59.4547 12.3647 59.8405L13.6664 62.1683L14.3462 63.331L14.5174 63.6204L14.7012 63.9021L15.0663 64.4581L15.4188 64.9835L15.1066 64.6459Z" fill="white"/>
<path d="M5.03564 56.5582L5.05869 56.6298V56.6145C5.05259 56.5951 5.04488 56.5763 5.03564 56.5582Z" fill="white"/>
<path d="M44.4109 77.6229L44.5972 77.6381C44.276 77.646 43.9563 77.6859 43.6429 77.7574C43.5699 77.7219 43.4919 77.694 43.4189 77.661L43.9677 77.6457C44.1138 77.6432 44.2623 77.6356 44.4109 77.6229Z" fill="white"/>
<path d="M43.9852 77.6076L43.3734 77.633L43.9852 77.6076Z" fill="white"/>
<path d="M38.2699 85.7513L37.4089 85.6243C37.1656 85.6595 36.9173 85.6234 36.6938 85.5202C36.5277 85.4949 36.364 85.4746 36.1903 85.4441L35.7169 85.3451C35.4047 85.2791 35.1026 85.2131 34.8156 85.1471C34.5286 85.0811 34.2516 85.0176 33.9998 84.9288C33.748 84.8399 33.5114 84.7587 33.2974 84.6749C32.892 84.5049 32.4841 84.3576 32.0838 84.2028C31.6835 84.0479 31.2857 83.8829 30.8904 83.7331L30.2937 83.5148C30.0973 83.4437 29.906 83.3574 29.7121 83.2813L28.5564 82.8243C28.1712 82.6847 27.8011 82.502 27.436 82.3395C27.0709 82.177 26.7059 82.0069 26.3458 81.8318C25.6459 81.4612 24.9661 81.0702 24.3316 80.659C23.7425 80.2554 23.9389 80.2757 24.2939 80.4051L23.7903 80.1107L23.0022 79.7477L22.607 79.5598L22.2268 79.3491C21.7232 79.0623 21.2197 78.7627 20.7161 78.4352L19.145 77.2396C18.6415 76.8309 18.1379 76.3968 17.6344 75.9703L17.3398 75.7317C17.2416 75.6505 17.1485 75.5642 17.0528 75.4779C17.151 75.5591 17.2492 75.6429 17.3474 75.7317C14.8953 73.5126 12.707 71.0141 10.8264 68.2862C10.5368 67.8978 10.2372 67.5247 9.95271 67.116L9.13443 65.9051C8.99848 65.702 8.85747 65.504 8.72906 65.2959L8.34888 64.6689L8.07697 64.2195C8.35644 64.6308 8.63842 65.0369 8.91538 65.4431C9.06392 65.6538 9.20241 65.8746 9.36102 66.0777L9.52216 66.291C9.64805 66.4991 9.77395 66.7047 9.90487 66.9129C10.0358 67.1211 10.202 67.3749 10.3581 67.6034L10.8264 68.2862C13.6792 72.0192 17.0586 75.311 20.8571 78.057C20.4421 77.879 20.0406 77.6703 19.6561 77.4325L20.6633 78.1408C20.8269 78.2626 21.0006 78.3718 21.1668 78.4809L21.6855 78.8135L22.7203 79.4786L23.7802 80.098L24.4651 80.4026C24.6942 80.5041 24.9334 80.5854 25.165 80.6768C24.9888 80.6285 24.5708 80.4965 24.2813 80.3924C28.6301 82.8685 33.343 84.6287 38.2423 85.6066C37.9867 85.5507 37.7223 85.5507 37.4668 85.6066L38.2473 85.7462C38.9548 85.8274 39.6648 85.8985 40.3446 86C39.6648 85.9543 38.9598 85.8579 38.2699 85.7513Z" fill="white"/>
<path d="M57.4579 81.6693C57.4378 81.6389 57.4201 81.6084 57.4 81.5805C57.7298 81.4992 58.0597 81.4129 58.3895 81.3266L58.178 81.3926C57.9273 81.4537 57.6853 81.5467 57.4579 81.6693Z" fill="white"/>
<path d="M58.7948 81.2021C58.9333 81.1615 59.0717 81.126 59.2127 81.0828C59.0843 81.1361 58.9459 81.1996 58.7948 81.2732C58.7881 81.2626 58.7845 81.2503 58.7845 81.2377C58.7845 81.2251 58.7881 81.2127 58.7948 81.2021Z" fill="white"/>
<path d="M60.2125 80.7732C60.784 80.5879 61.3505 80.3873 61.917 80.1741C61.7806 80.2731 61.6346 80.3582 61.4814 80.4279C60.93 80.6132 60.57 80.6843 60.2125 80.7732Z" fill="white"/>
<path d="M63.8981 3.80011L64.671 4.16058C64.9105 4.19404 65.1348 4.29827 65.3156 4.46013C65.4616 4.52867 65.6127 4.59467 65.7537 4.66828L66.1716 4.89168C66.4461 5.04145 66.7129 5.18868 66.9647 5.33084C67.4197 5.58335 67.8519 5.87555 68.2563 6.20409C68.5912 6.47825 68.9336 6.7321 69.2634 6.99103C69.5933 7.24996 69.9231 7.5165 70.2554 7.76782L70.759 8.13844C70.9226 8.26283 71.0813 8.39229 71.2424 8.52176L72.1992 9.28331C72.5239 9.52447 72.816 9.79102 73.1181 10.0449C73.4203 10.2987 73.7148 10.5526 74.0044 10.8242C74.5608 11.3674 75.092 11.9183 75.5729 12.492C76.0135 13.0378 75.8247 12.9642 75.5327 12.7459L75.9204 13.1622L76.5624 13.7232L76.8822 14.01L77.1818 14.3147C77.5796 14.7259 77.9724 15.1473 78.3475 15.5839L79.4931 17.1476C79.8607 17.6782 80.2031 18.224 80.5556 18.7596L80.7671 19.0642C80.8376 19.1683 80.9005 19.2775 80.966 19.3815C80.898 19.28 80.83 19.1734 80.757 19.0718C82.4492 21.8379 83.8163 24.7932 84.8307 27.878C84.9969 28.3273 85.1706 28.7715 85.3343 29.2234L85.7699 30.5891C85.8404 30.8176 85.9184 31.0435 85.9839 31.2745L86.1677 31.9701C86.286 32.4321 86.4195 32.8966 86.5277 33.3612C85.8781 29.924 84.6948 26.5199 83.3226 23.3086C84.6206 25.4516 85.641 27.7533 86.359 30.1576L86.0116 28.9416L85.6037 27.7409L85.3972 27.1393C85.3293 26.9387 85.2588 26.7382 85.1757 26.5427L84.6998 25.3623L84.5412 24.9028L84.4632 24.6744L84.375 24.451C84.2592 24.1565 84.1459 23.8646 84.0402 23.5828C83.8312 23.0218 83.66 22.4912 83.5165 22.0597C83.6071 22.2475 83.7053 22.4278 83.7859 22.6105L84.0377 23.1487C84.1963 23.5016 84.3549 23.8366 84.511 24.1641C84.589 24.3291 84.6721 24.4865 84.7426 24.6439L84.9566 25.1186C85.1001 25.4283 85.2437 25.7304 85.3922 26.0248C84.3705 23.2864 83.0942 20.6515 81.5803 18.1554C81.8044 18.4905 82.0033 18.8485 82.2173 19.1988C82.4313 19.5491 82.6453 19.9019 82.8619 20.2548C83.0784 20.6077 83.2672 20.9783 83.4737 21.3438C83.6801 21.7094 83.8816 22.0724 84.0754 22.443C84.2693 22.8136 84.438 23.2046 84.6167 23.5752L84.8685 24.1413L84.9994 24.4256L85.1127 24.7175C85.2604 25.1034 85.4031 25.4909 85.5408 25.8802C85.6828 26.2639 85.803 26.6554 85.9008 27.053C85.8127 26.8829 85.7371 26.7103 85.649 26.5452C85.5609 26.3802 85.4753 26.2051 85.3972 26.0375C87.1912 30.821 88.1965 35.8683 88.3732 40.9793C88.4859 40.2292 88.5121 39.4685 88.4513 38.7124C88.4236 38.3037 88.3883 37.8823 88.3455 37.4558C88.3027 37.0293 88.2146 36.5978 88.1466 36.1637C87.8772 34.4197 87.4316 32.6707 87.2554 31.1044C88.0665 33.8271 88.5732 36.6327 88.766 39.4689C88.9664 42.3691 88.8821 45.2823 88.5142 48.1658C88.1438 51.0403 87.534 53.8782 86.6914 56.6496C86.2684 58.0508 85.795 59.4242 85.2814 60.7696L84.3096 62.1658L83.5693 63.1228C83.3176 63.4325 83.0935 63.7473 82.8342 64.0189C82.5748 64.2905 82.3306 64.557 82.099 64.7804C81.9806 64.8997 81.8623 65.0114 81.749 65.1181C81.6404 65.221 81.5261 65.3177 81.4066 65.4074C81.5123 65.1663 81.5904 64.8997 81.681 64.6586C81.5136 64.7545 81.3588 64.8714 81.2203 65.0064L81.1322 65.0825C81.3487 64.7297 81.5602 64.3717 81.7591 64.0113C81.5325 64.3937 81.2992 64.772 81.0591 65.146C80.9156 65.2704 80.7646 65.3998 80.6135 65.5572L79.979 66.169C79.8758 66.2655 79.7801 66.3645 79.6819 66.4482C79.5837 66.532 79.4906 66.6082 79.405 66.6767C79.6144 66.3201 79.8906 66.008 80.2182 65.7578L79.5787 66.3162L79.5963 66.2858C79.8254 65.9786 80.0848 65.641 80.3668 65.2881L80.825 64.7195L81.2782 64.1128L81.7415 63.4934C81.8976 63.2878 82.0537 63.0822 82.1921 62.8689L83.0129 61.6327C83.1464 61.4397 83.2647 61.2392 83.3629 61.0488C83.4611 60.8584 83.5719 60.6756 83.665 60.503C83.8488 60.1578 84.0024 59.8506 84.1082 59.5968C84.297 59.0764 84.3121 58.7794 84.0578 58.8352C83.8035 58.8911 83.4787 59.2363 83.0507 59.7592C82.8367 60.0131 82.6051 60.3329 82.3633 60.6807C82.245 60.8584 82.1116 61.0336 81.9706 61.2189L81.5501 61.7926C80.4071 63.369 78.9644 65.2374 77.5393 66.6031C77.7584 66.2375 77.995 65.8796 78.2443 65.5242C78.3727 65.3491 78.4961 65.1587 78.6119 64.9759C78.7277 64.7931 78.8637 64.6103 78.987 64.4276C79.1104 64.2448 79.2388 64.062 79.3798 63.8818C79.5208 63.7016 79.6316 63.5061 79.7625 63.3208C80.016 62.9451 80.2753 62.5702 80.5405 62.1962L81.2782 61.0361C81.399 60.8432 81.53 60.6528 81.6408 60.4548L81.9731 59.8608C82.1896 59.4622 82.4162 59.0738 82.6051 58.6728C82.7939 58.2717 82.9651 57.868 83.1287 57.472C82.6252 58.132 82.2198 58.4316 81.598 59.4089C81.4016 59.7161 81.2153 60.0283 81.0138 60.3304L80.3869 61.224C79.9841 61.8256 79.5183 62.3841 79.0752 62.9552C78.9719 63.1025 78.8813 63.2548 78.7755 63.3969L78.4684 63.8183C78.2669 64.0976 78.0655 64.3692 77.8591 64.6307L77.703 64.8236L77.5318 65.0013C77.4176 65.1214 77.2993 65.2357 77.1768 65.344C76.9327 65.5674 76.6689 65.7679 76.3887 65.9431C76.3031 66.0345 76.2099 66.1182 76.1193 66.1969C75.9682 66.4 75.8675 66.6386 75.7039 66.8316C75.3899 67.1248 75.0531 67.3922 74.6968 67.6312C74.3299 67.9037 74.0034 68.2277 73.7274 68.5933C73.6846 68.5654 73.6922 68.5044 73.7274 68.4283C73.4958 68.7456 72.9721 69.0578 72.7329 69.4437C72.6593 69.3744 72.564 69.3331 72.4635 69.3269C72.3276 69.431 72.1966 69.5402 72.0556 69.6392L71.6352 69.9336L70.7942 70.5251C70.6558 70.6266 70.5097 70.7155 70.3637 70.8069L69.9306 71.0836C69.6386 71.2663 69.3541 71.4542 69.0595 71.6344L68.1632 72.1421C67.8636 72.3122 67.5715 72.495 67.2593 72.6498L66.3403 73.1271C66.1842 73.2058 66.0357 73.2921 65.8771 73.3632L65.4037 73.584L64.2909 74.1069L63.737 74.338L64.7164 73.8303C65.1746 73.5916 65.6177 73.3226 66.0659 73.0687L66.7356 72.6905L67.3852 72.2843L68.0348 71.8807C68.2488 71.7461 68.4678 71.6268 68.6743 71.4694L69.9332 70.6114C70.1421 70.4743 70.341 70.3195 70.5425 70.1672L71.1442 69.7128L71.746 69.2584C71.9398 69.101 72.1312 68.936 72.325 68.7761C72.7052 68.4511 73.0955 68.1389 73.4681 67.8038C74.955 66.4664 76.3302 65.0077 77.5796 63.4426C78.8158 61.8501 79.8959 60.1404 80.8049 58.3377L81.3562 57.0126C81.4469 56.7917 81.5451 56.5759 81.6307 56.3525L81.8824 55.6798C82.0436 55.2305 82.2224 54.7888 82.3684 54.3344L82.7989 52.9687C83.3501 51.1423 83.7576 49.275 84.0175 47.384C84.0729 47.1301 84.1308 46.8458 84.1887 46.5615C84.2466 46.2772 84.2768 45.9802 84.3222 45.6806C84.4027 45.0841 84.5034 44.4748 84.5286 43.8859C84.5538 43.2969 84.6117 42.7385 84.6092 42.2485C84.6092 42.1267 84.6092 42.0074 84.6092 41.8931L84.647 41.7814C84.6797 41.6748 84.7124 41.5733 84.7401 41.4794C84.8635 41.1062 84.9692 40.8676 85.0448 40.9437C85.1891 41.1629 85.3098 41.3969 85.4048 41.6418C85.503 41.912 85.5763 42.1907 85.6238 42.4745C85.7453 43.1493 85.7993 43.8348 85.785 44.5205C85.785 44.9038 85.785 45.3049 85.785 45.7263C85.785 46.1477 85.7371 46.5894 85.7094 47.0489C85.6994 47.279 85.6893 47.5151 85.6792 47.7571C85.6591 47.9957 85.6415 48.242 85.6213 48.4907C85.6012 48.7395 85.5886 48.9985 85.576 49.2523C85.5634 49.5062 85.5559 49.7829 85.5307 50.0519C85.4677 50.646 85.5533 50.4454 85.6792 50.0926L85.7774 49.8108C85.8076 49.7143 85.8379 49.6153 85.8681 49.529C85.9285 49.3564 85.9889 49.2269 86.0367 49.2244C86.1104 49.452 86.1602 49.6869 86.1853 49.925C86.1299 50.316 86.0594 50.7069 85.999 51.0978L85.8907 51.7832C85.858 52.0142 85.8026 52.2376 85.7598 52.4661L85.8555 52.1132C85.9486 51.6994 86.0065 51.2831 86.0745 50.8846C86.1173 50.5825 86.1652 50.288 86.1929 50.0012C86.2155 50.255 86.2256 50.5571 86.2281 50.8617C86.2306 51.1664 86.2281 51.5294 86.2281 51.8644C86.2281 52.1995 86.208 52.5245 86.2105 52.8291C86.4623 52.0472 86.6184 51.2476 86.8047 50.4505C86.9029 50.0519 86.9658 49.6483 87.0363 49.2447L87.2428 48.0313C87.2956 47.6251 87.3384 47.2189 87.3863 46.8103L87.4568 46.1985L87.4895 45.8938L87.5096 45.5841L87.5827 44.3555C87.5827 44.1499 87.6078 43.9468 87.6129 43.7412V43.1243C87.6502 39.8367 87.2918 36.5566 86.5453 33.3561C87.0001 35.7112 87.1692 38.1134 87.0489 40.5096L87.0287 39.71C87.0287 39.4562 86.9935 39.1795 86.9784 38.9155L86.9205 38.1158C86.8978 37.862 86.8928 37.5827 86.855 37.3187C86.7921 36.7907 86.7317 36.2602 86.6687 35.7296C86.6435 35.4605 86.5932 35.1991 86.5504 34.9351L86.4195 34.143L86.286 33.3485L86.1173 32.5615L85.9461 31.7721C85.8857 31.5182 85.8379 31.244 85.7623 30.9851L85.3393 29.4214C85.2764 29.1675 85.1883 28.9137 85.1052 28.6471L84.8534 27.8856C83.1935 23.5878 80.9203 19.5573 78.1058 15.9215C78.4474 16.2048 78.768 16.5128 79.0651 16.843L78.3098 15.8962C78.1864 15.7362 78.058 15.5839 77.922 15.4341L77.5267 14.9772L76.7387 14.0633L75.9128 13.1825L75.3539 12.7052C75.1651 12.5478 74.9636 12.4032 74.7698 12.2534C74.9234 12.3473 75.2733 12.5859 75.5251 12.7611C72.1248 9.21678 68.1854 6.24231 63.8553 3.94988C64.0816 4.07225 64.3316 4.1433 64.588 4.15804L63.8931 3.80773C63.251 3.53357 62.604 3.26956 61.9896 2.98779C62.6342 3.22894 63.2712 3.50564 63.8981 3.80011Z" fill="white"/>
<path d="M23.0122 4.95519C23.1179 4.86888 23.2262 4.78765 23.3319 4.70134C23.4377 4.61503 23.551 4.56426 23.6592 4.50333C24.0686 4.27442 24.4965 4.0808 24.9382 3.92455L25.2454 3.81539L25.5551 3.72654L26.1619 3.55392C26.5581 3.44107 26.9446 3.2959 27.3175 3.11984C27.7455 2.91337 28.1786 2.71706 28.6167 2.5309C28.5487 2.60198 28.5261 2.66544 28.5512 2.72129C26.4179 3.48455 24.3506 4.42359 22.3701 5.52889C22.573 5.32538 22.7874 5.13383 23.0122 4.95519Z" fill="white"/>
<path d="M10.8262 21.481C10.9974 21.1992 11.0981 21.1154 11.1258 21.1332C11.1535 21.1509 11.1258 21.2804 11.078 21.4505C11.1611 21.2931 11.2568 21.1408 11.3474 20.9834C11.5639 20.4985 11.7805 20.0035 12.0297 19.5238C12.279 19.044 12.5685 18.587 12.8681 18.1276L12.9965 17.9397L13.135 17.7595L13.4145 17.3965L13.9684 16.6755C14.0641 16.5562 14.1522 16.4217 14.2504 16.3176L14.5475 15.9749L15.1366 15.2895C15.2877 15.1118 15.4262 14.9214 15.5873 14.7513C15.5093 14.8377 15.4363 14.9316 15.3658 15.0255C15.4891 14.8783 15.6175 14.7437 15.761 14.6041L16.1614 14.1903C16.4282 13.9162 16.6901 13.6344 16.9645 13.3704L17.8055 12.5936C18.0874 12.3398 18.3619 12.0707 18.659 11.832L19.5377 11.1086C19.6837 10.9893 19.8272 10.8547 19.9783 10.7506L20.434 10.4155L21.3454 9.74792L21.572 9.58037L21.8087 9.42553L22.2795 9.11836C23.7265 8.06054 25.2478 7.11032 26.8316 6.27522L26.5522 6.39961L26.2802 6.53923L25.7339 6.821L25.185 7.10278C25.0037 7.19924 24.8174 7.28809 24.6412 7.39725L23.5737 8.0268C23.3974 8.13342 23.2161 8.23496 23.0424 8.34666L22.5237 8.68935L21.4864 9.37222C21.1491 9.61084 20.8167 9.85961 20.4793 10.1008C19.7995 10.5704 19.1676 11.0984 18.518 11.601C20.1133 9.87225 21.9364 8.37237 23.9362 7.1434L22.9291 7.75264C22.5942 7.9608 22.272 8.1918 21.9421 8.41266C21.6123 8.63351 21.2775 8.85182 20.9627 9.09298L20.011 9.81899L19.6359 10.0728L19.447 10.1998L19.2683 10.3343C19.0165 10.5145 18.7924 10.6897 18.5633 10.842C18.3342 10.9943 18.1126 11.1619 17.8986 11.304C17.6846 11.4462 17.4983 11.5858 17.312 11.6975C18.4928 10.6592 19.4999 9.82661 20.4265 8.99905C18.195 10.6044 16.1323 12.4358 14.2705 14.4645L14.6482 14.0329L15.0435 13.6115L15.8341 12.7535L16.033 12.5352L16.2394 12.3296L16.6574 11.9133L17.4983 11.0806C17.792 10.82 18.0883 10.5611 18.3871 10.3039L18.8352 9.92307L19.0618 9.73269L19.296 9.55753C19.6107 9.32652 19.9254 9.09805 20.2452 8.87974L20.7235 8.55735C20.8847 8.45327 21.0559 8.36442 21.2271 8.2705L20.8293 8.62843L20.434 8.99905C22.3938 7.58649 24.4731 6.35054 26.6478 5.30551C27.3025 4.98819 27.9671 4.69372 28.6343 4.41449C28.9491 4.36626 29.2311 4.34341 29.5332 4.30533C29.722 4.28249 29.9184 4.24187 30.145 4.20633C30.3997 4.15945 30.6518 4.09928 30.9003 4.02609L31.9956 3.71893L33.1034 3.46508L33.6548 3.33815C33.8386 3.29754 34.0224 3.25184 34.2087 3.22392L35.3215 3.03099C36.0491 2.83807 36.7466 2.69337 37.4289 2.57152C37.6001 2.5436 37.7713 2.51821 37.9324 2.4979C38.0936 2.4776 38.2748 2.4776 38.436 2.4776C38.5971 2.4776 38.7583 2.4776 38.9169 2.49029C37.7423 2.62307 36.5758 2.81967 35.4222 3.07923C32.4351 3.77022 29.548 4.8443 26.8316 6.27522C28.8527 5.30756 30.9934 4.6177 33.1965 4.2241L32.479 4.4221L32.1214 4.5211C32.0006 4.55664 31.8848 4.5998 31.7664 4.63534L30.3515 5.10496C29.8832 5.27505 29.4224 5.46036 28.9566 5.63806C28.4908 5.81575 28.0351 6.02137 27.5769 6.22445C26.6529 6.61031 25.7717 7.09009 24.8753 7.54956L23.5661 8.31112L23.2363 8.50151L22.919 8.70712L22.282 9.12344L21.6249 9.59814C21.4109 9.76315 21.2019 9.93831 20.9904 10.1058L20.361 10.6136L20.0437 10.8674C19.9405 10.9537 19.8423 11.0476 19.7416 11.1365L18.5331 12.2154L17.3825 13.3501C15.8793 14.887 14.49 16.533 13.2257 18.2748C13.3787 17.8848 13.5676 17.51 13.7896 17.1553L13.135 18.0844L12.5232 19.0414C12.0977 19.6685 11.7351 20.3335 11.3499 20.9834C11.1535 21.4048 11.005 21.8465 10.8464 22.2806C10.8841 22.113 11.0125 21.7323 11.0982 21.4505C8.84778 25.4958 7.27888 29.8896 6.4554 34.4528C6.47374 34.3095 6.47374 34.1645 6.4554 34.0212C6.44498 33.9231 6.42901 33.8256 6.40756 33.7293C6.36476 33.9679 6.33455 34.2116 6.30182 34.4579C6.27161 34.7853 6.23888 35.1153 6.20615 35.4403C6.18852 35.6027 6.16837 35.7652 6.15075 35.9251L6.11299 36.4075C6.11299 36.245 6.11299 36.0825 6.11299 35.9201C6.11299 35.7576 6.14571 35.5951 6.16585 35.4327C6.20362 35.1077 6.24642 34.7828 6.28922 34.4579L6.32699 34.0542C6.3421 33.9197 6.36225 33.7877 6.37987 33.6557C6.34173 33.4299 6.37337 33.1977 6.47051 32.9906C6.51583 32.6834 6.56114 32.3814 6.60142 32.0894C6.64171 31.7975 6.71976 31.5208 6.78019 31.2543C6.84061 30.9877 6.90608 30.7313 6.97154 30.4927C7.00427 30.3734 7.03449 30.2592 7.07226 30.15C7.11002 30.0408 7.15282 29.9368 7.1931 29.8378C7.50782 29.0762 7.75456 28.3273 8.04159 27.5962C8.18006 27.2282 8.30595 26.8601 8.43436 26.4971L8.8523 25.4258C9.36425 24.0416 10.0262 22.7186 10.8262 21.481Z" fill="white"/>
</g>
<defs>
<clipPath id="clip0_1212_21295">
<rect width="88.7216" height="85.8667" fill="white" transform="scale(1.00155)"/>
</clipPath>
</defs>
</svg>
